<?xml version="1.0" encoding="UTF-8"?>
<!DOCTYPE svg PUBLIC "-//W3C//DTD SVG 1.1//EN"
    "http://www.w3.org/Graphics/SVG/1.1/DTD/svg11.dtd">
<svg xmlns="http://www.w3.org/2000/svg" xmlns:xlink="http://www.w3.org/1999/xlink" version="1.1" width="300.0" height="149.99999999999991" font-size="1" viewBox="0 0 300 150"><g><g transform="matrix(136.363636363636,0.0,0.0,136.363636363636,150.0,74.99999999999997)"><g stroke="rgb(0,0,0)" stroke-opacity="1.0" fill-opacity="0.0" stroke-width="1.0e-2" font-size="1.0em"><path d="M -0.9999999999999991,0.4999999999999992 c 0.5260763745333457,-0.5611805842666443 1.2354097078666786,-0.9158472509333104 2.0000000000000013 -0.9999999999999992" /></g></g><g transform="matrix(136.363636363636,0.0,0.0,136.363636363636,150.0,74.99999999999997)"><g stroke="rgb(0,0,0)" stroke-opacity="1.0" fill-opacity="0.0" stroke-width="1.0e-2" font-size="1.0em"><path d="M -0.9999999999999979,0.5000000000000004 c 0.6017048539333386,-0.44992362546665604 1.2790381872666725,-0.7885902921333223 2.0000000000000004 -0.9999999999999998" /></g></g><g transform="matrix(136.363636363636,0.0,0.0,136.363636363636,150.0,74.99999999999997)"><g stroke="rgb(0,0,0)" stroke-opacity="1.0" fill-opacity="0.0" stroke-width="1.0e-2" font-size="1.0em"><path d="M -0.9999999999999987,0.5 l 2.0000000000000004,-0.9999999999999999 " /></g></g><g transform="matrix(136.363636363636,0.0,0.0,136.363636363636,150.0,74.99999999999997)"><g stroke="rgb(0,0,0)" stroke-opacity="1.0" fill-opacity="0.0" stroke-width="1.0e-2" font-size="1.0em"><path d="M -1.0000000000000027,0.500000000000001 c 0.720961812733329,-0.21140970786667745 1.3982951460666655,-0.5500763745333455 2.000000000000005 -1.000000000000002" /></g></g><g transform="matrix(136.363636363636,0.0,0.0,136.363636363636,150.0,74.99999999999997)"><g stroke="rgb(0,0,0)" stroke-opacity="1.0" fill-opacity="0.0" stroke-width="1.0e-2" font-size="1.0em"><path d="M -0.9999999999999994,0.5000000000000004 c 0.7645902921333227,-8.415274906668882e-2 1.4739236254666557,-0.4388194157333549 2.0000000000000013 -0.999999999999999" /></g></g></g></svg>