<?xml version="1.0" encoding="UTF-8"?>
<!DOCTYPE svg PUBLIC "-//W3C//DTD SVG 1.1//EN"
    "http://www.w3.org/Graphics/SVG/1.1/DTD/svg11.dtd">
<svg xmlns="http://www.w3.org/2000/svg" xmlns:xlink="http://www.w3.org/1999/xlink" version="1.1" width="200.00000000000003" height="319.99293820602855" font-size="1" viewBox="0 0 200 320"><g><g transform="matrix(145.44598570427718,0.0,0.0,145.44598570427718,100.00000000000001,159.9964691030143)"><g stroke="rgb(0,0,0)" stroke-opacity="1.0" fill="rgb(0,0,0)" fill-opacity="0.0" stroke-width="1.0e-2" font-size="1.0em"><path d="M -0.4999999999999997,1.6653345369377348e-16 c -0.2071067811865475,-0.27614237491539667 -0.15114237491539678,-0.6678932188134523 0.12499999999999989 -0.8749999999999998c 0.27614237491539667,-0.20710678118654752 0.6678932188134523,-0.15114237491539678 0.8749999999999998 0.12499999999999983c 0.1666666666666666,0.22222222222222207 0.16666666666666677,0.5277777777777777 1.1102230246251565e-16 0.7499999999999996" /></g></g><g transform="matrix(145.44598570427718,0.0,0.0,145.44598570427718,100.00000000000001,159.9964691030143)"><g stroke="rgb(0,0,0)" stroke-opacity="1.0" fill="rgb(0,0,0)" fill-opacity="0.0" stroke-width="1.0e-2" font-size="1.0em"><path d="M -0.4999999999999997,1.3877787807814457e-16 c -0.13461940777125575,-0.27614237491539667 -1.9892374915396527e-2,-0.6091305922287439 0.2562500000000001 -0.7437499999999996c 0.27614237491539667,-0.13461940777125578 0.6091305922287439,-1.9892374915396555e-2 0.7437499999999996 0.25625c 7.499999999999976e-2,0.15384615384615363 7.499999999999978e-2,0.33365384615384563 5.551115123125783e-17 0.48749999999999927" /></g></g><g transform="matrix(145.44598570427718,0.0,0.0,145.44598570427718,100.00000000000001,159.9964691030143)"><g stroke="rgb(0,0,0)" stroke-opacity="1.0" fill="rgb(0,0,0)" fill-opacity="0.0" stroke-width="1.0e-2" font-size="1.0em"><path d="M -0.4999999999999998,1.1102230246251565e-16 c -5.0626102067822656e-2,-0.2761423749153968 0.1321909584179367,-0.5410405645988439 0.4083333333333334 -0.5916666666666666c 0.2761423749153968,-5.062610206782267e-2 0.5410405645988439,0.1321909584179367 0.5916666666666665 0.40833333333333327c 1.1111111111111086e-2,6.0606060606060524e-2 1.1111111111111122e-2,0.12272727272727242 7.632783294297951e-17 0.18333333333333293" /></g></g><g transform="matrix(145.44598570427718,0.0,0.0,145.44598570427718,100.00000000000001,159.9964691030143)"><g stroke="rgb(0,0,0)" stroke-opacity="1.0" fill="rgb(0,0,0)" fill-opacity="0.0" stroke-width="1.0e-2" font-size="1.0em"><path d="M -0.4999999999999998,4.163336342344337e-17 c 4.346494866433987e-2,-0.1931775496192878 0.19432245038071166,-0.34403505133565965 0.38749999999999946 -0.3874999999999997c 0.27614237491539667,-6.213203435596449e-2 0.5503679656440358,0.11135762508460284 0.6125000000000004 0.3874999999999995" /></g></g><g transform="matrix(145.44598570427718,0.0,0.0,145.44598570427718,100.00000000000001,159.9964691030143)"><g stroke="rgb(0,0,0)" stroke-opacity="1.0" fill="rgb(0,0,0)" fill-opacity="0.0" stroke-width="1.0e-2" font-size="1.0em"><path d="M -0.4999999999999998,0.0 c 0.2800000000000002,-0.26666666666666616 0.7199999999999996,-0.2666666666666662 1.0 0.0" /></g></g><g transform="matrix(145.44598570427718,0.0,0.0,145.44598570427718,100.00000000000001,159.9964691030143)"><g stroke="rgb(0,0,0)" stroke-opacity="1.0" fill="rgb(0,0,0)" fill-opacity="0.0" stroke-width="1.0e-2" font-size="1.0em"><path d="M -0.4999999999999998,0.0 h 1.0 " /></g></g><g transform="matrix(145.44598570427718,0.0,0.0,145.44598570427718,100.00000000000001,159.9964691030143)"><g stroke="rgb(0,0,0)" stroke-opacity="1.0" fill="rgb(0,0,0)" fill-opacity="0.0" stroke-width="1.0e-2" font-size="1.0em"><path d="M -0.4999999999999998,0.0 c 0.27999999999999997,0.26666666666666683 0.7200000000000001,0.26666666666666683 1.0 -5.551115123125783e-17" /></g></g><g transform="matrix(145.44598570427718,0.0,0.0,145.44598570427718,100.00000000000001,159.9964691030143)"><g stroke="rgb(0,0,0)" stroke-opacity="1.0" fill="rgb(0,0,0)" fill-opacity="0.0" stroke-width="1.0e-2" font-size="1.0em"><path d="M -0.4999999999999998,5.551115123125783e-17 c 6.213203435596417e-2,0.2761423749153967 0.33635762508460304,0.4496320343559643 0.6124999999999997 0.3875000000000002c 0.19317754961928835,-4.34649486643398e-2 0.3440350513356605,-0.19432245038071194 0.3875000000000002 -0.38750000000000023" /></g></g><g transform="matrix(145.44598570427718,0.0,0.0,145.44598570427718,100.00000000000001,159.9964691030143)"><g stroke="rgb(0,0,0)" stroke-opacity="1.0" fill="rgb(0,0,0)" fill-opacity="0.0" stroke-width="1.0e-2" font-size="1.0em"><path d="M -0.4999999999999998,-1.1102230246251565e-16 c -1.111111111111104e-2,6.060606060606052e-2 -1.1111111111111014e-2,0.12272727272727241 6.245004513516506e-17 0.18333333333333293c 5.062610206782261e-2,0.2761423749153966 0.3155242917512697,0.45895943540115597 0.5916666666666665 0.4083333333333333c 0.27614237491539667,-5.0626102067822594e-2 0.4589594354011561,-0.3155242917512697 0.40833333333333344 -0.5916666666666665" /></g></g><g transform="matrix(145.44598570427718,0.0,0.0,145.44598570427718,100.00000000000001,159.9964691030143)"><g stroke="rgb(0,0,0)" stroke-opacity="1.0" fill="rgb(0,0,0)" fill-opacity="0.0" stroke-width="1.0e-2" font-size="1.0em"><path d="M -0.4999999999999998,-5.551115123125783e-17 c -7.49999999999997e-2,0.1538461538461537 -7.49999999999997e-2,0.33365384615384575 2.7755575615628914e-17 0.4874999999999995c 0.13461940777125583,0.2761423749153967 0.467607625084603,0.390869407771256 0.7437499999999997 0.2562500000000002c 0.2761423749153967,-0.13461940777125575 0.390869407771256,-0.46760762508460296 0.25625000000000026 -0.7437499999999997" /></g></g><g transform="matrix(145.44598570427718,0.0,0.0,145.44598570427718,100.00000000000001,159.9964691030143)"><g stroke="rgb(0,0,0)" stroke-opacity="1.0" fill="rgb(0,0,0)" fill-opacity="0.0" stroke-width="1.0e-2" font-size="1.0em"><path d="M -0.4999999999999997,-1.6653345369377348e-16 c -0.16666666666666666,0.222222222222222 -0.16666666666666669,0.5277777777777775 -2.220446049250313e-16 0.7499999999999997c 0.2071067811865473,0.2761423749153966 0.5988576250846028,0.3321067811865475 0.8749999999999998 0.12500000000000022c 0.2761423749153967,-0.20710678118654738 0.3321067811865477,-0.5988576250846029 0.12500000000000033 -0.8749999999999998" /></g></g></g></svg>