<?xml version="1.0" encoding="UTF-8"?>
<!DOCTYPE svg PUBLIC "-//W3C//DTD SVG 1.1//EN"
    "http://www.w3.org/Graphics/SVG/1.1/DTD/svg11.dtd">
<svg xmlns="http://www.w3.org/2000/svg" xmlns:xlink="http://www.w3.org/1999/xlink" version="1.1" width="84.860339985334" height="100.0" font-size="1" viewBox="0 0 85 100"><g><g transform="matrix(21.832407982400788,0.0,0.0,21.832407982400788,21.832407982400788,78.16759201759922)"><g stroke="rgb(0,0,0)" stroke-opacity="1.0" fill="rgb(128,0,128)" fill-opacity="1.0" stroke-width="1.0e-2" font-size="1.0em"><path d="M 2.8868978654915356,-2.0803467982373034 c 0.0,-0.8284271247461902 -0.6715728752538097,-1.5 -1.4999999999999996 -1.5c -0.8284271247461902,-5.072653133236334e-17 -1.5,0.6715728752538096 -1.5 1.4999999999999996c -1.0145306266472669e-16,0.8284271247461902 0.6715728752538095,1.5 1.4999999999999993 1.5c 0.8284271247461902,1.5217959399709003e-16 1.5,-0.6715728752538094 1.5000000000000002 -1.4999999999999996Z" /></g></g><g transform="matrix(21.832407982400788,0.0,0.0,21.832407982400788,21.832407982400788,78.16759201759922)"><g stroke="rgb(0,0,0)" stroke-opacity="1.0" fill="rgb(255,165,0)" fill-opacity="1.0" stroke-width="1.0e-2" font-size="1.0em"><path d="M 1.0,0.0 c 0.0,-0.5522847498307935 -0.44771525016920644,-1.0 -0.9999999999999998 -1.0c -0.5522847498307935,-3.3817687554908895e-17 -1.0,0.4477152501692064 -1.0 0.9999999999999997c -6.763537510981779e-17,0.5522847498307935 0.4477152501692063,1.0 0.9999999999999996 1.0c 0.5522847498307935,1.0145306266472669e-16 1.0,-0.44771525016920627 1.0000000000000002 -0.9999999999999997Z" /></g></g><g transform="matrix(21.832407982400788,0.0,0.0,21.832407982400788,21.832407982400788,78.16759201759922)"><g stroke="rgb(0,0,0)" stroke-opacity="1.0" fill="rgb(255,0,0)" fill-opacity="1.0" stroke-width="0.0" font-size="1.0em"><path d="M 9.160693596474608e-2,0.0 c 0.0,-5.05931137120553e-2 -4.101382225269076e-2,-9.160693596474608e-2 -9.160693596474606e-2 -9.160693596474608e-2c -5.05931137120553e-2,-3.0979347383183296e-18 -9.160693596474608e-2,4.1013822252690756e-2 -9.160693596474608e-2 9.160693596474605e-2c -6.195869476636659e-18,5.05931137120553e-2 4.1013822252690756e-2,9.160693596474608e-2 9.160693596474603e-2 9.160693596474608e-2c 5.05931137120553e-2,9.293804214954989e-18 9.160693596474608e-2,-4.101382225269075e-2 9.160693596474609e-2 -9.160693596474605e-2Z" /></g></g></g></svg>