<?xml version="1.0" encoding="UTF-8"?>
<!DOCTYPE svg PUBLIC "-//W3C//DTD SVG 1.1//EN"
    "http://www.w3.org/Graphics/SVG/1.1/DTD/svg11.dtd">
<svg xmlns="http://www.w3.org/2000/svg" xmlns:xlink="http://www.w3.org/1999/xlink" version="1.1" width="600.0" height="302.8587568898731" font-size="1" viewBox="0 0 600 303"><g><g transform="matrix(13.155574898915933,0.0,0.0,13.155574898915933,72.35566194403765,151.42937844493656)"><g stroke="rgb(0,128,0)" stroke-opacity="1.0" fill="rgb(0,0,0)" fill-opacity="0.0" stroke-width="0.1" font-size="1.0em"><path d="M 33.417476733497544,-1.6473872989404414 c 0.8062160672722946,1.905601613552696 2.6000741970593846,4.243483864433998 6.1181079451566704 6.588839696498854" /></g></g><g transform="matrix(13.155574898915933,0.0,0.0,13.155574898915933,72.35566194403765,151.42937844493656)"><g stroke="rgb(255,0,0)" stroke-opacity="1.0" fill="rgb(0,0,0)" fill-opacity="0.0" stroke-width="0.1" font-size="1.0em"><path d="M 32.86092310128323,-3.9349733247464833 c 2.5438939233202715e-2,0.6274938344190003 0.18344919012734384,1.4057027990550142 0.5565536322143172 2.287586025806042" /></g></g><g transform="matrix(13.155574898915933,0.0,0.0,13.155574898915933,72.35566194403765,151.42937844493656)"><g stroke="rgb(0,128,0)" stroke-opacity="1.0" fill="rgb(0,0,0)" fill-opacity="0.0" stroke-width="0.1" font-size="1.0em"><path d="M 33.000311673428904,-5.029283712603785 c -0.11129079091128233,0.22258158182256466 -0.16025559544153956,0.5795904798926219 -0.13938857214567413 1.0943103878573026" /></g></g><g transform="matrix(13.155574898915933,0.0,0.0,13.155574898915933,72.35566194403765,151.42937844493656)"><g stroke="rgb(255,0,0)" stroke-opacity="1.0" fill="rgb(0,0,0)" fill-opacity="0.0" stroke-width="0.1" font-size="1.0em"><path d="M 32.97862528132407,-5.0044688233462296 c 5.153156049894565e-3,-5.841483753310084e-3 1.692390853525727e-2,-1.5289922118400523e-2 2.1686392104834917e-2 -2.4814889257555817e-2" /></g></g><g transform="matrix(13.155574898915933,0.0,0.0,13.155574898915933,72.35566194403765,151.42937844493656)"><g stroke="rgb(0,128,0)" stroke-opacity="1.0" fill="rgb(0,0,0)" fill-opacity="0.0" stroke-width="0.1" font-size="1.0em"><path d="M 32.70873785722833,-4.826371179429536 c 8.358937623750423e-2,-3.1497446118479856e-2 0.1859951877994061,-8.299958544359087e-2 0.2698874240957419 -0.17809764391669347" /></g></g><g transform="matrix(13.155574898915933,0.0,0.0,13.155574898915933,72.35566194403765,151.42937844493656)"><g stroke="rgb(255,0,0)" stroke-opacity="1.0" fill="rgb(0,0,0)" fill-opacity="0.0" stroke-width="0.1" font-size="1.0em"><path d="M 32.055356993320274,-4.853120624705525 c 0.22391741974384227,0.10443579260779995 0.40910731509659143,0.11879455062523658 0.6533808639080557 2.6749445275989214e-2" /></g></g><g transform="matrix(13.155574898915933,0.0,0.0,13.155574898915933,72.35566194403765,151.42937844493656)"><g stroke="rgb(0,128,0)" stroke-opacity="1.0" fill="rgb(0,0,0)" fill-opacity="0.0" stroke-width="0.1" font-size="1.0em"><path d="M 31.72347357921467,-5.143549245977102 c 9.378804941573246e-2,0.15871823747277802 0.21780468092203953,0.23722193939149805 0.33188341410559885 0.290428621271577" /></g></g><g transform="matrix(13.155574898915933,0.0,0.0,13.155574898915933,72.35566194403765,151.42937844493656)"><g stroke="rgb(255,0,0)" stroke-opacity="1.0" fill="rgb(0,0,0)" fill-opacity="0.0" stroke-width="0.1" font-size="1.0em"><path d="M 31.691808767395802,-5.205805672754545 c 5.879553721364279e-3,2.4935979612594604e-2 2.2991427605793424e-2,4.7578391955314714e-2 3.166481181886982e-2 6.2256426777443974e-2" /></g></g><g transform="matrix(13.155574898915933,0.0,0.0,13.155574898915933,72.35566194403765,151.42937844493656)"><g stroke="rgb(0,128,0)" stroke-opacity="1.0" fill="rgb(0,0,0)" fill-opacity="0.0" stroke-width="0.1" font-size="1.0em"><path d="M 31.711972577462916,-5.042326266928818 c -3.953664939657162e-3,-6.508340746820251e-2 -9.443295519196648e-3,-0.11801225901967066 -2.0163810067113208e-2 -0.163479405825728" /></g></g><g transform="matrix(13.155574898915933,0.0,0.0,13.155574898915933,72.35566194403765,151.42937844493656)"><g stroke="rgb(255,0,0)" stroke-opacity="1.0" fill="rgb(0,0,0)" fill-opacity="0.0" stroke-width="0.1" font-size="1.0em"><path d="M 31.661929314384686,-4.205360512837057 c 4.7781656372351815e-2,-0.35039881339724666 6.298412834573885e-2,-0.6239392027650263 5.004326307822693e-2 -0.8369657540917615" /></g></g><g transform="matrix(13.155574898915933,0.0,0.0,13.155574898915933,72.35566194403765,151.42937844493656)"><g stroke="rgb(0,128,0)" stroke-opacity="1.0" fill="rgb(0,0,0)" fill-opacity="0.0" stroke-width="0.1" font-size="1.0em"><path d="M 28.08645729142907,5.326289096396298 c 2.4270875082384364,-4.854175016476873 3.347932569058263,-7.86302694731943 3.5754720229556165 -9.531649609233355" /></g></g><g transform="matrix(13.155574898915933,0.0,0.0,13.155574898915933,72.35566194403765,151.42937844493656)"><g stroke="rgb(0,0,255)" stroke-opacity="1.0" fill="rgb(0,0,0)" fill-opacity="0.0" stroke-width="0.1" font-size="1.0em"><path d="M 28.980884482428987,5.773502691896256 c 10.0,-20.0 -5.0,-10.0 10.0 0.0" /></g></g><g transform="matrix(13.155574898915933,0.0,0.0,13.155574898915933,72.35566194403765,151.42937844493656)"><g stroke="rgb(0,128,0)" stroke-opacity="1.0" fill="rgb(0,0,0)" fill-opacity="0.0" stroke-width="0.1" font-size="1.0em"><path d="M 22.22681744227194,-4.975977707743982 c 0.0,1.1652184940288222 4.623280507125882e-2,5.8820192426981635 4.707106781186548 10.542893218813452" /></g></g><g transform="matrix(13.155574898915933,0.0,0.0,13.155574898915933,72.35566194403765,151.42937844493656)"><g stroke="rgb(255,0,0)" stroke-opacity="1.0" fill="rgb(0,0,0)" fill-opacity="0.0" stroke-width="0.1" font-size="1.0em"><path d="M 22.22527234029002,-5.190961309967572 c 1.3596945248057525e-3,5.336801009862579e-2 1.5451019819200384e-3,0.12796315263602145 1.5451019819200384e-3 0.21498360222358961" /></g></g><g transform="matrix(13.155574898915933,0.0,0.0,13.155574898915933,72.35566194403765,151.42937844493656)"><g stroke="rgb(0,128,0)" stroke-opacity="1.0" fill="rgb(0,0,0)" fill-opacity="0.0" stroke-width="0.1" font-size="1.0em"><path d="M 22.219061458808028,-5.310773112363486 c 2.667352776137804e-3,3.119320885427821e-2 5.02539135926483e-3,7.328131507884304e-2 6.2108814819927805e-3 0.11981180239591362" /></g></g><g transform="matrix(13.155574898915933,0.0,0.0,13.155574898915933,72.35566194403765,151.42937844493656)"><g stroke="rgb(255,0,0)" stroke-opacity="1.0" fill="rgb(0,0,0)" fill-opacity="0.0" stroke-width="0.1" font-size="1.0em"><path d="M 22.17283082599389,-5.555708087831506 c 1.5097180450167632e-2,4.9065836463044805e-2 3.77384688109178e-2,0.14562383531926093 4.6230632814137085e-2 0.2449349754680199" /></g></g><g transform="matrix(13.155574898915933,0.0,0.0,13.155574898915933,72.35566194403765,151.42937844493656)"><g stroke="rgb(0,128,0)" stroke-opacity="1.0" fill="rgb(0,0,0)" fill-opacity="0.0" stroke-width="0.1" font-size="1.0em"><path d="M 21.98765210484117,-5.902700770832827 c 5.915986229623687e-2,7.248909052964826e-2 0.1384351262519885,0.19507599957394778 0.18517872115271883 0.34699268300132147" /></g></g><g transform="matrix(13.155574898915933,0.0,0.0,13.155574898915933,72.35566194403765,151.42937844493656)"><g stroke="rgb(255,0,0)" stroke-opacity="1.0" fill="rgb(0,0,0)" fill-opacity="0.0" stroke-width="0.1" font-size="1.0em"><path d="M 21.651201254320615,-6.170110768106993 c 0.11662169140991802,5.726092743049299e-2 0.23178207485071373,0.1391584419009324 0.33645085052055707 0.26740999727416637" /></g></g><g transform="matrix(13.155574898915933,0.0,0.0,13.155574898915933,72.35566194403765,151.42937844493656)"><g stroke="rgb(0,128,0)" stroke-opacity="1.0" fill="rgb(0,0,0)" fill-opacity="0.0" stroke-width="0.1" font-size="1.0em"><path d="M 21.098403476790917,-6.266956245808321 c 0.20191976907307557,-2.2211174598038314e-2 0.3705651859412463,7.369780030821671e-3 0.552797777529697 9.684547770132823e-2" /></g></g><g transform="matrix(13.155574898915933,0.0,0.0,13.155574898915933,72.35566194403765,151.42937844493656)"><g stroke="rgb(255,0,0)" stroke-opacity="1.0" fill="rgb(0,0,0)" fill-opacity="0.0" stroke-width="0.1" font-size="1.0em"><path d="M 20.68717773824717,-6.127488517764909 c 0.14370207595416082,-8.692183392465397e-2 0.28088371953770774,-0.12513010595274754 0.41122573854374933 -0.13946772804341212" /></g></g><g transform="matrix(13.155574898915933,0.0,0.0,13.155574898915933,72.35566194403765,151.42937844493656)"><g stroke="rgb(0,128,0)" stroke-opacity="1.0" fill="rgb(0,0,0)" fill-opacity="0.0" stroke-width="0.1" font-size="1.0em"><path d="M 20.48926554076378,-5.971144448967711 c 6.721861761310331e-2,-6.819078770254902e-2 0.13666548184831018,-0.11929744431724854 0.19791219748338984 -0.15634406879719753" /></g></g><g transform="matrix(13.155574898915933,0.0,0.0,13.155574898915933,72.35566194403765,151.42937844493656)"><g stroke="rgb(255,0,0)" stroke-opacity="1.0" fill="rgb(0,0,0)" fill-opacity="0.0" stroke-width="0.1" font-size="1.0em"><path d="M 20.34021917756031,-5.779740302591862 c 4.992158119902007e-2,-8.181592474283846e-2 0.10709836789040328,-0.14884946518015663 0.14904636320346876 -0.19140414637584913" /></g></g><g transform="matrix(13.155574898915933,0.0,0.0,13.155574898915933,72.35566194403765,151.42937844493656)"><g stroke="rgb(0,128,0)" stroke-opacity="1.0" fill="rgb(0,0,0)" fill-opacity="0.0" stroke-width="0.1" font-size="1.0em"><path d="M 20.208899018783505,-5.493502020830685 c 4.542742635734029e-2,-0.12492542248268579 0.10576723145080258,-0.2443598730880031 0.13132015877680647 -0.28623828176117616" /></g></g><g transform="matrix(13.155574898915933,0.0,0.0,13.155574898915933,72.35566194403765,151.42937844493656)"><g stroke="rgb(255,0,0)" stroke-opacity="1.0" fill="rgb(0,0,0)" fill-opacity="0.0" stroke-width="0.1" font-size="1.0em"><path d="M 19.662024018783505,-3.911470770830685 c 0.3068064887395122,-0.8437178440336586 0.4701733778151219,-1.3711017889915853 0.546875 -1.58203125" /></g></g><g transform="matrix(13.155574898915933,0.0,0.0,13.155574898915933,72.35566194403765,151.42937844493656)"><g stroke="rgb(0,128,0)" stroke-opacity="1.0" fill="rgb(0,0,0)" fill-opacity="0.0" stroke-width="0.1" font-size="1.0em"><path d="M 15.332390251272024,5.826808696756062 c 2.472343200154557,-4.944686400309114 3.7115479674728395,-8.03854351748049 4.329633767511479 -9.738279467586747" /></g></g><g transform="matrix(13.155574898915933,0.0,0.0,13.155574898915933,72.35566194403765,151.42937844493656)"><g stroke="rgb(0,0,255)" stroke-opacity="1.0" fill="rgb(0,0,0)" fill-opacity="0.0" stroke-width="0.1" font-size="1.0em"><path d="M 16.22681744227194,6.27402229225602 c 10.0,-20.0 0.0,-10.0 10.0 0.0" /></g></g><g transform="matrix(13.155574898915933,0.0,0.0,13.155574898915933,72.35566194403765,151.42937844493656)"><g stroke="rgb(0,128,0)" stroke-opacity="1.0" fill="rgb(0,0,0)" fill-opacity="0.0" stroke-width="0.1" font-size="1.0em"><path d="M 13.009770219789226,-2.4104743608548755 c -0.2855399505357898,9.691052866669228e-2 -0.6461909532308479,0.16047436085487377 -1.0892105128500125 0.16047436085487377" /></g></g><g transform="matrix(13.155574898915933,0.0,0.0,13.155574898915933,72.35566194403765,151.42937844493656)"><g stroke="rgb(255,0,0)" stroke-opacity="1.0" fill="rgb(0,0,0)" fill-opacity="0.0" stroke-width="0.1" font-size="1.0em"><path d="M 13.893839526646092,-2.982120392131483 c -0.2040335330264581,0.2331811806016664 -0.4832891526977512,0.4356236759256361 -0.8840693068568652 0.5716460312766082" /></g></g><g transform="matrix(13.155574898915933,0.0,0.0,13.155574898915933,72.35566194403765,151.42937844493656)"><g stroke="rgb(0,128,0)" stroke-opacity="1.0" fill="rgb(0,0,0)" fill-opacity="0.0" stroke-width="0.1" font-size="1.0em"><path d="M 14.185013884508258,-4.851123441588392 c 0.26509461237177,0.70691896632472 0.17274121378843077,1.3388138247133698 -0.2911743578621666 1.8690030494569096" /></g></g><g transform="matrix(13.155574898915933,0.0,0.0,13.155574898915933,72.35566194403765,151.42937844493656)"><g stroke="rgb(255,0,0)" stroke-opacity="1.0" fill="rgb(0,0,0)" fill-opacity="0.0" stroke-width="0.1" font-size="1.0em"><path d="M 11.295559706939214,-6.75 c 1.3528278761481514,0.0 2.551247208532007,0.996991307646174 2.8894541775690445 1.8988765584116083" /></g></g><g transform="matrix(13.155574898915933,0.0,0.0,13.155574898915933,72.35566194403765,151.42937844493656)"><g stroke="rgb(0,128,0)" stroke-opacity="1.0" fill="rgb(0,0,0)" fill-opacity="0.0" stroke-width="0.1" font-size="1.0em"><path d="M 9.203810396758112,-5.989978417355905 c 0.7131947941382994,-0.5593684659908231 1.4205071509921139,-0.7600215826440954 2.0917493101811018 -0.7600215826440954" /></g></g><g transform="matrix(13.155574898915933,0.0,0.0,13.155574898915933,72.35566194403765,151.42937844493656)"><g stroke="rgb(255,0,0)" stroke-opacity="1.0" fill="rgb(0,0,0)" fill-opacity="0.0" stroke-width="0.1" font-size="1.0em"><path d="M 7.49586988404493,-3.666654710493214 c 0.5144343791036886,-1.122402281680775 1.1116643005702707,-1.8556560894957015 1.7079405127131826 -2.3233237068626913" /></g></g><g transform="matrix(13.155574898915933,0.0,0.0,13.155574898915933,72.35566194403765,151.42937844493656)"><g stroke="rgb(0,128,0)" stroke-opacity="1.0" fill="rgb(0,0,0)" fill-opacity="0.0" stroke-width="0.1" font-size="1.0em"><path d="M 5.920559706939214,6.75 c 0.0,-5.2028660713222505 0.6810675710972038,-8.46557993374737 1.5753101771057156 -10.416654710493214" /></g></g><g transform="matrix(13.155574898915933,0.0,0.0,13.155574898915933,72.35566194403765,151.42937844493656)"><g stroke="rgb(0,0,255)" stroke-opacity="1.0" fill="rgb(0,0,0)" fill-opacity="0.0" stroke-width="0.1" font-size="1.0em"><path d="M 6.920559706939214,6.75 c 0.0,-20.0 10.0,-10.0 5.0 -10.0" /></g></g><g transform="matrix(13.155574898915933,0.0,0.0,13.155574898915933,72.35566194403765,151.42937844493656)"><g stroke="rgb(0,128,0)" stroke-opacity="1.0" fill="rgb(0,0,0)" fill-opacity="0.0" stroke-width="0.1" font-size="1.0em"><path d="M 2.660826934705069,-8.569475230141833 c 0.48895650949203384,-0.9250528557957396 1.122019777927579,-1.556458070895497 1.9677823889408268 -1.894763115300796" /></g></g><g transform="matrix(13.155574898915933,0.0,0.0,13.155574898915933,72.35566194403765,151.42937844493656)"><g stroke="rgb(255,0,0)" stroke-opacity="1.0" fill="rgb(0,0,0)" fill-opacity="0.0" stroke-width="0.1" font-size="1.0em"><path d="M 1.7534960535105757,-5.761630493146541 c 0.2156599309608425,-1.086926052042646 0.5083600089169349,-2.0530349786323434 0.9073308811944935 -2.807844736995292" /></g></g><g transform="matrix(13.155574898915933,0.0,0.0,13.155574898915933,72.35566194403765,151.42937844493656)"><g stroke="rgb(0,128,0)" stroke-opacity="1.0" fill="rgb(0,0,0)" fill-opacity="0.0" stroke-width="0.1" font-size="1.0em"><path d="M 0.8835457044574557,1.0837838328712444 c 0.31486663625486255,-2.3929864355369554 0.4763670537345416,-4.86175451761215 0.8699503490531199 -6.845414326017784" /></g></g><g transform="matrix(13.155574898915933,0.0,0.0,13.155574898915933,72.35566194403765,151.42937844493656)"><g stroke="rgb(255,0,0)" stroke-opacity="1.0" fill="rgb(0,0,0)" fill-opacity="0.0" stroke-width="0.1" font-size="1.0em"><path d="M -0.7828015282143159,7.11175903331599 c 0.9591837382060431,-1.6232340185025345 1.3712137747622202,-3.7849609203321535 1.6663472326717716 -6.027975200444747" /></g></g><g transform="matrix(13.155574898915933,0.0,0.0,13.155574898915933,72.35566194403765,151.42937844493656)"><g stroke="rgb(0,128,0)" stroke-opacity="1.0" fill="rgb(0,0,0)" fill-opacity="0.0" stroke-width="0.1" font-size="1.0em"><path d="M -5.0,9.46423834544263 c 2.0016683287913244,0.0 3.404020713214209,-0.9763323360826055 4.217198471785684 -2.3524793121266407" /></g></g><g transform="matrix(13.155574898915933,0.0,0.0,13.155574898915933,72.35566194403765,151.42937844493656)"><g stroke="rgb(0,0,255)" stroke-opacity="1.0" fill="rgb(0,0,0)" fill-opacity="0.0" stroke-width="0.1" font-size="1.0em"><path d="M -5.0,10.46423834544263 c 10.0,0.0 5.0,-18.0 10.0 -20.0" /></g></g></g></svg>