<?xml version="1.0" encoding="UTF-8"?>
<!DOCTYPE svg PUBLIC "-//W3C//DTD SVG 1.1//EN"
    "http://www.w3.org/Graphics/SVG/1.1/DTD/svg11.dtd">
<svg xmlns="http://www.w3.org/2000/svg" xmlns:xlink="http://www.w3.org/1999/xlink" version="1.1" width="600.0" height="150.9864382575877" font-size="1" viewBox="0 0 600 151"><g><g transform="matrix(25.27996301518507,0.0,0.0,25.27996301518507,300.0,75.49321912879385)"><g stroke="rgb(0,0,0)" stroke-opacity="1.0" fill="rgb(0,0,0)" fill-opacity="0.0" stroke-width="5.0e-2" font-size="1.0em"><path d="M 5.30560144347186,0.5148061556407302 c -0.2727272727272727,-0.2727272727272727 0.2727272727272728,-3.3636363636363638 2.0 -3.000000000000001c 1.727272727272727,0.36363636363636376 4.636363636363635,4.181818181818182 3.0 5.000000000000002c -1.6363636363636362,0.8181818181818175 -7.8181818181818175,-1.3636363636363633 -8.999999999999998 -2.999999999999999c -1.1818181818181817,-1.6363636363636362 2.6363636363636367,-2.727272727272727 4.000000000000002 -2.0c 1.3636363636363635,0.7272727272727275 0.27272727272727276,3.272727272727273 -3.552713678800501e-15 2.9999999999999982Z" /></g></g><g transform="matrix(25.27996301518507,0.0,0.0,25.27996301518507,300.0,75.49321912879385)"><g stroke="rgb(0,0,0)" stroke-opacity="1.0" fill="rgb(0,0,255)" fill-opacity="1.0" stroke-width="0.0" font-size="1.0em"><path d="M 5.5056014434718605,-2.48519384435927 c 0.0,-0.1104569499661587 -8.954305003384129e-2,-0.2 -0.19999999999999996 -0.2c -0.1104569499661587,-6.763537510981779e-18 -0.2,8.954305003384128e-2 -0.2 0.19999999999999996c -1.3527075021963559e-17,0.1104569499661587 8.954305003384128e-2,0.2 0.19999999999999993 0.2c 0.1104569499661587,2.029061253294534e-17 0.2,-8.954305003384126e-2 0.20000000000000004 -0.19999999999999996Z" /></g></g><g transform="matrix(25.27996301518507,0.0,0.0,25.27996301518507,300.0,75.49321912879385)"><g stroke="rgb(0,0,0)" stroke-opacity="1.0" fill="rgb(0,0,255)" fill-opacity="1.0" stroke-width="0.0" font-size="1.0em"><path d="M 1.5056014434718603,-0.4851938443592698 c 0.0,-0.1104569499661587 -8.954305003384129e-2,-0.2 -0.19999999999999996 -0.2c -0.1104569499661587,-6.763537510981779e-18 -0.2,8.954305003384128e-2 -0.2 0.19999999999999996c -1.3527075021963559e-17,0.1104569499661587 8.954305003384128e-2,0.2 0.19999999999999993 0.2c 0.1104569499661587,2.029061253294534e-17 0.2,-8.954305003384126e-2 0.20000000000000004 -0.19999999999999996Z" /></g></g><g transform="matrix(25.27996301518507,0.0,0.0,25.27996301518507,300.0,75.49321912879385)"><g stroke="rgb(0,0,0)" stroke-opacity="1.0" fill="rgb(0,0,255)" fill-opacity="1.0" stroke-width="0.0" font-size="1.0em"><path d="M 10.50560144347186,2.51480615564073 c 0.0,-0.1104569499661587 -8.954305003384129e-2,-0.2 -0.19999999999999996 -0.2c -0.1104569499661587,-6.763537510981779e-18 -0.2,8.954305003384128e-2 -0.2 0.19999999999999996c -1.3527075021963559e-17,0.1104569499661587 8.954305003384128e-2,0.2 0.19999999999999993 0.2c 0.1104569499661587,2.029061253294534e-17 0.2,-8.954305003384126e-2 0.20000000000000004 -0.19999999999999996Z" /></g></g><g transform="matrix(25.27996301518507,0.0,0.0,25.27996301518507,300.0,75.49321912879385)"><g stroke="rgb(0,0,0)" stroke-opacity="1.0" fill="rgb(0,0,255)" fill-opacity="1.0" stroke-width="0.0" font-size="1.0em"><path d="M 7.5056014434718605,-2.48519384435927 c 0.0,-0.1104569499661587 -8.954305003384129e-2,-0.2 -0.19999999999999996 -0.2c -0.1104569499661587,-6.763537510981779e-18 -0.2,8.954305003384128e-2 -0.2 0.19999999999999996c -1.3527075021963559e-17,0.1104569499661587 8.954305003384128e-2,0.2 0.19999999999999993 0.2c 0.1104569499661587,2.029061253294534e-17 0.2,-8.954305003384126e-2 0.20000000000000004 -0.19999999999999996Z" /></g></g><g transform="matrix(25.27996301518507,0.0,0.0,25.27996301518507,300.0,75.49321912879385)"><g stroke="rgb(0,0,0)" stroke-opacity="1.0" fill="rgb(0,0,255)" fill-opacity="1.0" stroke-width="0.0" font-size="1.0em"><path d="M 5.5056014434718605,0.5148061556407302 c 0.0,-0.1104569499661587 -8.954305003384129e-2,-0.2 -0.19999999999999996 -0.2c -0.1104569499661587,-6.763537510981779e-18 -0.2,8.954305003384128e-2 -0.2 0.19999999999999996c -1.3527075021963559e-17,0.1104569499661587 8.954305003384128e-2,0.2 0.19999999999999993 0.2c 0.1104569499661587,2.029061253294534e-17 0.2,-8.954305003384126e-2 0.20000000000000004 -0.19999999999999996Z" /></g></g><g transform="matrix(25.27996301518507,0.0,0.0,25.27996301518507,300.0,75.49321912879385)"><g stroke="rgb(0,0,0)" stroke-opacity="1.0" fill="rgb(0,0,0)" fill-opacity="0.0" stroke-width="1.0e-2" font-size="1.0em"></g></g><g transform="matrix(25.27996301518507,0.0,0.0,25.27996301518507,300.0,75.49321912879385)"><g stroke="rgb(0,0,0)" stroke-opacity="1.0" fill="rgb(0,0,0)" fill-opacity="0.0" stroke-width="5.0e-2" font-size="1.0em"><path d="M -6.333419254268965,0.5148061556407302 c 0.2142857142857144,-1.9107142857142858 0.4285714285714288,-3.8214285714285716 2.0 -3.0c 1.5714285714285712,0.8214285714285716 4.5,4.375 2.999999999999999 5.0c -1.5,0.625 -7.428571428571428,-1.6785714285714284 -8.999999999999998 -2.999999999999999c -1.5714285714285712,-1.3214285714285712 1.2142857142857149,-1.6607142857142856 4.0 -2.0" /></g></g><g transform="matrix(25.27996301518507,0.0,0.0,25.27996301518507,300.0,75.49321912879385)"><g stroke="rgb(0,0,0)" stroke-opacity="1.0" fill="rgb(0,0,255)" fill-opacity="1.0" stroke-width="0.0" font-size="1.0em"><path d="M -6.133419254268965,-2.48519384435927 c 0.0,-0.1104569499661587 -8.954305003384129e-2,-0.2 -0.19999999999999996 -0.2c -0.1104569499661587,-6.763537510981779e-18 -0.2,8.954305003384128e-2 -0.2 0.19999999999999996c -1.3527075021963559e-17,0.1104569499661587 8.954305003384128e-2,0.2 0.19999999999999993 0.2c 0.1104569499661587,2.029061253294534e-17 0.2,-8.954305003384126e-2 0.20000000000000004 -0.19999999999999996Z" /></g></g><g transform="matrix(25.27996301518507,0.0,0.0,25.27996301518507,300.0,75.49321912879385)"><g stroke="rgb(0,0,0)" stroke-opacity="1.0" fill="rgb(0,0,255)" fill-opacity="1.0" stroke-width="0.0" font-size="1.0em"><path d="M -10.133419254268965,-0.4851938443592698 c 0.0,-0.1104569499661587 -8.954305003384129e-2,-0.2 -0.19999999999999996 -0.2c -0.1104569499661587,-6.763537510981779e-18 -0.2,8.954305003384128e-2 -0.2 0.19999999999999996c -1.3527075021963559e-17,0.1104569499661587 8.954305003384128e-2,0.2 0.19999999999999993 0.2c 0.1104569499661587,2.029061253294534e-17 0.2,-8.954305003384126e-2 0.20000000000000004 -0.19999999999999996Z" /></g></g><g transform="matrix(25.27996301518507,0.0,0.0,25.27996301518507,300.0,75.49321912879385)"><g stroke="rgb(0,0,0)" stroke-opacity="1.0" fill="rgb(0,0,255)" fill-opacity="1.0" stroke-width="0.0" font-size="1.0em"><path d="M -1.1334192542689652,2.51480615564073 c 0.0,-0.1104569499661587 -8.954305003384129e-2,-0.2 -0.19999999999999996 -0.2c -0.1104569499661587,-6.763537510981779e-18 -0.2,8.954305003384128e-2 -0.2 0.19999999999999996c -1.3527075021963559e-17,0.1104569499661587 8.954305003384128e-2,0.2 0.19999999999999993 0.2c 0.1104569499661587,2.029061253294534e-17 0.2,-8.954305003384126e-2 0.20000000000000004 -0.19999999999999996Z" /></g></g><g transform="matrix(25.27996301518507,0.0,0.0,25.27996301518507,300.0,75.49321912879385)"><g stroke="rgb(0,0,0)" stroke-opacity="1.0" fill="rgb(0,0,255)" fill-opacity="1.0" stroke-width="0.0" font-size="1.0em"><path d="M -4.133419254268965,-2.48519384435927 c 0.0,-0.1104569499661587 -8.954305003384129e-2,-0.2 -0.19999999999999996 -0.2c -0.1104569499661587,-6.763537510981779e-18 -0.2,8.954305003384128e-2 -0.2 0.19999999999999996c -1.3527075021963559e-17,0.1104569499661587 8.954305003384128e-2,0.2 0.19999999999999993 0.2c 0.1104569499661587,2.029061253294534e-17 0.2,-8.954305003384126e-2 0.20000000000000004 -0.19999999999999996Z" /></g></g><g transform="matrix(25.27996301518507,0.0,0.0,25.27996301518507,300.0,75.49321912879385)"><g stroke="rgb(0,0,0)" stroke-opacity="1.0" fill="rgb(0,0,255)" fill-opacity="1.0" stroke-width="0.0" font-size="1.0em"><path d="M -6.133419254268965,0.5148061556407302 c 0.0,-0.1104569499661587 -8.954305003384129e-2,-0.2 -0.19999999999999996 -0.2c -0.1104569499661587,-6.763537510981779e-18 -0.2,8.954305003384128e-2 -0.2 0.19999999999999996c -1.3527075021963559e-17,0.1104569499661587 8.954305003384128e-2,0.2 0.19999999999999993 0.2c 0.1104569499661587,2.029061253294534e-17 0.2,-8.954305003384126e-2 0.20000000000000004 -0.19999999999999996Z" /></g></g></g></svg>