<?xml version="1.0" encoding="UTF-8"?>
<!DOCTYPE svg PUBLIC "-//W3C//DTD SVG 1.1//EN"
    "http://www.w3.org/Graphics/SVG/1.1/DTD/svg11.dtd">
<svg xmlns="http://www.w3.org/2000/svg" xmlns:xlink="http://www.w3.org/1999/xlink" version="1.1" width="400.0" height="200.0" font-size="1" viewBox="0 0 400 200"><g><g transform="matrix(18.181818181818183,0.0,0.0,18.181818181818183,200.0,100.0)"><g stroke="rgb(255,0,0)" stroke-opacity="1.0" fill="rgb(0,0,0)" fill-opacity="0.0" stroke-width="5.0e-2" font-size="1.0em"><path d="M -4.463999999999999,3.1082314049586772 l -3.900145794392524,-8.600321495327101 " /></g></g><g transform="matrix(18.181818181818183,0.0,0.0,18.181818181818183,200.0,100.0)"><g stroke="rgb(255,0,0)" stroke-opacity="1.0" fill="rgb(0,0,0)" fill-opacity="0.0" stroke-width="5.0e-2" font-size="1.0em"><path d="M 1.0791940300818208,-5.492090090368424 c -1.04842133024911e-15,-5.215412572526979 -4.227927251947362,-9.443339824474341 -9.443339824474341 -9.443339824474343c -5.215412572526979,7.290799615430275e-16 -9.443339824474341,4.227927251947361 -9.443339824474343 9.44333982447434c 4.0973859283694506e-16,5.215412572526979 4.22792725194736,9.443339824474341 9.44333982447434 9.443339824474343c 5.215412572526979,-9.039722413086261e-17 9.443339824474341,-4.22792725194736 9.443339824474343 -9.443339824474338Z" /></g></g><g transform="matrix(18.181818181818183,0.0,0.0,18.181818181818183,200.0,100.0)"><g stroke="rgb(0,0,0)" stroke-opacity="1.0" fill="rgb(0,0,0)" fill-opacity="0.0" stroke-width="0.1" font-size="1.0em"><path d="M -10.0,4.132231404958677 c 12.0,0.0 8.0,-10.0 20.0 -8.0" /></g></g></g></svg>