<?xml version="1.0" encoding="UTF-8"?>
<!DOCTYPE svg PUBLIC "-//W3C//DTD SVG 1.1//EN"
    "http://www.w3.org/Graphics/SVG/1.1/DTD/svg11.dtd">
<svg xmlns="http://www.w3.org/2000/svg" xmlns:xlink="http://www.w3.org/1999/xlink" version="1.1" width="400.0" height="200.0" font-size="1" viewBox="0 0 400 200"><g><g transform="matrix(18.181818181818183,0.0,0.0,18.181818181818183,200.0,100.0)"><g stroke="rgb(255,0,0)" stroke-opacity="1.0" fill="rgb(0,0,0)" fill-opacity="0.0" stroke-width="5.0e-2" font-size="1.0em"><path d="M -4.463999999999999,3.1082314049586772 l -3.900145794392522,-8.6003214953271 " /></g></g><g transform="matrix(18.181818181818183,0.0,0.0,18.181818181818183,200.0,100.0)"><g stroke="rgb(255,0,0)" stroke-opacity="1.0" fill="rgb(0,0,0)" fill-opacity="0.0" stroke-width="5.0e-2" font-size="1.0em"><path d="M 1.079194030081819,-5.492090090368422 c 0.0,-5.215412572526979 -4.227927251947359,-9.44333982447434 -9.443339824474338 -9.44333982447434c -5.215412572526979,-3.193519156589014e-16 -9.44333982447434,4.227927251947358 -9.44333982447434 9.443339824474336c -6.387038313178028e-16,5.215412572526979 4.227927251947357,9.44333982447434 9.443339824474336 9.44333982447434c 5.215412572526979,9.580557469767042e-16 9.44333982447434,-4.227927251947357 9.443339824474343 -9.443339824474336Z" /></g></g><g transform="matrix(18.181818181818183,0.0,0.0,18.181818181818183,200.0,100.0)"><g stroke="rgb(0,0,0)" stroke-opacity="1.0" fill="rgb(0,0,0)" fill-opacity="0.0" stroke-width="0.1" font-size="1.0em"><path d="M -10.0,4.132231404958677 c 12.0,0.0 8.0,-10.0 20.0 -8.0" /></g></g></g></svg>