<?xml version="1.0" encoding="UTF-8"?>
<!DOCTYPE svg PUBLIC "-//W3C//DTD SVG 1.1//EN"
    "http://www.w3.org/Graphics/SVG/1.1/DTD/svg11.dtd">
<svg xmlns="http://www.w3.org/2000/svg" xmlns:xlink="http://www.w3.org/1999/xlink" version="1.1" width="400.0" height="200.0" font-size="1" viewBox="0 0 400 200"><g><g transform="matrix(18.181818181818183,0.0,0.0,18.181818181818183,200.0,100.0)"><g stroke="rgb(255,0,0)" stroke-opacity="1.0" fill-opacity="0.0" stroke-width="5.0e-2" font-size="1.0em"><path d="M -0.6039999999999992,6.1981404958677544e-2 l -33.11407551269532,-29.72616679687502 " /></g></g><g transform="matrix(18.181818181818183,0.0,0.0,18.181818181818183,200.0,100.0)"><g stroke="rgb(255,0,0)" stroke-opacity="1.0" fill="rgb(0,0,0)" fill-opacity="0.0" stroke-width="5.0e-2" font-size="1.0em"><path d="M 10.781216498483047,-29.66418539191634 c 0.0,-24.57628035604107 -19.923011655137294,-44.49929201117837 -44.49929201117836 -44.49929201117837c -24.57628035604107,-1.5048631536486836e-15 -44.49929201117837,19.92301165513729 -44.49929201117837 44.499292011178355c -3.0097263072973672e-15,24.57628035604107 19.923011655137287,44.49929201117837 44.49929201117835 44.49929201117837c 24.57628035604107,4.514589460946051e-15 44.49929201117837,-19.923011655137284 44.49929201117839 -44.499292011178355Z" /></g></g><g transform="matrix(18.181818181818183,0.0,0.0,18.181818181818183,200.0,100.0)"><g stroke="rgb(0,0,0)" stroke-opacity="1.0" fill-opacity="0.0" stroke-width="0.1" font-size="1.0em"><path d="M -10.0,4.132231404958677 c 12.0,0.0 8.0,-10.0 20.0 -8.0" /></g></g></g></svg>