<?xml version="1.0" encoding="UTF-8"?>
<!DOCTYPE svg PUBLIC "-//W3C//DTD SVG 1.1//EN"
    "http://www.w3.org/Graphics/SVG/1.1/DTD/svg11.dtd">
<svg xmlns="http://www.w3.org/2000/svg" xmlns:xlink="http://www.w3.org/1999/xlink" version="1.1" width="400.0" height="200.0" font-size="1" viewBox="0 0 400 200"><g><g transform="matrix(18.181818181818183,0.0,0.0,18.181818181818183,200.0,100.0)"><g stroke="rgb(255,0,0)" stroke-opacity="1.0" fill="rgb(0,0,0)" fill-opacity="0.0" stroke-width="5.0e-2" font-size="1.0em"><path d="M 0.0,-0.6177685950413228 l 61.17187500000001,54.37500000000001 " /></g></g><g transform="matrix(18.181818181818183,0.0,0.0,18.181818181818183,200.0,100.0)"><g stroke="rgb(255,0,0)" stroke-opacity="1.0" fill="rgb(0,0,0)" fill-opacity="0.0" stroke-width="5.0e-2" font-size="1.0em"><path d="M 143.0170881527289,53.75723140495869 c 0.0,-45.20186307090284 -36.64335008182604,-81.84521315272889 -81.84521315272887 -81.84521315272889c -45.20186307090284,-2.7678158462639055e-15 -81.84521315272889,36.643350081826036 -81.84521315272889 81.84521315272886c -5.535631692527811e-15,45.20186307090284 36.64335008182603,81.84521315272889 81.84521315272885 81.84521315272889c 45.20186307090284,8.303447538791717e-15 81.84521315272889,-36.64335008182603 81.84521315272893 -81.84521315272886Z" /></g></g><g transform="matrix(18.181818181818183,0.0,0.0,18.181818181818183,200.0,100.0)"><g stroke="rgb(0,0,0)" stroke-opacity="1.0" fill="rgb(0,0,0)" fill-opacity="0.0" stroke-width="0.1" font-size="1.0em"><path d="M -10.0,4.132231404958677 c 12.0,0.0 8.0,-10.0 20.0 -8.0" /></g></g></g></svg>