<?xml version="1.0" encoding="UTF-8"?>
<!DOCTYPE svg PUBLIC "-//W3C//DTD SVG 1.1//EN"
    "http://www.w3.org/Graphics/SVG/1.1/DTD/svg11.dtd">
<svg xmlns="http://www.w3.org/2000/svg" xmlns:xlink="http://www.w3.org/1999/xlink" version="1.1" width="400.0" height="200.0" font-size="1" viewBox="0 0 400 200"><g><g transform="matrix(18.181818181818183,0.0,0.0,18.181818181818183,200.0,100.0)"><g stroke="rgb(255,0,0)" stroke-opacity="1.0" fill="rgb(0,0,0)" fill-opacity="0.0" stroke-width="5.0e-2" font-size="1.0em"><path d="M 4.464000000000002,-3.8037685950413227 l 2.077770135746605,7.445342986425346 " /></g></g><g transform="matrix(18.181818181818183,0.0,0.0,18.181818181818183,200.0,100.0)"><g stroke="rgb(255,0,0)" stroke-opacity="1.0" fill="rgb(0,0,0)" fill-opacity="0.0" stroke-width="5.0e-2" font-size="1.0em"><path d="M 14.271599430272687,3.6415743913840233 c 0.0,-4.269066838162075 -3.4607624563640047,-7.7298292945260805 -7.729829294526079 -7.7298292945260805c -4.269066838162075,-2.614049519350648e-16 -7.7298292945260805,3.4607624563640043 -7.7298292945260805 7.729829294526078c -5.228099038701296e-16,4.269066838162075 3.460762456364004,7.7298292945260805 7.729829294526077 7.7298292945260805c 4.269066838162075,7.842148558051945e-16 7.7298292945260805,-3.4607624563640034 7.729829294526082 -7.729829294526078Z" /></g></g><g transform="matrix(18.181818181818183,0.0,0.0,18.181818181818183,200.0,100.0)"><g stroke="rgb(0,0,0)" stroke-opacity="1.0" fill="rgb(0,0,0)" fill-opacity="0.0" stroke-width="0.1" font-size="1.0em"><path d="M -10.0,4.132231404958677 c 12.0,0.0 8.0,-10.0 20.0 -8.0" /></g></g></g></svg>