<?xml version="1.0" encoding="UTF-8"?>
<!DOCTYPE svg PUBLIC "-//W3C//DTD SVG 1.1//EN"
    "http://www.w3.org/Graphics/SVG/1.1/DTD/svg11.dtd">
<svg xmlns="http://www.w3.org/2000/svg" xmlns:xlink="http://www.w3.org/1999/xlink" version="1.1" width="400.0" height="200.0" font-size="1" viewBox="0 0 400 200"><g><g transform="matrix(18.181818181818183,0.0,0.0,18.181818181818183,200.0,100.0)"><g stroke="rgb(255,0,0)" stroke-opacity="1.0" fill-opacity="0.0" stroke-width="5.0e-2" font-size="1.0em"><path d="M -0.6039999999999992,6.1981404958677544e-2 l -33.11407551269532,-29.726166796875017 " /></g></g><g transform="matrix(18.181818181818183,0.0,0.0,18.181818181818183,200.0,100.0)"><g stroke="rgb(255,0,0)" stroke-opacity="1.0" fill="rgb(0,0,0)" fill-opacity="0.0" stroke-width="5.0e-2" font-size="1.0em"><path d="M 10.78121649848304,-29.66418539191634 c -4.940413857032851e-15,-24.576280356041057 -19.923011655137294,-44.499292011178355 -44.499292011178355 -44.49929201117836c -24.576280356041057,3.4356004031664526e-15 -44.499292011178355,19.92301165513729 -44.49929201117836 44.49929201117835c 1.930786949300055e-15,24.576280356041057 19.92301165513729,44.499292011178355 44.49929201117834 44.49929201117836c 24.576280356041057,-4.2597349543365716e-16 44.499292011178355,-19.923011655137287 44.49929201117837 -44.49929201117835Z" /></g></g><g transform="matrix(18.181818181818183,0.0,0.0,18.181818181818183,200.0,100.0)"><g stroke="rgb(0,0,0)" stroke-opacity="1.0" fill-opacity="0.0" stroke-width="0.1" font-size="1.0em"><path d="M -10.0,4.132231404958677 c 12.0,0.0 8.0,-10.0 20.0 -8.0" /></g></g></g></svg>