<?xml version="1.0" encoding="UTF-8"?>
<!DOCTYPE svg PUBLIC "-//W3C//DTD SVG 1.1//EN"
    "http://www.w3.org/Graphics/SVG/1.1/DTD/svg11.dtd"><svg font-size="1" viewBox="0.0 0.0 300.0 300.0" stroke="rgb(0,0,0)" xmlns="http://www.w3.org/2000/svg" width="300.0000" stroke-opacity="1" height="300.0000" version="1.1" xmlns:xlink="http://www.w3.org/1999/xlink"><defs></defs><defs><radialGradient id="gradient0" gradientTransform="matrix(142.8571,-0.0000,0.0000,-142.8571,228.5714,228.5714)" fy="0.0000" gradientUnits="userSpaceOnUse" cx="-0.2000" r="0.3000" spreadMethod="pad" cy="0.2000" fx="0.0000"><stop offset="0.6667" stop-opacity="1.0000" stop-color="rgb(255,255,0)"/><stop offset="0.6667" stop-opacity="1.0000" stop-color="rgb(255,255,0)"/><stop offset="1.0000" stop-opacity="1.0000" stop-color="rgb(65,105,225)"/></radialGradient></defs><g stroke-linejoin="miter" fill-opacity="1" fill="url(#gradient0)" stroke="rgb(0,0,0)" stroke-linecap="butt" stroke-miterlimit="10.0" stroke-opacity="1.0" stroke-width="0.0"><path d="M 300.0000,300.0000 l -0.0000,-142.8571 h -142.8571 l -0.0000,142.8571 Z"/></g><g stroke-linejoin="miter" fill-opacity="0.0" fill="rgb(0,0,0)" stroke="rgb(255,165,0)" stroke-linecap="butt" stroke-miterlimit="10.0" stroke-opacity="1.0" stroke-width="1.0"><path d="M 242.8571,200.0000 c 0.0000,-23.6693 -19.1878,-42.8571 -42.8571 -42.8571c -23.6693,-0.0000 -42.8571,19.1878 -42.8571 42.8571c -0.0000,23.6693 19.1878,42.8571 42.8571 42.8571c 23.6693,0.0000 42.8571,-19.1878 42.8571 -42.8571Z"/></g><g stroke-linejoin="miter" fill-opacity="0.0" fill="rgb(0,0,0)" stroke="rgb(128,0,128)" stroke-linecap="butt" stroke-miterlimit="10.0" stroke-opacity="1.0" stroke-width="1.0"><path d="M 257.1429,228.5714 c 0.0000,-15.7796 -12.7919,-28.5714 -28.5714 -28.5714c -15.7796,-0.0000 -28.5714,12.7919 -28.5714 28.5714c -0.0000,15.7796 12.7919,28.5714 28.5714 28.5714c 15.7796,0.0000 28.5714,-12.7919 28.5714 -28.5714Z"/></g><defs><radialGradient id="gradient6" gradientTransform="matrix(142.8571,-0.0000,0.0000,-142.8571,71.4286,228.5714)" fy="0.0000" gradientUnits="userSpaceOnUse" cx="0.0000" r="0.3000" spreadMethod="pad" cy="0.0000" fx="0.0000"><stop offset="0.6667" stop-opacity="1.0000" stop-color="rgb(255,255,0)"/><stop offset="0.6667" stop-opacity="1.0000" stop-color="rgb(255,255,0)"/><stop offset="1.0000" stop-opacity="1.0000" stop-color="rgb(65,105,225)"/></radialGradient></defs><g stroke-linejoin="miter" fill-opacity="1" fill="url(#gradient6)" stroke="rgb(0,0,0)" stroke-linecap="butt" stroke-miterlimit="10.0" stroke-opacity="1.0" stroke-width="0.0"><path d="M 142.8571,300.0000 l -0.0000,-142.8571 h -142.8571 l -0.0000,142.8571 Z"/></g><g stroke-linejoin="miter" fill-opacity="0.0" fill="rgb(0,0,0)" stroke="rgb(255,165,0)" stroke-linecap="butt" stroke-miterlimit="10.0" stroke-opacity="1.0" stroke-width="1.0"><path d="M 114.2857,228.5714 c 0.0000,-23.6693 -19.1878,-42.8571 -42.8571 -42.8571c -23.6693,-0.0000 -42.8571,19.1878 -42.8571 42.8571c -0.0000,23.6693 19.1878,42.8571 42.8571 42.8571c 23.6693,0.0000 42.8571,-19.1878 42.8571 -42.8571Z"/></g><g stroke-linejoin="miter" fill-opacity="0.0" fill="rgb(0,0,0)" stroke="rgb(128,0,128)" stroke-linecap="butt" stroke-miterlimit="10.0" stroke-opacity="1.0" stroke-width="1.0"><path d="M 100.0000,228.5714 c 0.0000,-15.7796 -12.7919,-28.5714 -28.5714 -28.5714c -15.7796,-0.0000 -28.5714,12.7919 -28.5714 28.5714c -0.0000,15.7796 12.7919,28.5714 28.5714 28.5714c 15.7796,0.0000 28.5714,-12.7919 28.5714 -28.5714Z"/></g><defs><radialGradient id="gradient12" gradientTransform="matrix(142.8571,-0.0000,0.0000,-142.8571,228.5714,71.4286)" fy="0.0000" gradientUnits="userSpaceOnUse" cx="-0.2000" r="0.3000" spreadMethod="pad" cy="0.2000" fx="0.0000"><stop offset="0.0000" stop-opacity="1.0000" stop-color="rgb(255,255,0)"/><stop offset="0.0000" stop-opacity="1.0000" stop-color="rgb(255,255,0)"/><stop offset="1.0000" stop-opacity="1.0000" stop-color="rgb(65,105,225)"/></radialGradient></defs><g stroke-linejoin="miter" fill-opacity="1" fill="url(#gradient12)" stroke="rgb(0,0,0)" stroke-linecap="butt" stroke-miterlimit="10.0" stroke-opacity="1.0" stroke-width="0.0"><path d="M 300.0000,142.8571 l -0.0000,-142.8571 h -142.8571 l -0.0000,142.8571 Z"/></g><g stroke-linejoin="miter" fill-opacity="0.0" fill="rgb(0,0,0)" stroke="rgb(255,165,0)" stroke-linecap="butt" stroke-miterlimit="10.0" stroke-opacity="1.0" stroke-width="1.0"><path d="M 242.8571,42.8571 c 0.0000,-23.6693 -19.1878,-42.8571 -42.8571 -42.8571c -23.6693,-0.0000 -42.8571,19.1878 -42.8571 42.8571c -0.0000,23.6693 19.1878,42.8571 42.8571 42.8571c 23.6693,0.0000 42.8571,-19.1878 42.8571 -42.8571Z"/></g><defs><radialGradient id="gradient16" gradientTransform="matrix(142.8571,-0.0000,0.0000,-142.8571,71.4286,71.4286)" fy="0.0000" gradientUnits="userSpaceOnUse" cx="0.0000" r="0.3000" spreadMethod="pad" cy="0.0000" fx="0.0000"><stop offset="0.0000" stop-opacity="1.0000" stop-color="rgb(255,255,0)"/><stop offset="0.0000" stop-opacity="1.0000" stop-color="rgb(255,255,0)"/><stop offset="1.0000" stop-opacity="1.0000" stop-color="rgb(65,105,225)"/></radialGradient></defs><g stroke-linejoin="miter" fill-opacity="1" fill="url(#gradient16)" stroke="rgb(0,0,0)" stroke-linecap="butt" stroke-miterlimit="10.0" stroke-opacity="1.0" stroke-width="0.0"><path d="M 142.8571,142.8571 l -0.0000,-142.8571 h -142.8571 l -0.0000,142.8571 Z"/></g><g stroke-linejoin="miter" fill-opacity="0.0" fill="rgb(0,0,0)" stroke="rgb(255,165,0)" stroke-linecap="butt" stroke-miterlimit="10.0" stroke-opacity="1.0" stroke-width="1.0"><path d="M 114.2857,71.4286 c 0.0000,-23.6693 -19.1878,-42.8571 -42.8571 -42.8571c -23.6693,-0.0000 -42.8571,19.1878 -42.8571 42.8571c -0.0000,23.6693 19.1878,42.8571 42.8571 42.8571c 23.6693,0.0000 42.8571,-19.1878 42.8571 -42.8571Z"/></g></svg>