<svg xmlns="http://www.w3.org/2000/svg" height="178.5413" stroke-opacity="1" viewBox="0 0 400 179" font-size="1" width="400.0000" xmlns:xlink="http://www.w3.org/1999/xlink" stroke="rgb(0,0,0)" version="1.1"><defs></defs><g stroke-linejoin="miter" stroke-opacity="1.0" fill-opacity="1.0" stroke="rgb(0,0,0)" stroke-width="1.0689548060277785" fill="rgb(0,0,255)" stroke-linecap="butt" stroke-miterlimit="10.0"><path d="M 364.6026,49.1012 l 17.2156,-17.2156 c -31.6930,-31.6930 -83.0775,-31.6930 -114.7704 -0.0000c -31.6930,31.6930 -31.6930,83.0775 -0.0000 114.7704c 31.6930,31.6930 83.0775,31.6930 114.7704 0.0000l -17.2156,-17.2156 c -22.1851,22.1851 -58.1542,22.1851 -80.3393 -0.0000c -22.1851,-22.1851 -22.1851,-58.1542 0.0000 -80.3393c 22.1851,-22.1851 58.1542,-22.1851 80.3393 -0.0000Z"/></g><g stroke-linejoin="miter" stroke-opacity="1.0" fill-opacity="1.0" stroke="rgb(0,0,0)" stroke-width="1.0689548060277785" fill="rgb(0,0,255)" stroke-linecap="butt" stroke-miterlimit="10.0"><path d="M 196.7624,65.0577 l 5.9381,-56.4973 c -22.8740,-2.4042 -45.6939,5.0105 -62.7863 20.4005l 38.0123,42.2169 c 5.1277,-4.6170 11.9737,-6.8414 18.8359 -6.1201Z"/></g><g stroke-linejoin="miter" stroke-opacity="1.0" fill-opacity="1.0" stroke="rgb(0,0,0)" stroke-width="1.0689548060277785" fill="rgb(0,0,255)" stroke-linecap="butt" stroke-miterlimit="10.0"><path d="M 58.7593,89.2708 h 40.5775 c 0.0000,-44.8206 -36.3343,-81.1550 -81.1550 -81.1550l -0.0000,40.5775 c 22.4103,0.0000 40.5775,18.1672 40.5775 40.5775Z"/></g></svg>