<svg xmlns="http://www.w3.org/2000/svg" height="184.6154" stroke-opacity="1" viewBox="0 0 300 185" font-size="1" width="300.0000" xmlns:xlink="http://www.w3.org/1999/xlink" stroke="rgb(0,0,0)" version="1.1"><defs></defs><g stroke-linejoin="miter" stroke-opacity="1.0" fill-opacity="0.0" stroke="rgb(0,0,0)" stroke-width="0.9413574486632834" fill="rgb(0,0,0)" stroke-linecap="butt" stroke-miterlimit="10.0"><path d="M 135.5769,106.7308 c 0.0000,-0.0000 0.0000,-0.0000 9.6154 -14.4231c 9.6154,-14.4231 28.8462,-43.2692 52.8846 -33.6538c 24.0385,9.6154 52.8846,57.6923 24.0385 67.3077c -28.8462,9.6154 -115.3846,-19.2308 -139.4231 -43.2692c -24.0385,-24.0385 14.4231,-43.2692 33.6538 -52.8846c 19.2308,-9.6154 19.2308,-9.6154 19.2308 -9.6154"/></g><g stroke-linejoin="miter" stroke-opacity="1.0" fill-opacity="1.0" stroke="rgb(0,0,0)" stroke-width="0.0" fill="rgb(0,0,255)" stroke-linecap="butt" stroke-miterlimit="10.0"><path d="M 141.3462,20.1923 c 0.0000,-3.1863 -2.5830,-5.7692 -5.7692 -5.7692c -3.1863,-0.0000 -5.7692,2.5830 -5.7692 5.7692c -0.0000,3.1863 2.5830,5.7692 5.7692 5.7692c 3.1863,0.0000 5.7692,-2.5830 5.7692 -5.7692Z"/></g><g stroke-linejoin="miter" stroke-opacity="1.0" fill-opacity="1.0" stroke="rgb(0,0,0)" stroke-width="0.0" fill="rgb(0,0,255)" stroke-linecap="butt" stroke-miterlimit="10.0"><path d="M 25.9615,77.8846 c 0.0000,-3.1863 -2.5830,-5.7692 -5.7692 -5.7692c -3.1863,-0.0000 -5.7692,2.5830 -5.7692 5.7692c -0.0000,3.1863 2.5830,5.7692 5.7692 5.7692c 3.1863,0.0000 5.7692,-2.5830 5.7692 -5.7692Z"/></g><g stroke-linejoin="miter" stroke-opacity="1.0" fill-opacity="1.0" stroke="rgb(0,0,0)" stroke-width="0.0" fill="rgb(0,0,255)" stroke-linecap="butt" stroke-miterlimit="10.0"><path d="M 285.5769,164.4231 c 0.0000,-3.1863 -2.5830,-5.7692 -5.7692 -5.7692c -3.1863,-0.0000 -5.7692,2.5830 -5.7692 5.7692c -0.0000,3.1863 2.5830,5.7692 5.7692 5.7692c 3.1863,0.0000 5.7692,-2.5830 5.7692 -5.7692Z"/></g><g stroke-linejoin="miter" stroke-opacity="1.0" fill-opacity="1.0" stroke="rgb(0,0,0)" stroke-width="0.0" fill="rgb(0,0,255)" stroke-linecap="butt" stroke-miterlimit="10.0"><path d="M 199.0385,20.1923 c 0.0000,-3.1863 -2.5830,-5.7692 -5.7692 -5.7692c -3.1863,-0.0000 -5.7692,2.5830 -5.7692 5.7692c -0.0000,3.1863 2.5830,5.7692 5.7692 5.7692c 3.1863,0.0000 5.7692,-2.5830 5.7692 -5.7692Z"/></g><g stroke-linejoin="miter" stroke-opacity="1.0" fill-opacity="1.0" stroke="rgb(0,0,0)" stroke-width="0.0" fill="rgb(0,0,255)" stroke-linecap="butt" stroke-miterlimit="10.0"><path d="M 141.3462,106.7308 c 0.0000,-3.1863 -2.5830,-5.7692 -5.7692 -5.7692c -3.1863,-0.0000 -5.7692,2.5830 -5.7692 5.7692c -0.0000,3.1863 2.5830,5.7692 5.7692 5.7692c 3.1863,0.0000 5.7692,-2.5830 5.7692 -5.7692Z"/></g></svg>