<?xml version="1.0" encoding="UTF-8"?>
<!DOCTYPE svg PUBLIC "-//W3C//DTD SVG 1.1//EN"
    "http://www.w3.org/Graphics/SVG/1.1/DTD/svg11.dtd">
<svg xmlns="http://www.w3.org/2000/svg" xmlns:xlink="http://www.w3.org/1999/xlink" version="1.1" width="200.0" height="182.15600114617723" font-size="1" viewBox="0 0 200 182" stroke="rgb(0,0,0)" stroke-opacity="1"><g><g fill="rgb(0,0,0)" fill-opacity="0.0"><g stroke="rgb(0,0,0)" stroke-opacity="1.0" stroke-width="0.7634783583493163" stroke-linecap="butt" stroke-linejoin="miter" font-size="1.0em" stroke-miterlimit="10.0"><g><g><path d="M 160.6111204622467,143.5731526092298 c 0.0,-16.735901510024043 -13.567128793006255,-30.3030303030303 -30.303030303030294 -30.3030303030303c -16.735901510024043,-1.024778410754815e-15 -30.3030303030303,13.567128793006253 -30.3030303030303 30.30303030303029c -2.04955682150963e-15,16.735901510024043 13.567128793006251,30.3030303030303 30.303030303030287 30.3030303030303c 16.735901510024043,3.0743352322644448e-15 30.3030303030303,-13.56712879300625 30.303030303030308 -30.30303030303029Z" /></g><g><path d="M 99.99494014381385,143.57315260922977 c 0.0,-16.735901510024043 -13.567128793006255,-30.3030303030303 -30.303030303030294 -30.3030303030303c -16.735901510024043,-1.024778410754815e-15 -30.3030303030303,13.567128793006253 -30.3030303030303 30.30303030303029c -2.04955682150963e-15,16.735901510024043 13.567128793006251,30.3030303030303 30.303030303030287 30.3030303030303c 16.735901510024043,3.0743352322644448e-15 30.3030303030303,-13.56712879300625 30.303030303030308 -30.30303030303029Z" /></g><g><path d="M 69.6969696969697,91.07800057308859 c 0.0,-16.735901510024043 -13.567128793006255,-30.3030303030303 -30.303030303030294 -30.3030303030303c -16.735901510024043,-1.024778410754815e-15 -30.3030303030303,13.567128793006253 -30.3030303030303 30.30303030303029c -2.04955682150963e-15,16.735901510024043 13.567128793006251,30.3030303030303 30.303030303030287 30.3030303030303c 16.735901510024043,3.0743352322644448e-15 30.3030303030303,-13.56712879300625 30.303030303030308 -30.30303030303029Z" /></g><g><path d="M 99.99494014381389,38.58284853694745 c 0.0,-16.735901510024043 -13.567128793006255,-30.3030303030303 -30.303030303030294 -30.3030303030303c -16.735901510024043,-1.024778410754815e-15 -30.3030303030303,13.567128793006253 -30.3030303030303 30.30303030303029c -2.04955682150963e-15,16.735901510024043 13.567128793006251,30.3030303030303 30.303030303030287 30.3030303030303c 16.735901510024043,3.0743352322644448e-15 30.3030303030303,-13.56712879300625 30.303030303030308 -30.30303030303029Z" /></g><g><path d="M 160.61112046224676,38.58284853694746 c 0.0,-16.735901510024043 -13.567128793006255,-30.3030303030303 -30.303030303030294 -30.3030303030303c -16.735901510024043,-1.024778410754815e-15 -30.3030303030303,13.567128793006253 -30.3030303030303 30.30303030303029c -2.04955682150963e-15,16.735901510024043 13.567128793006251,30.3030303030303 30.303030303030287 30.3030303030303c 16.735901510024043,3.0743352322644448e-15 30.3030303030303,-13.56712879300625 30.303030303030308 -30.30303030303029Z" /></g><g><path d="M 190.9090909090909,91.07800057308862 c 0.0,-16.735901510024043 -13.567128793006255,-30.3030303030303 -30.303030303030294 -30.3030303030303c -16.735901510024043,-1.024778410754815e-15 -30.3030303030303,13.567128793006253 -30.3030303030303 30.30303030303029c -2.04955682150963e-15,16.735901510024043 13.567128793006251,30.3030303030303 30.303030303030287 30.3030303030303c 16.735901510024043,3.0743352322644448e-15 30.3030303030303,-13.56712879300625 30.303030303030308 -30.30303030303029Z" /></g><g><path d="M 130.3030303030303,91.07800057308862 c 0.0,-16.735901510024043 -13.567128793006255,-30.3030303030303 -30.303030303030294 -30.3030303030303c -16.735901510024043,-1.024778410754815e-15 -30.3030303030303,13.567128793006253 -30.3030303030303 30.30303030303029c -2.04955682150963e-15,16.735901510024043 13.567128793006251,30.3030303030303 30.303030303030287 30.3030303030303c 16.735901510024043,3.0743352322644448e-15 30.3030303030303,-13.56712879300625 30.303030303030308 -30.30303030303029Z" /></g></g></g></g></g></svg>