<?xml version="1.0" encoding="UTF-8"?>
<!DOCTYPE svg PUBLIC "-//W3C//DTD SVG 1.1//EN"
    "http://www.w3.org/Graphics/SVG/1.1/DTD/svg11.dtd">
<svg xmlns="http://www.w3.org/2000/svg" xmlns:xlink="http://www.w3.org/1999/xlink" version="1.1" width="600.0" height="302.8587568898731" font-size="1" viewBox="0 0 600 303"><g><g transform="matrix(13.155574898915933,0.0,0.0,13.155574898915933,72.35566194403765,151.42937844493656)"><g stroke="rgb(0,128,0)" stroke-opacity="1.0" fill-opacity="0.0" stroke-width="0.1" font-size="1.0em"><path d="M 33.417476733497544,-1.6473872989404414 c 0.8062160672722944,1.9056016135526965 2.600074197059385,4.243483864433998 6.118107945156671 6.588839696498854" /></g></g><g transform="matrix(13.155574898915933,0.0,0.0,13.155574898915933,72.35566194403765,151.42937844493656)"><g stroke="rgb(255,0,0)" stroke-opacity="1.0" fill-opacity="0.0" stroke-width="0.1" font-size="1.0em"><path d="M 32.86092310128323,-3.9349733247464833 c 2.5438939233202618e-2,0.6274938344190009 0.18344919012734362,1.405702799055014 0.5565536322143174 2.287586025806042" /></g></g><g transform="matrix(13.155574898915933,0.0,0.0,13.155574898915933,72.35566194403765,151.42937844493656)"><g stroke="rgb(0,128,0)" stroke-opacity="1.0" fill-opacity="0.0" stroke-width="0.1" font-size="1.0em"><path d="M 33.000311673428904,-5.029283712603785 c -0.11129079091128213,0.22258158182256516 -0.16025559544153944,0.5795904798926212 -0.13938857214567424 1.094310387857302" /></g></g><g transform="matrix(13.155574898915933,0.0,0.0,13.155574898915933,72.35566194403765,151.42937844493656)"><g stroke="rgb(255,0,0)" stroke-opacity="1.0" fill-opacity="0.0" stroke-width="0.1" font-size="1.0em"><path d="M 32.97862528132407,-5.0044688233462296 c 5.153156049894303e-3,-5.8414837533096176e-3 1.6923908535257493e-2,-1.5289922118400412e-2 2.168639210483514e-2 -2.4814889257555706e-2" /></g></g><g transform="matrix(13.155574898915933,0.0,0.0,13.155574898915933,72.35566194403765,151.42937844493656)"><g stroke="rgb(0,128,0)" stroke-opacity="1.0" fill-opacity="0.0" stroke-width="0.1" font-size="1.0em"><path d="M 32.70873785722833,-4.826371179429536 c 8.358937623750418e-2,-3.149744611848071e-2 0.18599518779940594,-8.299958544359143e-2 0.26988742409574185 -0.17809764391669347" /></g></g><g transform="matrix(13.155574898915933,0.0,0.0,13.155574898915933,72.35566194403765,151.42937844493656)"><g stroke="rgb(255,0,0)" stroke-opacity="1.0" fill-opacity="0.0" stroke-width="0.1" font-size="1.0em"><path d="M 32.055356993320274,-4.853120624705525 c 0.2239174197438425,0.10443579260780034 0.4091073150965916,0.11879455062523725 0.6533808639080556 2.6749445275989103e-2" /></g></g><g transform="matrix(13.155574898915933,0.0,0.0,13.155574898915933,72.35566194403765,151.42937844493656)"><g stroke="rgb(0,128,0)" stroke-opacity="1.0" fill-opacity="0.0" stroke-width="0.1" font-size="1.0em"><path d="M 31.72347357921467,-5.143549245977102 c 9.378804941573238e-2,0.1587182374727778 0.21780468092203975,0.23722193939149783 0.3318834141055991 0.29042862127157676" /></g></g><g transform="matrix(13.155574898915933,0.0,0.0,13.155574898915933,72.35566194403765,151.42937844493656)"><g stroke="rgb(255,0,0)" stroke-opacity="1.0" fill-opacity="0.0" stroke-width="0.1" font-size="1.0em"><path d="M 31.691808767395802,-5.205805672754545 c 5.879553721364061e-3,2.493597961259475e-2 2.2991427605793202e-2,4.75783919553141e-2 3.16648118188696e-2 6.225642677744325e-2" /></g></g><g transform="matrix(13.155574898915933,0.0,0.0,13.155574898915933,72.35566194403765,151.42937844493656)"><g stroke="rgb(0,128,0)" stroke-opacity="1.0" fill-opacity="0.0" stroke-width="0.1" font-size="1.0em"><path d="M 31.711972577462916,-5.042326266928818 c -3.953664939657209e-3,-6.508340746820274e-2 -9.44329551919676e-3,-0.11801225901966994 -2.0163810067113097e-2 -0.1634794058257274" /></g></g><g transform="matrix(13.155574898915933,0.0,0.0,13.155574898915933,72.35566194403765,151.42937844493656)"><g stroke="rgb(255,0,0)" stroke-opacity="1.0" fill-opacity="0.0" stroke-width="0.1" font-size="1.0em"><path d="M 31.661929314384686,-4.205360512837057 c 4.7781656372351655e-2,-0.35039881339724666 6.298412834573863e-2,-0.6239392027650261 5.004326307822682e-2 -0.8369657540917608" /></g></g><g transform="matrix(13.155574898915933,0.0,0.0,13.155574898915933,72.35566194403765,151.42937844493656)"><g stroke="rgb(0,128,0)" stroke-opacity="1.0" fill-opacity="0.0" stroke-width="0.1" font-size="1.0em"><path d="M 28.08645729142907,5.326289096396298 c 2.4270875082384364,-4.854175016476873 3.347932569058263,-7.86302694731943 3.5754720229556165 -9.531649609233355" /></g></g><g transform="matrix(13.155574898915933,0.0,0.0,13.155574898915933,72.35566194403765,151.42937844493656)"><g stroke="rgb(0,0,255)" stroke-opacity="1.0" fill-opacity="0.0" stroke-width="0.1" font-size="1.0em"><path d="M 28.980884482428987,5.773502691896256 c 10.0,-20.0 -5.0,-10.0 10.0 0.0" /></g></g><g transform="matrix(13.155574898915933,0.0,0.0,13.155574898915933,72.35566194403765,151.42937844493656)"><g stroke="rgb(0,128,0)" stroke-opacity="1.0" fill-opacity="0.0" stroke-width="0.1" font-size="1.0em"><path d="M 22.22681744227194,-4.975977707743982 c 0.0,1.1652184940288226 4.6232805071259264e-2,5.8820192426981635 4.707106781186548 10.542893218813452" /></g></g><g transform="matrix(13.155574898915933,0.0,0.0,13.155574898915933,72.35566194403765,151.42937844493656)"><g stroke="rgb(255,0,0)" stroke-opacity="1.0" fill-opacity="0.0" stroke-width="0.1" font-size="1.0em"><path d="M 22.22527234029002,-5.190961309967572 c 1.3596945248055547e-3,5.336801009862491e-2 1.5451019819199274e-3,0.12796315263602231 1.5451019819199274e-3 0.21498360222359025" /></g></g><g transform="matrix(13.155574898915933,0.0,0.0,13.155574898915933,72.35566194403765,151.42937844493656)"><g stroke="rgb(0,128,0)" stroke-opacity="1.0" fill-opacity="0.0" stroke-width="0.1" font-size="1.0em"><path d="M 22.219061458808028,-5.310773112363486 c 2.6673527761378324e-3,3.11932088542779e-2 5.02539135926483e-3,7.328131507884272e-2 6.210881481992558e-3 0.1198118023959136" /></g></g><g transform="matrix(13.155574898915933,0.0,0.0,13.155574898915933,72.35566194403765,151.42937844493656)"><g stroke="rgb(255,0,0)" stroke-opacity="1.0" fill-opacity="0.0" stroke-width="0.1" font-size="1.0em"><path d="M 22.17283082599389,-5.555708087831506 c 1.5097180450167613e-2,4.906583646304519e-2 3.7738468810918135e-2,0.14562383531926137 4.623063281413753e-2 0.2449349754680199" /></g></g><g transform="matrix(13.155574898915933,0.0,0.0,13.155574898915933,72.35566194403765,151.42937844493656)"><g stroke="rgb(0,128,0)" stroke-opacity="1.0" fill-opacity="0.0" stroke-width="0.1" font-size="1.0em"><path d="M 21.98765210484117,-5.902700770832827 c 5.9159862296237264e-2,7.248909052964869e-2 0.13843512625198873,0.19507599957394817 0.1851787211527185 0.34699268300132147" /></g></g><g transform="matrix(13.155574898915933,0.0,0.0,13.155574898915933,72.35566194403765,151.42937844493656)"><g stroke="rgb(255,0,0)" stroke-opacity="1.0" fill-opacity="0.0" stroke-width="0.1" font-size="1.0em"><path d="M 21.651201254320615,-6.170110768106993 c 0.11662169140991807,5.7260927430492714e-2 0.231782074850714,0.13915844190093196 0.33645085052055723 0.26740999727416614" /></g></g><g transform="matrix(13.155574898915933,0.0,0.0,13.155574898915933,72.35566194403765,151.42937844493656)"><g stroke="rgb(0,128,0)" stroke-opacity="1.0" fill-opacity="0.0" stroke-width="0.1" font-size="1.0em"><path d="M 21.098403476790917,-6.266956245808321 c 0.20191976907307563,-2.2211174598037786e-2 0.37056518594124643,7.369780030821005e-3 0.5527977775296966 9.684547770132745e-2" /></g></g><g transform="matrix(13.155574898915933,0.0,0.0,13.155574898915933,72.35566194403765,151.42937844493656)"><g stroke="rgb(255,0,0)" stroke-opacity="1.0" fill-opacity="0.0" stroke-width="0.1" font-size="1.0em"><path d="M 20.68717773824717,-6.127488517764909 c 0.1437020759541605,-8.692183392465402e-2 0.28088371953770785,-0.12513010595274743 0.41122573854374966 -0.139467728043412" /></g></g><g transform="matrix(13.155574898915933,0.0,0.0,13.155574898915933,72.35566194403765,151.42937844493656)"><g stroke="rgb(0,128,0)" stroke-opacity="1.0" fill-opacity="0.0" stroke-width="0.1" font-size="1.0em"><path d="M 20.48926554076378,-5.971144448967711 c 6.721861761310333e-2,-6.819078770254983e-2 0.1366654818483104,-0.1192974443172492 0.19791219748339017 -0.15634406879719798" /></g></g><g transform="matrix(13.155574898915933,0.0,0.0,13.155574898915933,72.35566194403765,151.42937844493656)"><g stroke="rgb(255,0,0)" stroke-opacity="1.0" fill-opacity="0.0" stroke-width="0.1" font-size="1.0em"><path d="M 20.34021917756031,-5.779740302591862 c 4.9921581199019904e-2,-8.181592474283761e-2 0.10709836789040317,-0.14884946518015596 0.14904636320346842 -0.19140414637584868" /></g></g><g transform="matrix(13.155574898915933,0.0,0.0,13.155574898915933,72.35566194403765,151.42937844493656)"><g stroke="rgb(0,128,0)" stroke-opacity="1.0" fill-opacity="0.0" stroke-width="0.1" font-size="1.0em"><path d="M 20.208899018783505,-5.493502020830685 c 4.542742635734065e-2,-0.12492542248268634 0.10576723145080269,-0.244359873088003 0.13132015877680647 -0.28623828176117705" /></g></g><g transform="matrix(13.155574898915933,0.0,0.0,13.155574898915933,72.35566194403765,151.42937844493656)"><g stroke="rgb(255,0,0)" stroke-opacity="1.0" fill-opacity="0.0" stroke-width="0.1" font-size="1.0em"><path d="M 19.662024018783505,-3.911470770830685 c 0.30680648873951233,-0.8437178440336588 0.4701733778151218,-1.3711017889915862 0.546875 -1.58203125" /></g></g><g transform="matrix(13.155574898915933,0.0,0.0,13.155574898915933,72.35566194403765,151.42937844493656)"><g stroke="rgb(0,128,0)" stroke-opacity="1.0" fill-opacity="0.0" stroke-width="0.1" font-size="1.0em"><path d="M 15.332390251272024,5.826808696756062 c 2.472343200154557,-4.944686400309113 3.7115479674728395,-8.03854351748049 4.329633767511479 -9.738279467586747" /></g></g><g transform="matrix(13.155574898915933,0.0,0.0,13.155574898915933,72.35566194403765,151.42937844493656)"><g stroke="rgb(0,0,255)" stroke-opacity="1.0" fill-opacity="0.0" stroke-width="0.1" font-size="1.0em"><path d="M 16.22681744227194,6.27402229225602 c 10.0,-20.0 0.0,-10.0 10.0 0.0" /></g></g><g transform="matrix(13.155574898915933,0.0,0.0,13.155574898915933,72.35566194403765,151.42937844493656)"><g stroke="rgb(0,128,0)" stroke-opacity="1.0" fill-opacity="0.0" stroke-width="0.1" font-size="1.0em"><path d="M 13.009770219789226,-2.4104743608548755 c -0.2855399505357896,9.691052866669203e-2 -0.6461909532308479,0.16047436085487377 -1.0892105128500127 0.16047436085487377" /></g></g><g transform="matrix(13.155574898915933,0.0,0.0,13.155574898915933,72.35566194403765,151.42937844493656)"><g stroke="rgb(255,0,0)" stroke-opacity="1.0" fill-opacity="0.0" stroke-width="0.1" font-size="1.0em"><path d="M 13.893839526646092,-2.982120392131483 c -0.20403353302645844,0.23318118060166704 -0.4832891526977514,0.4356236759256369 -0.8840693068568655 0.5716460312766074" /></g></g><g transform="matrix(13.155574898915933,0.0,0.0,13.155574898915933,72.35566194403765,151.42937844493656)"><g stroke="rgb(0,128,0)" stroke-opacity="1.0" fill-opacity="0.0" stroke-width="0.1" font-size="1.0em"><path d="M 14.185013884508258,-4.851123441588392 c 0.2650946123717697,0.7069189663247197 0.17274121378843077,1.3388138247133696 -0.2911743578621664 1.869003049456909" /></g></g><g transform="matrix(13.155574898915933,0.0,0.0,13.155574898915933,72.35566194403765,151.42937844493656)"><g stroke="rgb(255,0,0)" stroke-opacity="1.0" fill-opacity="0.0" stroke-width="0.1" font-size="1.0em"><path d="M 11.295559706939214,-6.75 c 1.352827876148151,0.0 2.551247208532007,0.9969913076461747 2.8894541775690445 1.898876558411608" /></g></g><g transform="matrix(13.155574898915933,0.0,0.0,13.155574898915933,72.35566194403765,151.42937844493656)"><g stroke="rgb(0,128,0)" stroke-opacity="1.0" fill-opacity="0.0" stroke-width="0.1" font-size="1.0em"><path d="M 9.203810396758112,-5.989978417355905 c 0.7131947941382992,-0.5593684659908238 1.420507150992114,-0.7600215826440948 2.0917493101811018 -0.7600215826440948" /></g></g><g transform="matrix(13.155574898915933,0.0,0.0,13.155574898915933,72.35566194403765,151.42937844493656)"><g stroke="rgb(255,0,0)" stroke-opacity="1.0" fill-opacity="0.0" stroke-width="0.1" font-size="1.0em"><path d="M 7.49586988404493,-3.666654710493214 c 0.5144343791036887,-1.1224022816807757 1.1116643005702707,-1.8556560894957013 1.7079405127131826 -2.3233237068626913" /></g></g><g transform="matrix(13.155574898915933,0.0,0.0,13.155574898915933,72.35566194403765,151.42937844493656)"><g stroke="rgb(0,128,0)" stroke-opacity="1.0" fill-opacity="0.0" stroke-width="0.1" font-size="1.0em"><path d="M 5.920559706939214,6.75 c 0.0,-5.2028660713222505 0.6810675710972038,-8.46557993374737 1.5753101771057156 -10.416654710493214" /></g></g><g transform="matrix(13.155574898915933,0.0,0.0,13.155574898915933,72.35566194403765,151.42937844493656)"><g stroke="rgb(0,0,255)" stroke-opacity="1.0" fill-opacity="0.0" stroke-width="0.1" font-size="1.0em"><path d="M 6.920559706939214,6.75 c 0.0,-20.0 10.0,-10.0 5.0 -10.0" /></g></g><g transform="matrix(13.155574898915933,0.0,0.0,13.155574898915933,72.35566194403765,151.42937844493656)"><g stroke="rgb(0,128,0)" stroke-opacity="1.0" fill-opacity="0.0" stroke-width="0.1" font-size="1.0em"><path d="M 2.660826934705069,-8.569475230141833 c 0.4889565094920343,-0.9250528557957409 1.1220197779275782,-1.5564580708954985 1.9677823889408277 -1.8947631153007976" /></g></g><g transform="matrix(13.155574898915933,0.0,0.0,13.155574898915933,72.35566194403765,151.42937844493656)"><g stroke="rgb(255,0,0)" stroke-opacity="1.0" fill-opacity="0.0" stroke-width="0.1" font-size="1.0em"><path d="M 1.7534960535105757,-5.761630493146541 c 0.21565993096084224,-1.0869260520426458 0.5083600089169344,-2.0530349786323434 0.9073308811944933 -2.8078447369952926" /></g></g><g transform="matrix(13.155574898915933,0.0,0.0,13.155574898915933,72.35566194403765,151.42937844493656)"><g stroke="rgb(0,128,0)" stroke-opacity="1.0" fill-opacity="0.0" stroke-width="0.1" font-size="1.0em"><path d="M 0.8835457044574557,1.0837838328712444 c 0.31486663625486244,-2.3929864355369546 0.4763670537345419,-4.86175451761215 0.86995034905312 -6.845414326017785" /></g></g><g transform="matrix(13.155574898915933,0.0,0.0,13.155574898915933,72.35566194403765,151.42937844493656)"><g stroke="rgb(255,0,0)" stroke-opacity="1.0" fill-opacity="0.0" stroke-width="0.1" font-size="1.0em"><path d="M -0.7828015282143159,7.11175903331599 c 0.9591837382060433,-1.6232340185025347 1.3712137747622197,-3.7849609203321535 1.6663472326717716 -6.027975200444746" /></g></g><g transform="matrix(13.155574898915933,0.0,0.0,13.155574898915933,72.35566194403765,151.42937844493656)"><g stroke="rgb(0,128,0)" stroke-opacity="1.0" fill-opacity="0.0" stroke-width="0.1" font-size="1.0em"><path d="M -5.0,9.46423834544263 c 2.0016683287913244,0.0 3.404020713214209,-0.9763323360826055 4.217198471785684 -2.3524793121266407" /></g></g><g transform="matrix(13.155574898915933,0.0,0.0,13.155574898915933,72.35566194403765,151.42937844493656)"><g stroke="rgb(0,0,255)" stroke-opacity="1.0" fill-opacity="0.0" stroke-width="0.1" font-size="1.0em"><path d="M -5.0,10.46423834544263 c 10.0,0.0 5.0,-18.0 10.0 -20.0" /></g></g></g></svg>