<svg xmlns="http://www.w3.org/2000/svg" height="197.3830" stroke-opacity="1" viewBox="0 0 600 197" font-size="1" width="600.0000" xmlns:xlink="http://www.w3.org/1999/xlink" stroke="rgb(0,0,0)" version="1.1"><defs></defs><g stroke-linejoin="miter" stroke-opacity="1.0" fill-opacity="1.0" font-size="12.98696646675048px" stroke="rgb(0,0,0)" stroke-width="1.376545341172593" fill="rgb(0,0,0)" stroke-linecap="butt" font-family="Helvetica" stroke-miterlimit="10.0" font-weight="bold"><text dominant-baseline="middle" transform="matrix(1.0000,0.0000,0.0000,1.0000,481.8182,168.9306)" stroke="none" text-anchor="middle">LineCapSquare</text></g><g stroke-linejoin="miter" stroke-opacity="1.0" fill-opacity="1.0" stroke="rgb(0,0,0)" stroke-width="0.0" fill="rgb(0,128,0)" stroke-linecap="butt" stroke-miterlimit="10.0"><path d="M 416.8830,97.5017 h -25.9739 v 51.9479 h 25.9739 h 129.8697 c 14.3450,-0.0000 25.9739,-11.6289 25.9739 -25.9739c 0.0000,-6.0763 -2.1303,-11.9602 -6.0202 -16.6281l -64.9348,-77.9218 l -16.6281,-19.9537 l -39.9075,33.2562 l 16.6281,19.9537 l 64.9348,77.9218 c 9.1834,11.0201 25.5617,12.5091 36.5818 3.3256c 11.0201,-9.1834 12.5091,-25.5617 3.3256 -36.5818c -4.9349,-5.9219 -12.2452,-9.3458 -19.9537 -9.3458Z"/></g><g stroke-linejoin="miter" stroke-opacity="1.0" fill-opacity="0.0" stroke="rgb(255,255,255)" stroke-width="3.4413633529314827" fill="rgb(0,0,0)" stroke-linecap="butt" stroke-miterlimit="10.0"><path d="M 416.8830,123.4756 h 129.8697 l -64.9348,-77.9218 "/></g><g stroke-linejoin="miter" stroke-opacity="1.0" fill-opacity="1.0" font-size="12.98696646675048px" stroke="rgb(0,0,0)" stroke-width="1.376545341172593" fill="rgb(0,0,0)" stroke-linecap="butt" font-family="Helvetica" stroke-miterlimit="10.0" font-weight="bold"><text dominant-baseline="middle" transform="matrix(1.0000,0.0000,0.0000,1.0000,287.0130,163.6270)" stroke="none" text-anchor="middle">LineCapRound</text></g><g stroke-linejoin="miter" stroke-opacity="1.0" fill-opacity="1.0" stroke="rgb(0,0,0)" stroke-width="0.0" fill="rgb(0,128,0)" stroke-linecap="butt" stroke-miterlimit="10.0"><path d="M 222.0779,92.1980 c -14.3450,-0.0000 -25.9739,11.6289 -25.9739 25.9739c -0.0000,14.3450 11.6289,25.9739 25.9739 25.9739h 129.8697 c 14.3450,-0.0000 25.9739,-11.6289 25.9739 -25.9739c 0.0000,-6.0763 -2.1303,-11.9602 -6.0202 -16.6281l -64.9348,-77.9218 c -9.1834,-11.0201 -25.5617,-12.5091 -36.5818 -3.3256c -11.0201,9.1834 -12.5091,25.5617 -3.3256 36.5818l 64.9348,77.9218 c 9.1834,11.0201 25.5617,12.5091 36.5818 3.3256c 11.0201,-9.1834 12.5091,-25.5617 3.3256 -36.5818c -4.9349,-5.9219 -12.2452,-9.3458 -19.9537 -9.3458Z"/></g><g stroke-linejoin="miter" stroke-opacity="1.0" fill-opacity="0.0" stroke="rgb(255,255,255)" stroke-width="3.4413633529314827" fill="rgb(0,0,0)" stroke-linecap="butt" stroke-miterlimit="10.0"><path d="M 222.0779,118.1720 h 129.8697 l -64.9348,-77.9218 "/></g><g stroke-linejoin="miter" stroke-opacity="1.0" fill-opacity="1.0" font-size="12.98696646675048px" stroke="rgb(0,0,0)" stroke-width="1.376545341172593" fill="rgb(0,0,0)" stroke-linecap="butt" font-family="Helvetica" stroke-miterlimit="10.0" font-weight="bold"><text dominant-baseline="middle" transform="matrix(1.0000,0.0000,0.0000,1.0000,105.1949,158.9538)" stroke="none" text-anchor="middle">LineCapButt</text></g><g stroke-linejoin="miter" stroke-opacity="1.0" fill-opacity="1.0" stroke="rgb(0,0,0)" stroke-width="0.0" fill="rgb(0,128,0)" stroke-linecap="butt" stroke-miterlimit="10.0"><path d="M 27.2727,87.5248 v 51.9479 h 129.8697 c 14.3450,-0.0000 25.9739,-11.6289 25.9739 -25.9739c 0.0000,-6.0763 -2.1303,-11.9602 -6.0202 -16.6281l -64.9348,-77.9218 l -39.9075,33.2562 l 64.9348,77.9218 c 9.1834,11.0201 25.5617,12.5091 36.5818 3.3256c 11.0201,-9.1834 12.5091,-25.5617 3.3256 -36.5818c -4.9349,-5.9219 -12.2452,-9.3458 -19.9537 -9.3458Z"/></g><g stroke-linejoin="miter" stroke-opacity="1.0" fill-opacity="0.0" stroke="rgb(255,255,255)" stroke-width="3.4413633529314827" fill="rgb(0,0,0)" stroke-linecap="butt" stroke-miterlimit="10.0"><path d="M 27.2727,113.4987 h 129.8697 l -64.9348,-77.9218 "/></g></svg>