<?xml version="1.0" encoding="UTF-8"?>
<!DOCTYPE svg PUBLIC "-//W3C//DTD SVG 1.1//EN"
    "http://www.w3.org/Graphics/SVG/1.1/DTD/svg11.dtd">
<svg xmlns="http://www.w3.org/2000/svg" xmlns:xlink="http://www.w3.org/1999/xlink" version="1.1" width="300.0" height="166.66666666666669" font-size="1" viewBox="0 0 300 167"><g><g stroke="rgb(0,0,0)" stroke-opacity="1.0" fill="rgb(0,0,0)" fill-opacity="0.0" stroke-width="1.0e-2" stroke-linecap="butt" stroke-linejoin="miter" font-size="1.0em" stroke-miterlimit="10.0"><g transform="matrix(55.555555555555564,0.0,0.0,55.555555555555564,150.0,83.33333333333334)"><g><g><g fill="rgb(0,0,255)" fill-opacity="1.0"><path d="M 2.0,1.0 l -2.220446049250313e-16,-2.0 h -2.0 l -2.220446049250313e-16,2.0 h 2.0 Z" /></g><g stroke="rgb(255,255,255)" stroke-opacity="1.0" stroke-dasharray="0.1,0.1" stroke-dashoffset="0.0"><path d="M 1.7999999999999998,1.1102230246251565e-16 c 0.0,-0.4418277998646348 -0.35817220013536516,-0.8 -0.7999999999999998 -0.8c -0.4418277998646348,-2.7054150043927117e-17 -0.8,0.3581722001353651 -0.8 0.7999999999999998c -5.4108300087854235e-17,0.4418277998646348 0.3581722001353651,0.8 0.7999999999999997 0.8c 0.4418277998646348,8.116245013178136e-17 0.8,-0.35817220013536505 0.8000000000000002 -0.7999999999999998Z" /></g></g><g fill="rgb(0,128,0)" fill-opacity="1.0"><path d="M 0.19999999999999996,1.1102230246251565e-16 c 0.0,-0.5522847498307935 -0.44771525016920644,-1.0 -0.9999999999999998 -1.0c -0.5522847498307935,-3.3817687554908895e-17 -1.0,0.4477152501692064 -1.0 0.9999999999999997c -6.763537510981779e-17,0.5522847498307935 0.4477152501692063,1.0 0.9999999999999996 1.0c 0.5522847498307935,1.0145306266472669e-16 1.0,-0.44771525016920627 1.0000000000000002 -0.9999999999999997Z" /></g></g></g></g></g></svg>