<?xml version="1.0" encoding="UTF-8"?>
<!DOCTYPE svg PUBLIC "-//W3C//DTD SVG 1.1//EN"
    "http://www.w3.org/Graphics/SVG/1.1/DTD/svg11.dtd">
<svg xmlns="http://www.w3.org/2000/svg" xmlns:xlink="http://www.w3.org/1999/xlink" version="1.1" width="600.0" height="197.3830287816636" font-size="1" viewBox="0 0 600 197" stroke="rgb(0,0,0)" stroke-opacity="1"><g><g fill="rgb(0,0,0)" fill-opacity="0.0"><g stroke="rgb(0,0,0)" stroke-opacity="1.0" stroke-width="1.376545341172593" stroke-linecap="butt" stroke-linejoin="miter" font-size="1.0em" stroke-miterlimit="10.0"><g><g><g><g fill="rgb(0,0,0)" fill-opacity="1.0" font-weight="bold" font-family="Helvetica"><g fill="rgb(0,0,0)" fill-opacity="1.0"><text transform="matrix(12.98696646675048,0.0,0.0,12.98696646675048,481.81818181818187,168.9306232278259)" dominant-baseline="middle" text-anchor="middle" stroke="none">LineCapSquare</text></g></g></g><g><g fill="rgb(0,128,0)" fill-opacity="1.0" stroke-width="0.0"><g fill="rgb(0,128,0)" fill-opacity="1.0"><g fill="rgb(0,128,0)" fill-opacity="1.0"><path d="M 416.8830238425919,97.50165637702322 h -25.97393293350096 v 51.94786586700192 h 25.97393293350096 h 129.86966466750482 c 14.345007052300385,-8.783783485172937e-16 25.97393293350096,-11.628925881200574 25.973932933500958 -25.973932933500958c 0.0,-6.076251092058475 -2.130283781570332,-11.960201272862653 -6.020204939150425 -16.62810666195877l -64.93483233375241,-77.92179880050288 l -16.628106661958775,-19.953727994350533 l -39.907455988701045,33.25621332391753 l 16.628106661958775,19.953727994350533 l 64.93483233375241,77.92179880050288 c 9.183449727959651,11.020139673551585 25.561694982757718,12.509071060351415 36.5818346563093 3.325621332391765c 11.020139673551585,-9.183449727959651 12.509071060351415,-25.561694982757714 3.3256213323917683 -36.5818346563093c -4.934886876493225,-5.921864251791868 -12.245188268797092,-9.34582627154219 -19.95372799435053 -9.34582627154219Z" /></g></g></g><g stroke="rgb(255,255,255)" stroke-opacity="1.0" stroke-width="3.4413633529314827"><path d="M 416.8830238425919,123.47558931052419 h 129.86966466750482 l -64.93483233375241,-77.92179880050288 " /></g></g></g><g><g><g fill="rgb(0,0,0)" fill-opacity="1.0" font-weight="bold" font-family="Helvetica"><g fill="rgb(0,0,0)" fill-opacity="1.0"><text transform="matrix(12.98696646675048,0.0,0.0,12.98696646675048,287.0130335332496,163.62699800825925)" dominant-baseline="middle" text-anchor="middle" stroke="none">LineCapRound</text></g></g></g><g><g fill="rgb(0,128,0)" fill-opacity="1.0" stroke-width="0.0"><g fill="rgb(0,128,0)" fill-opacity="1.0"><g fill="rgb(0,128,0)" fill-opacity="1.0"><path d="M 222.07787555765964,92.19803115745658 c -14.345007052300385,-8.783783485172937e-16 -25.97393293350096,11.628925881200571 -25.97393293350096 25.973932933500954c -1.7567566970345874e-15,14.345007052300385 11.628925881200571,25.97393293350096 25.97393293350095 25.97393293350096h 129.86966466750482 c 14.345007052300385,-8.783783485172937e-16 25.97393293350096,-11.628925881200574 25.973932933500958 -25.973932933500958c 0.0,-6.076251092058475 -2.130283781570332,-11.960201272862653 -6.020204939150425 -16.62810666195877l -64.93483233375241,-77.92179880050288 c -9.183449727959651,-11.020139673551583 -25.56169498275772,-12.50907106035141 -36.5818346563093 -3.3256213323917594c -11.020139673551583,9.183449727959651 -12.509071060351411,25.56169498275772 -3.3256213323917625 36.5818346563093l 64.93483233375241,77.92179880050288 c 9.183449727959651,11.020139673551585 25.561694982757718,12.509071060351415 36.5818346563093 3.325621332391765c 11.020139673551585,-9.183449727959651 12.509071060351415,-25.561694982757714 3.3256213323917683 -36.5818346563093c -4.934886876493225,-5.921864251791868 -12.245188268797092,-9.34582627154219 -19.95372799435053 -9.34582627154219Z" /></g></g></g><g stroke="rgb(255,255,255)" stroke-opacity="1.0" stroke-width="3.4413633529314827"><path d="M 222.07787555765964,118.17196409095754 h 129.86966466750482 l -64.93483233375241,-77.92179880050288 " /></g></g></g><g><g fill="rgb(0,0,0)" fill-opacity="1.0" font-weight="bold" font-family="Helvetica"><g fill="rgb(0,0,0)" fill-opacity="1.0"><text transform="matrix(12.98696646675048,0.0,0.0,12.98696646675048,105.19485171506778,158.95375923065063)" dominant-baseline="middle" text-anchor="middle" stroke="none">LineCapButt</text></g></g></g><g><g fill="rgb(0,128,0)" fill-opacity="1.0" stroke-width="0.0"><g fill="rgb(0,128,0)" fill-opacity="1.0"><g fill="rgb(0,128,0)" fill-opacity="1.0"><path d="M 27.272727272727366,87.52479237984795 v 51.94786586700192 h 129.86966466750482 c 14.345007052300385,-8.783783485172937e-16 25.97393293350096,-11.628925881200574 25.973932933500958 -25.973932933500958c 0.0,-6.076251092058475 -2.130283781570332,-11.960201272862653 -6.020204939150425 -16.62810666195877l -64.93483233375241,-77.92179880050288 l -39.907455988701045,33.25621332391753 l 64.93483233375241,77.92179880050288 c 9.183449727959651,11.020139673551585 25.561694982757718,12.509071060351415 36.5818346563093 3.325621332391765c 11.020139673551585,-9.183449727959651 12.509071060351415,-25.561694982757714 3.3256213323917683 -36.5818346563093c -4.934886876493225,-5.921864251791868 -12.245188268797092,-9.34582627154219 -19.95372799435053 -9.34582627154219Z" /></g></g></g><g stroke="rgb(255,255,255)" stroke-opacity="1.0" stroke-width="3.4413633529314827"><path d="M 27.272727272727366,113.49872531334891 h 129.86966466750482 l -64.93483233375241,-77.92179880050288 " /></g></g></g></g></g></g></svg>