<svg xmlns="http://www.w3.org/2000/svg" height="76.1905" stroke-opacity="1" viewBox="0 0 400 76" font-size="1" width="400.0000" xmlns:xlink="http://www.w3.org/1999/xlink" stroke="rgb(0,0,0)" version="1.1"><defs></defs><g stroke-linejoin="miter" stroke-opacity="1.0" fill-opacity="0.0" stroke="rgb(0,0,0)" stroke-width="0.6982972487551757" fill="rgb(0,0,0)" stroke-linecap="butt" stroke-miterlimit="10.0"><path d="M 381.8182,55.4113 v -17.3160 c -19.1267,-0.0000 -34.6320,-15.5053 -34.6320 -34.6320h -51.9481 c -19.1267,-0.0000 -34.6320,15.5053 -34.6320 34.6320v 34.6320 h 103.8961 c 9.5634,0.0000 17.3160,-7.7526 17.3160 -17.3160Z"/></g><g stroke-linejoin="miter" stroke-opacity="1.0" fill-opacity="0.0" stroke="rgb(0,0,0)" stroke-width="0.6982972487551757" fill="rgb(0,0,0)" stroke-linecap="butt" stroke-miterlimit="10.0"><path d="M 225.9740,55.4113 v -34.6320 c -9.5634,-0.0000 -17.3160,-7.7526 -17.3160 -17.3160h -51.9481 c -0.0000,9.5634 -7.7526,17.3160 -17.3160 17.3160v 34.6320 c 9.5634,0.0000 17.3160,7.7526 17.3160 17.3160h 51.9481 c 0.0000,-9.5634 7.7526,-17.3160 17.3160 -17.3160Z"/></g><g stroke-linejoin="miter" stroke-opacity="1.0" fill-opacity="0.0" stroke="rgb(0,0,0)" stroke-width="0.6982972487551757" fill="rgb(0,0,0)" stroke-linecap="butt" stroke-miterlimit="10.0"><path d="M 104.7619,55.4113 v -34.6320 c 0.0000,-9.5634 -7.7526,-17.3160 -17.3160 -17.3160h -51.9481 c -9.5634,-0.0000 -17.3160,7.7526 -17.3160 17.3160v 34.6320 c -0.0000,9.5634 7.7526,17.3160 17.3160 17.3160h 51.9481 c 9.5634,0.0000 17.3160,-7.7526 17.3160 -17.3160Z"/></g></svg>