<?xml version="1.0" encoding="UTF-8"?>
<!DOCTYPE svg PUBLIC "-//W3C//DTD SVG 1.1//EN"
    "http://www.w3.org/Graphics/SVG/1.1/DTD/svg11.dtd">
<svg xmlns="http://www.w3.org/2000/svg" xmlns:xlink="http://www.w3.org/1999/xlink" version="1.1" width="300.0" height="259.80762113533166" font-size="1" viewBox="0 0 300 260" stroke="rgb(0,0,0)" stroke-opacity="1"><g><g fill="rgb(0,0,0)" fill-opacity="0.0"><g stroke="rgb(0,0,0)" stroke-opacity="1.0" stroke-width="1.1167258309225196" stroke-linecap="butt" stroke-linejoin="miter" font-size="1.0em" stroke-miterlimit="10.0"><g><path d="M 81.81818181818174,247.99818381099834 h 0.0 " /><path d="M 81.81818181818174,247.99818381099834 l -68.18181818181809,-118.09437324333258 " /><path d="M 81.81818181818174,247.99818381099834 l 1.3625464393126918e-13,-236.18874648666508 " /><path d="M 81.81818181818174,247.99818381099834 l 136.36363636363646,-236.188746486665 " /><path d="M 81.81818181818174,247.99818381099834 l 204.5454545454546,-118.09437324333246 " /><path d="M 81.81818181818174,247.99818381099834 l 136.3636363636364,4.5418214643756395e-14 " /><path d="M 13.636363636363654,129.90381056766577 l 68.18181818181809,118.09437324333258 " /><path d="M 13.636363636363654,129.90381056766577 h 0.0 " /><path d="M 13.636363636363654,129.90381056766577 l 68.18181818181822,-118.09437324333248 " /><path d="M 13.636363636363654,129.90381056766577 l 204.54545454545456,-118.09437324333243 " /><path d="M 13.636363636363654,129.90381056766577 l 272.7272727272727,1.2111523905001706e-13 " /><path d="M 13.636363636363654,129.90381056766577 l 204.54545454545445,118.09437324333263 " /><path d="M 81.81818181818187,11.809437324333274 l -1.3625464393126918e-13,236.18874648666508 " /><path d="M 81.81818181818187,11.809437324333274 l -68.18181818181822,118.09437324333248 " /><path d="M 81.81818181818187,11.809437324333274 h 0.0 " /><path d="M 81.81818181818187,11.809437324333274 l 136.36363636363632,6.055761952500853e-14 " /><path d="M 81.81818181818187,11.809437324333274 l 204.54545454545445,118.09437324333261 " /><path d="M 81.81818181818187,11.809437324333274 l 136.36363636363626,236.1887464866651 " /><path d="M 218.1818181818182,11.80943732433333 l -136.36363636363646,236.188746486665 " /><path d="M 218.1818181818182,11.80943732433333 l -204.54545454545456,118.09437324333243 " /><path d="M 218.1818181818182,11.80943732433333 l -136.36363636363632,-6.055761952500853e-14 " /><path d="M 218.1818181818182,11.80943732433333 h 0.0 " /><path d="M 218.1818181818182,11.80943732433333 l 68.18181818181813,118.09437324333256 " /><path d="M 218.1818181818182,11.80943732433333 l -7.569702440626067e-14,236.18874648666505 " /><path d="M 286.3636363636363,129.9038105676659 l -204.5454545454546,118.09437324333246 " /><path d="M 286.3636363636363,129.9038105676659 l -272.7272727272727,-1.2111523905001706e-13 " /><path d="M 286.3636363636363,129.9038105676659 l -204.54545454545445,-118.09437324333261 " /><path d="M 286.3636363636363,129.9038105676659 l -68.18181818181813,-118.09437324333256 " /><path d="M 286.3636363636363,129.9038105676659 h 0.0 " /><path d="M 286.3636363636363,129.9038105676659 l -68.1818181818182,118.0943732433325 " /><path d="M 218.18181818181813,247.9981838109984 l -136.3636363636364,-4.5418214643756395e-14 " /><path d="M 218.18181818181813,247.9981838109984 l -204.54545454545445,-118.09437324333263 " /><path d="M 218.18181818181813,247.9981838109984 l -136.36363636363626,-236.1887464866651 " /><path d="M 218.18181818181813,247.9981838109984 l 7.569702440626067e-14,-236.18874648666505 " /><path d="M 218.18181818181813,247.9981838109984 l 68.1818181818182,-118.0943732433325 " /><path d="M 218.18181818181813,247.9981838109984 h 0.0 " /></g></g></g></g></svg>