<?xml version="1.0" encoding="UTF-8"?>
<!DOCTYPE svg PUBLIC "-//W3C//DTD SVG 1.1//EN"
    "http://www.w3.org/Graphics/SVG/1.1/DTD/svg11.dtd">
<svg xmlns="http://www.w3.org/2000/svg" xmlns:xlink="http://www.w3.org/1999/xlink" version="1.1" width="204.25531914893568" height="300.0" font-size="1" viewBox="0 0 204 300"><g><g stroke="rgb(0,0,0)" stroke-opacity="1.0" fill="rgb(0,0,0)" fill-opacity="0.0" stroke-width="1.0e-2" stroke-linecap="butt" stroke-linejoin="miter" font-size="1.0em" stroke-miterlimit="10.0"><g transform="matrix(31.91489361702117,0.0,0.0,31.91489361702117,102.12765957446776,293.6170212765958)"><g fill="rgb(0,0,0)" fill-opacity="1.0"><path d="M 3.2000000000000055,-9.000000000000032 c 0.0,-0.1104569499661587 -8.954305003384129e-2,-0.2 -0.19999999999999996 -0.2c -0.1104569499661587,-6.763537510981779e-18 -0.2,8.954305003384128e-2 -0.2 0.19999999999999996c -1.3527075021963559e-17,0.1104569499661587 8.954305003384128e-2,0.2 0.19999999999999993 0.2c 0.1104569499661587,2.029061253294534e-17 0.2,-8.954305003384126e-2 0.20000000000000004 -0.19999999999999996Z" /></g><g fill="rgb(0,0,0)" fill-opacity="1.0"><path d="M 3.0000000000000053,-7.840000000000029 c 0.0,-0.1104569499661587 -8.954305003384129e-2,-0.2 -0.19999999999999996 -0.2c -0.1104569499661587,-6.763537510981779e-18 -0.2,8.954305003384128e-2 -0.2 0.19999999999999996c -1.3527075021963559e-17,0.1104569499661587 8.954305003384128e-2,0.2 0.19999999999999993 0.2c 0.1104569499661587,2.029061253294534e-17 0.2,-8.954305003384126e-2 0.20000000000000004 -0.19999999999999996Z" /></g><g fill="rgb(0,0,0)" fill-opacity="1.0"><path d="M 2.800000000000005,-6.7600000000000255 c 0.0,-0.1104569499661587 -8.954305003384129e-2,-0.2 -0.19999999999999996 -0.2c -0.1104569499661587,-6.763537510981779e-18 -0.2,8.954305003384128e-2 -0.2 0.19999999999999996c -1.3527075021963559e-17,0.1104569499661587 8.954305003384128e-2,0.2 0.19999999999999993 0.2c 0.1104569499661587,2.029061253294534e-17 0.2,-8.954305003384126e-2 0.20000000000000004 -0.19999999999999996Z" /></g><g fill="rgb(0,0,0)" fill-opacity="1.0"><path d="M 2.600000000000005,-5.760000000000023 c 0.0,-0.1104569499661587 -8.954305003384129e-2,-0.2 -0.19999999999999996 -0.2c -0.1104569499661587,-6.763537510981779e-18 -0.2,8.954305003384128e-2 -0.2 0.19999999999999996c -1.3527075021963559e-17,0.1104569499661587 8.954305003384128e-2,0.2 0.19999999999999993 0.2c 0.1104569499661587,2.029061253294534e-17 0.2,-8.954305003384126e-2 0.20000000000000004 -0.19999999999999996Z" /></g><g fill="rgb(0,0,0)" fill-opacity="1.0"><path d="M 2.400000000000005,-4.84000000000002 c 0.0,-0.1104569499661587 -8.954305003384129e-2,-0.2 -0.19999999999999996 -0.2c -0.1104569499661587,-6.763537510981779e-18 -0.2,8.954305003384128e-2 -0.2 0.19999999999999996c -1.3527075021963559e-17,0.1104569499661587 8.954305003384128e-2,0.2 0.19999999999999993 0.2c 0.1104569499661587,2.029061253294534e-17 0.2,-8.954305003384126e-2 0.20000000000000004 -0.19999999999999996Z" /></g><g fill="rgb(0,0,0)" fill-opacity="1.0"><path d="M 2.2000000000000046,-4.000000000000018 c 0.0,-0.1104569499661587 -8.954305003384129e-2,-0.2 -0.19999999999999996 -0.2c -0.1104569499661587,-6.763537510981779e-18 -0.2,8.954305003384128e-2 -0.2 0.19999999999999996c -1.3527075021963559e-17,0.1104569499661587 8.954305003384128e-2,0.2 0.19999999999999993 0.2c 0.1104569499661587,2.029061253294534e-17 0.2,-8.954305003384126e-2 0.20000000000000004 -0.19999999999999996Z" /></g><g fill="rgb(0,0,0)" fill-opacity="1.0"><path d="M 2.0000000000000044,-3.2400000000000153 c 0.0,-0.1104569499661587 -8.954305003384129e-2,-0.2 -0.19999999999999996 -0.2c -0.1104569499661587,-6.763537510981779e-18 -0.2,8.954305003384128e-2 -0.2 0.19999999999999996c -1.3527075021963559e-17,0.1104569499661587 8.954305003384128e-2,0.2 0.19999999999999993 0.2c 0.1104569499661587,2.029061253294534e-17 0.2,-8.954305003384126e-2 0.20000000000000004 -0.19999999999999996Z" /></g><g fill="rgb(0,0,0)" fill-opacity="1.0"><path d="M 1.800000000000004,-2.560000000000013 c 0.0,-0.1104569499661587 -8.954305003384129e-2,-0.2 -0.19999999999999996 -0.2c -0.1104569499661587,-6.763537510981779e-18 -0.2,8.954305003384128e-2 -0.2 0.19999999999999996c -1.3527075021963559e-17,0.1104569499661587 8.954305003384128e-2,0.2 0.19999999999999993 0.2c 0.1104569499661587,2.029061253294534e-17 0.2,-8.954305003384126e-2 0.20000000000000004 -0.19999999999999996Z" /></g><g fill="rgb(0,0,0)" fill-opacity="1.0"><path d="M 1.6000000000000039,-1.9600000000000108 c 0.0,-0.1104569499661587 -8.954305003384129e-2,-0.2 -0.19999999999999996 -0.2c -0.1104569499661587,-6.763537510981779e-18 -0.2,8.954305003384128e-2 -0.2 0.19999999999999996c -1.3527075021963559e-17,0.1104569499661587 8.954305003384128e-2,0.2 0.19999999999999993 0.2c 0.1104569499661587,2.029061253294534e-17 0.2,-8.954305003384126e-2 0.20000000000000004 -0.19999999999999996Z" /></g><g fill="rgb(0,0,0)" fill-opacity="1.0"><path d="M 1.4000000000000037,-1.440000000000009 c 0.0,-0.1104569499661587 -8.954305003384129e-2,-0.2 -0.19999999999999996 -0.2c -0.1104569499661587,-6.763537510981779e-18 -0.2,8.954305003384128e-2 -0.2 0.19999999999999996c -1.3527075021963559e-17,0.1104569499661587 8.954305003384128e-2,0.2 0.19999999999999993 0.2c 0.1104569499661587,2.029061253294534e-17 0.2,-8.954305003384126e-2 0.20000000000000004 -0.19999999999999996Z" /></g><g fill="rgb(0,0,0)" fill-opacity="1.0"><path d="M 1.2000000000000035,-1.000000000000007 c 0.0,-0.1104569499661587 -8.954305003384129e-2,-0.2 -0.19999999999999996 -0.2c -0.1104569499661587,-6.763537510981779e-18 -0.2,8.954305003384128e-2 -0.2 0.19999999999999996c -1.3527075021963559e-17,0.1104569499661587 8.954305003384128e-2,0.2 0.19999999999999993 0.2c 0.1104569499661587,2.029061253294534e-17 0.2,-8.954305003384126e-2 0.20000000000000004 -0.19999999999999996Z" /></g><g fill="rgb(0,0,0)" fill-opacity="1.0"><path d="M 1.0000000000000033,-0.6400000000000055 c 0.0,-0.1104569499661587 -8.954305003384129e-2,-0.2 -0.19999999999999996 -0.2c -0.1104569499661587,-6.763537510981779e-18 -0.2,8.954305003384128e-2 -0.2 0.19999999999999996c -1.3527075021963559e-17,0.1104569499661587 8.954305003384128e-2,0.2 0.19999999999999993 0.2c 0.1104569499661587,2.029061253294534e-17 0.2,-8.954305003384126e-2 0.20000000000000004 -0.19999999999999996Z" /></g><g fill="rgb(0,0,0)" fill-opacity="1.0"><path d="M 0.8000000000000032,-0.3600000000000038 c 0.0,-0.1104569499661587 -8.954305003384129e-2,-0.2 -0.19999999999999996 -0.2c -0.1104569499661587,-6.763537510981779e-18 -0.2,8.954305003384128e-2 -0.2 0.19999999999999996c -1.3527075021963559e-17,0.1104569499661587 8.954305003384128e-2,0.2 0.19999999999999993 0.2c 0.1104569499661587,2.029061253294534e-17 0.2,-8.954305003384126e-2 0.20000000000000004 -0.19999999999999996Z" /></g><g fill="rgb(0,0,0)" fill-opacity="1.0"><path d="M 0.600000000000003,-0.16000000000000242 c 0.0,-0.1104569499661587 -8.954305003384129e-2,-0.2 -0.19999999999999996 -0.2c -0.1104569499661587,-6.763537510981779e-18 -0.2,8.954305003384128e-2 -0.2 0.19999999999999996c -1.3527075021963559e-17,0.1104569499661587 8.954305003384128e-2,0.2 0.19999999999999993 0.2c 0.1104569499661587,2.029061253294534e-17 0.2,-8.954305003384126e-2 0.20000000000000004 -0.19999999999999996Z" /></g><g fill="rgb(0,0,0)" fill-opacity="1.0"><path d="M 0.40000000000000285,-4.000000000000114e-2 c 0.0,-0.1104569499661587 -8.954305003384129e-2,-0.2 -0.19999999999999996 -0.2c -0.1104569499661587,-6.763537510981779e-18 -0.2,8.954305003384128e-2 -0.2 0.19999999999999996c -1.3527075021963559e-17,0.1104569499661587 8.954305003384128e-2,0.2 0.19999999999999993 0.2c 0.1104569499661587,2.029061253294534e-17 0.2,-8.954305003384126e-2 0.20000000000000004 -0.19999999999999996Z" /></g><g fill="rgb(0,0,0)" fill-opacity="1.0"><path d="M 0.20000000000000268,-7.099748146989106e-30 c 0.0,-0.1104569499661587 -8.954305003384129e-2,-0.2 -0.19999999999999996 -0.2c -0.1104569499661587,-6.763537510981779e-18 -0.2,8.954305003384128e-2 -0.2 0.19999999999999996c -1.3527075021963559e-17,0.1104569499661587 8.954305003384128e-2,0.2 0.19999999999999993 0.2c 0.1104569499661587,2.029061253294534e-17 0.2,-8.954305003384126e-2 0.20000000000000004 -0.19999999999999996Z" /></g><g fill="rgb(0,0,0)" fill-opacity="1.0"><path d="M 2.4980018054066022e-15,-3.999999999999901e-2 c 0.0,-0.1104569499661587 -8.954305003384129e-2,-0.2 -0.19999999999999996 -0.2c -0.1104569499661587,-6.763537510981779e-18 -0.2,8.954305003384128e-2 -0.2 0.19999999999999996c -1.3527075021963559e-17,0.1104569499661587 8.954305003384128e-2,0.2 0.19999999999999993 0.2c 0.1104569499661587,2.029061253294534e-17 0.2,-8.954305003384126e-2 0.20000000000000004 -0.19999999999999996Z" /></g><g fill="rgb(0,0,0)" fill-opacity="1.0"><path d="M -0.19999999999999768,-0.15999999999999814 c 0.0,-0.1104569499661587 -8.954305003384129e-2,-0.2 -0.19999999999999996 -0.2c -0.1104569499661587,-6.763537510981779e-18 -0.2,8.954305003384128e-2 -0.2 0.19999999999999996c -1.3527075021963559e-17,0.1104569499661587 8.954305003384128e-2,0.2 0.19999999999999993 0.2c 0.1104569499661587,2.029061253294534e-17 0.2,-8.954305003384126e-2 0.20000000000000004 -0.19999999999999996Z" /></g><g fill="rgb(0,0,0)" fill-opacity="1.0"><path d="M -0.39999999999999786,-0.35999999999999743 c 0.0,-0.1104569499661587 -8.954305003384129e-2,-0.2 -0.19999999999999996 -0.2c -0.1104569499661587,-6.763537510981779e-18 -0.2,8.954305003384128e-2 -0.2 0.19999999999999996c -1.3527075021963559e-17,0.1104569499661587 8.954305003384128e-2,0.2 0.19999999999999993 0.2c 0.1104569499661587,2.029061253294534e-17 0.2,-8.954305003384126e-2 0.20000000000000004 -0.19999999999999996Z" /></g><g fill="rgb(0,0,0)" fill-opacity="1.0"><path d="M -0.5999999999999981,-0.6399999999999969 c 0.0,-0.1104569499661587 -8.954305003384129e-2,-0.2 -0.19999999999999996 -0.2c -0.1104569499661587,-6.763537510981779e-18 -0.2,8.954305003384128e-2 -0.2 0.19999999999999996c -1.3527075021963559e-17,0.1104569499661587 8.954305003384128e-2,0.2 0.19999999999999993 0.2c 0.1104569499661587,2.029061253294534e-17 0.2,-8.954305003384126e-2 0.20000000000000004 -0.19999999999999996Z" /></g><g fill="rgb(0,0,0)" fill-opacity="1.0"><path d="M -0.7999999999999983,-0.9999999999999964 c 0.0,-0.1104569499661587 -8.954305003384129e-2,-0.2 -0.19999999999999996 -0.2c -0.1104569499661587,-6.763537510981779e-18 -0.2,8.954305003384128e-2 -0.2 0.19999999999999996c -1.3527075021963559e-17,0.1104569499661587 8.954305003384128e-2,0.2 0.19999999999999993 0.2c 0.1104569499661587,2.029061253294534e-17 0.2,-8.954305003384126e-2 0.20000000000000004 -0.19999999999999996Z" /></g><g fill="rgb(0,0,0)" fill-opacity="1.0"><path d="M -0.9999999999999984,-1.4399999999999962 c 0.0,-0.1104569499661587 -8.954305003384129e-2,-0.2 -0.19999999999999996 -0.2c -0.1104569499661587,-6.763537510981779e-18 -0.2,8.954305003384128e-2 -0.2 0.19999999999999996c -1.3527075021963559e-17,0.1104569499661587 8.954305003384128e-2,0.2 0.19999999999999993 0.2c 0.1104569499661587,2.029061253294534e-17 0.2,-8.954305003384126e-2 0.20000000000000004 -0.19999999999999996Z" /></g><g fill="rgb(0,0,0)" fill-opacity="1.0"><path d="M -1.1999999999999986,-1.959999999999996 c 0.0,-0.1104569499661587 -8.954305003384129e-2,-0.2 -0.19999999999999996 -0.2c -0.1104569499661587,-6.763537510981779e-18 -0.2,8.954305003384128e-2 -0.2 0.19999999999999996c -1.3527075021963559e-17,0.1104569499661587 8.954305003384128e-2,0.2 0.19999999999999993 0.2c 0.1104569499661587,2.029061253294534e-17 0.2,-8.954305003384126e-2 0.20000000000000004 -0.19999999999999996Z" /></g><g fill="rgb(0,0,0)" fill-opacity="1.0"><path d="M -1.3999999999999988,-2.559999999999996 c 0.0,-0.1104569499661587 -8.954305003384129e-2,-0.2 -0.19999999999999996 -0.2c -0.1104569499661587,-6.763537510981779e-18 -0.2,8.954305003384128e-2 -0.2 0.19999999999999996c -1.3527075021963559e-17,0.1104569499661587 8.954305003384128e-2,0.2 0.19999999999999993 0.2c 0.1104569499661587,2.029061253294534e-17 0.2,-8.954305003384126e-2 0.20000000000000004 -0.19999999999999996Z" /></g><g fill="rgb(0,0,0)" fill-opacity="1.0"><path d="M -1.599999999999999,-3.239999999999996 c 0.0,-0.1104569499661587 -8.954305003384129e-2,-0.2 -0.19999999999999996 -0.2c -0.1104569499661587,-6.763537510981779e-18 -0.2,8.954305003384128e-2 -0.2 0.19999999999999996c -1.3527075021963559e-17,0.1104569499661587 8.954305003384128e-2,0.2 0.19999999999999993 0.2c 0.1104569499661587,2.029061253294534e-17 0.2,-8.954305003384126e-2 0.20000000000000004 -0.19999999999999996Z" /></g><g fill="rgb(0,0,0)" fill-opacity="1.0"><path d="M -1.7999999999999992,-3.9999999999999964 c 0.0,-0.1104569499661587 -8.954305003384129e-2,-0.2 -0.19999999999999996 -0.2c -0.1104569499661587,-6.763537510981779e-18 -0.2,8.954305003384128e-2 -0.2 0.19999999999999996c -1.3527075021963559e-17,0.1104569499661587 8.954305003384128e-2,0.2 0.19999999999999993 0.2c 0.1104569499661587,2.029061253294534e-17 0.2,-8.954305003384126e-2 0.20000000000000004 -0.19999999999999996Z" /></g><g fill="rgb(0,0,0)" fill-opacity="1.0"><path d="M -1.9999999999999993,-4.839999999999997 c 0.0,-0.1104569499661587 -8.954305003384129e-2,-0.2 -0.19999999999999996 -0.2c -0.1104569499661587,-6.763537510981779e-18 -0.2,8.954305003384128e-2 -0.2 0.19999999999999996c -1.3527075021963559e-17,0.1104569499661587 8.954305003384128e-2,0.2 0.19999999999999993 0.2c 0.1104569499661587,2.029061253294534e-17 0.2,-8.954305003384126e-2 0.20000000000000004 -0.19999999999999996Z" /></g><g fill="rgb(0,0,0)" fill-opacity="1.0"><path d="M -2.1999999999999993,-5.759999999999997 c 0.0,-0.1104569499661587 -8.954305003384129e-2,-0.2 -0.19999999999999996 -0.2c -0.1104569499661587,-6.763537510981779e-18 -0.2,8.954305003384128e-2 -0.2 0.19999999999999996c -1.3527075021963559e-17,0.1104569499661587 8.954305003384128e-2,0.2 0.19999999999999993 0.2c 0.1104569499661587,2.029061253294534e-17 0.2,-8.954305003384126e-2 0.20000000000000004 -0.19999999999999996Z" /></g><g fill="rgb(0,0,0)" fill-opacity="1.0"><path d="M -2.3999999999999995,-6.759999999999998 c 0.0,-0.1104569499661587 -8.954305003384129e-2,-0.2 -0.19999999999999996 -0.2c -0.1104569499661587,-6.763537510981779e-18 -0.2,8.954305003384128e-2 -0.2 0.19999999999999996c -1.3527075021963559e-17,0.1104569499661587 8.954305003384128e-2,0.2 0.19999999999999993 0.2c 0.1104569499661587,2.029061253294534e-17 0.2,-8.954305003384126e-2 0.20000000000000004 -0.19999999999999996Z" /></g><g fill="rgb(0,0,0)" fill-opacity="1.0"><path d="M -2.5999999999999996,-7.839999999999999 c 0.0,-0.1104569499661587 -8.954305003384129e-2,-0.2 -0.19999999999999996 -0.2c -0.1104569499661587,-6.763537510981779e-18 -0.2,8.954305003384128e-2 -0.2 0.19999999999999996c -1.3527075021963559e-17,0.1104569499661587 8.954305003384128e-2,0.2 0.19999999999999993 0.2c 0.1104569499661587,2.029061253294534e-17 0.2,-8.954305003384126e-2 0.20000000000000004 -0.19999999999999996Z" /></g><g fill="rgb(0,0,0)" fill-opacity="1.0"><path d="M -2.8,-9.0 c 0.0,-0.1104569499661587 -8.954305003384129e-2,-0.2 -0.19999999999999996 -0.2c -0.1104569499661587,-6.763537510981779e-18 -0.2,8.954305003384128e-2 -0.2 0.19999999999999996c -1.3527075021963559e-17,0.1104569499661587 8.954305003384128e-2,0.2 0.19999999999999993 0.2c 0.1104569499661587,2.029061253294534e-17 0.2,-8.954305003384126e-2 0.20000000000000004 -0.19999999999999996Z" /></g></g></g></g></svg>