<svg xmlns="http://www.w3.org/2000/svg" height="271.2912" stroke-opacity="1" viewBox="0 0 300 271" font-size="1" width="300.0000" xmlns:xlink="http://www.w3.org/1999/xlink" stroke="rgb(0,0,0)" version="1.1"><defs></defs><g stroke-linejoin="miter" stroke-opacity="1.0" fill-opacity="0.0" stroke="rgb(0,128,0)" stroke-width="3.0" fill="rgb(0,0,0)" stroke-linecap="butt" stroke-miterlimit="10.0"><path d="M 232.4425,239.4792 l 48.7013,-84.3531 c 6.9597,-12.0546 6.9597,-26.9065 -0.0000 -38.9610l -48.7013,-84.3531 c -6.9597,-12.0546 -19.8218,-19.4805 -33.7412 -19.4805h -97.4026 c -13.9194,-0.0000 -26.7815,7.4259 -33.7412 19.4805l -48.7013,84.3531 c -6.9597,12.0546 -6.9597,26.9065 -0.0000 38.9610l 48.7013,84.3531 c 6.9597,12.0546 19.8218,19.4805 33.7412 19.4805l 97.4026,-0.0000 c 13.9194,-0.0000 26.7815,-7.4259 33.7412 -19.4805Z"/></g><g stroke-linejoin="miter" stroke-opacity="1.0" fill-opacity="0.0" stroke="rgb(0,0,255)" stroke-width="3.0" fill="rgb(0,0,0)" stroke-linecap="butt" stroke-miterlimit="10.0"><path d="M 198.7013,219.9987 l 48.7013,-84.3531 l -48.7013,-84.3531 h -97.4026 l -48.7013,84.3531 l 48.7013,84.3531 Z"/></g></svg>