<?xml version="1.0" encoding="UTF-8"?>
<!DOCTYPE svg PUBLIC "-//W3C//DTD SVG 1.1//EN"
    "http://www.w3.org/Graphics/SVG/1.1/DTD/svg11.dtd">
<svg xmlns="http://www.w3.org/2000/svg" xmlns:xlink="http://www.w3.org/1999/xlink" version="1.1" width="300.0" height="166.66666666666669" font-size="1" viewBox="0 0 300 167" stroke="rgb(0,0,0)" stroke-opacity="1"><g><g fill="rgb(0,0,0)" fill-opacity="0.0"><g stroke="rgb(0,0,0)" stroke-opacity="1.0" stroke-width="0.894427190999916" stroke-linecap="butt" stroke-linejoin="miter" font-size="1.0em" stroke-miterlimit="10.0"><g><g><g fill="rgb(0,0,255)" fill-opacity="1.0"><g fill="rgb(0,0,255)" fill-opacity="1.0"><g fill="rgb(0,0,255)" fill-opacity="1.0"><g fill="rgb(0,0,255)" fill-opacity="1.0"></g><g fill="rgb(0,0,255)" fill-opacity="1.0"><g fill="rgb(0,0,255)" fill-opacity="1.0"></g><g fill="rgb(0,0,255)" fill-opacity="1.0"><g fill="rgb(0,0,255)" fill-opacity="1.0"><path d="M 261.11111111111114,138.8888888888889 l -1.2335811384723963e-14,-111.11111111111113 h -111.11111111111113 l -1.2335811384723963e-14,111.11111111111113 Z" /></g><g fill="rgb(0,0,255)" fill-opacity="1.0"></g></g></g></g></g></g><g stroke="rgb(255,255,255)" stroke-opacity="1.0" stroke-dasharray="5.555555555555557,5.555555555555557" stroke-dashoffset="0.0"><path d="M 250.0,83.33333333333334 c 0.0,-24.545988881368604 -19.898455563075846,-44.44444444444446 -44.44444444444445 -44.44444444444446c -24.545988881368604,-1.503008335773729e-15 -44.44444444444446,19.898455563075846 -44.44444444444446 44.44444444444444c -3.006016671547458e-15,24.545988881368604 19.898455563075842,44.44444444444446 44.444444444444436 44.44444444444446c 24.545988881368604,4.509025007321188e-15 44.44444444444446,-19.89845556307584 44.44444444444448 -44.44444444444444Z" /></g></g><g fill="rgb(0,128,0)" fill-opacity="1.0"><g fill="rgb(0,128,0)" fill-opacity="1.0"><g fill="rgb(0,128,0)" fill-opacity="1.0"><path d="M 161.11111111111111,83.33333333333334 c 0.0,-30.68248610171075 -24.873069453844806,-55.555555555555564 -55.55555555555555 -55.555555555555564c -30.68248610171075,-1.878760419717161e-15 -55.555555555555564,24.873069453844803 -55.555555555555564 55.55555555555554c -3.757520839434322e-15,30.68248610171075 24.8730694538448,55.555555555555564 55.55555555555554 55.555555555555564c 30.68248610171075,5.636281259151484e-15 55.555555555555564,-24.873069453844796 55.55555555555557 -55.55555555555554Z" /></g></g></g></g></g></g></g></svg>