<?xml version="1.0" encoding="UTF-8"?>
<!DOCTYPE svg PUBLIC "-//W3C//DTD SVG 1.1//EN"
    "http://www.w3.org/Graphics/SVG/1.1/DTD/svg11.dtd">
<svg xmlns="http://www.w3.org/2000/svg" xmlns:xlink="http://www.w3.org/1999/xlink" version="1.1" width="300.0" height="300.0" font-size="1" viewBox="0 0 300 300"><g><g transform="matrix(22.727272727272723,0.0,0.0,22.727272727272723,150.0,150.00000000000003)"><g stroke="rgb(0,0,0)" stroke-opacity="1.0" fill="rgb(0,128,0)" fill-opacity="1.0" stroke-width="0.0" stroke-linecap="butt" stroke-linejoin="miter" font-size="1.0em" stroke-miterlimit="10.0"><path d="M -5.000000000000001,5.999999999999998 h 5.0 c 0.2652164898395441,-1.2726212873067038e-16 0.5195704027385128,-0.10535684036541806 0.7071067811865477 -0.2928932188134526l 5.0,-5.0 c 0.1875363784480345,-0.1875363784480347 0.29289321881345226,-0.44189029134700364 0.2928932188134524 -0.7071067811865477v -5.0 c 0.0,-0.5522847498307935 -0.44771525016920644,-1.0 -0.9999999999999998 -1.0c -0.26521648983954393,9.478247619436096e-17 -0.5195704027385128,0.10535684036541801 -0.7071067811865476 0.2928932188134525l -10.0,10.0 c -0.39052429175127,0.39052429175126996 -0.3905242917512702,1.023689270621825 -2.220446049250313e-16 1.414213562373095c 0.18753637844803464,0.18753637844803456 0.4418902913470036,0.2928932188134523 0.7071067811865476 0.2928932188134526l 3.3306690738754696e-16,1.7763568394002505e-15 ZM -5.000000000000001,3.9999999999999982 l 2.6645352591003757e-15,7.771561172376096e-16 c -0.5522847498307935,0.0 -1.0,0.44771525016920644 -1.0 0.9999999999999997c -1.1102230246251565e-16,0.5522847498307935 0.4477152501692063,1.0 0.9999999999999996 1.0c 0.26521648983954393,-5.551115123125783e-17 0.5195704027385128,-0.10535684036541795 0.7071067811865476 -0.29289321881345237l 10.0,-10.0 c 0.39052429175126996,-0.3905242917512699 0.39052429175127,-1.023689270621825 0.0 -1.414213562373095c -0.3905242917512699,-0.39052429175126996 -1.023689270621825,-0.39052429175127 -1.414213562373095 -1.1102230246251565e-16c -0.18753637844803453,0.18753637844803472 -0.2928932188134523,0.4418902913470036 -0.2928932188134525 0.7071067811865476v 5.0 c -1.1102230246251565e-16,0.5522847498307935 0.4477152501692063,1.0 0.9999999999999997 1.0000000000000002c 0.5522847498307935,1.1102230246251565e-16 1.0,-0.4477152501692063 1.0000000000000002 -0.9999999999999996c 1.1102230246251565e-16,-0.5522847498307935 -0.4477152501692062,-1.0 -0.9999999999999994 -1.0000000000000002c -0.26521648983954393,5.551115123125783e-17 -0.5195704027385128,0.10535684036541787 -0.7071067811865476 0.29289321881345226l -5.0,5.0 c -0.39052429175126985,0.3905242917512701 -0.3905242917512697,1.023689270621825 4.440892098500626e-16 1.414213562373095c 0.3905242917512701,0.39052429175126985 1.023689270621825,0.39052429175126974 1.414213562373095 -3.3306690738754696e-16c 0.3905242917512699,-0.3905242917512701 0.39052429175126974,-1.023689270621825 -2.220446049250313e-16 -1.4142135623730947c -0.18753637844803472,-0.18753637844803447 -0.44189029134700375,-0.2928932188134522 -0.7071067811865476 -0.2928932188134523l -5.000000000000001,-2.886579864025407e-15 Z" /></g></g><g transform="matrix(22.727272727272723,0.0,0.0,22.727272727272723,150.0,150.00000000000003)"><g stroke="rgb(255,255,255)" stroke-opacity="1.0" fill="rgb(0,0,0)" fill-opacity="0.0" stroke-width="0.2" stroke-linecap="butt" stroke-linejoin="miter" font-size="1.0em" stroke-miterlimit="10.0"><path d="M -5.000000000000001,4.999999999999998 h 5.0 l 5.0,-5.0 v -5.0 l -10.0,10.0 Z" /></g></g></g></svg>