<?xml version="1.0" encoding="UTF-8"?>
<!DOCTYPE svg PUBLIC "-//W3C//DTD SVG 1.1//EN"
    "http://www.w3.org/Graphics/SVG/1.1/DTD/svg11.dtd">
<svg xmlns="http://www.w3.org/2000/svg" xmlns:xlink="http://www.w3.org/1999/xlink" version="1.1" width="99.99999999999999" height="73.63770250368192" font-size="1" viewBox="0 0 100 74"><g><g stroke="rgb(0,0,0)" stroke-opacity="1.0" fill="rgb(0,0,0)" fill-opacity="0.0" stroke-width="1.0e-2" stroke-linecap="butt" stroke-linejoin="miter" font-size="1.0em" stroke-miterlimit="10.0"><g transform="matrix(147.27540500736384,0.0,0.0,147.27540500736384,26.362297496318064,36.81885125184096)"><g stroke-width="0.0"><path d="M 0.5,0.25 l -5.551115123125783e-17,-0.5 h -0.5 l -5.551115123125783e-17,0.5 h 0.5 Z" /></g><g><g><g fill-opacity="0.0" stroke-width="0.0"><path d="M 0.0,0.0 h -0.17899999999999955 " /></g><g stroke-width="0.0"><g fill="rgb(0,0,0)" fill-opacity="1.0"><path d="" /></g><g fill="rgb(0,0,0)" fill-opacity="1.0"><path d="" /></g></g><g stroke-width="0.0"><g fill="rgb(0,0,0)" fill-opacity="1.0"><path d="M 1.000000000000445e-3,0.0 c 2.7755575615628914e-17,4.408389392193548e-2 -0.22635254915624206,8.816778784387098e-2 -0.27135254915624213 8.8167787843871e-2c -4.500000000000001e-2,0.0 9.135254915624212e-2,-4.40838939219355e-2 9.135254915624208e-2 -8.816778784387098e-2c -1.2721305490496585e-17,-4.4083893921935485e-2 -0.13635254915624218,-8.816778784387096e-2 -9.13525491562421e-2 -8.816778784387094e-2c 4.5000000000000005e-2,0.0 0.27135254915624213,4.408389392193548e-2 0.27135254915624213 8.816778784387093e-2Z" /></g><g fill="rgb(0,0,0)" fill-opacity="1.0"><path d="M -0.17899999999999955,0.0 h 0.0 h 0.0 h 0.0 h -0.0 Z" /></g></g></g></g></g></g></g></svg>