<?xml version="1.0" encoding="UTF-8"?>
<!DOCTYPE svg PUBLIC "-//W3C//DTD SVG 1.1//EN"
    "http://www.w3.org/Graphics/SVG/1.1/DTD/svg11.dtd">
<svg xmlns="http://www.w3.org/2000/svg" xmlns:xlink="http://www.w3.org/1999/xlink" version="1.1" width="500.0" height="191.60937134592436" font-size="1" viewBox="0 0 500 192" stroke="rgb(0,0,0)" stroke-opacity="1"><g><g fill="rgb(0,0,0)" fill-opacity="0.0"><g stroke="rgb(0,0,0)" stroke-opacity="1.0" stroke-width="1.238093280317519" stroke-linecap="butt" stroke-linejoin="miter" font-size="1.0em" stroke-miterlimit="10.0"><g><g><g><g><path d="M 92.8160519668354,95.80468567296218 l 2.89201135554859e-15,47.23012965962302 " /></g><g stroke-width="0.0"><g fill="rgb(0,0,0)" fill-opacity="1.0"><g fill="rgb(0,0,0)" fill-opacity="1.0"><g fill="rgb(0,0,0)" fill-opacity="1.0"><path d="" /></g></g></g><g fill="rgb(0,0,0)" fill-opacity="1.0"><g fill="rgb(0,0,0)" fill-opacity="1.0"><g fill="rgb(0,0,0)" fill-opacity="1.0"><path d="" /></g></g></g></g><g stroke-width="0.0"><g fill="rgb(0,0,0)" fill-opacity="1.0"><g fill="rgb(0,0,0)" fill-opacity="1.0"><g fill="rgb(0,0,0)" fill-opacity="1.0"><path d="M 92.8160519668354,153.86813153536352 l -4.14210333348447,-12.748083238743886 l 4.142103333484469,2.1776325920251587 l 4.142103333484469,-2.1776325920251596 Z" /></g></g></g><g fill="rgb(0,0,0)" fill-opacity="1.0"><g fill="rgb(0,0,0)" fill-opacity="1.0"><g fill="rgb(0,0,0)" fill-opacity="1.0"><path d="M 92.8160519668354,143.29768088864478 l -1.6095873091721878e-17,-0.26286555605956674 l -0.5,3.061616997868383e-17 l 0.5,0.2628655560595667 l -1.6095873091721878e-17,-0.26286555605956674 l 0.5,-3.061616997868383e-17 Z" /></g></g></g></g></g></g><g><g stroke="rgb(169,169,169)" stroke-opacity="1.0" stroke-width="6.190466401587595"><path d="M 477.2727272727272,124.83640860416281 l -1.2892674897102844e-14,-58.063445862401316 l -41.05705630836196,-41.05705630836195 l -58.063445862401316,9.337314240960074e-15 l -41.05705630836195,41.05705630836196 l 5.781953584817304e-15,58.063445862401316 l 41.05705630836196,41.05705630836196 l 58.063445862401316,-2.2265929286745346e-15 Z" /></g><g fill="rgb(255,0,0)" fill-opacity="1.0" stroke-width="0.0"><g fill="rgb(255,0,0)" fill-opacity="1.0"><g fill="rgb(255,0,0)" fill-opacity="1.0"><path d="M 409.98749920274713,95.80468567296218 c 0.0,-1.5483585563307023 -1.2551926132518025,-2.803551169582505 -2.803551169582504 -2.803551169582505c -1.5483585563307023,-9.480961749714055e-17 -2.803551169582505,1.2551926132518023 -2.803551169582505 2.803551169582504c -1.896192349942811e-16,1.5483585563307023 1.255192613251802,2.803551169582505 2.8035511695825037 2.803551169582505c 1.5483585563307023,2.844288524914217e-16 2.803551169582505,-1.255192613251802 2.8035511695825055 -2.803551169582504Z" /></g></g></g></g><g></g><g stroke="rgb(169,169,169)" stroke-opacity="1.0" stroke-width="6.190466401587595"><path d="M 162.904831206398,124.83640860416281 l -1.2892674897102844e-14,-58.063445862401316 l -41.05705630836196,-41.05705630836195 l -58.063445862401316,9.337314240960074e-15 l -41.05705630836195,41.05705630836196 l 5.781953584817304e-15,58.063445862401316 l 41.05705630836196,41.05705630836196 l 58.063445862401316,-2.2265929286745346e-15 Z" /></g><g fill="rgb(255,0,0)" fill-opacity="1.0" stroke-width="0.0"><g fill="rgb(255,0,0)" fill-opacity="1.0"><g fill="rgb(255,0,0)" fill-opacity="1.0"><path d="M 95.61960313641791,95.80468567296218 c 0.0,-1.5483585563307023 -1.2551926132518025,-2.803551169582505 -2.803551169582504 -2.803551169582505c -1.5483585563307023,-9.480961749714055e-17 -2.803551169582505,1.2551926132518023 -2.803551169582505 2.803551169582504c -1.896192349942811e-16,1.5483585563307023 1.255192613251802,2.803551169582505 2.8035511695825037 2.803551169582505c 1.5483585563307023,2.844288524914217e-16 2.803551169582505,-1.255192613251802 2.8035511695825055 -2.803551169582504Z" /></g></g></g><g><g><g><path d="M 92.8160519668354,95.80468567296218 h 292.70126366077255 " /></g><g stroke-width="0.0"><g fill="rgb(0,0,0)" fill-opacity="1.0"><g fill="rgb(0,0,0)" fill-opacity="1.0"><g fill="rgb(0,0,0)" fill-opacity="1.0"><path d="" /></g></g></g><g fill="rgb(0,0,0)" fill-opacity="1.0"><g fill="rgb(0,0,0)" fill-opacity="1.0"><g fill="rgb(0,0,0)" fill-opacity="1.0"><path d="" /></g></g></g></g><g stroke-width="0.0"><g fill="rgb(0,0,0)" fill-opacity="1.0"><g fill="rgb(0,0,0)" fill-opacity="1.0"><g fill="rgb(0,0,0)" fill-opacity="1.0"><path d="M 407.18394803316454,95.80468567296218 l -25.81318531625282,8.387212331760587 l 4.4094184667558025,-8.387212331760587 l -4.4094184667558025,-8.387212331760587 Z" /></g></g></g><g fill="rgb(0,0,0)" fill-opacity="1.0"><g fill="rgb(0,0,0)" fill-opacity="1.0"><g fill="rgb(0,0,0)" fill-opacity="1.0"><path d="M 385.78018118366754,95.80468567296218 h -0.26286555605956674 v 0.5 l 0.26286555605956674,-0.5 h -0.26286555605956674 v -0.5 Z" /></g></g></g></g></g></g><g><g><g><path d="M 162.90483120639794,124.83640860416287 l 152.52370518164744,-2.4886480444135933e-14 " /></g><g stroke-width="0.0"><g fill="rgb(0,0,0)" fill-opacity="1.0"><g fill="rgb(0,0,0)" fill-opacity="1.0"><g fill="rgb(0,0,0)" fill-opacity="1.0"><path d="" /></g></g></g><g fill="rgb(0,0,0)" fill-opacity="1.0"><g fill="rgb(0,0,0)" fill-opacity="1.0"><g fill="rgb(0,0,0)" fill-opacity="1.0"><path d="" /></g></g></g></g><g stroke-width="0.0"><g fill="rgb(0,0,0)" fill-opacity="1.0"><g fill="rgb(0,0,0)" fill-opacity="1.0"><g fill="rgb(0,0,0)" fill-opacity="1.0"><path d="M 337.095168793602,124.83640860416284 l -25.81318531625282,8.38721233176059 l 4.409418466755801,-8.387212331760587 l -4.409418466755804,-8.387212331760587 Z" /></g></g></g><g fill="rgb(0,0,0)" fill-opacity="1.0"><g fill="rgb(0,0,0)" fill-opacity="1.0"><g fill="rgb(0,0,0)" fill-opacity="1.0"><path d="M 315.691401944105,124.83640860416284 l -0.26286555605956674,4.2890372434385847e-17 l 8.15823363800974e-17,0.5 l 0.2628655560595667,-0.5 l -0.26286555605956674,4.2890372434385847e-17 l -8.15823363800974e-17,-0.5 Z" /></g></g></g></g></g></g></g></g></g></g></svg>