<?xml version="1.0" encoding="UTF-8"?>
<!DOCTYPE svg PUBLIC "-//W3C//DTD SVG 1.1//EN"
    "http://www.w3.org/Graphics/SVG/1.1/DTD/svg11.dtd">
<svg xmlns="http://www.w3.org/2000/svg" xmlns:xlink="http://www.w3.org/1999/xlink" version="1.1" width="400.0" height="76.19047619047622" font-size="1" viewBox="0 0 400 76"><g><g stroke="rgb(0,0,0)" stroke-opacity="1.0" fill="rgb(0,0,0)" fill-opacity="0.0" stroke-width="1.0e-2" stroke-linecap="butt" stroke-linejoin="miter" font-size="1.0em" stroke-miterlimit="10.0"><g transform="matrix(173.1601731601732,0.0,0.0,173.1601731601732,199.99999999999997,38.09523809523811)"><g><g><path d="M 1.0499999999999998,0.10000000000000003 v -0.1 c -0.11045694996615868,-4.4408920985006264e-17 -0.19999999999999996,-8.954305003384136e-2 -0.19999999999999996 -0.20000000000000007h -0.29999999999999993 c -0.1104569499661587,-6.763537510981779e-18 -0.2,8.954305003384128e-2 -0.2 0.19999999999999996v 0.2 h 0.6 c 5.522847498307935e-2,1.014530626647267e-17 0.1,-4.477152501692063e-2 9.999999999999992e-2 -9.999999999999992e-2Z" /></g><g><path d="M 0.15000000000000013,0.10000000000000003 v -0.20000000000000004 c -5.522847498307934e-2,-2.2204460492503132e-17 -9.999999999999998e-2,-4.477152501692068e-2 -9.999999999999998e-2 -0.10000000000000003h -0.3 c -2.2204460492503132e-17,5.5228474983079326e-2 -4.477152501692068e-2,9.999999999999998e-2 -0.10000000000000003 9.999999999999996e-2v 0.2 c 5.522847498307934e-2,2.2204460492503132e-17 9.999999999999998e-2,4.477152501692068e-2 9.999999999999996e-2 0.10000000000000003h 0.30000000000000004 c 0.0,-5.522847498307934e-2 4.477152501692068e-2,-9.999999999999998e-2 9.999999999999998e-2 -9.999999999999998e-2Z" /></g><path d="M -0.5499999999999998,0.10000000000000003 v -0.20000000000000004 c 0.0,-5.522847498307935e-2 -4.4771525016920645e-2,-0.1 -9.999999999999998e-2 -0.1h -0.3 c -5.522847498307935e-2,-3.3817687554908897e-18 -0.1,4.477152501692064e-2 -0.1 9.999999999999998e-2v 0.2 c -6.763537510981779e-18,5.522847498307935e-2 4.477152501692064e-2,0.1 9.999999999999998e-2 0.10000000000000003h 0.30000000000000004 c 5.522847498307935e-2,1.014530626647267e-17 0.1,-4.477152501692063e-2 9.999999999999998e-2 -9.999999999999998e-2Z" /></g></g></g></g></svg>