<svg xmlns="http://www.w3.org/2000/svg" height="302.8588" stroke-opacity="1" viewBox="0 0 600 303" font-size="1" width="600.0000" xmlns:xlink="http://www.w3.org/1999/xlink" stroke="rgb(0,0,0)" version="1.1"><defs></defs><g stroke-linejoin="miter" stroke-opacity="1.0" fill-opacity="0.0" stroke="rgb(0,128,0)" stroke-width="3.197105416628175" fill="rgb(0,0,0)" stroke-linecap="butt" stroke-miterlimit="10.0"><path d="M 511.9818,129.7571 c 10.6062,25.0693 34.2055,55.8255 80.4872 86.6800"/></g><g stroke-linejoin="miter" stroke-opacity="1.0" fill-opacity="0.0" stroke="rgb(255,0,0)" stroke-width="3.197105416628175" fill="rgb(0,0,0)" stroke-linecap="butt" stroke-miterlimit="10.0"><path d="M 504.6600,99.6625 c 0.3347,8.2550 2.4134,18.4928 7.3218 30.0945"/></g><g stroke-linejoin="miter" stroke-opacity="1.0" fill-opacity="0.0" stroke="rgb(0,128,0)" stroke-width="3.197105416628175" fill="rgb(0,0,0)" stroke-linecap="butt" stroke-miterlimit="10.0"><path d="M 506.4937,85.2663 c -1.4641,2.9282 -2.1083,7.6248 -1.8337 14.3963"/></g><g stroke-linejoin="miter" stroke-opacity="1.0" fill-opacity="0.0" stroke="rgb(255,0,0)" stroke-width="3.197105416628175" fill="rgb(0,0,0)" stroke-linecap="butt" stroke-miterlimit="10.0"><path d="M 506.2084,85.5927 c 0.0678,-0.0768 0.2226,-0.2011 0.2853 -0.3265"/></g><g stroke-linejoin="miter" stroke-opacity="1.0" fill-opacity="0.0" stroke="rgb(0,128,0)" stroke-width="3.197105416628175" fill="rgb(0,0,0)" stroke-linecap="butt" stroke-miterlimit="10.0"><path d="M 502.6579,87.9357 c 1.0997,-0.4144 2.4469,-1.0919 3.5505 -2.3430"/></g><g stroke-linejoin="miter" stroke-opacity="1.0" fill-opacity="0.0" stroke="rgb(255,0,0)" stroke-width="3.197105416628175" fill="rgb(0,0,0)" stroke-linecap="butt" stroke-miterlimit="10.0"><path d="M 494.0623,87.5838 c 2.9458,1.3739 5.3820,1.5628 8.5956 0.3519"/></g><g stroke-linejoin="miter" stroke-opacity="1.0" fill-opacity="0.0" stroke="rgb(0,128,0)" stroke-width="3.197105416628175" fill="rgb(0,0,0)" stroke-linecap="butt" stroke-miterlimit="10.0"><path d="M 489.6962,83.7630 c 1.2338,2.0880 2.8653,3.1208 4.3661 3.8208"/></g><g stroke-linejoin="miter" stroke-opacity="1.0" fill-opacity="0.0" stroke="rgb(255,0,0)" stroke-width="3.197105416628175" fill="rgb(0,0,0)" stroke-linecap="butt" stroke-miterlimit="10.0"><path d="M 489.2796,82.9440 c 0.0773,0.3280 0.3025,0.6259 0.4166 0.8190"/></g><g stroke-linejoin="miter" stroke-opacity="1.0" fill-opacity="0.0" stroke="rgb(0,128,0)" stroke-width="3.197105416628175" fill="rgb(0,0,0)" stroke-linecap="butt" stroke-miterlimit="10.0"><path d="M 489.5449,85.0947 c -0.0520,-0.8562 -0.1242,-1.5525 -0.2653 -2.1507"/></g><g stroke-linejoin="miter" stroke-opacity="1.0" fill-opacity="0.0" stroke="rgb(255,0,0)" stroke-width="3.197105416628175" fill="rgb(0,0,0)" stroke-linecap="butt" stroke-miterlimit="10.0"><path d="M 488.8865,96.1054 c 0.6286,-4.6097 0.8286,-8.2083 0.6583 -11.0108"/></g><g stroke-linejoin="miter" stroke-opacity="1.0" fill-opacity="0.0" stroke="rgb(0,128,0)" stroke-width="3.197105416628175" fill="rgb(0,0,0)" stroke-linecap="butt" stroke-miterlimit="10.0"><path d="M 441.8492,221.4998 c 31.9297,-63.8595 44.0440,-103.4426 47.0374 -125.3943"/></g><g stroke-linejoin="miter" stroke-opacity="1.0" fill-opacity="0.0" stroke="rgb(0,0,255)" stroke-width="3.197105416628175" fill="rgb(0,0,0)" stroke-linecap="butt" stroke-miterlimit="10.0"><path d="M 453.6159,227.3831 c 131.5557,-263.1115 -65.7779,-131.5557 131.5557 -0.0000"/></g><g stroke-linejoin="miter" stroke-opacity="1.0" fill-opacity="0.0" stroke="rgb(0,128,0)" stroke-width="3.197105416628175" fill="rgb(0,0,0)" stroke-linecap="butt" stroke-miterlimit="10.0"><path d="M 364.7622,85.9675 c 0.0000,15.3291 0.6082,77.3813 61.9247 138.6978"/></g><g stroke-linejoin="miter" stroke-opacity="1.0" fill-opacity="0.0" stroke="rgb(255,0,0)" stroke-width="3.197105416628175" fill="rgb(0,0,0)" stroke-linecap="butt" stroke-miterlimit="10.0"><path d="M 364.7419,83.1393 c 0.0179,0.7021 0.0203,1.6834 0.0203 2.8282"/></g><g stroke-linejoin="miter" stroke-opacity="1.0" fill-opacity="0.0" stroke="rgb(0,128,0)" stroke-width="3.197105416628175" fill="rgb(0,0,0)" stroke-linecap="butt" stroke-miterlimit="10.0"><path d="M 364.6602,81.5631 c 0.0351,0.4104 0.0661,0.9641 0.0817 1.5762"/></g><g stroke-linejoin="miter" stroke-opacity="1.0" fill-opacity="0.0" stroke="rgb(255,0,0)" stroke-width="3.197105416628175" fill="rgb(0,0,0)" stroke-linecap="butt" stroke-miterlimit="10.0"><path d="M 364.0520,78.3408 c 0.1986,0.6455 0.4965,1.9158 0.6082 3.2223"/></g><g stroke-linejoin="miter" stroke-opacity="1.0" fill-opacity="0.0" stroke="rgb(0,128,0)" stroke-width="3.197105416628175" fill="rgb(0,0,0)" stroke-linecap="butt" stroke-miterlimit="10.0"><path d="M 361.6159,73.7760 c 0.7783,0.9536 1.8212,2.5663 2.4361 4.5649"/></g><g stroke-linejoin="miter" stroke-opacity="1.0" fill-opacity="0.0" stroke="rgb(255,0,0)" stroke-width="3.197105416628175" fill="rgb(0,0,0)" stroke-linecap="butt" stroke-miterlimit="10.0"><path d="M 357.1897,70.2580 c 1.5342,0.7533 3.0492,1.8307 4.4262 3.5179"/></g><g stroke-linejoin="miter" stroke-opacity="1.0" fill-opacity="0.0" stroke="rgb(0,128,0)" stroke-width="3.197105416628175" fill="rgb(0,0,0)" stroke-linecap="butt" stroke-miterlimit="10.0"><path d="M 349.9173,68.9840 c 2.6564,-0.2922 4.8750,0.0970 7.2724 1.2741"/></g><g stroke-linejoin="miter" stroke-opacity="1.0" fill-opacity="0.0" stroke="rgb(255,0,0)" stroke-width="3.197105416628175" fill="rgb(0,0,0)" stroke-linecap="butt" stroke-miterlimit="10.0"><path d="M 344.5074,70.8187 c 1.8905,-1.1435 3.6952,-1.6462 5.4099 -1.8348"/></g><g stroke-linejoin="miter" stroke-opacity="1.0" fill-opacity="0.0" stroke="rgb(0,128,0)" stroke-width="3.197105416628175" fill="rgb(0,0,0)" stroke-linecap="butt" stroke-miterlimit="10.0"><path d="M 341.9037,72.8755 c 0.8843,-0.8971 1.7979,-1.5694 2.6036 -2.0568"/></g><g stroke-linejoin="miter" stroke-opacity="1.0" fill-opacity="0.0" stroke="rgb(255,0,0)" stroke-width="3.197105416628175" fill="rgb(0,0,0)" stroke-linecap="butt" stroke-miterlimit="10.0"><path d="M 339.9429,75.3936 c 0.6567,-1.0763 1.4089,-1.9582 1.9608 -2.5180"/></g><g stroke-linejoin="miter" stroke-opacity="1.0" fill-opacity="0.0" stroke="rgb(0,128,0)" stroke-width="3.197105416628175" fill="rgb(0,0,0)" stroke-linecap="butt" stroke-miterlimit="10.0"><path d="M 338.2153,79.1592 c 0.5976,-1.6435 1.3914,-3.2147 1.7276 -3.7656"/></g><g stroke-linejoin="miter" stroke-opacity="1.0" fill-opacity="0.0" stroke="rgb(255,0,0)" stroke-width="3.197105416628175" fill="rgb(0,0,0)" stroke-linecap="butt" stroke-miterlimit="10.0"><path d="M 331.0209,99.9717 c 4.0362,-11.0996 6.1854,-18.0376 7.1945 -20.8125"/></g><g stroke-linejoin="miter" stroke-opacity="1.0" fill-opacity="0.0" stroke="rgb(0,128,0)" stroke-width="3.197105416628175" fill="rgb(0,0,0)" stroke-linecap="butt" stroke-miterlimit="10.0"><path d="M 274.0621,228.0844 c 32.5251,-65.0502 48.8275,-105.7517 56.9588 -128.1127"/></g><g stroke-linejoin="miter" stroke-opacity="1.0" fill-opacity="0.0" stroke="rgb(0,0,255)" stroke-width="3.197105416628175" fill="rgb(0,0,0)" stroke-linecap="butt" stroke-miterlimit="10.0"><path d="M 285.8288,233.9677 c 131.5557,-263.1115 0.0000,-131.5557 131.5557 -0.0000"/></g><g stroke-linejoin="miter" stroke-opacity="1.0" fill-opacity="0.0" stroke="rgb(0,128,0)" stroke-width="3.197105416628175" fill="rgb(0,0,0)" stroke-linecap="butt" stroke-miterlimit="10.0"><path d="M 243.5067,119.7182 c -3.7564,1.2749 -8.5010,2.1111 -14.3292 2.1111"/></g><g stroke-linejoin="miter" stroke-opacity="1.0" fill-opacity="0.0" stroke="rgb(255,0,0)" stroke-width="3.197105416628175" fill="rgb(0,0,0)" stroke-linecap="butt" stroke-miterlimit="10.0"><path d="M 255.1371,112.1979 c -2.6842,3.0676 -6.3579,5.7309 -11.6304 7.5203"/></g><g stroke-linejoin="miter" stroke-opacity="1.0" fill-opacity="0.0" stroke="rgb(0,128,0)" stroke-width="3.197105416628175" fill="rgb(0,0,0)" stroke-linecap="butt" stroke-miterlimit="10.0"><path d="M 258.9677,87.6101 c 3.4875,9.2999 2.2725,17.6129 -3.8306 24.5878"/></g><g stroke-linejoin="miter" stroke-opacity="1.0" fill-opacity="0.0" stroke="rgb(255,0,0)" stroke-width="3.197105416628175" fill="rgb(0,0,0)" stroke-linecap="butt" stroke-miterlimit="10.0"><path d="M 220.9552,62.6292 c 17.7972,-0.0000 33.5631,13.1160 38.0124 24.9808"/></g><g stroke-linejoin="miter" stroke-opacity="1.0" fill-opacity="0.0" stroke="rgb(0,128,0)" stroke-width="3.197105416628175" fill="rgb(0,0,0)" stroke-linecap="butt" stroke-miterlimit="10.0"><path d="M 193.4371,72.6278 c 9.3825,-7.3588 18.6876,-9.9985 27.5182 -9.9985"/></g><g stroke-linejoin="miter" stroke-opacity="1.0" fill-opacity="0.0" stroke="rgb(255,0,0)" stroke-width="3.197105416628175" fill="rgb(0,0,0)" stroke-linecap="butt" stroke-miterlimit="10.0"><path d="M 170.9681,103.1924 c 6.7677,-14.7658 14.6246,-24.4122 22.4689 -30.5647"/></g><g stroke-linejoin="miter" stroke-opacity="1.0" fill-opacity="0.0" stroke="rgb(0,128,0)" stroke-width="3.197105416628175" fill="rgb(0,0,0)" stroke-linecap="butt" stroke-miterlimit="10.0"><path d="M 150.2440,240.2295 c 0.0000,-68.4467 8.9598,-111.3696 20.7241 -137.0371"/></g><g stroke-linejoin="miter" stroke-opacity="1.0" fill-opacity="0.0" stroke="rgb(0,0,255)" stroke-width="3.197105416628175" fill="rgb(0,0,0)" stroke-linecap="butt" stroke-miterlimit="10.0"><path d="M 163.3996,240.2295 c 0.0000,-263.1115 131.5557,-131.5557 65.7779 -131.5557"/></g><g stroke-linejoin="miter" stroke-opacity="1.0" fill-opacity="0.0" stroke="rgb(0,128,0)" stroke-width="3.197105416628175" fill="rgb(0,0,0)" stroke-linecap="butt" stroke-miterlimit="10.0"><path d="M 107.3604,38.6930 c 6.4325,-12.1696 14.7608,-20.4761 25.8873 -24.9267"/></g><g stroke-linejoin="miter" stroke-opacity="1.0" fill-opacity="0.0" stroke="rgb(255,0,0)" stroke-width="3.197105416628175" fill="rgb(0,0,0)" stroke-linecap="butt" stroke-miterlimit="10.0"><path d="M 95.4239,75.6318 c 2.8371,-14.2991 6.6878,-27.0089 11.9365 -36.9388"/></g><g stroke-linejoin="miter" stroke-opacity="1.0" fill-opacity="0.0" stroke="rgb(0,128,0)" stroke-width="3.197105416628175" fill="rgb(0,0,0)" stroke-linecap="butt" stroke-miterlimit="10.0"><path d="M 83.9792,165.6872 c 4.1423,-31.4811 6.2669,-63.9592 11.4447 -90.0554"/></g><g stroke-linejoin="miter" stroke-opacity="1.0" fill-opacity="0.0" stroke="rgb(255,0,0)" stroke-width="3.197105416628175" fill="rgb(0,0,0)" stroke-linecap="butt" stroke-miterlimit="10.0"><path d="M 62.0575,244.9887 c 12.6186,-21.3546 18.0391,-49.7933 21.9218 -79.3015"/></g><g stroke-linejoin="miter" stroke-opacity="1.0" fill-opacity="0.0" stroke="rgb(0,128,0)" stroke-width="3.197105416628175" fill="rgb(0,0,0)" stroke-linecap="butt" stroke-miterlimit="10.0"><path d="M 6.5778,275.9369 c 26.3331,-0.0000 44.7818,-12.8442 55.4797 -30.9482"/></g><g stroke-linejoin="miter" stroke-opacity="1.0" fill-opacity="0.0" stroke="rgb(0,0,255)" stroke-width="3.197105416628175" fill="rgb(0,0,0)" stroke-linecap="butt" stroke-miterlimit="10.0"><path d="M 6.5778,289.0924 c 131.5557,-0.0000 65.7779,-236.8003 131.5557 -263.1115"/></g></svg>