<?xml version="1.0" encoding="UTF-8"?>
<!DOCTYPE svg PUBLIC "-//W3C//DTD SVG 1.1//EN"
    "http://www.w3.org/Graphics/SVG/1.1/DTD/svg11.dtd">
<svg xmlns="http://www.w3.org/2000/svg" xmlns:xlink="http://www.w3.org/1999/xlink" version="1.1" width="499.99999999999994" height="142.85714285714286" font-size="1" viewBox="0 0 500 143"><g><g stroke="rgb(0,0,0)" stroke-opacity="1.0" fill="rgb(0,0,0)" fill-opacity="0.0" stroke-width="1.0e-2" stroke-linecap="butt" stroke-linejoin="miter" font-size="1.0em" stroke-miterlimit="10.0"><g transform="matrix(64.93506493506493,0.0,0.0,64.93506493506493,71.42857142857139,71.42857142857143)"><g><g stroke="rgb(169,169,169)" stroke-opacity="1.0" stroke-width="7.0e-2"><path d="M 6.0,1.0 l -2.220446049250313e-16,-2.0 h -2.0 l -2.220446049250313e-16,2.0 h 2.0 Z" /><g fill="rgb(255,0,0)" fill-opacity="1.0" stroke-width="0.0"><path d="M 5.04,0.0 c 0.0,-2.209138999323174e-2 -1.7908610006768258e-2,-4.0e-2 -3.9999999999999994e-2 -4.0e-2c -2.209138999323174e-2,-1.3527075021963559e-18 -4.0e-2,1.7908610006768255e-2 -4.0e-2 3.999999999999999e-2c -2.7054150043927117e-18,2.209138999323174e-2 1.7908610006768255e-2,4.0e-2 3.999999999999998e-2 4.0e-2c 2.209138999323174e-2,4.0581225065890676e-18 4.0e-2,-1.790861000676825e-2 4.000000000000001e-2 -3.999999999999999e-2Z" /></g></g></g><g></g><g stroke="rgb(169,169,169)" stroke-opacity="1.0" stroke-width="7.0e-2"><path d="M 1.0000000000000002,1.0 l -2.220446049250313e-16,-2.0 h -2.0 l -2.220446049250313e-16,2.0 h 2.0 Z" /><g fill="rgb(255,0,0)" fill-opacity="1.0" stroke-width="0.0"><path d="M 4.0e-2,0.0 c 0.0,-2.209138999323174e-2 -1.7908610006768258e-2,-4.0e-2 -3.9999999999999994e-2 -4.0e-2c -2.209138999323174e-2,-1.3527075021963559e-18 -4.0e-2,1.7908610006768255e-2 -4.0e-2 3.999999999999999e-2c -2.7054150043927117e-18,2.209138999323174e-2 1.7908610006768255e-2,4.0e-2 3.999999999999998e-2 4.0e-2c 2.209138999323174e-2,4.0581225065890676e-18 4.0e-2,-1.790861000676825e-2 4.000000000000001e-2 -3.999999999999999e-2Z" /></g></g><g><g><g fill-opacity="0.0" stroke-width="2.0e-2"><path d="M 0.29748256273725837,3.878304871039902e-2 c 0.9519443557972225,0.12410577608570911 1.903888711594445,0.24821155217141821 2.15046054898094 0.17171496874379844c 0.24657183738649566,-7.649658342761977e-2 -0.21222884363773598,-0.35359552636856845 3.4342993748759695e-2 -0.43009210979618817c 0.24657183738649566,-7.649658342761977e-2 1.198516193183718,4.760919265808934e-2 2.1504605489809396 0.1717149687437984" /></g><g stroke-width="0.0"><g fill="rgb(0,0,0)" fill-opacity="1.0"><path d="M 0.29748256273725837,3.878304871039902e-2 l -1.2927682903466336e-3,9.916085424575276e-3 l -9.430757659181744e-3,-1.2294957065939064e-3 l 1.0723525949528377e-2,-8.68658971798137e-3 l -8.137989368835107e-3,-1.1145581131169199e-2 l 9.43075765918174e-3,1.2294957065939237e-3 l -1.2927682903466336e-3,9.916085424575276e-3 h -0.0 Z" /></g><g fill="rgb(0,0,0)" fill-opacity="1.0"><path d="M 0.29748256273725837,3.878304871039902e-2 l -0.15757826014270998,0.12764623322362204 l -0.30987766951797735,-4.03990090733323e-2 l 0.16997336692342907,-0.12603027286068874 l -0.13197986013857382,-0.16539616579119604 l 0.30987766951797735,4.03990090733323e-2 l 0.11958475335785472,0.16378020542826274 l 1.3877787807814457e-17,2.7755575615628914e-17 Z" /></g></g><g stroke-width="0.0"><g fill="rgb(0,0,0)" fill-opacity="1.0"><path d="M 5.0,-2.7755575615628914e-17 l -0.5609471155928247,0.10469666898034764 l 0.2039680403081149,-0.15123632743282647 l -0.15837583216628864,-0.19847539894943522 l 0.5153549074509984,0.24501505740191404 Z" /></g><g fill="rgb(0,0,0)" fill-opacity="1.0"><path d="M 4.64302092471529,-4.653965845247886e-2 l -1.1567038557738623e-2,8.57662027886182e-3 l 2.5855365806932637e-3,-1.9832170849150513e-2 l 8.981501977045359e-3,1.1255550570288693e-2 h -0.0 Z" /></g></g></g></g></g></g></g></svg>