<svg xmlns="http://www.w3.org/2000/svg" height="191.6094" stroke-opacity="1" viewBox="0 0 500 192" font-size="1" width="500.0000" xmlns:xlink="http://www.w3.org/1999/xlink" stroke="rgb(0,0,0)" version="1.1"><defs></defs><g stroke-linejoin="miter" stroke-opacity="1.0" fill-opacity="0.0" stroke="rgb(0,0,0)" stroke-width="1.238093280317519" fill="rgb(0,0,0)" stroke-linecap="butt" stroke-miterlimit="10.0"><path d="M 92.8161,95.8047 l 0.0000,47.2301 "/></g><g stroke-linejoin="miter" stroke-opacity="1.0" fill-opacity="1.0" stroke="rgb(0,0,0)" stroke-width="0.0" fill="rgb(0,0,0)" stroke-linecap="butt" stroke-miterlimit="10.0"></g><g stroke-linejoin="miter" stroke-opacity="1.0" fill-opacity="1.0" stroke="rgb(0,0,0)" stroke-width="0.0" fill="rgb(0,0,0)" stroke-linecap="butt" stroke-miterlimit="10.0"></g><g stroke-linejoin="miter" stroke-opacity="1.0" fill-opacity="1.0" stroke="rgb(0,0,0)" stroke-width="0.0" fill="rgb(0,0,0)" stroke-linecap="butt" stroke-miterlimit="10.0"><path d="M 92.8161,153.8681 l 4.1176,-12.6726 l -4.1176,2.1647 l -4.1176,-2.1647 Z"/></g><g stroke-linejoin="miter" stroke-opacity="1.0" fill-opacity="1.0" stroke="rgb(0,0,0)" stroke-width="0.0" fill="rgb(0,0,0)" stroke-linecap="butt" stroke-miterlimit="10.0"><path d="M 92.8161,143.3603 l -0.0000,-0.3255 l 0.6190,-0.0000 l -0.6190,0.3255 l -0.0000,-0.3255 l -0.6190,0.0000 Z"/></g><g stroke-linejoin="miter" stroke-opacity="1.0" fill-opacity="0.0" stroke="rgb(169,169,169)" stroke-width="6.190466401587595" fill="rgb(0,0,0)" stroke-linecap="butt" stroke-miterlimit="10.0"><path d="M 477.2727,124.8364 l -0.0000,-58.0634 l -41.0571,-41.0571 l -58.0634,0.0000 l -41.0571,41.0571 l 0.0000,58.0634 l 41.0571,41.0571 l 58.0634,-0.0000 Z"/></g><g stroke-linejoin="miter" stroke-opacity="1.0" fill-opacity="1.0" stroke="rgb(0,0,0)" stroke-width="0.0" fill="rgb(255,0,0)" stroke-linecap="butt" stroke-miterlimit="10.0"><path d="M 409.9875,95.8047 c 0.0000,-1.5484 -1.2552,-2.8036 -2.8036 -2.8036c -1.5484,-0.0000 -2.8036,1.2552 -2.8036 2.8036c -0.0000,1.5484 1.2552,2.8036 2.8036 2.8036c 1.5484,0.0000 2.8036,-1.2552 2.8036 -2.8036Z"/></g><g stroke-linejoin="miter" stroke-opacity="1.0" fill-opacity="0.0" stroke="rgb(169,169,169)" stroke-width="6.190466401587595" fill="rgb(0,0,0)" stroke-linecap="butt" stroke-miterlimit="10.0"><path d="M 162.9048,124.8364 l -0.0000,-58.0634 l -41.0571,-41.0571 l -58.0634,0.0000 l -41.0571,41.0571 l 0.0000,58.0634 l 41.0571,41.0571 l 58.0634,-0.0000 Z"/></g><g stroke-linejoin="miter" stroke-opacity="1.0" fill-opacity="1.0" stroke="rgb(0,0,0)" stroke-width="0.0" fill="rgb(255,0,0)" stroke-linecap="butt" stroke-miterlimit="10.0"><path d="M 95.6196,95.8047 c 0.0000,-1.5484 -1.2552,-2.8036 -2.8036 -2.8036c -1.5484,-0.0000 -2.8036,1.2552 -2.8036 2.8036c -0.0000,1.5484 1.2552,2.8036 2.8036 2.8036c 1.5484,0.0000 2.8036,-1.2552 2.8036 -2.8036Z"/></g><g stroke-linejoin="miter" stroke-opacity="1.0" fill-opacity="0.0" stroke="rgb(0,0,0)" stroke-width="1.238093280317519" fill="rgb(0,0,0)" stroke-linecap="butt" stroke-miterlimit="10.0"><path d="M 92.8161,95.8047 h 292.7013 "/></g><g stroke-linejoin="miter" stroke-opacity="1.0" fill-opacity="1.0" stroke="rgb(0,0,0)" stroke-width="0.0" fill="rgb(0,0,0)" stroke-linecap="butt" stroke-miterlimit="10.0"></g><g stroke-linejoin="miter" stroke-opacity="1.0" fill-opacity="1.0" stroke="rgb(0,0,0)" stroke-width="0.0" fill="rgb(0,0,0)" stroke-linecap="butt" stroke-miterlimit="10.0"></g><g stroke-linejoin="miter" stroke-opacity="1.0" fill-opacity="1.0" stroke="rgb(0,0,0)" stroke-width="0.0" fill="rgb(0,0,0)" stroke-linecap="butt" stroke-miterlimit="10.0"><path d="M 407.1839,95.8047 l -25.7377,-8.3627 l 4.3965,8.3627 l -4.3965,8.3627 Z"/></g><g stroke-linejoin="miter" stroke-opacity="1.0" fill-opacity="1.0" stroke="rgb(0,0,0)" stroke-width="0.0" fill="rgb(0,0,0)" stroke-linecap="butt" stroke-miterlimit="10.0"><path d="M 385.8428,95.8047 h -0.3255 v -0.6190 l 0.3255,0.6190 h -0.3255 v 0.6190 Z"/></g><g stroke-linejoin="miter" stroke-opacity="1.0" fill-opacity="0.0" stroke="rgb(0,0,0)" stroke-width="1.238093280317519" fill="rgb(0,0,0)" stroke-linecap="butt" stroke-miterlimit="10.0"><path d="M 162.9048,124.8364 l 152.5237,-0.0000 "/></g><g stroke-linejoin="miter" stroke-opacity="1.0" fill-opacity="1.0" stroke="rgb(0,0,0)" stroke-width="0.0" fill="rgb(0,0,0)" stroke-linecap="butt" stroke-miterlimit="10.0"></g><g stroke-linejoin="miter" stroke-opacity="1.0" fill-opacity="1.0" stroke="rgb(0,0,0)" stroke-width="0.0" fill="rgb(0,0,0)" stroke-linecap="butt" stroke-miterlimit="10.0"></g><g stroke-linejoin="miter" stroke-opacity="1.0" fill-opacity="1.0" stroke="rgb(0,0,0)" stroke-width="0.0" fill="rgb(0,0,0)" stroke-linecap="butt" stroke-miterlimit="10.0"><path d="M 337.0952,124.8364 l -25.7377,-8.3627 l 4.3965,8.3627 l -4.3965,8.3627 Z"/></g><g stroke-linejoin="miter" stroke-opacity="1.0" fill-opacity="1.0" stroke="rgb(0,0,0)" stroke-width="0.0" fill="rgb(0,0,0)" stroke-linecap="butt" stroke-miterlimit="10.0"><path d="M 315.7540,124.8364 l -0.3255,0.0000 l -0.0000,-0.6190 l 0.3255,0.6190 l -0.3255,0.0000 l 0.0000,0.6190 Z"/></g></svg>