<?xml version="1.0" encoding="UTF-8"?>
<!DOCTYPE svg PUBLIC "-//W3C//DTD SVG 1.1//EN"
    "http://www.w3.org/Graphics/SVG/1.1/DTD/svg11.dtd"><svg xmlns="http://www.w3.org/2000/svg" height="197.38302878166363" stroke-opacity="1" viewBox="0 0 600 197" font-size="1" width="600.0" xmlns:xlink="http://www.w3.org/1999/xlink" stroke="rgb(0,0,0)" version="1.1"><g><defs></defs><g stroke-linejoin="miter" stroke-opacity="1.0" fill-opacity="1.0" font-size="12.98696646675048px" stroke="rgb(0,0,0)" stroke-width="1.376545341172593" fill="rgb(0,0,0)" stroke-linecap="butt" font-family="Helvetica" stroke-miterlimit="10.0" font-weight="bold"><text dominant-baseline="middle" transform="matrix(1.0,0.0,0.0,1.0,481.81818181818187,168.93062322782592)" stroke="none" text-anchor="middle">LineCapSquare</text></g><defs></defs><g stroke-linejoin="miter" stroke-opacity="1.0" fill-opacity="1.0" stroke="rgb(0,0,0)" stroke-width="0.0" fill="rgb(0,128,0)" stroke-linecap="butt" stroke-miterlimit="10.0"><path d="M 416.8830238425919,97.50165637702322 h -25.97393293350096 v 51.94786586700192 h 25.97393293350096 h 129.86966466750482 c 14.345007052300385,-8.783783485172937e-16 25.97393293350096,-11.628925881200574 25.973932933500958 -25.973932933500958c 0.0,-6.076251092058475 -2.130283781570332,-11.960201272862653 -6.020204939150425 -16.62810666195877l -64.93483233375241,-77.92179880050288 l -16.628106661958775,-19.953727994350533 l -39.907455988701045,33.25621332391755 l 16.628106661958775,19.953727994350533 l 64.93483233375241,77.92179880050288 c 9.183449727959651,11.020139673551585 25.561694982757718,12.509071060351415 36.5818346563093 3.325621332391765c 11.020139673551585,-9.183449727959651 12.509071060351415,-25.561694982757714 3.3256213323917683 -36.5818346563093c -4.934886876493225,-5.921864251791873 -12.245188268797088,-9.345826271542187 -19.95372799435053 -9.345826271542196Z"/></g><defs></defs><g stroke-linejoin="miter" stroke-opacity="1.0" fill-opacity="0.0" stroke="rgb(255,255,255)" stroke-width="3.4413633529314827" fill="rgb(0,0,0)" stroke-linecap="butt" stroke-miterlimit="10.0"><path d="M 416.8830238425919,123.47558931052419 h 129.86966466750482 l -64.93483233375241,-77.92179880050288 "/></g><defs></defs><g stroke-linejoin="miter" stroke-opacity="1.0" fill-opacity="1.0" font-size="12.98696646675048px" stroke="rgb(0,0,0)" stroke-width="1.376545341172593" fill="rgb(0,0,0)" stroke-linecap="butt" font-family="Helvetica" stroke-miterlimit="10.0" font-weight="bold"><text dominant-baseline="middle" transform="matrix(1.0,0.0,0.0,1.0,287.01303353324954,163.62699800825928)" stroke="none" text-anchor="middle">LineCapRound</text></g><defs></defs><g stroke-linejoin="miter" stroke-opacity="1.0" fill-opacity="1.0" stroke="rgb(0,0,0)" stroke-width="0.0" fill="rgb(0,128,0)" stroke-linecap="butt" stroke-miterlimit="10.0"><path d="M 222.07787555765958,92.19803115745658 c -14.345007052300385,-8.783783485172937e-16 -25.97393293350096,11.628925881200571 -25.97393293350096 25.973932933500954c -1.7567566970345874e-15,14.345007052300385 11.628925881200571,25.97393293350096 25.97393293350095 25.97393293350096h 129.86966466750482 c 14.345007052300385,-8.783783485172937e-16 25.97393293350096,-11.628925881200574 25.973932933500958 -25.973932933500958c 0.0,-6.076251092058475 -2.130283781570332,-11.960201272862653 -6.020204939150425 -16.62810666195877l -64.93483233375241,-77.92179880050288 c -9.183449727959651,-11.020139673551583 -25.56169498275772,-12.50907106035141 -36.5818346563093 -3.3256213323917594c -11.020139673551583,9.183449727959651 -12.509071060351411,25.56169498275772 -3.3256213323917625 36.5818346563093l 64.93483233375241,77.92179880050288 c 9.183449727959651,11.020139673551585 25.561694982757718,12.509071060351415 36.5818346563093 3.325621332391765c 11.020139673551585,-9.183449727959651 12.509071060351415,-25.561694982757714 3.3256213323917683 -36.5818346563093c -4.934886876493225,-5.921864251791873 -12.245188268797088,-9.345826271542187 -19.95372799435053 -9.345826271542196Z"/></g><defs></defs><g stroke-linejoin="miter" stroke-opacity="1.0" fill-opacity="0.0" stroke="rgb(255,255,255)" stroke-width="3.4413633529314827" fill="rgb(0,0,0)" stroke-linecap="butt" stroke-miterlimit="10.0"><path d="M 222.07787555765958,118.17196409095754 h 129.86966466750482 l -64.93483233375241,-77.92179880050288 "/></g><defs></defs><g stroke-linejoin="miter" stroke-opacity="1.0" fill-opacity="1.0" font-size="12.98696646675048px" stroke="rgb(0,0,0)" stroke-width="1.376545341172593" fill="rgb(0,0,0)" stroke-linecap="butt" font-family="Helvetica" stroke-miterlimit="10.0" font-weight="bold"><text dominant-baseline="middle" transform="matrix(1.0,0.0,0.0,1.0,105.19485171506776,158.95375923065066)" stroke="none" text-anchor="middle">LineCapButt</text></g><defs></defs><g stroke-linejoin="miter" stroke-opacity="1.0" fill-opacity="1.0" stroke="rgb(0,0,0)" stroke-width="0.0" fill="rgb(0,128,0)" stroke-linecap="butt" stroke-miterlimit="10.0"><path d="M 27.272727272727337,87.52479237984795 v 51.94786586700192 h 129.86966466750482 c 14.345007052300385,-8.783783485172937e-16 25.97393293350096,-11.628925881200574 25.973932933500958 -25.973932933500958c 0.0,-6.076251092058475 -2.130283781570332,-11.960201272862653 -6.020204939150425 -16.62810666195877l -64.93483233375241,-77.92179880050288 l -39.907455988701045,33.25621332391755 l 64.93483233375241,77.92179880050288 c 9.183449727959651,11.020139673551585 25.561694982757718,12.509071060351415 36.5818346563093 3.325621332391765c 11.020139673551585,-9.183449727959651 12.509071060351415,-25.561694982757714 3.3256213323917683 -36.5818346563093c -4.934886876493225,-5.921864251791873 -12.245188268797088,-9.345826271542187 -19.95372799435053 -9.345826271542196Z"/></g><defs></defs><g stroke-linejoin="miter" stroke-opacity="1.0" fill-opacity="0.0" stroke="rgb(255,255,255)" stroke-width="3.4413633529314827" fill="rgb(0,0,0)" stroke-linecap="butt" stroke-miterlimit="10.0"><path d="M 27.272727272727337,113.49872531334891 h 129.86966466750482 l -64.93483233375241,-77.92179880050288 "/></g></g></svg>