<?xml version="1.0" encoding="UTF-8"?>
<!DOCTYPE svg PUBLIC "-//W3C//DTD SVG 1.1//EN"
    "http://www.w3.org/Graphics/SVG/1.1/DTD/svg11.dtd"><svg xmlns="http://www.w3.org/2000/svg" height="178.54130895779463" stroke-opacity="1" viewBox="0 0 400 179" font-size="1" width="400.0" xmlns:xlink="http://www.w3.org/1999/xlink" stroke="rgb(0,0,0)" version="1.1"><g><defs></defs><g stroke-linejoin="miter" stroke-opacity="1.0" fill-opacity="1.0" stroke="rgb(0,0,0)" stroke-width="1.0689548060277785" fill="rgb(0,0,255)" stroke-linecap="butt" stroke-miterlimit="10.0"><path d="M 364.6026155171689,49.10118238914238 l 17.215566301012974,-17.21556630101297 c -31.692982425834614,-31.692982425834618 -83.0774595809185,-31.692982425834632 -114.77044200675311 -1.8020020547460663e-14c -31.692982425834618,31.692982425834614 -31.692982425834632,83.0774595809185 -2.7030030821190994e-14 114.77044200675311c 31.69298242583461,31.69298242583462 83.07745958091849,31.692982425834636 114.77044200675309 3.6040041094921325e-14l -17.21556630101297,-17.215566301012974 c -22.18508769808423,22.185087698084228 -58.15422170664295,22.18508769808423 -80.33930940472717 -0.0c -22.185087698084228,-22.18508769808423 -22.18508769808423,-58.15422170664295 -6.3070071916112315e-15 -80.33930940472717c 22.185087698084228,-22.18508769808423 58.15422170664295,-22.185087698084235 80.33930940472723 -1.4210854715202004e-14Z"/></g><defs></defs><g stroke-linejoin="miter" stroke-opacity="1.0" fill-opacity="1.0" stroke="rgb(0,0,0)" stroke-width="1.0689548060277785" fill="rgb(0,0,255)" stroke-linecap="butt" stroke-miterlimit="10.0"><path d="M 196.76242196124198,65.05772234978113 l 5.938102119434486,-56.49726773069128 c -22.874028519212235,-2.4041572749570754 -45.69391955328102,5.010474787900576 -62.786269164729504 20.400495504601412l 38.01228629587617,42.2169208774703 c 5.127704883434546,-4.617006215010249 11.97367219365518,-6.841395833867544 18.83588074941884 -6.120148651380433Z"/></g><defs></defs><g stroke-linejoin="miter" stroke-opacity="1.0" fill-opacity="1.0" stroke="rgb(0,0,0)" stroke-width="1.0689548060277785" fill="rgb(0,0,255)" stroke-linecap="butt" stroke-miterlimit="10.0"><path d="M 58.75929709319445,89.27083709150597 h 40.57747891137626 c 0.0,-44.820645578667474 -36.33431224408504,-81.15495782275252 -81.15495782275251 -81.15495782275252l -2.4846539833143083e-15,40.57747891137626 c 22.410322789333737,1.372236503590827e-15 40.57747891137626,18.167156122042524 40.57747891137625 40.57747891137626Z"/></g></g></svg>