<?xml version="1.0" encoding="UTF-8"?>
<!DOCTYPE svg PUBLIC "-//W3C//DTD SVG 1.1//EN"
    "http://www.w3.org/Graphics/SVG/1.1/DTD/svg11.dtd">
<svg xmlns="http://www.w3.org/2000/svg" xmlns:xlink="http://www.w3.org/1999/xlink" version="1.1" width="600.0" height="185.1008379753402" font-size="1" viewBox="0 0 600 185"><g><g transform="matrix(13.702641330909062,0.0,0.0,13.702641330909062,300.0,92.5504189876701)"><g stroke="rgb(0,0,0)" stroke-opacity="1.0" fill="rgb(0,0,0)" fill-opacity="1.0" stroke-width="0.2" stroke-linecap="butt" stroke-linejoin="miter" font-size="1.0em" font-weight="bold" font-family="Helvetica"><text transform="matrix(1.0,0.0,0.0,1.0,14.135041612651108,4.64018439966448)" dominant-baseline="middle" text-anchor="middle" stroke="none">LineJoinBevel</text></g></g><g transform="matrix(13.702641330909062,0.0,0.0,13.702641330909062,300.0,92.5504189876701)"><g stroke="rgb(0,0,0)" stroke-opacity="1.0" fill="rgb(0,0,0)" fill-opacity="0.0" stroke-width="0.2" stroke-linecap="butt" stroke-linejoin="miter" font-size="1.0em"></g></g><g transform="matrix(13.702641330909062,0.0,0.0,13.702641330909062,300.0,92.5504189876701)"><g stroke="rgb(0,128,0)" stroke-opacity="1.0" fill-opacity="0.0" stroke-width="0.2" stroke-linecap="butt" stroke-linejoin="miter" font-size="1.0em"><path d="M 8.366820333053731,3.14018439966448 h 10.0 l 1.536442559194752,-3.2803687993289596 l -5.0,-6.0 " /></g></g><g transform="matrix(13.702641330909062,0.0,0.0,13.702641330909062,300.0,92.5504189876701)"><g stroke="rgb(0,0,255)" stroke-opacity="1.0" fill-opacity="0.0" stroke-width="0.2" stroke-linecap="butt" stroke-linejoin="miter" font-size="1.0em"><path d="M 8.366820333053731,1.1401843996644798 h 10.0 l -5.0,-6.0 " /></g></g><g transform="matrix(13.702641330909062,0.0,0.0,13.702641330909062,300.0,92.5504189876701)"><g stroke="rgb(0,0,0)" stroke-opacity="1.0" fill="rgb(0,0,0)" fill-opacity="1.0" stroke-width="0.2" stroke-linecap="butt" stroke-linejoin="miter" font-size="1.0em" font-weight="bold" font-family="Helvetica"><text transform="matrix(1.0,0.0,0.0,1.0,1.366820333053731,4.64018439966448)" dominant-baseline="middle" text-anchor="middle" stroke="none">LineJoinRound</text></g></g><g transform="matrix(13.702641330909062,0.0,0.0,13.702641330909062,300.0,92.5504189876701)"><g stroke="rgb(0,0,0)" stroke-opacity="1.0" fill="rgb(0,0,0)" fill-opacity="0.0" stroke-width="0.2" stroke-linecap="butt" stroke-linejoin="miter" font-size="1.0em"></g></g><g transform="matrix(13.702641330909062,0.0,0.0,13.702641330909062,300.0,92.5504189876701)"><g stroke="rgb(0,128,0)" stroke-opacity="1.0" fill-opacity="0.0" stroke-width="0.2" stroke-linecap="butt" stroke-linejoin="miter" font-size="1.0em"><path d="M -4.633179666946269,3.14018439966448 h 10.0 c 1.1045694996615865,-2.8967774630123047e-16 1.9999999999999996,-0.8954305003384132 1.9999999999999998 -1.9999999999999998c -2.220446049250313e-16,-0.4678730100377968 -0.16403243875498852,-0.9209387968686479 -0.4635574408052485 -1.28036879932896l -5.0,-6.0 " /></g></g><g transform="matrix(13.702641330909062,0.0,0.0,13.702641330909062,300.0,92.5504189876701)"><g stroke="rgb(0,0,255)" stroke-opacity="1.0" fill-opacity="0.0" stroke-width="0.2" stroke-linecap="butt" stroke-linejoin="miter" font-size="1.0em"><path d="M -4.633179666946269,1.1401843996644798 h 10.0 l -5.0,-6.0 " /></g></g><g transform="matrix(13.702641330909062,0.0,0.0,13.702641330909062,300.0,92.5504189876701)"><g stroke="rgb(0,0,0)" stroke-opacity="1.0" fill="rgb(0,0,0)" fill-opacity="1.0" stroke-width="0.2" stroke-linecap="butt" stroke-linejoin="miter" font-size="1.0em" font-weight="bold" font-family="Helvetica"><text transform="matrix(1.0,0.0,0.0,1.0,-12.768221279597377,4.64018439966448)" dominant-baseline="middle" text-anchor="middle" stroke="none">LineJoinMiter</text></g></g><g transform="matrix(13.702641330909062,0.0,0.0,13.702641330909062,300.0,92.5504189876701)"><g stroke="rgb(0,0,0)" stroke-opacity="1.0" fill="rgb(0,0,0)" fill-opacity="0.0" stroke-width="0.2" stroke-linecap="butt" stroke-linejoin="miter" font-size="1.0em"></g></g><g transform="matrix(13.702641330909062,0.0,0.0,13.702641330909062,300.0,92.5504189876701)"><g stroke="rgb(0,128,0)" stroke-opacity="1.0" fill-opacity="0.0" stroke-width="0.2" stroke-linecap="butt" stroke-linejoin="miter" font-size="1.0em"><path d="M -19.903262892248485,3.14018439966448 h 10.0 h 4.270083225302217 l -2.7336406661074655,-3.2803687993289596 l -5.0,-6.0 " /></g></g><g transform="matrix(13.702641330909062,0.0,0.0,13.702641330909062,300.0,92.5504189876701)"><g stroke="rgb(0,0,255)" stroke-opacity="1.0" fill-opacity="0.0" stroke-width="0.2" stroke-linecap="butt" stroke-linejoin="miter" font-size="1.0em"><path d="M -19.903262892248485,1.1401843996644798 h 10.0 l -5.0,-6.0 " /></g></g></g></svg>