<?xml version="1.0" encoding="UTF-8"?>
<!DOCTYPE svg PUBLIC "-//W3C//DTD SVG 1.1//EN"
    "http://www.w3.org/Graphics/SVG/1.1/DTD/svg11.dtd">
<svg xmlns="http://www.w3.org/2000/svg" xmlns:xlink="http://www.w3.org/1999/xlink" version="1.1" width="400.0" height="178.54130895779457" font-size="1" viewBox="0 0 400 179"><g><g transform="matrix(81.15495782275252,0.0,0.0,81.15495782275252,200.0,89.27065447889727)"><g stroke="rgb(0,0,0)" stroke-opacity="1.0" fill="rgb(0,0,255)" fill-opacity="1.0" stroke-width="1.0e-2" stroke-linecap="butt" stroke-linejoin="miter" font-size="1.0em" stroke-miterlimit="10.0"><path d="M 1.5332761442199825,2.250171937223655e-6 l 0.7071067811865476,-0.7071067811865475 c -0.39052429175126996,-0.39052429175127 -1.023689270621825,-0.3905242917512702 -1.414213562373095 -2.220446049250313e-16c -0.39052429175127,0.39052429175126996 -0.3905242917512702,1.023689270621825 -3.3306690738754696e-16 1.414213562373095c 0.3905242917512699,0.39052429175127007 1.0236892706218248,0.39052429175127024 1.4142135623730947 4.440892098500626e-16l -0.707106781186547,-0.7071067811865477 Z" /></g></g><g transform="matrix(81.15495782275252,0.0,0.0,81.15495782275252,200.0,89.27065447889727)"><g stroke="rgb(0,0,0)" stroke-opacity="1.0" fill="rgb(0,0,255)" fill-opacity="1.0" stroke-width="1.0e-2" stroke-linecap="butt" stroke-linejoin="miter" font-size="1.0em" stroke-miterlimit="10.0"><path d="M -7.125231904767126e-2,2.250171937223655e-6 l 0.10452846326765346,-0.9945218953682733 c -0.28185620611337825,-2.9624280998431504e-2 -0.5630453243913867,6.173960189645773e-2 -0.7736590696265117 0.25137706989087893l 0.6691306063588582,0.7431448254773944 Z" /></g></g><g transform="matrix(81.15495782275252,0.0,0.0,81.15495782275252,200.0,89.27065447889727)"><g stroke="rgb(0,0,0)" stroke-opacity="1.0" fill="rgb(0,0,255)" fill-opacity="1.0" stroke-width="1.0e-2" stroke-linecap="butt" stroke-linejoin="miter" font-size="1.0em" stroke-miterlimit="10.0"><path d="M -2.2403829254065295,2.250171937223655e-6 h 1.0 c 0.0,-0.5522847498307935 -0.44771525016920644,-1.0 -0.9999999999999998 -1.0l -2.220446049250313e-16,1.0 Z" /></g></g></g></svg>