<svg xmlns="http://www.w3.org/2000/svg" height="166.6667" stroke-opacity="1" viewBox="0 0 300 167" font-size="1" width="300.0000" xmlns:xlink="http://www.w3.org/1999/xlink" stroke="rgb(0,0,0)" version="1.1"><defs></defs><g stroke-linejoin="miter" stroke-opacity="1.0" fill-opacity="1.0" stroke="rgb(0,0,0)" stroke-width="0.8944271909999159" fill="rgb(0,0,255)" stroke-linecap="butt" stroke-miterlimit="10.0"><path d="M 261.1111,138.8889 l -0.0000,-111.1111 h -111.1111 l -0.0000,111.1111 Z"/></g><g stroke-linejoin="miter" stroke-opacity="1.0" fill-opacity="0.0" stroke="rgb(255,255,255)" stroke-width="0.8944271909999159" fill="rgb(0,0,0)" stroke-dashoffset="0.0" stroke-linecap="butt" stroke-miterlimit="10.0" stroke-dasharray="5.555555555555557,5.555555555555557"><path d="M 250.0000,83.3333 c 0.0000,-24.5460 -19.8985,-44.4444 -44.4444 -44.4444c -24.5460,-0.0000 -44.4444,19.8985 -44.4444 44.4444c -0.0000,24.5460 19.8985,44.4444 44.4444 44.4444c 24.5460,0.0000 44.4444,-19.8985 44.4444 -44.4444Z"/></g><g stroke-linejoin="miter" stroke-opacity="1.0" fill-opacity="1.0" stroke="rgb(0,0,0)" stroke-width="0.8944271909999159" fill="rgb(0,128,0)" stroke-linecap="butt" stroke-miterlimit="10.0"><path d="M 161.1111,83.3333 c 0.0000,-30.6825 -24.8731,-55.5556 -55.5556 -55.5556c -30.6825,-0.0000 -55.5556,24.8731 -55.5556 55.5556c -0.0000,30.6825 24.8731,55.5556 55.5556 55.5556c 30.6825,0.0000 55.5556,-24.8731 55.5556 -55.5556Z"/></g></svg>