<?xml version="1.0" encoding="UTF-8"?>
<!DOCTYPE svg PUBLIC "-//W3C//DTD SVG 1.1//EN"
    "http://www.w3.org/Graphics/SVG/1.1/DTD/svg11.dtd">
<svg xmlns="http://www.w3.org/2000/svg" xmlns:xlink="http://www.w3.org/1999/xlink" version="1.1" width="300.0" height="300.0" font-size="1" viewBox="0 0 300 300"><g><g transform="matrix(22.727272727272723,0.0,0.0,22.727272727272723,150.0,150.0)"><g stroke="rgb(0,0,0)" stroke-opacity="1.0" fill="rgb(0,128,0)" fill-opacity="1.0" stroke-width="0.0" stroke-linecap="butt" stroke-linejoin="miter" font-size="1.0em"><path d="M -5.000000000000001,5.999999999999999 h 5.0 c 0.26521648983954416,-1.6239289929798687e-17 0.5195704027385131,-0.10535684036541784 0.7071067811865477 -0.2928932188134527l 5.0,-5.0 c 0.18753637844803467,-0.1875363784480347 0.29289321881345254,-0.4418902913470036 0.2928932188134524 -0.7071067811865477v -5.0 c -1.1102230246251565e-16,-0.5522847498307932 -0.44771525016920655,-0.9999999999999998 -0.9999999999999998 -1.0c -0.26521648983954405,-1.623928992979868e-17 -0.519570402738513,0.10535684036541779 -0.7071067811865476 0.2928932188134525l -10.0,10.0 c -0.39052429175126985,0.39052429175126985 -0.39052429175126996,1.023689270621825 -2.220446049250313e-16 1.414213562373095c 0.18753637844803467,0.1875363784480347 0.4418902913470035,0.2928932188134526 0.7071067811865476 0.2928932188134526l 3.3306690738754696e-16,1.887379141862766e-15 ZM -5.000000000000001,3.999999999999999 l 2.6645352591003757e-15,3.3306690738754696e-16 c -0.5522847498307932,1.1102230246251565e-16 -0.9999999999999998,0.44771525016920644 -1.0 0.9999999999999997c 0.0,0.5522847498307932 0.44771525016920644,0.9999999999999998 0.9999999999999996 1.0c 0.26521648983954405,5.551115123125783e-17 0.519570402738513,-0.10535684036541773 0.7071067811865476 -0.29289321881345237l 10.0,-10.0 c 0.39052429175126974,-0.3905242917512699 0.3905242917512698,-1.023689270621825 0.0 -1.414213562373095c -0.3905242917512699,-0.39052429175126974 -1.023689270621825,-0.39052429175126985 -1.414213562373095 -1.1102230246251565e-16c -0.1875363784480347,0.18753637844803472 -0.29289321881345254,0.4418902913470035 -0.2928932188134525 0.7071067811865476v 5.0 c 0.0,0.5522847498307932 0.44771525016920644,0.9999999999999998 0.9999999999999997 1.0000000000000002c 0.5522847498307932,0.0 0.9999999999999998,-0.4477152501692063 1.0000000000000002 -0.9999999999999996c 0.0,-0.5522847498307932 -0.4477152501692063,-0.9999999999999998 -0.9999999999999994 -1.0000000000000002c -0.26521648983954405,-5.551115123125783e-17 -0.519570402738513,0.10535684036541765 -0.7071067811865476 0.29289321881345226l -5.0,5.0 c -0.39052429175126985,0.3905242917512699 -0.39052429175126996,1.023689270621825 -2.220446049250313e-16 1.414213562373095c 0.3905242917512699,0.39052429175126985 1.0236892706218248,0.39052429175127 1.414213562373095 3.3306690738754696e-16c 0.39052429175126985,-0.3905242917512699 0.39052429175127007,-1.0236892706218248 4.440892098500626e-16 -1.4142135623730947c -0.1875363784480346,-0.18753637844803472 -0.44189029134700347,-0.29289321881345265 -0.7071067811865475 -0.29289321881345265l -5.000000000000002,-2.6645352591003757e-15 Z" /></g></g><g transform="matrix(22.727272727272723,0.0,0.0,22.727272727272723,150.0,150.0)"><g stroke="rgb(255,255,255)" stroke-opacity="1.0" fill="rgb(0,0,0)" fill-opacity="0.0" stroke-width="0.2" stroke-linecap="butt" stroke-linejoin="miter" font-size="1.0em"><path d="M -5.000000000000001,4.999999999999999 h 5.0 l 5.0,-5.0 v -5.0 l -10.0,10.0 Z" /></g></g></g></svg>