<?xml version="1.0" encoding="UTF-8"?>
<!DOCTYPE svg PUBLIC "-//W3C//DTD SVG 1.1//EN"
    "http://www.w3.org/Graphics/SVG/1.1/DTD/svg11.dtd">
<svg xmlns="http://www.w3.org/2000/svg" xmlns:xlink="http://www.w3.org/1999/xlink" version="1.1" width="300.0" height="271.2911579538083" font-size="1" viewBox="0 0 300 271"><g><g transform="matrix(19.48051948051948,0.0,0.0,19.48051948051948,150.0,135.64557897690415)"><g stroke="rgb(0,128,0)" stroke-opacity="1.0" fill="rgb(0,0,0)" fill-opacity="0.0" stroke-width="0.2" stroke-linecap="butt" stroke-linejoin="miter" font-size="1.0em"><path d="M 4.232050807568878,5.330127018922194 l 2.5000000000000004,-4.330127018922193 c 0.3572655899081634,-0.618802153517006 0.3572655899081636,-1.3811978464829942 0.0 -2.0l -2.499999999999999,-4.330127018922194 c -0.3572655899081634,-0.6188021535170058 -1.0175196277525496,-0.9999999999999998 -1.7320508075688767 -0.9999999999999998l -5.0,-1.3322676295501878e-15 c -0.7145311798163274,1.9635840255734673e-17 -1.3747852176607138,0.38119784648299376 -1.7320508075688779 1.0l -2.500000000000001,4.330127018922193 c -0.35726558990816343,0.618802153517006 -0.35726558990816365,1.381197846482993 -6.661338147750939e-16 1.9999999999999991l 2.4999999999999973,4.3301270189221945 c 0.35726558990816354,0.6188021535170064 1.01751962775255,1.0000000000000007 1.7320508075688772 1.000000000000001h 5.000000000000002 c 0.714531179816327,5.152001099247068e-17 1.374785217660714,-0.38119784648299365 1.7320508075688776 -0.9999999999999996l 8.881784197001252e-16,-4.440892098500626e-16 Z" /></g></g><g transform="matrix(19.48051948051948,0.0,0.0,19.48051948051948,150.0,135.64557897690415)"><g stroke="rgb(0,0,255)" stroke-opacity="1.0" fill="rgb(0,0,0)" fill-opacity="0.0" stroke-width="0.2" stroke-linecap="butt" stroke-linejoin="miter" font-size="1.0em"><path d="M 2.500000000000001,4.330127018922194 l 2.5000000000000004,-4.330127018922193 l -2.499999999999999,-4.330127018922194 l -5.0,-1.3322676295501878e-15 l -2.500000000000001,4.330127018922193 l 2.4999999999999973,4.3301270189221945 h 5.000000000000002 Z" /></g></g></g></svg>