<?xml version="1.0" encoding="UTF-8"?>
<!DOCTYPE svg PUBLIC "-//W3C//DTD SVG 1.1//EN"
    "http://www.w3.org/Graphics/SVG/1.1/DTD/svg11.dtd"><svg xmlns="http://www.w3.org/2000/svg" height="302.8587568898731" stroke-opacity="1" viewBox="0 0 600 303" font-size="1" width="600.0" xmlns:xlink="http://www.w3.org/1999/xlink" stroke="rgb(0,0,0)" version="1.1"><g><defs></defs><g stroke-linejoin="miter" stroke-opacity="1.0" fill-opacity="0.0" stroke="rgb(0,128,0)" stroke-width="3.197105416628175" fill="rgb(0,0,0)" stroke-linecap="butt" stroke-miterlimit="10.0"><path d="M 511.98178004434516,129.75705144620275 c 10.606235857710116,25.069284754587557 34.205470842153446,55.82546981090268 80.48722731216125 86.6799741242412"/></g><defs></defs><g stroke-linejoin="miter" stroke-opacity="1.0" fill-opacity="0.0" stroke="rgb(255,0,0)" stroke-width="3.197105416628175" fill="rgb(0,0,0)" stroke-linecap="butt" stroke-miterlimit="10.0"><path d="M 504.65999705048597,99.66254214599793 c 0.3346638704313681,8.255042137307118 2.4133795608657382,18.49282845858401 7.3217829938591645 30.09450930020482"/></g><defs></defs><g stroke-linejoin="miter" stroke-opacity="1.0" fill-opacity="0.0" stroke="rgb(0,128,0)" stroke-width="3.197105416628175" fill="rgb(0,0,0)" stroke-linecap="butt" stroke-miterlimit="10.0"><path d="M 506.4937338514014,85.26625987587946 c -1.4640943353929647,2.928188670785941 -2.1082544888015486,7.624845968926008 -1.8337368009153647 14.396282270118482"/></g><defs></defs><g stroke-linejoin="miter" stroke-opacity="1.0" fill-opacity="0.0" stroke="rgb(255,0,0)" stroke-width="3.197105416628175" fill="rgb(0,0,0)" stroke-linecap="butt" stroke-miterlimit="10.0"><path d="M 506.20843689577896,85.59271401011554 c 6.779273038019212e-2,-7.684807703746524e-2 0.22264374631797676,-0.20114771562720798 0.285296955622412 -0.3264541342360785"/></g><defs></defs><g stroke-linejoin="miter" stroke-opacity="1.0" fill-opacity="0.0" stroke="rgb(0,128,0)" stroke-width="3.197105416628175" fill="rgb(0,0,0)" stroke-linecap="butt" stroke-miterlimit="10.0"><path d="M 502.65791267381195,87.93569090398205 c 1.09966629984615,-0.41436701153624195 2.44687362393302,-1.0919072628821396 3.5505242219670206 -2.3429768938665205"/></g><defs></defs><g stroke-linejoin="miter" stroke-opacity="1.0" fill-opacity="0.0" stroke="rgb(255,0,0)" stroke-width="3.197105416628175" fill="rgb(0,0,0)" stroke-linecap="butt" stroke-miterlimit="10.0"><path d="M 494.0623117811511,87.58378657314933 c 2.9457623866121114,1.3739128917795682 5.382041925447612,1.5628106083333693 8.595600892660824 0.35190433083272765"/></g><defs></defs><g stroke-linejoin="miter" stroke-opacity="1.0" fill-opacity="0.0" stroke="rgb(0,128,0)" stroke-width="3.197105416628175" fill="rgb(0,0,0)" stroke-linecap="butt" stroke-miterlimit="10.0"><path d="M 489.696194669177,83.7630310932222 c 1.233835708711896,2.088029660897054 2.86534579320438,3.1207909913309457 4.366117111974136 3.8207554799271173"/></g><defs></defs><g stroke-linejoin="miter" stroke-opacity="1.0" fill-opacity="0.0" stroke="rgb(255,0,0)" stroke-width="3.197105416628175" fill="rgb(0,0,0)" stroke-linecap="butt" stroke-miterlimit="10.0"><path d="M 489.27962586563376,82.94401200781269 c 7.73489093536048e-2,0.32804714747133096 0.30246544790102176,0.625921098938114 0.4165688035432233 0.8190190854095302"/></g><defs></defs><g stroke-linejoin="miter" stroke-opacity="1.0" fill-opacity="0.0" stroke="rgb(0,128,0)" stroke-width="3.197105416628175" fill="rgb(0,0,0)" stroke-linecap="butt" stroke-miterlimit="10.0"><path d="M 489.54489237921916,85.09467757558332 c -5.201273523887835e-2,-0.8562096416246057 -0.12423198149539019,-1.5525191125235354 -0.26526651358542147 -2.1506655677706306"/></g><defs></defs><g stroke-linejoin="miter" stroke-opacity="1.0" fill-opacity="0.0" stroke="rgb(255,0,0)" stroke-width="3.197105416628175" fill="rgb(0,0,0)" stroke-linecap="butt" stroke-miterlimit="10.0"><path d="M 488.8865444836074,96.10544324136515 c 0.6285951592007359,-4.609697834138746 0.8285924178952987,-8.208278914345197 0.6583478956117672 -11.010765665781838"/></g><defs></defs><g stroke-linejoin="miter" stroke-opacity="1.0" fill-opacity="0.0" stroke="rgb(0,128,0)" stroke-width="3.197105416628175" fill="rgb(0,0,0)" stroke-linecap="butt" stroke-miterlimit="10.0"><path d="M 441.8491544866363,221.49977358585733 c 31.929731500853993,-63.85946300170799 44.043977668766026,-103.44263993765506 47.037389996971086 -125.39433034449219"/></g><defs></defs><g stroke-linejoin="miter" stroke-opacity="1.0" fill-opacity="0.0" stroke="rgb(0,0,255)" stroke-width="3.197105416628175" fill="rgb(0,0,0)" stroke-linecap="butt" stroke-miterlimit="10.0"><path d="M 453.6158583894627,227.38312553727053 c 131.55574898915933,-263.11149797831865 -65.77787449457966,-131.55574898915933 131.55574898915933 -0.0"/></g><defs></defs><g stroke-linejoin="miter" stroke-opacity="1.0" fill-opacity="0.0" stroke="rgb(0,128,0)" stroke-width="3.197105416628175" fill="rgb(0,0,0)" stroke-linecap="butt" stroke-miterlimit="10.0"><path d="M 364.7622235703773,85.96753101537462 c 0.0,15.329119171798204 0.6082191299019316,77.38134470418046 61.92469581709472 138.69782139137325"/></g><defs></defs><g stroke-linejoin="miter" stroke-opacity="1.0" fill-opacity="0.0" stroke="rgb(255,0,0)" stroke-width="3.197105416628175" fill="rgb(0,0,0)" stroke-linecap="butt" stroke-miterlimit="10.0"><path d="M 364.7418968655277,83.13929813428342 c 1.7887563160725383e-2,0.7020868540585619 2.0326704849611056e-2,1.6834288388046035 2.0326704849611056e-2 2.8282328810911914"/></g><defs></defs><g stroke-linejoin="miter" stroke-opacity="1.0" fill-opacity="0.0" stroke="rgb(0,128,0)" stroke-width="3.197105416628175" fill="rgb(0,0,0)" stroke-linecap="butt" stroke-miterlimit="10.0"><path d="M 364.66018914900303,81.56310499408985 c 3.50905592283126e-2,0.41036459541998055 6.611191242317342e-2,0.964057829210773 8.170771652464309e-2 1.576193140193557"/></g><defs></defs><g stroke-linejoin="miter" stroke-opacity="1.0" fill-opacity="0.0" stroke="rgb(255,0,0)" stroke-width="3.197105416628175" fill="rgb(0,0,0)" stroke-linecap="butt" stroke-miterlimit="10.0"><path d="M 364.05199859639237,78.3408445789562 c 0.19861208817462941,0.6454892865675514 0.49647125301243644,1.9157652726099426 0.6081905526106669 3.2222604151336727"/></g><defs></defs><g stroke-linejoin="miter" stroke-opacity="1.0" fill-opacity="0.0" stroke="rgb(0,128,0)" stroke-width="3.197105416628175" fill="rgb(0,0,0)" stroke-linecap="butt" stroke-miterlimit="10.0"><path d="M 361.6158660605823,73.77595634835652 c 0.778281999447702,0.9536356598170911 1.8211936720489095,2.566336923375968 2.4361325358100565 4.564888230599678"/></g><defs></defs><g stroke-linejoin="miter" stroke-opacity="1.0" fill-opacity="0.0" stroke="rgb(255,0,0)" stroke-width="3.197105416628175" fill="rgb(0,0,0)" stroke-linecap="butt" stroke-miterlimit="10.0"><path d="M 357.18966169675514,70.25802410049732 c 1.534225396181438,0.7533004195932368 3.0492264459247074,1.8307093052441519 4.42620436382716 3.517932247859198"/></g><defs></defs><g stroke-linejoin="miter" stroke-opacity="1.0" fill-opacity="0.0" stroke="rgb(0,128,0)" stroke-width="3.197105416628175" fill="rgb(0,0,0)" stroke-linecap="butt" stroke-miterlimit="10.0"><path d="M 349.91728913050895,68.98396616497621 c 2.6563706456126557,-0.2922007710173851 4.874998058580777,9.695369318400071e-2 7.272372566246191 1.2740579355211061"/></g><defs></defs><g stroke-linejoin="miter" stroke-opacity="1.0" fill-opacity="0.0" stroke="rgb(255,0,0)" stroke-width="3.197105416628175" fill="rgb(0,0,0)" stroke-linecap="butt" stroke-miterlimit="10.0"><path d="M 344.50737812673464,70.81874430723295 c 1.890483423344665,-1.1435066965469178 3.6951868102644125,-1.6461584809706553 5.40991100377432 -1.8347781422567448"/></g><defs></defs><g stroke-linejoin="miter" stroke-opacity="1.0" fill-opacity="0.0" stroke="rgb(0,128,0)" stroke-width="3.197105416628175" fill="rgb(0,0,0)" stroke-linecap="butt" stroke-miterlimit="10.0"><path d="M 341.90372938933285,72.87554041429576 c 0.8842995586107706,-0.8970890150369698 1.7979129825518834,-1.5694264639648248 2.6036487374017807 -2.0567961070628034"/></g><defs></defs><g stroke-linejoin="miter" stroke-opacity="1.0" fill-opacity="0.0" stroke="rgb(255,0,0)" stroke-width="3.197105416628175" fill="rgb(0,0,0)" stroke-linecap="butt" stroke-miterlimit="10.0"><path d="M 339.9429387947986,75.39357199790632 c 0.6567471005360198,-1.0763355258784695 1.408940600333852,-1.9582002878411209 1.9607905945342565 -2.5180315836105462"/></g><defs></defs><g stroke-linejoin="miter" stroke-opacity="1.0" fill-opacity="0.0" stroke="rgb(0,128,0)" stroke-width="3.197105416628175" fill="rgb(0,0,0)" stroke-linecap="butt" stroke-miterlimit="10.0"><path d="M 338.2153466102728,79.15920115255244 c 0.5976239099089827,-1.6434657522496967 1.3914287352020118,-3.2146946126988154 1.7275921845258102 -3.765629154646144"/></g><defs></defs><g stroke-linejoin="miter" stroke-opacity="1.0" fill-opacity="0.0" stroke="rgb(255,0,0)" stroke-width="3.197105416628175" fill="rgb(0,0,0)" stroke-linecap="butt" stroke-miterlimit="10.0"><path d="M 331.02089158742814,99.97173175435304 c 4.036215742086062,-11.09959329073667 6.185401087323134,-18.03763227911644 7.194455022844651 -20.8125306018006"/></g><defs></defs><g stroke-linejoin="miter" stroke-opacity="1.0" fill-opacity="0.0" stroke="rgb(0,128,0)" stroke-width="3.197105416628175" fill="rgb(0,0,0)" stroke-linecap="butt" stroke-miterlimit="10.0"><path d="M 274.06207027405526,228.08439667676566 c 32.52509614545878,-65.05019229091756 48.82754727700814,-105.75166132240972 56.95882131337283 -128.11266492241262"/></g><defs></defs><g stroke-linejoin="miter" stroke-opacity="1.0" fill-opacity="0.0" stroke="rgb(0,0,255)" stroke-width="3.197105416628175" fill="rgb(0,0,0)" stroke-linecap="butt" stroke-miterlimit="10.0"><path d="M 285.82877417688167,233.96774862817887 c 131.55574898915933,-263.11149797831865 0.0,-131.55574898915933 131.55574898915933 -0.0"/></g><defs></defs><g stroke-linejoin="miter" stroke-opacity="1.0" fill-opacity="0.0" stroke="rgb(0,128,0)" stroke-width="3.197105416628175" fill="rgb(0,0,0)" stroke-linecap="butt" stroke-miterlimit="10.0"><path d="M 243.5066684881608,119.71820244879375 c -3.7564422059063314,1.2749137183682067 -8.501013484230302,2.111132473581955 -14.329190482484977 2.111132473581955"/></g><defs></defs><g stroke-linejoin="miter" stroke-opacity="1.0" fill-opacity="0.0" stroke="rgb(255,0,0)" stroke-width="3.197105416628175" fill="rgb(0,0,0)" stroke-linecap="butt" stroke-miterlimit="10.0"><path d="M 255.137108470349,112.19787026866629 c -2.684178425620012,3.0676324864228737 -6.357946646148888,5.730879896380798 -11.630439982188188 7.520332180127449"/></g><defs></defs><g stroke-linejoin="miter" stroke-opacity="1.0" fill-opacity="0.0" stroke="rgb(0,128,0)" stroke-width="3.197105416628175" fill="rgb(0,0,0)" stroke-linecap="butt" stroke-miterlimit="10.0"><path d="M 258.9676745438485,87.61006066523362 c 3.4874720283559024,9.29992540894908 2.272509976123351,17.61286554672084 -3.8305660734994813 24.58780960343267"/></g><defs></defs><g stroke-linejoin="miter" stroke-opacity="1.0" fill-opacity="0.0" stroke="rgb(255,0,0)" stroke-width="3.197105416628175" fill="rgb(0,0,0)" stroke-linecap="butt" stroke-miterlimit="10.0"><path d="M 220.9552436938534,62.629247877254016 c 17.79722845000837,-0.0 33.563123737493015,13.11599382130739 38.012430849995106 24.980812787979627"/></g><defs></defs><g stroke-linejoin="miter" stroke-opacity="1.0" fill-opacity="0.0" stroke="rgb(0,128,0)" stroke-width="3.197105416628175" fill="rgb(0,0,0)" stroke-linecap="butt" stroke-miterlimit="10.0"><path d="M 193.43707897401018,72.62776873252102 c 9.382487531803331,-7.358813750433993 18.687588219322436,-9.998520855267016 27.518164719843217 -9.998520855267016"/></g><defs></defs><g stroke-linejoin="miter" stroke-opacity="1.0" fill-opacity="0.0" stroke="rgb(255,0,0)" stroke-width="3.197105416628175" fill="rgb(0,0,0)" stroke-linecap="butt" stroke-miterlimit="10.0"><path d="M 170.96813963611902,103.19242777258017 c 6.767680004875888,-14.765847283365584 14.62458296860319,-24.412222671990147 22.468939337891157 -30.56465904005914"/></g><defs></defs><g stroke-linejoin="miter" stroke-opacity="1.0" fill-opacity="0.0" stroke="rgb(0,128,0)" stroke-width="3.197105416628175" fill="rgb(0,0,0)" stroke-linecap="butt" stroke-miterlimit="10.0"><path d="M 150.24402861218024,240.2295090126191 c 0.0,-68.44669429030836 8.95983544279202,-111.3695708811733 20.724111023938768 -137.03708124003893"/></g><defs></defs><g stroke-linejoin="miter" stroke-opacity="1.0" fill-opacity="0.0" stroke="rgb(0,0,255)" stroke-width="3.197105416628175" fill="rgb(0,0,0)" stroke-linecap="butt" stroke-miterlimit="10.0"><path d="M 163.3996035110962,240.2295090126191 c 0.0,-263.11149797831865 131.55574898915933,-131.55574898915933 65.77787449457966 -131.55574898915933"/></g><defs></defs><g stroke-linejoin="miter" stroke-opacity="1.0" fill-opacity="0.0" stroke="rgb(0,128,0)" stroke-width="3.197105416628175" fill="rgb(0,0,0)" stroke-linecap="butt" stroke-miterlimit="10.0"><path d="M 107.36036997660308,38.693005210400855 c 6.432503982934956,-12.16960212987695 14.760815226591278,-20.476100728687936 25.887308602478782 -24.92669807904293"/></g><defs></defs><g stroke-linejoin="miter" stroke-opacity="1.0" fill-opacity="0.0" stroke="rgb(255,0,0)" stroke-width="3.197105416628175" fill="rgb(0,0,0)" stroke-linecap="butt" stroke-miterlimit="10.0"><path d="M 95.42391061094953,75.63181695246934 c 2.8371303744503993,-14.299137087230024 6.687768172920303,-27.008855431492066 11.936459365653551 -36.93881174206848"/></g><defs></defs><g stroke-linejoin="miter" stroke-opacity="1.0" fill-opacity="0.0" stroke="rgb(0,128,0)" stroke-width="3.197105416628175" fill="rgb(0,0,0)" stroke-linecap="butt" stroke-miterlimit="10.0"><path d="M 83.97921363564315,165.68717783250844 c 4.142251616420562,-31.48111228479627 6.266882454780677,-63.95917569658954 11.44469697530638 -90.0553608800391"/></g><defs></defs><g stroke-linejoin="miter" stroke-opacity="1.0" fill-opacity="0.0" stroke="rgb(255,0,0)" stroke-width="3.197105416628175" fill="rgb(0,0,0)" stroke-linecap="butt" stroke-miterlimit="10.0"><path d="M 62.057457808628364,244.9886570707671 c 12.618613509791775,-21.354576708878387 18.039105516309625,-49.79333687689943 21.92175582701479 -79.30147923825864"/></g><defs></defs><g stroke-linejoin="miter" stroke-opacity="1.0" fill-opacity="0.0" stroke="rgb(0,128,0)" stroke-width="3.197105416628175" fill="rgb(0,0,0)" stroke-linecap="butt" stroke-miterlimit="10.0"><path d="M 6.577787449457986,275.93687485959936 c 26.333097622202153,-0.0 44.78184945015076,-12.84421317356828 55.47967035917038 -30.948217788832256"/></g><defs></defs><g stroke-linejoin="miter" stroke-opacity="1.0" fill-opacity="0.0" stroke="rgb(0,0,255)" stroke-width="3.197105416628175" fill="rgb(0,0,0)" stroke-linecap="butt" stroke-miterlimit="10.0"><path d="M 6.577787449457986,289.0924497585153 c 131.55574898915933,-0.0 65.77787449457966,-236.8003481804868 131.55574898915933 -263.11149797831865"/></g></g></svg>