<?xml version="1.0" encoding="UTF-8"?>
<!DOCTYPE svg PUBLIC "-//W3C//DTD SVG 1.1//EN"
    "http://www.w3.org/Graphics/SVG/1.1/DTD/svg11.dtd">
<svg xmlns="http://www.w3.org/2000/svg" xmlns:xlink="http://www.w3.org/1999/xlink" version="1.1" width="600.0" height="185.1008379753402" font-size="1" viewBox="0 0 600 185" stroke="rgb(0,0,0)" stroke-opacity="1"><g><g fill="rgb(0,0,0)" fill-opacity="0.0"><g stroke="rgb(0,0,0)" stroke-opacity="1.0" stroke-width="1.333029648793779" stroke-linecap="butt" stroke-linejoin="miter" font-size="1.0em" stroke-miterlimit="10.0"><g stroke-width="3.0"><g><g><g fill="rgb(0,0,0)" fill-opacity="1.0" font-weight="bold" font-family="Helvetica"><g fill="rgb(0,0,0)" fill-opacity="1.0"><text transform="matrix(13.702641330909062,0.0,0.0,13.702641330909062,493.6874054156325,156.13320152555207)" dominant-baseline="middle" text-anchor="middle" stroke="none">LineJoinBevel</text></g></g></g><g><g stroke="rgb(0,128,0)" stroke-opacity="1.0"><path d="M 414.64753810399236,135.57923952918844 h 137.02641330909063 l 21.0533213141897,-44.949717090309534 l -68.51320665454531,-82.21584798545437 " /></g><g stroke="rgb(0,0,255)" stroke-opacity="1.0"><path d="M 414.64753810399236,108.17395686737032 h 137.02641330909063 l -68.51320665454531,-82.21584798545437 " /></g></g></g><g><g><g fill="rgb(0,0,0)" fill-opacity="1.0" font-weight="bold" font-family="Helvetica"><g fill="rgb(0,0,0)" fill-opacity="1.0"><text transform="matrix(13.702641330909062,0.0,0.0,13.702641330909062,318.7290487876289,156.13320152555207)" dominant-baseline="middle" text-anchor="middle" stroke="none">LineJoinRound</text></g></g></g><g><g stroke="rgb(0,128,0)" stroke-opacity="1.0"><path d="M 236.51320080217454,135.57923952918844 h 137.02641330909063 c 15.135519678924403,-9.267832864113272e-16 27.405282661818124,-12.269762982893718 27.40528266181812 -27.40528266181812c 0.0,-6.411096044960741 -2.247677674893909,-12.619294021209988 -6.3519613476284205 -17.54443442849141l -68.51320665454531,-82.21584798545437 " /></g><g stroke="rgb(0,0,255)" stroke-opacity="1.0"><path d="M 236.51320080217454,108.17395686737032 h 137.02641330909063 l -68.51320665454531,-82.21584798545437 " /></g></g></g><g><g fill="rgb(0,0,0)" fill-opacity="1.0" font-weight="bold" font-family="Helvetica"><g fill="rgb(0,0,0)" fill-opacity="1.0"><text transform="matrix(13.702641330909062,0.0,0.0,13.702641330909062,125.0416433719964,156.13320152555207)" dominant-baseline="middle" text-anchor="middle" stroke="none">LineJoinMiter</text></g></g></g><g><g stroke="rgb(0,128,0)" stroke-opacity="1.0"><path d="M 27.27272727272728,135.57923952918844 h 137.02641330909063 h 58.51141888944763 l -37.45809757525794,-44.949717090309534 l -68.51320665454531,-82.21584798545437 " /></g><g stroke="rgb(0,0,255)" stroke-opacity="1.0"><path d="M 27.27272727272728,108.17395686737032 h 137.02641330909063 l -68.51320665454531,-82.21584798545437 " /></g></g></g></g></g></g></svg>