<?xml version="1.0" encoding="UTF-8"?>
<!DOCTYPE svg PUBLIC "-//W3C//DTD SVG 1.1//EN"
    "http://www.w3.org/Graphics/SVG/1.1/DTD/svg11.dtd">
<svg xmlns="http://www.w3.org/2000/svg" xmlns:xlink="http://www.w3.org/1999/xlink" version="1.1" width="300.0" height="259.80762113533166" font-size="1" viewBox="0 0 300 260"><g><g transform="matrix(136.36363636363635,0.0,0.0,136.36363636363635,150.0,129.90381056766583)"><g stroke="rgb(0,0,0)" stroke-opacity="1.0" fill-opacity="0.0" stroke-width="1.0e-2" stroke-linecap="butt" stroke-linejoin="miter" font-size="1.0em" stroke-miterlimit="10.0"><path d="M -0.5000000000000007,0.8660254037844385 h 0.0 " /></g></g><g transform="matrix(136.36363636363635,0.0,0.0,136.36363636363635,150.0,129.90381056766583)"><g stroke="rgb(0,0,0)" stroke-opacity="1.0" fill-opacity="0.0" stroke-width="1.0e-2" stroke-linecap="butt" stroke-linejoin="miter" font-size="1.0em" stroke-miterlimit="10.0"><path d="M -0.5000000000000007,0.8660254037844385 l -0.49999999999999933,-0.866025403784439 " /></g></g><g transform="matrix(136.36363636363635,0.0,0.0,136.36363636363635,150.0,129.90381056766583)"><g stroke="rgb(0,0,0)" stroke-opacity="1.0" fill-opacity="0.0" stroke-width="1.0e-2" stroke-linecap="butt" stroke-linejoin="miter" font-size="1.0em" stroke-miterlimit="10.0"><path d="M -0.5000000000000007,0.8660254037844385 l 9.992007221626409e-16,-1.7320508075688774 " /></g></g><g transform="matrix(136.36363636363635,0.0,0.0,136.36363636363635,150.0,129.90381056766583)"><g stroke="rgb(0,0,0)" stroke-opacity="1.0" fill-opacity="0.0" stroke-width="1.0e-2" stroke-linecap="butt" stroke-linejoin="miter" font-size="1.0em" stroke-miterlimit="10.0"><path d="M -0.5000000000000007,0.8660254037844385 l 1.0000000000000009,-1.732050807568877 " /></g></g><g transform="matrix(136.36363636363635,0.0,0.0,136.36363636363635,150.0,129.90381056766583)"><g stroke="rgb(0,0,0)" stroke-opacity="1.0" fill-opacity="0.0" stroke-width="1.0e-2" stroke-linecap="butt" stroke-linejoin="miter" font-size="1.0em" stroke-miterlimit="10.0"><path d="M -0.5000000000000007,0.8660254037844385 l 1.5000000000000004,-0.8660254037844382 " /></g></g><g transform="matrix(136.36363636363635,0.0,0.0,136.36363636363635,150.0,129.90381056766583)"><g stroke="rgb(0,0,0)" stroke-opacity="1.0" fill-opacity="0.0" stroke-width="1.0e-2" stroke-linecap="butt" stroke-linejoin="miter" font-size="1.0em" stroke-miterlimit="10.0"><path d="M -0.5000000000000007,0.8660254037844385 l 1.0000000000000004,3.3306690738754696e-16 " /></g></g><g transform="matrix(136.36363636363635,0.0,0.0,136.36363636363635,150.0,129.90381056766583)"><g stroke="rgb(0,0,0)" stroke-opacity="1.0" fill-opacity="0.0" stroke-width="1.0e-2" stroke-linecap="butt" stroke-linejoin="miter" font-size="1.0em" stroke-miterlimit="10.0"><path d="M -1.0,-5.551115123125783e-16 l 0.49999999999999933,0.866025403784439 " /></g></g><g transform="matrix(136.36363636363635,0.0,0.0,136.36363636363635,150.0,129.90381056766583)"><g stroke="rgb(0,0,0)" stroke-opacity="1.0" fill-opacity="0.0" stroke-width="1.0e-2" stroke-linecap="butt" stroke-linejoin="miter" font-size="1.0em" stroke-miterlimit="10.0"><path d="M -1.0,-5.551115123125783e-16 h 0.0 " /></g></g><g transform="matrix(136.36363636363635,0.0,0.0,136.36363636363635,150.0,129.90381056766583)"><g stroke="rgb(0,0,0)" stroke-opacity="1.0" fill-opacity="0.0" stroke-width="1.0e-2" stroke-linecap="butt" stroke-linejoin="miter" font-size="1.0em" stroke-miterlimit="10.0"><path d="M -1.0,-5.551115123125783e-16 l 0.5000000000000003,-0.8660254037844384 " /></g></g><g transform="matrix(136.36363636363635,0.0,0.0,136.36363636363635,150.0,129.90381056766583)"><g stroke="rgb(0,0,0)" stroke-opacity="1.0" fill-opacity="0.0" stroke-width="1.0e-2" stroke-linecap="butt" stroke-linejoin="miter" font-size="1.0em" stroke-miterlimit="10.0"><path d="M -1.0,-5.551115123125783e-16 l 1.5000000000000002,-0.8660254037844379 " /></g></g><g transform="matrix(136.36363636363635,0.0,0.0,136.36363636363635,150.0,129.90381056766583)"><g stroke="rgb(0,0,0)" stroke-opacity="1.0" fill-opacity="0.0" stroke-width="1.0e-2" stroke-linecap="butt" stroke-linejoin="miter" font-size="1.0em" stroke-miterlimit="10.0"><path d="M -1.0,-5.551115123125783e-16 l 2.0,8.881784197001252e-16 " /></g></g><g transform="matrix(136.36363636363635,0.0,0.0,136.36363636363635,150.0,129.90381056766583)"><g stroke="rgb(0,0,0)" stroke-opacity="1.0" fill-opacity="0.0" stroke-width="1.0e-2" stroke-linecap="butt" stroke-linejoin="miter" font-size="1.0em" stroke-miterlimit="10.0"><path d="M -1.0,-5.551115123125783e-16 l 1.4999999999999996,0.8660254037844394 " /></g></g><g transform="matrix(136.36363636363635,0.0,0.0,136.36363636363635,150.0,129.90381056766583)"><g stroke="rgb(0,0,0)" stroke-opacity="1.0" fill-opacity="0.0" stroke-width="1.0e-2" stroke-linecap="butt" stroke-linejoin="miter" font-size="1.0em" stroke-miterlimit="10.0"><path d="M -0.49999999999999967,-0.8660254037844389 l -9.992007221626409e-16,1.7320508075688774 " /></g></g><g transform="matrix(136.36363636363635,0.0,0.0,136.36363636363635,150.0,129.90381056766583)"><g stroke="rgb(0,0,0)" stroke-opacity="1.0" fill-opacity="0.0" stroke-width="1.0e-2" stroke-linecap="butt" stroke-linejoin="miter" font-size="1.0em" stroke-miterlimit="10.0"><path d="M -0.49999999999999967,-0.8660254037844389 l -0.5000000000000003,0.8660254037844384 " /></g></g><g transform="matrix(136.36363636363635,0.0,0.0,136.36363636363635,150.0,129.90381056766583)"><g stroke="rgb(0,0,0)" stroke-opacity="1.0" fill-opacity="0.0" stroke-width="1.0e-2" stroke-linecap="butt" stroke-linejoin="miter" font-size="1.0em" stroke-miterlimit="10.0"><path d="M -0.49999999999999967,-0.8660254037844389 h 0.0 " /></g></g><g transform="matrix(136.36363636363635,0.0,0.0,136.36363636363635,150.0,129.90381056766583)"><g stroke="rgb(0,0,0)" stroke-opacity="1.0" fill-opacity="0.0" stroke-width="1.0e-2" stroke-linecap="butt" stroke-linejoin="miter" font-size="1.0em" stroke-miterlimit="10.0"><path d="M -0.49999999999999967,-0.8660254037844389 l 0.9999999999999999,4.440892098500626e-16 " /></g></g><g transform="matrix(136.36363636363635,0.0,0.0,136.36363636363635,150.0,129.90381056766583)"><g stroke="rgb(0,0,0)" stroke-opacity="1.0" fill-opacity="0.0" stroke-width="1.0e-2" stroke-linecap="butt" stroke-linejoin="miter" font-size="1.0em" stroke-miterlimit="10.0"><path d="M -0.49999999999999967,-0.8660254037844389 l 1.4999999999999996,0.8660254037844393 " /></g></g><g transform="matrix(136.36363636363635,0.0,0.0,136.36363636363635,150.0,129.90381056766583)"><g stroke="rgb(0,0,0)" stroke-opacity="1.0" fill-opacity="0.0" stroke-width="1.0e-2" stroke-linecap="butt" stroke-linejoin="miter" font-size="1.0em" stroke-miterlimit="10.0"><path d="M -0.49999999999999967,-0.8660254037844389 l 0.9999999999999993,1.7320508075688776 " /></g></g><g transform="matrix(136.36363636363635,0.0,0.0,136.36363636363635,150.0,129.90381056766583)"><g stroke="rgb(0,0,0)" stroke-opacity="1.0" fill-opacity="0.0" stroke-width="1.0e-2" stroke-linecap="butt" stroke-linejoin="miter" font-size="1.0em" stroke-miterlimit="10.0"><path d="M 0.5000000000000002,-0.8660254037844385 l -1.0000000000000009,1.732050807568877 " /></g></g><g transform="matrix(136.36363636363635,0.0,0.0,136.36363636363635,150.0,129.90381056766583)"><g stroke="rgb(0,0,0)" stroke-opacity="1.0" fill-opacity="0.0" stroke-width="1.0e-2" stroke-linecap="butt" stroke-linejoin="miter" font-size="1.0em" stroke-miterlimit="10.0"><path d="M 0.5000000000000002,-0.8660254037844385 l -1.5000000000000002,0.8660254037844379 " /></g></g><g transform="matrix(136.36363636363635,0.0,0.0,136.36363636363635,150.0,129.90381056766583)"><g stroke="rgb(0,0,0)" stroke-opacity="1.0" fill-opacity="0.0" stroke-width="1.0e-2" stroke-linecap="butt" stroke-linejoin="miter" font-size="1.0em" stroke-miterlimit="10.0"><path d="M 0.5000000000000002,-0.8660254037844385 l -0.9999999999999999,-4.440892098500626e-16 " /></g></g><g transform="matrix(136.36363636363635,0.0,0.0,136.36363636363635,150.0,129.90381056766583)"><g stroke="rgb(0,0,0)" stroke-opacity="1.0" fill-opacity="0.0" stroke-width="1.0e-2" stroke-linecap="butt" stroke-linejoin="miter" font-size="1.0em" stroke-miterlimit="10.0"><path d="M 0.5000000000000002,-0.8660254037844385 h 0.0 " /></g></g><g transform="matrix(136.36363636363635,0.0,0.0,136.36363636363635,150.0,129.90381056766583)"><g stroke="rgb(0,0,0)" stroke-opacity="1.0" fill-opacity="0.0" stroke-width="1.0e-2" stroke-linecap="butt" stroke-linejoin="miter" font-size="1.0em" stroke-miterlimit="10.0"><path d="M 0.5000000000000002,-0.8660254037844385 l 0.49999999999999967,0.8660254037844388 " /></g></g><g transform="matrix(136.36363636363635,0.0,0.0,136.36363636363635,150.0,129.90381056766583)"><g stroke="rgb(0,0,0)" stroke-opacity="1.0" fill-opacity="0.0" stroke-width="1.0e-2" stroke-linecap="butt" stroke-linejoin="miter" font-size="1.0em" stroke-miterlimit="10.0"><path d="M 0.5000000000000002,-0.8660254037844385 l -5.551115123125783e-16,1.7320508075688772 " /></g></g><g transform="matrix(136.36363636363635,0.0,0.0,136.36363636363635,150.0,129.90381056766583)"><g stroke="rgb(0,0,0)" stroke-opacity="1.0" fill-opacity="0.0" stroke-width="1.0e-2" stroke-linecap="butt" stroke-linejoin="miter" font-size="1.0em" stroke-miterlimit="10.0"><path d="M 0.9999999999999999,3.3306690738754696e-16 l -1.5000000000000004,0.8660254037844382 " /></g></g><g transform="matrix(136.36363636363635,0.0,0.0,136.36363636363635,150.0,129.90381056766583)"><g stroke="rgb(0,0,0)" stroke-opacity="1.0" fill-opacity="0.0" stroke-width="1.0e-2" stroke-linecap="butt" stroke-linejoin="miter" font-size="1.0em" stroke-miterlimit="10.0"><path d="M 0.9999999999999999,3.3306690738754696e-16 l -2.0,-8.881784197001252e-16 " /></g></g><g transform="matrix(136.36363636363635,0.0,0.0,136.36363636363635,150.0,129.90381056766583)"><g stroke="rgb(0,0,0)" stroke-opacity="1.0" fill-opacity="0.0" stroke-width="1.0e-2" stroke-linecap="butt" stroke-linejoin="miter" font-size="1.0em" stroke-miterlimit="10.0"><path d="M 0.9999999999999999,3.3306690738754696e-16 l -1.4999999999999996,-0.8660254037844393 " /></g></g><g transform="matrix(136.36363636363635,0.0,0.0,136.36363636363635,150.0,129.90381056766583)"><g stroke="rgb(0,0,0)" stroke-opacity="1.0" fill-opacity="0.0" stroke-width="1.0e-2" stroke-linecap="butt" stroke-linejoin="miter" font-size="1.0em" stroke-miterlimit="10.0"><path d="M 0.9999999999999999,3.3306690738754696e-16 l -0.49999999999999967,-0.8660254037844388 " /></g></g><g transform="matrix(136.36363636363635,0.0,0.0,136.36363636363635,150.0,129.90381056766583)"><g stroke="rgb(0,0,0)" stroke-opacity="1.0" fill-opacity="0.0" stroke-width="1.0e-2" stroke-linecap="butt" stroke-linejoin="miter" font-size="1.0em" stroke-miterlimit="10.0"><path d="M 0.9999999999999999,3.3306690738754696e-16 h 0.0 " /></g></g><g transform="matrix(136.36363636363635,0.0,0.0,136.36363636363635,150.0,129.90381056766583)"><g stroke="rgb(0,0,0)" stroke-opacity="1.0" fill-opacity="0.0" stroke-width="1.0e-2" stroke-linecap="butt" stroke-linejoin="miter" font-size="1.0em" stroke-miterlimit="10.0"><path d="M 0.9999999999999999,3.3306690738754696e-16 l -0.5000000000000002,0.8660254037844385 " /></g></g><g transform="matrix(136.36363636363635,0.0,0.0,136.36363636363635,150.0,129.90381056766583)"><g stroke="rgb(0,0,0)" stroke-opacity="1.0" fill-opacity="0.0" stroke-width="1.0e-2" stroke-linecap="butt" stroke-linejoin="miter" font-size="1.0em" stroke-miterlimit="10.0"><path d="M 0.49999999999999967,0.8660254037844388 l -1.0000000000000004,-3.3306690738754696e-16 " /></g></g><g transform="matrix(136.36363636363635,0.0,0.0,136.36363636363635,150.0,129.90381056766583)"><g stroke="rgb(0,0,0)" stroke-opacity="1.0" fill-opacity="0.0" stroke-width="1.0e-2" stroke-linecap="butt" stroke-linejoin="miter" font-size="1.0em" stroke-miterlimit="10.0"><path d="M 0.49999999999999967,0.8660254037844388 l -1.4999999999999996,-0.8660254037844394 " /></g></g><g transform="matrix(136.36363636363635,0.0,0.0,136.36363636363635,150.0,129.90381056766583)"><g stroke="rgb(0,0,0)" stroke-opacity="1.0" fill-opacity="0.0" stroke-width="1.0e-2" stroke-linecap="butt" stroke-linejoin="miter" font-size="1.0em" stroke-miterlimit="10.0"><path d="M 0.49999999999999967,0.8660254037844388 l -0.9999999999999993,-1.7320508075688776 " /></g></g><g transform="matrix(136.36363636363635,0.0,0.0,136.36363636363635,150.0,129.90381056766583)"><g stroke="rgb(0,0,0)" stroke-opacity="1.0" fill-opacity="0.0" stroke-width="1.0e-2" stroke-linecap="butt" stroke-linejoin="miter" font-size="1.0em" stroke-miterlimit="10.0"><path d="M 0.49999999999999967,0.8660254037844388 l 5.551115123125783e-16,-1.7320508075688772 " /></g></g><g transform="matrix(136.36363636363635,0.0,0.0,136.36363636363635,150.0,129.90381056766583)"><g stroke="rgb(0,0,0)" stroke-opacity="1.0" fill-opacity="0.0" stroke-width="1.0e-2" stroke-linecap="butt" stroke-linejoin="miter" font-size="1.0em" stroke-miterlimit="10.0"><path d="M 0.49999999999999967,0.8660254037844388 l 0.5000000000000002,-0.8660254037844385 " /></g></g><g transform="matrix(136.36363636363635,0.0,0.0,136.36363636363635,150.0,129.90381056766583)"><g stroke="rgb(0,0,0)" stroke-opacity="1.0" fill-opacity="0.0" stroke-width="1.0e-2" stroke-linecap="butt" stroke-linejoin="miter" font-size="1.0em" stroke-miterlimit="10.0"><path d="M 0.49999999999999967,0.8660254037844388 h 0.0 " /></g></g></g></svg>