<?xml version="1.0" encoding="UTF-8"?>
<!DOCTYPE svg PUBLIC "-//W3C//DTD SVG 1.1//EN"
    "http://www.w3.org/Graphics/SVG/1.1/DTD/svg11.dtd"><svg xmlns="http://www.w3.org/2000/svg" height="150.98643825758782" stroke-opacity="1" viewBox="0 0 600 151" font-size="1" width="600.0" xmlns:xlink="http://www.w3.org/1999/xlink" stroke="rgb(0,0,0)" version="1.1"><g><defs></defs><g stroke-linejoin="miter" stroke-opacity="1.0" fill-opacity="0.0" stroke="rgb(0,0,0)" stroke-width="1.2039392872038202" fill="rgb(0,0,0)" stroke-linecap="butt" stroke-miterlimit="10.0"><path d="M 434.1254082642812,88.50749970338121 c -6.894535367777746,-6.894535367777746 6.894535367777746,-85.03260286925885 50.559926030370136 -75.83988904555518c 43.66539066259239,9.192713823703665 117.20710125222166,105.7162089725921 75.8398890455552 126.39981507592529c -41.36721220666647,20.68360610333324 -197.64334720962873,-34.472676838888724 -227.51966713666556 -75.8398890455552c -29.876319927036917,-41.36721220666648 66.64717522185153,-68.94535367777745 101.1198520607403 -50.55992603037012c 34.47267683888874,18.385427647407315 6.894535367777746,82.73442441333296 -7.105427357601002e-14 75.83988904555521Z"/></g><defs></defs><g stroke-linejoin="miter" stroke-opacity="1.0" fill-opacity="1.0" stroke="rgb(0,0,0)" stroke-width="0.0" fill="rgb(0,0,255)" stroke-linecap="butt" stroke-miterlimit="10.0"><path d="M 439.1814008673182,12.667610657826017 c 0.0,-2.792347609914639 -2.263644993122374,-5.055992603037014 -5.055992603037012 -5.055992603037014c -2.792347609914639,-1.7098197812943624e-16 -5.055992603037014,2.2636449931223734 -5.055992603037014 5.055992603037012c -3.419639562588725e-16,2.792347609914639 2.2636449931223734,5.055992603037014 5.055992603037012 5.055992603037014c 2.792347609914639,5.129459343883088e-16 5.055992603037014,-2.263644993122373 5.055992603037014 -5.055992603037012Z"/></g><defs></defs><g stroke-linejoin="miter" stroke-opacity="1.0" fill-opacity="1.0" stroke="rgb(0,0,0)" stroke-width="0.0" fill="rgb(0,0,255)" stroke-linecap="butt" stroke-miterlimit="10.0"><path d="M 338.0615488065779,63.227536688196146 c 0.0,-2.792347609914639 -2.263644993122374,-5.055992603037014 -5.055992603037012 -5.055992603037014c -2.792347609914639,-1.7098197812943624e-16 -5.055992603037014,2.2636449931223734 -5.055992603037014 5.055992603037012c -3.419639562588725e-16,2.792347609914639 2.2636449931223734,5.055992603037014 5.055992603037012 5.055992603037014c 2.792347609914639,5.129459343883088e-16 5.055992603037014,-2.263644993122373 5.055992603037014 -5.055992603037012Z"/></g><defs></defs><g stroke-linejoin="miter" stroke-opacity="1.0" fill-opacity="1.0" stroke="rgb(0,0,0)" stroke-width="0.0" fill="rgb(0,0,255)" stroke-linecap="butt" stroke-miterlimit="10.0"><path d="M 565.5812159432436,139.06742573375135 c 0.0,-2.792347609914639 -2.263644993122374,-5.055992603037014 -5.055992603037012 -5.055992603037014c -2.792347609914639,-1.7098197812943624e-16 -5.055992603037014,2.2636449931223734 -5.055992603037014 5.055992603037012c -3.419639562588725e-16,2.792347609914639 2.2636449931223734,5.055992603037014 5.055992603037012 5.055992603037014c 2.792347609914639,5.129459343883088e-16 5.055992603037014,-2.263644993122373 5.055992603037014 -5.055992603037012Z"/></g><defs></defs><g stroke-linejoin="miter" stroke-opacity="1.0" fill-opacity="1.0" stroke="rgb(0,0,0)" stroke-width="0.0" fill="rgb(0,0,255)" stroke-linecap="butt" stroke-miterlimit="10.0"><path d="M 489.74132689768834,12.667610657826017 c 0.0,-2.792347609914639 -2.263644993122374,-5.055992603037014 -5.055992603037012 -5.055992603037014c -2.792347609914639,-1.7098197812943624e-16 -5.055992603037014,2.2636449931223734 -5.055992603037014 5.055992603037012c -3.419639562588725e-16,2.792347609914639 2.2636449931223734,5.055992603037014 5.055992603037012 5.055992603037014c 2.792347609914639,5.129459343883088e-16 5.055992603037014,-2.263644993122373 5.055992603037014 -5.055992603037012Z"/></g><defs></defs><g stroke-linejoin="miter" stroke-opacity="1.0" fill-opacity="1.0" stroke="rgb(0,0,0)" stroke-width="0.0" fill="rgb(0,0,255)" stroke-linecap="butt" stroke-miterlimit="10.0"><path d="M 439.1814008673182,88.50749970338121 c 0.0,-2.792347609914639 -2.263644993122374,-5.055992603037014 -5.055992603037012 -5.055992603037014c -2.792347609914639,-1.7098197812943624e-16 -5.055992603037014,2.2636449931223734 -5.055992603037014 5.055992603037012c -3.419639562588725e-16,2.792347609914639 2.2636449931223734,5.055992603037014 5.055992603037012 5.055992603037014c 2.792347609914639,5.129459343883088e-16 5.055992603037014,-2.263644993122373 5.055992603037014 -5.055992603037012Z"/></g><defs></defs><g stroke-linejoin="miter" stroke-opacity="1.0" fill-opacity="0.0" stroke="rgb(0,0,0)" stroke-width="1.2039392872038202" fill="rgb(0,0,0)" stroke-linecap="butt" stroke-miterlimit="10.0"><path d="M 139.8913954924196,88.50749970338121 c 5.417134931825375,-48.3027864754429 10.83426986365075,-96.6055729508858 50.559926030370136 -75.8398890455552c 39.72565616671939,20.765683905330597 113.75983356833281,110.59983819143467 75.83988904555518 126.39981507592535c -37.9199445227776,15.799976884490668 -187.79401096994619,-42.43422363263207 -227.51966713666562 -75.83988904555518c -39.72565616671941,-33.40566541292313 30.69709794701043,-41.98279572164664 101.11985206074027 -50.559926030370136"/></g><defs></defs><g stroke-linejoin="miter" stroke-opacity="1.0" fill-opacity="1.0" stroke="rgb(0,0,0)" stroke-width="0.0" fill="rgb(0,0,255)" stroke-linecap="butt" stroke-miterlimit="10.0"><path d="M 144.94738809545663,12.667610657826017 c 0.0,-2.792347609914639 -2.263644993122374,-5.055992603037014 -5.055992603037012 -5.055992603037014c -2.792347609914639,-1.7098197812943624e-16 -5.055992603037014,2.2636449931223734 -5.055992603037014 5.055992603037012c -3.419639562588725e-16,2.792347609914639 2.2636449931223734,5.055992603037014 5.055992603037012 5.055992603037014c 2.792347609914639,5.129459343883088e-16 5.055992603037014,-2.263644993122373 5.055992603037014 -5.055992603037012Z"/></g><defs></defs><g stroke-linejoin="miter" stroke-opacity="1.0" fill-opacity="1.0" stroke="rgb(0,0,0)" stroke-width="0.0" fill="rgb(0,0,255)" stroke-linecap="butt" stroke-miterlimit="10.0"><path d="M 43.827536034716346,63.227536688196146 c 0.0,-2.792347609914639 -2.263644993122374,-5.055992603037014 -5.055992603037012 -5.055992603037014c -2.792347609914639,-1.7098197812943624e-16 -5.055992603037014,2.2636449931223734 -5.055992603037014 5.055992603037012c -3.419639562588725e-16,2.792347609914639 2.2636449931223734,5.055992603037014 5.055992603037012 5.055992603037014c 2.792347609914639,5.129459343883088e-16 5.055992603037014,-2.263644993122373 5.055992603037014 -5.055992603037012Z"/></g><defs></defs><g stroke-linejoin="miter" stroke-opacity="1.0" fill-opacity="1.0" stroke="rgb(0,0,0)" stroke-width="0.0" fill="rgb(0,0,255)" stroke-linecap="butt" stroke-miterlimit="10.0"><path d="M 271.3472031713819,139.06742573375135 c 0.0,-2.792347609914639 -2.263644993122374,-5.055992603037014 -5.055992603037012 -5.055992603037014c -2.792347609914639,-1.7098197812943624e-16 -5.055992603037014,2.2636449931223734 -5.055992603037014 5.055992603037012c -3.419639562588725e-16,2.792347609914639 2.2636449931223734,5.055992603037014 5.055992603037012 5.055992603037014c 2.792347609914639,5.129459343883088e-16 5.055992603037014,-2.263644993122373 5.055992603037014 -5.055992603037012Z"/></g><defs></defs><g stroke-linejoin="miter" stroke-opacity="1.0" fill-opacity="1.0" stroke="rgb(0,0,0)" stroke-width="0.0" fill="rgb(0,0,255)" stroke-linecap="butt" stroke-miterlimit="10.0"><path d="M 195.50731412582675,12.667610657826017 c 0.0,-2.792347609914639 -2.263644993122374,-5.055992603037014 -5.055992603037012 -5.055992603037014c -2.792347609914639,-1.7098197812943624e-16 -5.055992603037014,2.2636449931223734 -5.055992603037014 5.055992603037012c -3.419639562588725e-16,2.792347609914639 2.2636449931223734,5.055992603037014 5.055992603037012 5.055992603037014c 2.792347609914639,5.129459343883088e-16 5.055992603037014,-2.263644993122373 5.055992603037014 -5.055992603037012Z"/></g><defs></defs><g stroke-linejoin="miter" stroke-opacity="1.0" fill-opacity="1.0" stroke="rgb(0,0,0)" stroke-width="0.0" fill="rgb(0,0,255)" stroke-linecap="butt" stroke-miterlimit="10.0"><path d="M 144.94738809545663,88.50749970338121 c 0.0,-2.792347609914639 -2.263644993122374,-5.055992603037014 -5.055992603037012 -5.055992603037014c -2.792347609914639,-1.7098197812943624e-16 -5.055992603037014,2.2636449931223734 -5.055992603037014 5.055992603037012c -3.419639562588725e-16,2.792347609914639 2.2636449931223734,5.055992603037014 5.055992603037012 5.055992603037014c 2.792347609914639,5.129459343883088e-16 5.055992603037014,-2.263644993122373 5.055992603037014 -5.055992603037012Z"/></g></g></svg>