<?xml version="1.0" encoding="UTF-8"?>
<!DOCTYPE svg PUBLIC "-//W3C//DTD SVG 1.1//EN"
    "http://www.w3.org/Graphics/SVG/1.1/DTD/svg11.dtd">
<svg xmlns="http://www.w3.org/2000/svg" xmlns:xlink="http://www.w3.org/1999/xlink" version="1.1" width="400.0" height="178.54130895779457" font-size="1" viewBox="0 0 400 179"><g><g stroke="rgb(0,0,0)" stroke-opacity="1.0" fill="rgb(0,0,0)" fill-opacity="0.0" stroke-width="1.0e-2" stroke-linecap="butt" stroke-linejoin="miter" font-size="1.0em" stroke-miterlimit="10.0"><g transform="matrix(81.15495782275252,0.0,0.0,81.15495782275252,200.0,89.27065447889727)"><g fill="rgb(0,0,255)" fill-opacity="1.0"><g><path d="M 2.0282508910505657,-0.49497249665864596 l 0.2121320343559643,-0.21213203435596428 c -0.39052429175126996,-0.39052429175127 -1.023689270621825,-0.3905242917512702 -1.414213562373095 -2.220446049250313e-16c -0.39052429175127,0.39052429175126996 -0.3905242917512702,1.023689270621825 -3.3306690738754696e-16 1.414213562373095c 0.3905242917512699,0.39052429175127007 1.0236892706218248,0.39052429175127024 1.4142135623730947 4.440892098500626e-16l -0.21213203435596423,-0.21213203435596434 c -0.2733670042258889,0.27336700422588883 -0.7165824894352774,0.2733670042258887 -0.9899494936611662 -3.108624468950438e-16c -0.2733670042258889,-0.2733670042258889 -0.2733670042258888,-0.7165824894352775 2.3314683517128283e-16 -0.9899494936611664c 0.2733670042258889,-0.27336700422588894 0.7165824894352775,-0.27336700422588883 0.9899494936611667 1.1102230246251565e-16Z" /></g><g><path d="M -3.989378006737523e-2,-0.29835431843854476 l 7.316992428735741e-2,-0.6961653267577913 c -0.28185620611337825,-2.9624280998431504e-2 -0.5630453243913867,6.173960189645773e-2 -0.7736590696265117 0.25137706989087893l 0.4683914244512005,0.5202013778341761 c 6.31841235705375e-2,-5.689124039832636e-2 0.14754085905394002,-8.430040526679312e-2 0.23209772088795366 -7.541312096726371e-2Z" /></g><path d="M -1.7403829254065295,2.250171937223655e-6 h 0.5 c 0.0,-0.5522847498307935 -0.44771525016920644,-1.0 -0.9999999999999998 -1.0l -3.061616997868383e-17,0.5 c 0.27614237491539667,0.0 0.4999999999999999,0.22385762508460327 0.49999999999999983 0.5Z" /></g></g></g></g></svg>