<?xml version="1.0" encoding="UTF-8"?>
<!DOCTYPE svg PUBLIC "-//W3C//DTD SVG 1.1//EN"
    "http://www.w3.org/Graphics/SVG/1.1/DTD/svg11.dtd"><svg font-size="1" viewBox="0.0 0.0 300.0 143.18181818181816" stroke="rgb(0,0,0)" xmlns="http://www.w3.org/2000/svg" width="300.0000" stroke-opacity="1" height="143.1818" version="1.1" xmlns:xlink="http://www.w3.org/1999/xlink"><defs></defs><g stroke-linejoin="miter" fill-opacity="1.0" fill="rgb(211,211,211)" stroke="rgb(0,0,0)" stroke-linecap="butt" stroke-miterlimit="10.0" stroke-opacity="1.0" stroke-width="0.0"><path d="M 300.0000,143.1818 l -0.0000,-136.3636 h -136.3636 l -0.0000,136.3636 Z"/></g><defs><radialGradient id="gradient2" gradientTransform="matrix(136.3636,-0.0000,0.0000,-136.3636,231.8182,75.0000)" fy="-0.2500" gradientUnits="userSpaceOnUse" cx="-0.2500" r="0.3000" spreadMethod="pad" cy="0.2500" fx="0.2500"><stop offset="0.8333" stop-opacity="1.0000" stop-color="rgb(255,255,0)"/><stop offset="0.8333" stop-opacity="1.0000" stop-color="rgb(255,255,0)"/><stop offset="1.0000" stop-opacity="1.0000" stop-color="rgb(65,105,225)"/></radialGradient></defs><g stroke-linejoin="miter" fill-opacity="1" fill="url(#gradient2)" stroke="rgb(0,0,0)" stroke-linecap="butt" stroke-miterlimit="10.0" stroke-opacity="1.0" stroke-width="0.0"><path d="M 300.0000,143.1818 l -0.0000,-136.3636 h -136.3636 l -0.0000,136.3636 Z"/></g><g stroke-linejoin="miter" fill-opacity="0.0" fill="rgb(0,0,0)" stroke="rgb(255,165,0)" stroke-linecap="butt" stroke-miterlimit="10.0" stroke-opacity="1.0" stroke-width="1.0"><path d="M 238.6364,40.9091 c 0.0000,-22.5935 -18.3156,-40.9091 -40.9091 -40.9091c -22.5935,-0.0000 -40.9091,18.3156 -40.9091 40.9091c -0.0000,22.5935 18.3156,40.9091 40.9091 40.9091c 22.5935,0.0000 40.9091,-18.3156 40.9091 -40.9091Z"/></g><g stroke-linejoin="miter" fill-opacity="0.0" fill="rgb(0,0,0)" stroke="rgb(128,0,128)" stroke-linecap="butt" stroke-miterlimit="10.0" stroke-opacity="1.0" stroke-width="1.0"><path d="M 300.0000,109.0909 c 0.0000,-18.8279 -15.2630,-34.0909 -34.0909 -34.0909c -18.8279,-0.0000 -34.0909,15.2630 -34.0909 34.0909c -0.0000,18.8279 15.2630,34.0909 34.0909 34.0909c 18.8279,0.0000 34.0909,-15.2630 34.0909 -34.0909Z"/></g><g stroke-linejoin="miter" fill-opacity="1.0" fill="rgb(211,211,211)" stroke="rgb(0,0,0)" stroke-linecap="butt" stroke-miterlimit="10.0" stroke-opacity="1.0" stroke-width="0.0"><path d="M 143.1818,143.1818 l -0.0000,-136.3636 h -136.3636 l -0.0000,136.3636 Z"/></g><defs><radialGradient id="gradient10" gradientTransform="matrix(136.3636,-0.0000,0.0000,-136.3636,75.0000,75.0000)" fy="-0.2500" gradientUnits="userSpaceOnUse" cx="-0.2500" r="0.3000" spreadMethod="pad" cy="0.2500" fx="0.2500"><stop offset="0.0000" stop-opacity="1.0000" stop-color="rgb(255,255,0)"/><stop offset="0.0000" stop-opacity="1.0000" stop-color="rgb(255,255,0)"/><stop offset="1.0000" stop-opacity="1.0000" stop-color="rgb(65,105,225)"/></radialGradient></defs><g stroke-linejoin="miter" fill-opacity="1" fill="url(#gradient10)" stroke="rgb(0,0,0)" stroke-linecap="butt" stroke-miterlimit="10.0" stroke-opacity="1.0" stroke-width="0.0"><path d="M 143.1818,143.1818 l -0.0000,-136.3636 h -136.3636 l -0.0000,136.3636 Z"/></g><g stroke-linejoin="miter" fill-opacity="0.0" fill="rgb(0,0,0)" stroke="rgb(255,165,0)" stroke-linecap="butt" stroke-miterlimit="10.0" stroke-opacity="1.0" stroke-width="1.0"><path d="M 81.8182,40.9091 c 0.0000,-22.5935 -18.3156,-40.9091 -40.9091 -40.9091c -22.5935,-0.0000 -40.9091,18.3156 -40.9091 40.9091c -0.0000,22.5935 18.3156,40.9091 40.9091 40.9091c 22.5935,0.0000 40.9091,-18.3156 40.9091 -40.9091Z"/></g></svg>