<?xml version="1.0" encoding="UTF-8"?>
<!DOCTYPE svg PUBLIC "-//W3C//DTD SVG 1.1//EN"
    "http://www.w3.org/Graphics/SVG/1.1/DTD/svg11.dtd"><svg xmlns="http://www.w3.org/2000/svg" height="271.2911579538083" stroke-opacity="1" viewBox="0 0 300 271" font-size="1" width="300.0" xmlns:xlink="http://www.w3.org/1999/xlink" stroke="rgb(0,0,0)" version="1.1"><g><defs></defs><g stroke-linejoin="miter" stroke-opacity="1.0" fill-opacity="0.0" stroke="rgb(0,128,0)" stroke-width="3.0" fill="rgb(0,0,0)" stroke-linecap="butt" stroke-miterlimit="10.0"><path d="M 232.44254819939374,239.47922220266116 l 48.70129870129868,-84.35312374523754 c 6.959719283925263,-12.054587406175445 6.959719283925263,-26.90645155486352 -1.2976632755358973e-14 -38.96103896103896l -48.7012987012987,-84.35312374523751 c -6.959719283925261,-12.054587406175434 -19.821810930244474,-19.480519480519472 -33.741249498095 -19.48051948051947l -97.4025974025974,-8.651088503572648e-15 c -13.919438567850529,-8.523197944023185e-16 -26.781530214169752,7.425932074344035 -33.74124949809501 19.480519480519483l -48.70129870129869,84.35312374523754 c -6.959719283925264,12.054587406175434 -6.959719283925272,26.906451554863505 -1.5139404881252133e-14 38.96103896103895l 48.70129870129866,84.35312374523754 c 6.959719283925264,12.054587406175457 19.821810930244496,19.48051948051951 33.741249498095044 19.480519480519497l 97.40259740259744,-3.460435401429059e-14 c 13.919438567850529,-8.523197944023185e-16 26.781530214169752,-7.425932074344039 33.74124949809496 -19.480519480519476Z"/></g><defs></defs><g stroke-linejoin="miter" stroke-opacity="1.0" fill-opacity="0.0" stroke="rgb(0,0,255)" stroke-width="3.0" fill="rgb(0,0,0)" stroke-linecap="butt" stroke-miterlimit="10.0"><path d="M 198.70129870129873,219.99870272214167 l 48.70129870129868,-84.35312374523754 l -48.7012987012987,-84.35312374523751 l -97.4025974025974,-8.651088503572648e-15 l -48.70129870129869,84.35312374523754 l 48.70129870129866,84.35312374523754 Z"/></g></g></svg>