<?xml version="1.0" encoding="UTF-8"?>
<!DOCTYPE svg PUBLIC "-//W3C//DTD SVG 1.1//EN"
    "http://www.w3.org/Graphics/SVG/1.1/DTD/svg11.dtd">
<svg xmlns="http://www.w3.org/2000/svg" xmlns:xlink="http://www.w3.org/1999/xlink" version="1.1" width="300.0" height="119.99999999999999" font-size="1" viewBox="0 0 300 120" stroke="rgb(0,0,0)" stroke-opacity="1"><g><g fill="rgb(0,0,0)" fill-opacity="0.0"><g stroke="rgb(0,0,0)" stroke-opacity="1.0" stroke-width="0.758946638440411" stroke-linecap="butt" stroke-linejoin="miter" font-size="1.0em" stroke-miterlimit="10.0"><g><g><path d="M 286.3636363636364,60.0 c 0.0,-30.12462271804328 -24.42083182741126,-54.54545454545455 -54.54545454545453 -54.54545454545455c -30.12462271804328,-1.844601139358667e-15 -54.54545454545455,24.42083182741126 -54.54545454545455 54.545454545454525c -3.689202278717334e-15,30.12462271804328 24.420831827411256,54.54545454545455 54.545454545454525 54.54545454545455c 30.12462271804328,5.533803418076001e-15 54.54545454545455,-24.420831827411252 54.545454545454554 -54.545454545454525Z" /></g><g></g><g><path d="M 122.72727272727272,60.0 c 0.0,-30.12462271804328 -24.42083182741126,-54.54545454545455 -54.54545454545453 -54.54545454545455c -30.12462271804328,-1.844601139358667e-15 -54.54545454545455,24.42083182741126 -54.54545454545455 54.545454545454525c -3.689202278717334e-15,30.12462271804328 24.420831827411256,54.54545454545455 54.545454545454525 54.54545454545455c 30.12462271804328,5.533803418076001e-15 54.54545454545455,-24.420831827411252 54.545454545454554 -54.545454545454525Z" /></g></g></g></g></g></svg>