<?xml version="1.0" encoding="UTF-8"?>
<!DOCTYPE svg PUBLIC "-//W3C//DTD SVG 1.1//EN"
    "http://www.w3.org/Graphics/SVG/1.1/DTD/svg11.dtd">
<svg xmlns="http://www.w3.org/2000/svg" xmlns:xlink="http://www.w3.org/1999/xlink" version="1.1" width="500.0" height="191.60937134592436" font-size="1" viewBox="0 0 500 192"><g><g stroke="rgb(0,0,0)" stroke-opacity="1.0" fill="rgb(0,0,0)" fill-opacity="0.0" stroke-width="1.0e-2" stroke-linecap="butt" stroke-linejoin="miter" font-size="1.0em" stroke-miterlimit="10.0"><g transform="matrix(58.063445862401316,0.0,0.0,58.063445862401316,250.0,95.80468567296218)"><g><g><g><g fill-opacity="0.0"><path d="M -2.707106781186548,0.0 l 4.98932980156782e-17,0.8148193920143483 " /></g><g stroke-width="0.0"><g fill="rgb(0,0,0)" fill-opacity="1.0"><path d="" /></g><g fill="rgb(0,0,0)" fill-opacity="1.0"><path d="" /></g></g><g stroke-width="0.0"><g fill="rgb(0,0,0)" fill-opacity="1.0"><path d="M -2.707106781186548,1.0 l -8.8167787843871e-2,-0.2713525491562421 l 8.816778784387098e-2,9.13525491562421e-2 l 8.816778784387096e-2,-9.135254915624214e-2 l -8.816778784387094e-2,0.27135254915624213 Z" /></g><g fill="rgb(0,0,0)" fill-opacity="1.0"><path d="M -2.707106781186548,0.8200000000000001 l -4.9999999999999906e-3,-5.180607985651786e-3 l 9.999999999999981e-3,-6.123233995736754e-19 l -4.9999999999999906e-3,5.180607985651786e-3 v 8.673617379884035e-19 Z" /></g></g></g></g><g><g stroke="rgb(169,169,169)" stroke-opacity="1.0" stroke-width="0.1"><path d="M 3.9142135623730954,0.4999999999999996 l -2.220446049250313e-16,-1.0 l -0.7071067811865476,-0.7071067811865475 l -1.0,1.6081226496766364e-16 l -0.7071067811865475,0.7071067811865476 l 9.957992501029599e-17,1.0 l 0.7071067811865476,0.7071067811865476 l 1.0,-3.834758505292834e-17 l 0.7071067811865477,-0.7071067811865477 Z" /></g><g fill="rgb(255,0,0)" fill-opacity="1.0" stroke-width="0.0"><path d="M 2.75539105243401,0.0 c 0.0,-2.6666666666666675e-2 -2.161760458079523e-2,-4.828427124746191e-2 -4.8284271247461895e-2 -4.828427124746191e-2c -2.6666666666666675e-2,-1.632862398863138e-18 -4.828427124746191e-2,2.1617604580795226e-2 -4.828427124746191e-2 4.8284271247461895e-2c -3.265724797726276e-18,2.6666666666666675e-2 2.1617604580795223e-2,4.828427124746191e-2 4.828427124746189e-2 4.828427124746191e-2c 2.6666666666666675e-2,4.898587196589414e-18 4.828427124746191e-2,-2.1617604580795223e-2 4.8284271247461916e-2 -4.8284271247461895e-2Z" /></g></g><g></g><g stroke="rgb(169,169,169)" stroke-opacity="1.0" stroke-width="0.1"><path d="M -1.5000000000000004,0.4999999999999996 l -2.220446049250313e-16,-1.0 l -0.7071067811865476,-0.7071067811865475 l -1.0,1.6081226496766364e-16 l -0.7071067811865475,0.7071067811865476 l 9.957992501029599e-17,1.0 l 0.7071067811865476,0.7071067811865476 l 1.0,-3.834758505292834e-17 l 0.7071067811865477,-0.7071067811865477 Z" /></g><g fill="rgb(255,0,0)" fill-opacity="1.0" stroke-width="0.0"><path d="M -2.658822509939086,0.0 c 0.0,-2.6666666666666675e-2 -2.161760458079523e-2,-4.828427124746191e-2 -4.8284271247461895e-2 -4.828427124746191e-2c -2.6666666666666675e-2,-1.632862398863138e-18 -4.828427124746191e-2,2.1617604580795226e-2 -4.828427124746191e-2 4.8284271247461895e-2c -3.265724797726276e-18,2.6666666666666675e-2 2.1617604580795223e-2,4.828427124746191e-2 4.828427124746189e-2 4.828427124746191e-2c 2.6666666666666675e-2,4.898587196589414e-18 4.828427124746191e-2,-2.1617604580795223e-2 4.8284271247461916e-2 -4.8284271247461895e-2Z" /></g><g><g><g fill-opacity="0.0"><path d="M -2.707106781186548,0.0 h 5.229032954387444 " /></g><g stroke-width="0.0"><g fill="rgb(0,0,0)" fill-opacity="1.0"><path d="" /></g><g fill="rgb(0,0,0)" fill-opacity="1.0"><path d="" /></g></g><g stroke-width="0.0"><g fill="rgb(0,0,0)" fill-opacity="1.0"><path d="M 2.7071067811865483,0.0 l -0.2713525491562421,8.816778784387098e-2 l 9.13525491562421e-2,-8.816778784387098e-2 l -9.135254915624214e-2,-8.816778784387096e-2 l 0.27135254915624213,8.816778784387096e-2 Z" /></g><g fill="rgb(0,0,0)" fill-opacity="1.0"><path d="M 2.527106781186548,0.0 l -5.180607985651786e-3,4.9999999999999906e-3 v -9.999999999999981e-3 l 5.180607985651786e-3,4.9999999999999906e-3 h -0.0 Z" /></g></g></g></g><g><g><g fill-opacity="0.0"><path d="M -1.5000000000000016,0.5000000000000004 l 2.81481939201435,-4.687615948763571e-16 " /></g><g stroke-width="0.0"><g fill="rgb(0,0,0)" fill-opacity="1.0"><path d="" /></g><g fill="rgb(0,0,0)" fill-opacity="1.0"><path d="" /></g></g><g stroke-width="0.0"><g fill="rgb(0,0,0)" fill-opacity="1.0"><path d="M 1.5,0.49999999999999994 l -0.2713525491562421,8.816778784387103e-2 l 9.135254915624208e-2,-8.8167787843871e-2 l -9.135254915624215e-2,-8.816778784387094e-2 l 0.27135254915624213,8.816778784387092e-2 Z" /></g><g fill="rgb(0,0,0)" fill-opacity="1.0"><path d="M 1.32,0.5 l -5.180607985651785e-3,4.999999999999991e-3 l -1.6653345369377307e-18,-9.999999999999981e-3 l 5.180607985651787e-3,4.99999999999999e-3 h -0.0 Z" /></g></g></g></g></g></g></g></g></svg>