<?xml version="1.0" encoding="UTF-8"?>
<!DOCTYPE svg PUBLIC "-//W3C//DTD SVG 1.1//EN"
    "http://www.w3.org/Graphics/SVG/1.1/DTD/svg11.dtd">
<svg xmlns="http://www.w3.org/2000/svg" xmlns:xlink="http://www.w3.org/1999/xlink" version="1.1" width="300.0" height="300.00000000000006" font-size="1" viewBox="0 0 300 300" stroke="rgb(0,0,0)" stroke-opacity="1"><g><g fill="rgb(0,0,0)" fill-opacity="0.0"><g stroke="rgb(0,0,0)" stroke-opacity="1.0" stroke-width="1.2" stroke-linecap="butt" stroke-linejoin="miter" font-size="1.0em" stroke-miterlimit="10.0"><g><g fill="rgb(0,128,0)" fill-opacity="1.0" stroke-width="0.0"><g fill="rgb(0,128,0)" fill-opacity="1.0"><g fill="rgb(0,128,0)" fill-opacity="1.0"><path d="M 36.363636363636374,286.3636363636364 h 113.63636363636363 c 6.027647496353275,-2.892321107515236e-15 11.80841824405711,-2.3944736446685924 16.070608663330628 -6.656664063942104l 113.63636363636363,-113.63636363636363 c 4.262190419273511,-4.262190419273516 6.656664063942097,-10.042961166977355 6.656664063942101 -16.070608663330628v -113.63636363636363 c 0.0,-12.551926132518032 -10.175346594754691,-22.727272727272727 -22.727272727272723 -22.727272727272727c -6.027647496353271,2.1541471862354763e-15 -11.80841824405711,2.394473644668591 -16.070608663330628 6.6566640639421015l -227.27272727272725,227.27272727272725 c -8.875552085256137,8.875552085256135 -8.87555208525614,23.265665241405113 -5.0464682937507114e-15 32.14121732666125c 4.262190419273514,4.262190419273512 10.042961166977355,6.656664063942098 16.07060866333063 6.656664063942117ZM 36.363636363636374,240.9090909090909 c -12.551926132518032,3.7848512203130333e-14 -22.727272727272727,10.17534659475473 -22.727272727272727 22.72727272727276c -2.5232341468753557e-15,12.551926132518032 10.17534659475469,22.727272727272727 22.727272727272716 22.727272727272727c 6.027647496353271,-1.2616170734376779e-15 11.80841824405711,-2.3944736446685897 16.070608663330628 -6.656664063942099l 227.27272727272725,-227.27272727272725 c 8.875552085256135,-8.875552085256134 8.875552085256137,-23.265665241405113 0.0 -32.14121732666125c -8.875552085256134,-8.875552085256135 -23.265665241405113,-8.875552085256137 -32.14121732666125 -2.5232341468753557e-15c -4.262190419273512,4.262190419273517 -6.656664063942098,10.042961166977355 -6.6566640639421015 16.070608663330628v 113.63636363636363 c -2.5232341468753557e-15,12.551926132518032 10.17534659475469,22.727272727272727 22.72727272727272 22.72727272727273c 12.551926132518032,2.5232341468753557e-15 22.727272727272727,-10.17534659475469 22.72727272727273 -22.727272727272716c 2.5232341468753557e-15,-12.551926132518032 -10.175346594754686,-22.727272727272727 -22.727272727272712 -22.72727272727273c -6.027647496353266,1.2616170734376779e-15 -11.808418244057094,2.3944736446685777 -16.07060866333061 6.656664063942079l -113.63636363636363,113.63636363636363 c -8.875552085256132,8.875552085256139 -8.875552085256128,23.265665241405113 1.0092936587501423e-14 32.14121732666125c 8.875552085256139,8.875552085256132 23.265665241405113,8.87555208525613 32.14121732666125 -7.569702440626068e-15c 8.875552085256134,-8.875552085256139 8.87555208525613,-23.265665241405113 -5.0464682937507114e-15 -32.14121732666124c -4.262190419273514,-4.262190419273507 -10.042961166977339,-6.656664063942092 -16.070608663330603 -6.656664063942101Z" /></g></g></g><g stroke="rgb(255,255,255)" stroke-opacity="1.0" stroke-width="3.0"><path d="M 36.363636363636374,263.6363636363636 h 113.63636363636363 l 113.63636363636363,-113.63636363636363 v -113.63636363636363 Z" /></g></g></g></g></g></svg>