<?xml version="1.0" encoding="UTF-8"?>
<!DOCTYPE svg PUBLIC "-//W3C//DTD SVG 1.1//EN"
    "http://www.w3.org/Graphics/SVG/1.1/DTD/svg11.dtd">
<svg xmlns="http://www.w3.org/2000/svg" xmlns:xlink="http://www.w3.org/1999/xlink" version="1.1" width="499.99999999999994" height="142.85714285714286" font-size="1" viewBox="0 0 500 143" stroke="rgb(0,0,0)" stroke-opacity="1"><g><g fill="rgb(0,0,0)" fill-opacity="0.0"><g stroke="rgb(0,0,0)" stroke-opacity="1.0" stroke-width="1.0690449676496976" stroke-linecap="butt" stroke-linejoin="miter" font-size="1.0em" stroke-miterlimit="10.0"><g><g stroke="rgb(169,169,169)" stroke-opacity="1.0" stroke-width="5.345224838248488"><path d="M 461.03896103896096,136.36363636363637 l -1.4418480839287746e-14,-129.87012987012986 h -129.87012987012986 l -1.4418480839287746e-14,129.87012987012986 Z" /><g fill="rgb(255,0,0)" fill-opacity="1.0" stroke-width="0.0"><g fill="rgb(255,0,0)" fill-opacity="1.0"><g fill="rgb(255,0,0)" fill-opacity="1.0"><path d="M 398.70129870129864,71.42857142857143 c 0.0,-1.4345058437163465 -1.1628967536862505,-2.5974025974025974 -2.597402597402597 -2.5974025974025974c -1.4345058437163465,-8.783814949326985e-17 -2.5974025974025974,1.1628967536862502 -2.5974025974025974 2.5974025974025965c -1.756762989865397e-16,1.4345058437163465 1.1628967536862502,2.5974025974025974 2.597402597402596 2.5974025974025974c 1.4345058437163465,2.6351444847980957e-16 2.5974025974025974,-1.16289675368625 2.5974025974025987 -2.5974025974025965Z" /></g></g></g></g></g><g></g><g stroke="rgb(169,169,169)" stroke-opacity="1.0" stroke-width="5.345224838248488"><path d="M 136.36363636363632,136.36363636363637 l -1.4418480839287746e-14,-129.87012987012986 h -129.87012987012986 l -1.4418480839287746e-14,129.87012987012986 Z" /><g fill="rgb(255,0,0)" fill-opacity="1.0" stroke-width="0.0"><g fill="rgb(255,0,0)" fill-opacity="1.0"><g fill="rgb(255,0,0)" fill-opacity="1.0"><path d="M 74.02597402597398,71.42857142857143 c 0.0,-1.4345058437163465 -1.1628967536862505,-2.5974025974025974 -2.597402597402597 -2.5974025974025974c -1.4345058437163465,-8.783814949326985e-17 -2.5974025974025974,1.1628967536862502 -2.5974025974025974 2.5974025974025965c -1.756762989865397e-16,1.4345058437163465 1.1628967536862502,2.5974025974025974 2.597402597402596 2.5974025974025974c 1.4345058437163465,2.6351444847980957e-16 2.5974025974025974,-1.16289675368625 2.5974025974025987 -2.5974025974025965Z" /></g></g></g></g><g><g><g><path d="M 89.9819766975543,73.83089383093066 c 61.406842947188636,7.951049003214775 122.81368589437727,15.90209800642955 138.71310687684397 10.954204913391047c 15.89942098246672,-4.947893093038505 -13.70857999978851,-22.794728282330297 2.1908409826782096 -27.742621375368802c 15.89942098246672,-4.947893093038505 77.30626392965536,3.0031559101762695 138.71310687684394 10.954204913391044" /></g><g stroke-width="0.0"><g fill="rgb(0,0,0)" fill-opacity="1.0"><g fill="rgb(0,0,0)" fill-opacity="1.0"><g fill="rgb(0,0,0)" fill-opacity="1.0"><path d="M 89.9819766975543,73.83089383093066 l -6.420476687285677e-2,0.49586061338928916 l -0.47159146753799513,-6.106236191164162e-2 l 0.5357962344108519,-0.43479825147764756 l -0.4073867006651384,-0.5569229753009308 l 0.47159146753799513,6.106236191164162e-2 l -6.420476687285677e-2,0.49586061338928916 Z" /></g></g></g><g fill="rgb(0,0,0)" fill-opacity="1.0"><g fill="rgb(0,0,0)" fill-opacity="1.0"><g fill="rgb(0,0,0)" fill-opacity="1.0"><path d="M 89.9819766975543,73.83089383093066 l -9.81976544020477,7.968732456689302 l -19.326463821857203,-2.5024191691242024 l 10.592823993079056,-7.868635689924334 l -8.239407860814753,-10.307060971598373 l 19.326463821857203,2.5024191691242024 l 7.466349307940467,10.206964204833405 Z" /></g></g></g></g><g stroke-width="0.0"><g fill="rgb(0,0,0)" fill-opacity="1.0"><g fill="rgb(0,0,0)" fill-opacity="1.0"><g fill="rgb(0,0,0)" fill-opacity="1.0"><path d="M 396.103896103896,71.42857142857143 l -32.982355078418344,6.185770522810794 l 6.7381797601759725,-9.583905225546857 l -4.075015142080604,-10.984013721974463 Z" /></g></g></g><g fill="rgb(0,0,0)" fill-opacity="1.0"><g fill="rgb(0,0,0)" fill-opacity="1.0"><g fill="rgb(0,0,0)" fill-opacity="1.0"><path d="M 369.8597207856536,68.03043672583537 l -0.26068935173322666,-3.375444349141672e-2 l -6.420476687285682e-2,0.49586061338928916 l 0.32489411860608347,-0.46210616989787245 l -0.26068935173322666,-3.375444349141672e-2 l 6.420476687285682e-2,-0.49586061338928916 Z" /></g></g></g></g></g></g></g></g></g></svg>