<?xml version="1.0" encoding="UTF-8"?>
<!DOCTYPE svg PUBLIC "-//W3C//DTD SVG 1.1//EN"
    "http://www.w3.org/Graphics/SVG/1.1/DTD/svg11.dtd"><svg font-size="1" viewBox="0.0 0.0 600.0 600.0" stroke="rgb(0,0,0)" xmlns="http://www.w3.org/2000/svg" width="600.0000" stroke-opacity="1" height="600.0000" version="1.1" xmlns:xlink="http://www.w3.org/1999/xlink"><defs></defs><defs><radialGradient id="gradient0" gradientTransform="matrix(187.5000,-0.0000,0.0000,-187.5000,506.2500,506.2500)" fy="0.0000" gradientUnits="userSpaceOnUse" cx="-0.2000" r="0.3000" spreadMethod="pad" cy="0.2000" fx="0.0000"><stop offset="0.6667" stop-opacity="1.0000" stop-color="rgb(255,255,0)"/><stop offset="0.6667" stop-opacity="1.0000" stop-color="rgb(255,255,0)"/><stop offset="1.0000" stop-opacity="1.0000" stop-color="rgb(65,105,225)"/></radialGradient></defs><g stroke-linejoin="miter" fill-opacity="1" fill="url(#gradient0)" stroke="rgb(0,0,0)" stroke-linecap="butt" stroke-miterlimit="10.0" stroke-opacity="1.0" stroke-width="0.0"><path d="M 600.0000,600.0000 l -0.0000,-187.5000 h -187.5000 l -0.0000,187.5000 Z"/></g><g stroke-linejoin="miter" fill-opacity="0.0" fill="rgb(0,0,0)" stroke="rgb(255,0,0)" stroke-linecap="butt" stroke-miterlimit="10.0" stroke-opacity="1.0" stroke-width="1.0"><path d="M 525.0000,468.7500 c 0.0000,-31.0660 -25.1840,-56.2500 -56.2500 -56.2500c -31.0660,-0.0000 -56.2500,25.1840 -56.2500 56.2500c -0.0000,31.0660 25.1840,56.2500 56.2500 56.2500c 31.0660,0.0000 56.2500,-25.1840 56.2500 -56.2500Z"/></g><g stroke-linejoin="miter" fill-opacity="0.0" fill="rgb(0,0,0)" stroke="rgb(0,0,0)" stroke-linecap="butt" stroke-miterlimit="10.0" stroke-opacity="1.0" stroke-width="1.0"><path d="M 543.7500,506.2500 c 0.0000,-20.7107 -16.7893,-37.5000 -37.5000 -37.5000c -20.7107,-0.0000 -37.5000,16.7893 -37.5000 37.5000c -0.0000,20.7107 16.7893,37.5000 37.5000 37.5000c 20.7107,0.0000 37.5000,-16.7893 37.5000 -37.5000Z"/></g><defs><radialGradient id="gradient6" gradientTransform="matrix(187.5000,-0.0000,0.0000,-187.5000,300.0000,506.2500)" fy="0.0000" gradientUnits="userSpaceOnUse" cx="0.0000" r="0.3000" spreadMethod="pad" cy="0.0000" fx="0.0000"><stop offset="0.6667" stop-opacity="1.0000" stop-color="rgb(255,255,0)"/><stop offset="0.6667" stop-opacity="1.0000" stop-color="rgb(255,255,0)"/><stop offset="1.0000" stop-opacity="1.0000" stop-color="rgb(65,105,225)"/></radialGradient></defs><g stroke-linejoin="miter" fill-opacity="1" fill="url(#gradient6)" stroke="rgb(0,0,0)" stroke-linecap="butt" stroke-miterlimit="10.0" stroke-opacity="1.0" stroke-width="0.0"><path d="M 393.7500,600.0000 l -0.0000,-187.5000 h -187.5000 l -0.0000,187.5000 Z"/></g><g stroke-linejoin="miter" fill-opacity="0.0" fill="rgb(0,0,0)" stroke="rgb(255,0,0)" stroke-linecap="butt" stroke-miterlimit="10.0" stroke-opacity="1.0" stroke-width="1.0"><path d="M 356.2500,506.2500 c 0.0000,-31.0660 -25.1840,-56.2500 -56.2500 -56.2500c -31.0660,-0.0000 -56.2500,25.1840 -56.2500 56.2500c -0.0000,31.0660 25.1840,56.2500 56.2500 56.2500c 31.0660,0.0000 56.2500,-25.1840 56.2500 -56.2500Z"/></g><g stroke-linejoin="miter" fill-opacity="0.0" fill="rgb(0,0,0)" stroke="rgb(0,0,0)" stroke-linecap="butt" stroke-miterlimit="10.0" stroke-opacity="1.0" stroke-width="1.0"><path d="M 337.5000,506.2500 c 0.0000,-20.7107 -16.7893,-37.5000 -37.5000 -37.5000c -20.7107,-0.0000 -37.5000,16.7893 -37.5000 37.5000c -0.0000,20.7107 16.7893,37.5000 37.5000 37.5000c 20.7107,0.0000 37.5000,-16.7893 37.5000 -37.5000Z"/></g><defs><radialGradient id="gradient12" gradientTransform="matrix(187.5000,-0.0000,0.0000,-187.5000,93.7500,506.2500)" fy="0.0000" gradientUnits="userSpaceOnUse" cx="0.2000" r="0.3000" spreadMethod="pad" cy="-0.2000" fx="0.0000"><stop offset="0.6667" stop-opacity="1.0000" stop-color="rgb(255,255,0)"/><stop offset="0.6667" stop-opacity="1.0000" stop-color="rgb(255,255,0)"/><stop offset="1.0000" stop-opacity="1.0000" stop-color="rgb(65,105,225)"/></radialGradient></defs><g stroke-linejoin="miter" fill-opacity="1" fill="url(#gradient12)" stroke="rgb(0,0,0)" stroke-linecap="butt" stroke-miterlimit="10.0" stroke-opacity="1.0" stroke-width="0.0"><path d="M 187.5000,600.0000 l -0.0000,-187.5000 h -187.5000 l -0.0000,187.5000 Z"/></g><g stroke-linejoin="miter" fill-opacity="0.0" fill="rgb(0,0,0)" stroke="rgb(255,0,0)" stroke-linecap="butt" stroke-miterlimit="10.0" stroke-opacity="1.0" stroke-width="1.0"><path d="M 187.5000,543.7500 c 0.0000,-31.0660 -25.1840,-56.2500 -56.2500 -56.2500c -31.0660,-0.0000 -56.2500,25.1840 -56.2500 56.2500c -0.0000,31.0660 25.1840,56.2500 56.2500 56.2500c 31.0660,0.0000 56.2500,-25.1840 56.2500 -56.2500Z"/></g><g stroke-linejoin="miter" fill-opacity="0.0" fill="rgb(0,0,0)" stroke="rgb(0,0,0)" stroke-linecap="butt" stroke-miterlimit="10.0" stroke-opacity="1.0" stroke-width="1.0"><path d="M 131.2500,506.2500 c 0.0000,-20.7107 -16.7893,-37.5000 -37.5000 -37.5000c -20.7107,-0.0000 -37.5000,16.7893 -37.5000 37.5000c -0.0000,20.7107 16.7893,37.5000 37.5000 37.5000c 20.7107,0.0000 37.5000,-16.7893 37.5000 -37.5000Z"/></g><defs><radialGradient id="gradient18" gradientTransform="matrix(187.5000,-0.0000,0.0000,-187.5000,506.2500,300.0000)" fy="0.0000" gradientUnits="userSpaceOnUse" cx="-0.2000" r="0.3000" spreadMethod="pad" cy="0.2000" fx="0.0000"><stop offset="0.3333" stop-opacity="1.0000" stop-color="rgb(255,255,0)"/><stop offset="0.3333" stop-opacity="1.0000" stop-color="rgb(255,255,0)"/><stop offset="1.0000" stop-opacity="1.0000" stop-color="rgb(65,105,225)"/></radialGradient></defs><g stroke-linejoin="miter" fill-opacity="1" fill="url(#gradient18)" stroke="rgb(0,0,0)" stroke-linecap="butt" stroke-miterlimit="10.0" stroke-opacity="1.0" stroke-width="0.0"><path d="M 600.0000,393.7500 l -0.0000,-187.5000 h -187.5000 l -0.0000,187.5000 Z"/></g><g stroke-linejoin="miter" fill-opacity="0.0" fill="rgb(0,0,0)" stroke="rgb(255,0,0)" stroke-linecap="butt" stroke-miterlimit="10.0" stroke-opacity="1.0" stroke-width="1.0"><path d="M 525.0000,262.5000 c 0.0000,-31.0660 -25.1840,-56.2500 -56.2500 -56.2500c -31.0660,-0.0000 -56.2500,25.1840 -56.2500 56.2500c -0.0000,31.0660 25.1840,56.2500 56.2500 56.2500c 31.0660,0.0000 56.2500,-25.1840 56.2500 -56.2500Z"/></g><g stroke-linejoin="miter" fill-opacity="0.0" fill="rgb(0,0,0)" stroke="rgb(0,0,0)" stroke-linecap="butt" stroke-miterlimit="10.0" stroke-opacity="1.0" stroke-width="1.0"><path d="M 525.0000,300.0000 c 0.0000,-10.3553 -8.3947,-18.7500 -18.7500 -18.7500c -10.3553,-0.0000 -18.7500,8.3947 -18.7500 18.7500c -0.0000,10.3553 8.3947,18.7500 18.7500 18.7500c 10.3553,0.0000 18.7500,-8.3947 18.7500 -18.7500Z"/></g><defs><radialGradient id="gradient24" gradientTransform="matrix(187.5000,-0.0000,0.0000,-187.5000,300.0000,300.0000)" fy="0.0000" gradientUnits="userSpaceOnUse" cx="0.0000" r="0.3000" spreadMethod="pad" cy="0.0000" fx="0.0000"><stop offset="0.3333" stop-opacity="1.0000" stop-color="rgb(255,255,0)"/><stop offset="0.3333" stop-opacity="1.0000" stop-color="rgb(255,255,0)"/><stop offset="1.0000" stop-opacity="1.0000" stop-color="rgb(65,105,225)"/></radialGradient></defs><g stroke-linejoin="miter" fill-opacity="1" fill="url(#gradient24)" stroke="rgb(0,0,0)" stroke-linecap="butt" stroke-miterlimit="10.0" stroke-opacity="1.0" stroke-width="0.0"><path d="M 393.7500,393.7500 l -0.0000,-187.5000 h -187.5000 l -0.0000,187.5000 Z"/></g><g stroke-linejoin="miter" fill-opacity="0.0" fill="rgb(0,0,0)" stroke="rgb(255,0,0)" stroke-linecap="butt" stroke-miterlimit="10.0" stroke-opacity="1.0" stroke-width="1.0"><path d="M 356.2500,300.0000 c 0.0000,-31.0660 -25.1840,-56.2500 -56.2500 -56.2500c -31.0660,-0.0000 -56.2500,25.1840 -56.2500 56.2500c -0.0000,31.0660 25.1840,56.2500 56.2500 56.2500c 31.0660,0.0000 56.2500,-25.1840 56.2500 -56.2500Z"/></g><g stroke-linejoin="miter" fill-opacity="0.0" fill="rgb(0,0,0)" stroke="rgb(0,0,0)" stroke-linecap="butt" stroke-miterlimit="10.0" stroke-opacity="1.0" stroke-width="1.0"><path d="M 318.7500,300.0000 c 0.0000,-10.3553 -8.3947,-18.7500 -18.7500 -18.7500c -10.3553,-0.0000 -18.7500,8.3947 -18.7500 18.7500c -0.0000,10.3553 8.3947,18.7500 18.7500 18.7500c 10.3553,0.0000 18.7500,-8.3947 18.7500 -18.7500Z"/></g><defs><radialGradient id="gradient30" gradientTransform="matrix(187.5000,-0.0000,0.0000,-187.5000,93.7500,300.0000)" fy="0.0000" gradientUnits="userSpaceOnUse" cx="0.2000" r="0.3000" spreadMethod="pad" cy="-0.2000" fx="0.0000"><stop offset="0.3333" stop-opacity="1.0000" stop-color="rgb(255,255,0)"/><stop offset="0.3333" stop-opacity="1.0000" stop-color="rgb(255,255,0)"/><stop offset="1.0000" stop-opacity="1.0000" stop-color="rgb(65,105,225)"/></radialGradient></defs><g stroke-linejoin="miter" fill-opacity="1" fill="url(#gradient30)" stroke="rgb(0,0,0)" stroke-linecap="butt" stroke-miterlimit="10.0" stroke-opacity="1.0" stroke-width="0.0"><path d="M 187.5000,393.7500 l -0.0000,-187.5000 h -187.5000 l -0.0000,187.5000 Z"/></g><g stroke-linejoin="miter" fill-opacity="0.0" fill="rgb(0,0,0)" stroke="rgb(255,0,0)" stroke-linecap="butt" stroke-miterlimit="10.0" stroke-opacity="1.0" stroke-width="1.0"><path d="M 187.5000,337.5000 c 0.0000,-31.0660 -25.1840,-56.2500 -56.2500 -56.2500c -31.0660,-0.0000 -56.2500,25.1840 -56.2500 56.2500c -0.0000,31.0660 25.1840,56.2500 56.2500 56.2500c 31.0660,0.0000 56.2500,-25.1840 56.2500 -56.2500Z"/></g><g stroke-linejoin="miter" fill-opacity="0.0" fill="rgb(0,0,0)" stroke="rgb(0,0,0)" stroke-linecap="butt" stroke-miterlimit="10.0" stroke-opacity="1.0" stroke-width="1.0"><path d="M 112.5000,300.0000 c 0.0000,-10.3553 -8.3947,-18.7500 -18.7500 -18.7500c -10.3553,-0.0000 -18.7500,8.3947 -18.7500 18.7500c -0.0000,10.3553 8.3947,18.7500 18.7500 18.7500c 10.3553,0.0000 18.7500,-8.3947 18.7500 -18.7500Z"/></g><defs><radialGradient id="gradient36" gradientTransform="matrix(187.5000,-0.0000,0.0000,-187.5000,506.2500,93.7500)" fy="0.0000" gradientUnits="userSpaceOnUse" cx="-0.2000" r="0.3000" spreadMethod="pad" cy="0.2000" fx="0.0000"><stop offset="0.0000" stop-opacity="1.0000" stop-color="rgb(255,255,0)"/><stop offset="0.0000" stop-opacity="1.0000" stop-color="rgb(255,255,0)"/><stop offset="1.0000" stop-opacity="1.0000" stop-color="rgb(65,105,225)"/></radialGradient></defs><g stroke-linejoin="miter" fill-opacity="1" fill="url(#gradient36)" stroke="rgb(0,0,0)" stroke-linecap="butt" stroke-miterlimit="10.0" stroke-opacity="1.0" stroke-width="0.0"><path d="M 600.0000,187.5000 l -0.0000,-187.5000 h -187.5000 l -0.0000,187.5000 Z"/></g><g stroke-linejoin="miter" fill-opacity="0.0" fill="rgb(0,0,0)" stroke="rgb(255,0,0)" stroke-linecap="butt" stroke-miterlimit="10.0" stroke-opacity="1.0" stroke-width="1.0"><path d="M 525.0000,56.2500 c 0.0000,-31.0660 -25.1840,-56.2500 -56.2500 -56.2500c -31.0660,-0.0000 -56.2500,25.1840 -56.2500 56.2500c -0.0000,31.0660 25.1840,56.2500 56.2500 56.2500c 31.0660,0.0000 56.2500,-25.1840 56.2500 -56.2500Z"/></g><g stroke-linejoin="miter" fill-opacity="1.0" fill="rgb(0,0,0)" stroke="rgb(0,0,0)" stroke-linecap="butt" stroke-miterlimit="10.0" stroke-opacity="1.0" stroke-width="0.0"><path d="M 510.9375,101.8690 l -4.6875,-8.1190 l -4.6875,8.1190 Z"/></g><g stroke-linejoin="miter" fill-opacity="1.0" fill="rgb(255,0,0)" stroke="rgb(0,0,0)" stroke-linecap="butt" stroke-miterlimit="10.0" stroke-opacity="1.0" stroke-width="0.0"><path d="M 506.4375,93.7500 c 0.0000,-0.1036 -0.0839,-0.1875 -0.1875 -0.1875c -0.1036,-0.0000 -0.1875,0.0839 -0.1875 0.1875c -0.0000,0.1036 0.0839,0.1875 0.1875 0.1875c 0.1036,0.0000 0.1875,-0.0839 0.1875 -0.1875Z"/></g><defs><radialGradient id="gradient44" gradientTransform="matrix(187.5000,-0.0000,0.0000,-187.5000,300.0000,93.7500)" fy="0.0000" gradientUnits="userSpaceOnUse" cx="0.0000" r="0.3000" spreadMethod="pad" cy="0.0000" fx="0.0000"><stop offset="0.0000" stop-opacity="1.0000" stop-color="rgb(255,255,0)"/><stop offset="0.0000" stop-opacity="1.0000" stop-color="rgb(255,255,0)"/><stop offset="1.0000" stop-opacity="1.0000" stop-color="rgb(65,105,225)"/></radialGradient></defs><g stroke-linejoin="miter" fill-opacity="1" fill="url(#gradient44)" stroke="rgb(0,0,0)" stroke-linecap="butt" stroke-miterlimit="10.0" stroke-opacity="1.0" stroke-width="0.0"><path d="M 393.7500,187.5000 l -0.0000,-187.5000 h -187.5000 l -0.0000,187.5000 Z"/></g><g stroke-linejoin="miter" fill-opacity="0.0" fill="rgb(0,0,0)" stroke="rgb(255,0,0)" stroke-linecap="butt" stroke-miterlimit="10.0" stroke-opacity="1.0" stroke-width="1.0"><path d="M 356.2500,93.7500 c 0.0000,-31.0660 -25.1840,-56.2500 -56.2500 -56.2500c -31.0660,-0.0000 -56.2500,25.1840 -56.2500 56.2500c -0.0000,31.0660 25.1840,56.2500 56.2500 56.2500c 31.0660,0.0000 56.2500,-25.1840 56.2500 -56.2500Z"/></g><g stroke-linejoin="miter" fill-opacity="1.0" fill="rgb(0,0,0)" stroke="rgb(0,0,0)" stroke-linecap="butt" stroke-miterlimit="10.0" stroke-opacity="1.0" stroke-width="0.0"><path d="M 304.6875,101.8690 l -4.6875,-8.1190 l -4.6875,8.1190 Z"/></g><g stroke-linejoin="miter" fill-opacity="1.0" fill="rgb(255,0,0)" stroke="rgb(0,0,0)" stroke-linecap="butt" stroke-miterlimit="10.0" stroke-opacity="1.0" stroke-width="0.0"><path d="M 300.1875,93.7500 c 0.0000,-0.1036 -0.0839,-0.1875 -0.1875 -0.1875c -0.1036,-0.0000 -0.1875,0.0839 -0.1875 0.1875c -0.0000,0.1036 0.0839,0.1875 0.1875 0.1875c 0.1036,0.0000 0.1875,-0.0839 0.1875 -0.1875Z"/></g><defs><radialGradient id="gradient52" gradientTransform="matrix(187.5000,-0.0000,0.0000,-187.5000,93.7500,93.7500)" fy="0.0000" gradientUnits="userSpaceOnUse" cx="0.2000" r="0.3000" spreadMethod="pad" cy="-0.2000" fx="0.0000"><stop offset="0.0000" stop-opacity="1.0000" stop-color="rgb(255,255,0)"/><stop offset="0.0000" stop-opacity="1.0000" stop-color="rgb(255,255,0)"/><stop offset="1.0000" stop-opacity="1.0000" stop-color="rgb(65,105,225)"/></radialGradient></defs><g stroke-linejoin="miter" fill-opacity="1" fill="url(#gradient52)" stroke="rgb(0,0,0)" stroke-linecap="butt" stroke-miterlimit="10.0" stroke-opacity="1.0" stroke-width="0.0"><path d="M 187.5000,187.5000 l -0.0000,-187.5000 h -187.5000 l -0.0000,187.5000 Z"/></g><g stroke-linejoin="miter" fill-opacity="0.0" fill="rgb(0,0,0)" stroke="rgb(255,0,0)" stroke-linecap="butt" stroke-miterlimit="10.0" stroke-opacity="1.0" stroke-width="1.0"><path d="M 187.5000,131.2500 c 0.0000,-31.0660 -25.1840,-56.2500 -56.2500 -56.2500c -31.0660,-0.0000 -56.2500,25.1840 -56.2500 56.2500c -0.0000,31.0660 25.1840,56.2500 56.2500 56.2500c 31.0660,0.0000 56.2500,-25.1840 56.2500 -56.2500Z"/></g><g stroke-linejoin="miter" fill-opacity="1.0" fill="rgb(0,0,0)" stroke="rgb(0,0,0)" stroke-linecap="butt" stroke-miterlimit="10.0" stroke-opacity="1.0" stroke-width="0.0"><path d="M 98.4375,101.8690 l -4.6875,-8.1190 l -4.6875,8.1190 Z"/></g><g stroke-linejoin="miter" fill-opacity="1.0" fill="rgb(255,0,0)" stroke="rgb(0,0,0)" stroke-linecap="butt" stroke-miterlimit="10.0" stroke-opacity="1.0" stroke-width="0.0"><path d="M 93.9375,93.7500 c 0.0000,-0.1036 -0.0839,-0.1875 -0.1875 -0.1875c -0.1036,-0.0000 -0.1875,0.0839 -0.1875 0.1875c -0.0000,0.1036 0.0839,0.1875 0.1875 0.1875c 0.1036,0.0000 0.1875,-0.0839 0.1875 -0.1875Z"/></g></svg>