<svg xmlns="http://www.w3.org/2000/svg" height="200.0000" stroke-opacity="1" viewBox="0 0 170 200" font-size="1" width="169.7207" xmlns:xlink="http://www.w3.org/1999/xlink" stroke="rgb(0,0,0)" version="1.1"><defs></defs><g stroke-linejoin="miter" stroke-opacity="1.0" fill-opacity="1.0" stroke="rgb(0,0,0)" stroke-width="0.7369573772655632" fill="rgb(128,0,128)" stroke-linecap="butt" stroke-miterlimit="10.0"><path d="M 162.0061,68.6338 c 0.0000,-32.8847 -26.6583,-59.5429 -59.5429 -59.5429c -32.8847,-0.0000 -59.5429,26.6583 -59.5429 59.5429c -0.0000,32.8847 26.6583,59.5429 59.5429 59.5429c 32.8847,0.0000 59.5429,-26.6583 59.5429 -59.5429Z"/></g><g stroke-linejoin="miter" stroke-opacity="1.0" fill-opacity="1.0" stroke="rgb(0,0,0)" stroke-width="0.7369573772655632" fill="rgb(255,165,0)" stroke-linecap="butt" stroke-miterlimit="10.0"><path d="M 87.1052,151.2138 c 0.0000,-21.9231 -17.7722,-39.6953 -39.6953 -39.6953c -21.9231,-0.0000 -39.6953,17.7722 -39.6953 39.6953c -0.0000,21.9231 17.7722,39.6953 39.6953 39.6953c 21.9231,0.0000 39.6953,-17.7722 39.6953 -39.6953Z"/></g><g stroke-linejoin="miter" stroke-opacity="1.0" fill-opacity="1.0" stroke="rgb(0,0,0)" stroke-width="0.0" fill="rgb(255,0,0)" stroke-linecap="butt" stroke-miterlimit="10.0"><path d="M 51.0462,151.2138 c 0.0000,-2.0083 -1.6281,-3.6364 -3.6364 -3.6364c -2.0083,-0.0000 -3.6364,1.6281 -3.6364 3.6364c -0.0000,2.0083 1.6281,3.6364 3.6364 3.6364c 2.0083,0.0000 3.6364,-1.6281 3.6364 -3.6364Z"/></g></svg>