<svg xmlns="http://www.w3.org/2000/svg" height="151.7241" stroke-opacity="1" viewBox="0 0 400 152" font-size="1" width="400.0000" xmlns:xlink="http://www.w3.org/1999/xlink" stroke="rgb(0,0,0)" version="1.1"><defs></defs><g stroke-linejoin="miter" stroke-opacity="1.0" fill-opacity="0.0" stroke="rgb(0,0,0)" stroke-width="0.9854108192823033" fill="rgb(0,0,0)" stroke-linecap="butt" stroke-miterlimit="10.0"><path d="M 393.1034,34.4828 c 0.0000,-15.2354 -12.3508,-27.5862 -27.5862 -27.5862c -15.2354,-0.0000 -27.5862,12.3508 -27.5862 27.5862c -0.0000,15.2354 12.3508,27.5862 27.5862 27.5862c 15.2354,0.0000 27.5862,-12.3508 27.5862 -27.5862Z"/></g><g stroke-linejoin="miter" stroke-opacity="1.0" fill-opacity="0.0" stroke="rgb(0,0,0)" stroke-width="0.9854108192823033" fill="rgb(0,0,0)" stroke-linecap="butt" stroke-miterlimit="10.0"><path d="M 310.3448,75.8621 c 0.0000,-38.0886 -30.8769,-68.9655 -68.9655 -68.9655c -38.0886,-0.0000 -68.9655,30.8769 -68.9655 68.9655c -0.0000,38.0886 30.8769,68.9655 68.9655 68.9655c 38.0886,0.0000 68.9655,-30.8769 68.9655 -68.9655Z"/></g><g stroke-linejoin="miter" stroke-opacity="1.0" fill-opacity="0.0" stroke="rgb(0,0,0)" stroke-width="0.9854108192823033" fill="rgb(0,0,0)" stroke-linecap="butt" stroke-miterlimit="10.0"><path d="M 144.8276,48.2759 c 0.0000,-22.8532 -18.5261,-41.3793 -41.3793 -41.3793c -22.8532,-0.0000 -41.3793,18.5261 -41.3793 41.3793c -0.0000,22.8532 18.5261,41.3793 41.3793 41.3793c 22.8532,0.0000 41.3793,-18.5261 41.3793 -41.3793Z"/></g><g stroke-linejoin="miter" stroke-opacity="1.0" fill-opacity="0.0" stroke="rgb(0,0,0)" stroke-width="0.9854108192823033" fill="rgb(0,0,0)" stroke-linecap="butt" stroke-miterlimit="10.0"><path d="M 34.4828,20.6897 c 0.0000,-7.6177 -6.1754,-13.7931 -13.7931 -13.7931c -7.6177,-0.0000 -13.7931,6.1754 -13.7931 13.7931c -0.0000,7.6177 6.1754,13.7931 13.7931 13.7931c 7.6177,0.0000 13.7931,-6.1754 13.7931 -13.7931Z"/></g><g stroke-linejoin="miter" stroke-opacity="1.0" fill-opacity="1.0" stroke="rgb(0,0,0)" stroke-width="0.0" fill="rgb(255,0,0)" stroke-linecap="butt" stroke-miterlimit="10.0"><path d="M 28.4138,20.6897 c 0.0000,-4.2659 -3.4582,-7.7241 -7.7241 -7.7241c -4.2659,-0.0000 -7.7241,3.4582 -7.7241 7.7241c -0.0000,4.2659 3.4582,7.7241 7.7241 7.7241c 4.2659,0.0000 7.7241,-3.4582 7.7241 -7.7241Z"/></g></svg>