<svg xmlns="http://www.w3.org/2000/svg" height="150.9864" stroke-opacity="1" viewBox="0 0 600 151" font-size="1" width="600.0000" xmlns:xlink="http://www.w3.org/1999/xlink" stroke="rgb(0,0,0)" version="1.1"><defs></defs><g stroke-linejoin="miter" stroke-opacity="1.0" fill-opacity="0.0" stroke="rgb(0,0,0)" stroke-width="1.2039392872038202" fill="rgb(0,0,0)" stroke-linecap="butt" stroke-miterlimit="10.0"><path d="M 434.1254,88.5075 c -6.8945,-6.8945 6.8945,-85.0326 50.5599 -75.8399c 43.6654,9.1927 117.2071,105.7162 75.8399 126.3998c -41.3672,20.6836 -197.6433,-34.4727 -227.5197 -75.8399c -29.8763,-41.3672 66.6472,-68.9454 101.1199 -50.5599c 34.4727,18.3854 6.8945,82.7344 -0.0000 75.8399Z"/></g><g stroke-linejoin="miter" stroke-opacity="1.0" fill-opacity="1.0" stroke="rgb(0,0,0)" stroke-width="0.0" fill="rgb(0,0,255)" stroke-linecap="butt" stroke-miterlimit="10.0"><path d="M 439.1814,12.6676 c 0.0000,-2.7923 -2.2636,-5.0560 -5.0560 -5.0560c -2.7923,-0.0000 -5.0560,2.2636 -5.0560 5.0560c -0.0000,2.7923 2.2636,5.0560 5.0560 5.0560c 2.7923,0.0000 5.0560,-2.2636 5.0560 -5.0560Z"/></g><g stroke-linejoin="miter" stroke-opacity="1.0" fill-opacity="1.0" stroke="rgb(0,0,0)" stroke-width="0.0" fill="rgb(0,0,255)" stroke-linecap="butt" stroke-miterlimit="10.0"><path d="M 338.0615,63.2275 c 0.0000,-2.7923 -2.2636,-5.0560 -5.0560 -5.0560c -2.7923,-0.0000 -5.0560,2.2636 -5.0560 5.0560c -0.0000,2.7923 2.2636,5.0560 5.0560 5.0560c 2.7923,0.0000 5.0560,-2.2636 5.0560 -5.0560Z"/></g><g stroke-linejoin="miter" stroke-opacity="1.0" fill-opacity="1.0" stroke="rgb(0,0,0)" stroke-width="0.0" fill="rgb(0,0,255)" stroke-linecap="butt" stroke-miterlimit="10.0"><path d="M 565.5812,139.0674 c 0.0000,-2.7923 -2.2636,-5.0560 -5.0560 -5.0560c -2.7923,-0.0000 -5.0560,2.2636 -5.0560 5.0560c -0.0000,2.7923 2.2636,5.0560 5.0560 5.0560c 2.7923,0.0000 5.0560,-2.2636 5.0560 -5.0560Z"/></g><g stroke-linejoin="miter" stroke-opacity="1.0" fill-opacity="1.0" stroke="rgb(0,0,0)" stroke-width="0.0" fill="rgb(0,0,255)" stroke-linecap="butt" stroke-miterlimit="10.0"><path d="M 489.7413,12.6676 c 0.0000,-2.7923 -2.2636,-5.0560 -5.0560 -5.0560c -2.7923,-0.0000 -5.0560,2.2636 -5.0560 5.0560c -0.0000,2.7923 2.2636,5.0560 5.0560 5.0560c 2.7923,0.0000 5.0560,-2.2636 5.0560 -5.0560Z"/></g><g stroke-linejoin="miter" stroke-opacity="1.0" fill-opacity="1.0" stroke="rgb(0,0,0)" stroke-width="0.0" fill="rgb(0,0,255)" stroke-linecap="butt" stroke-miterlimit="10.0"><path d="M 439.1814,88.5075 c 0.0000,-2.7923 -2.2636,-5.0560 -5.0560 -5.0560c -2.7923,-0.0000 -5.0560,2.2636 -5.0560 5.0560c -0.0000,2.7923 2.2636,5.0560 5.0560 5.0560c 2.7923,0.0000 5.0560,-2.2636 5.0560 -5.0560Z"/></g><g stroke-linejoin="miter" stroke-opacity="1.0" fill-opacity="0.0" stroke="rgb(0,0,0)" stroke-width="1.2039392872038202" fill="rgb(0,0,0)" stroke-linecap="butt" stroke-miterlimit="10.0"><path d="M 139.8914,88.5075 c 5.4171,-48.3028 10.8343,-96.6056 50.5599 -75.8399c 39.7257,20.7657 113.7598,110.5998 75.8399 126.3998c -37.9199,15.8000 -187.7940,-42.4342 -227.5197 -75.8399c -39.7257,-33.4057 30.6971,-41.9828 101.1199 -50.5599"/></g><g stroke-linejoin="miter" stroke-opacity="1.0" fill-opacity="1.0" stroke="rgb(0,0,0)" stroke-width="0.0" fill="rgb(0,0,255)" stroke-linecap="butt" stroke-miterlimit="10.0"><path d="M 144.9474,12.6676 c 0.0000,-2.7923 -2.2636,-5.0560 -5.0560 -5.0560c -2.7923,-0.0000 -5.0560,2.2636 -5.0560 5.0560c -0.0000,2.7923 2.2636,5.0560 5.0560 5.0560c 2.7923,0.0000 5.0560,-2.2636 5.0560 -5.0560Z"/></g><g stroke-linejoin="miter" stroke-opacity="1.0" fill-opacity="1.0" stroke="rgb(0,0,0)" stroke-width="0.0" fill="rgb(0,0,255)" stroke-linecap="butt" stroke-miterlimit="10.0"><path d="M 43.8275,63.2275 c 0.0000,-2.7923 -2.2636,-5.0560 -5.0560 -5.0560c -2.7923,-0.0000 -5.0560,2.2636 -5.0560 5.0560c -0.0000,2.7923 2.2636,5.0560 5.0560 5.0560c 2.7923,0.0000 5.0560,-2.2636 5.0560 -5.0560Z"/></g><g stroke-linejoin="miter" stroke-opacity="1.0" fill-opacity="1.0" stroke="rgb(0,0,0)" stroke-width="0.0" fill="rgb(0,0,255)" stroke-linecap="butt" stroke-miterlimit="10.0"><path d="M 271.3472,139.0674 c 0.0000,-2.7923 -2.2636,-5.0560 -5.0560 -5.0560c -2.7923,-0.0000 -5.0560,2.2636 -5.0560 5.0560c -0.0000,2.7923 2.2636,5.0560 5.0560 5.0560c 2.7923,0.0000 5.0560,-2.2636 5.0560 -5.0560Z"/></g><g stroke-linejoin="miter" stroke-opacity="1.0" fill-opacity="1.0" stroke="rgb(0,0,0)" stroke-width="0.0" fill="rgb(0,0,255)" stroke-linecap="butt" stroke-miterlimit="10.0"><path d="M 195.5073,12.6676 c 0.0000,-2.7923 -2.2636,-5.0560 -5.0560 -5.0560c -2.7923,-0.0000 -5.0560,2.2636 -5.0560 5.0560c -0.0000,2.7923 2.2636,5.0560 5.0560 5.0560c 2.7923,0.0000 5.0560,-2.2636 5.0560 -5.0560Z"/></g><g stroke-linejoin="miter" stroke-opacity="1.0" fill-opacity="1.0" stroke="rgb(0,0,0)" stroke-width="0.0" fill="rgb(0,0,255)" stroke-linecap="butt" stroke-miterlimit="10.0"><path d="M 144.9474,88.5075 c 0.0000,-2.7923 -2.2636,-5.0560 -5.0560 -5.0560c -2.7923,-0.0000 -5.0560,2.2636 -5.0560 5.0560c -0.0000,2.7923 2.2636,5.0560 5.0560 5.0560c 2.7923,0.0000 5.0560,-2.2636 5.0560 -5.0560Z"/></g></svg>