<?xml version="1.0" encoding="UTF-8"?>
<!DOCTYPE svg PUBLIC "-//W3C//DTD SVG 1.1//EN"
    "http://www.w3.org/Graphics/SVG/1.1/DTD/svg11.dtd"><svg xmlns="http://www.w3.org/2000/svg" height="142.85714285714286" stroke-opacity="1" viewBox="0 0 500 143" font-size="1" width="499.99999999999994" xmlns:xlink="http://www.w3.org/1999/xlink" stroke="rgb(0,0,0)" version="1.1"><g><defs></defs><g stroke-linejoin="miter" stroke-opacity="1.0" fill-opacity="0.0" stroke="rgb(169,169,169)" stroke-width="5.345224838248488" fill="rgb(0,0,0)" stroke-linecap="butt" stroke-miterlimit="10.0"><path d="M 461.03896103896096,136.36363636363637 l -1.4418480839287746e-14,-129.87012987012986 h -129.87012987012986 l -1.4418480839287746e-14,129.87012987012986 Z"/></g><defs></defs><g stroke-linejoin="miter" stroke-opacity="1.0" fill-opacity="1.0" stroke="rgb(169,169,169)" stroke-width="0.0" fill="rgb(255,0,0)" stroke-linecap="butt" stroke-miterlimit="10.0"><path d="M 398.70129870129864,71.42857142857143 c 0.0,-1.4345058437163465 -1.1628967536862505,-2.5974025974025974 -2.597402597402597 -2.5974025974025974c -1.4345058437163465,-8.783814949326985e-17 -2.5974025974025974,1.1628967536862502 -2.5974025974025974 2.5974025974025965c -1.756762989865397e-16,1.4345058437163465 1.1628967536862502,2.5974025974025974 2.597402597402596 2.5974025974025974c 1.4345058437163465,2.6351444847980957e-16 2.5974025974025974,-1.16289675368625 2.5974025974025987 -2.5974025974025965Z"/></g><defs></defs><g stroke-linejoin="miter" stroke-opacity="1.0" fill-opacity="0.0" stroke="rgb(169,169,169)" stroke-width="5.345224838248488" fill="rgb(0,0,0)" stroke-linecap="butt" stroke-miterlimit="10.0"><path d="M 136.36363636363632,136.36363636363637 l -1.4418480839287746e-14,-129.87012987012986 h -129.87012987012986 l -1.4418480839287746e-14,129.87012987012986 Z"/></g><defs></defs><g stroke-linejoin="miter" stroke-opacity="1.0" fill-opacity="1.0" stroke="rgb(169,169,169)" stroke-width="0.0" fill="rgb(255,0,0)" stroke-linecap="butt" stroke-miterlimit="10.0"><path d="M 74.02597402597398,71.42857142857143 c 0.0,-1.4345058437163465 -1.1628967536862505,-2.5974025974025974 -2.597402597402597 -2.5974025974025974c -1.4345058437163465,-8.783814949326985e-17 -2.5974025974025974,1.1628967536862502 -2.5974025974025974 2.5974025974025965c -1.756762989865397e-16,1.4345058437163465 1.1628967536862502,2.5974025974025974 2.597402597402596 2.5974025974025974c 1.4345058437163465,2.6351444847980957e-16 2.5974025974025974,-1.16289675368625 2.5974025974025987 -2.5974025974025965Z"/></g><defs></defs><g stroke-linejoin="miter" stroke-opacity="1.0" fill-opacity="0.0" stroke="rgb(0,0,0)" stroke-width="1.0690449676496976" fill="rgb(0,0,0)" stroke-linecap="butt" stroke-miterlimit="10.0"><path d="M 89.98197669755432,73.83089383093066 c 61.406842947188636,7.951049003214775 122.81368589437727,15.90209800642955 138.71310687684397 10.954204913391045c 15.89942098246672,-4.947893093038505 -13.70857999978851,-22.794728282330297 2.1908409826782096 -27.742621375368802c 15.89942098246672,-4.947893093038505 77.30626392965536,3.003155910176269 138.71310687684394 10.954204913391042"/></g><defs></defs><g stroke-linejoin="miter" stroke-opacity="1.0" fill-opacity="1.0" stroke="rgb(0,0,0)" stroke-width="0.0" fill="rgb(0,0,0)" stroke-linecap="butt" stroke-miterlimit="10.0"><path d="M 89.98197669755432,73.83089383093066 l -7.466349307940467,-10.206964204833406 l -19.326463821857203,-2.5024191691242015 l 8.239407860814753,10.307060971598373 l -10.592823993079055,7.868635689924335 l 19.326463821857203,2.5024191691242015 l 9.819765440204769,-7.9687324566893025 Z"/></g><defs></defs><g stroke-linejoin="miter" stroke-opacity="1.0" fill-opacity="1.0" stroke="rgb(0,0,0)" stroke-width="0.0" fill="rgb(0,0,0)" stroke-linecap="butt" stroke-miterlimit="10.0"><path d="M 89.98197669755432,73.83089383093066 l 6.863778292454953e-2,-0.5300972933995118 l -0.5041524851580295,-6.527841071444503e-2 l 0.43551470223348,0.5953757041139568 l -0.572790268082579,0.4648188826850668 l 0.5041524851580295,6.527841071444503e-2 l 6.863778292454953e-2,-0.5300972933995118 Z"/></g><defs></defs><g stroke-linejoin="miter" stroke-opacity="1.0" fill-opacity="1.0" stroke="rgb(0,0,0)" stroke-width="0.0" fill="rgb(0,0,0)" stroke-linecap="butt" stroke-miterlimit="10.0"><path d="M 396.10389610389603,71.42857142857143 l -30.29839636677383,-14.372284581539233 l 4.072220336388497,10.976480453262068 l -6.733558451422118,9.577332206320406 Z"/></g><defs></defs><g stroke-linejoin="miter" stroke-opacity="1.0" fill-opacity="1.0" stroke="rgb(0,0,0)" stroke-width="0.0" fill="rgb(0,0,0)" stroke-linecap="butt" stroke-miterlimit="10.0"><path d="M 369.8777200735107,68.03276730029427 l -0.27868863959026763,-3.608501795031509e-2 l 6.863778292454958e-2,-0.5300972933995118 l 0.2100508566657181,0.566182311349827 l -0.27868863959026763,-3.608501795031509e-2 l -6.863778292454958e-2,0.5300972933995118 Z"/></g></g></svg>