<?xml version="1.0" encoding="UTF-8"?>
<!DOCTYPE svg PUBLIC "-//W3C//DTD SVG 1.1//EN"
    "http://www.w3.org/Graphics/SVG/1.1/DTD/svg11.dtd"><svg xmlns="http://www.w3.org/2000/svg" height="200.0" stroke-opacity="1" viewBox="0 0 170 200" font-size="1" width="169.72067997066802" xmlns:xlink="http://www.w3.org/1999/xlink" stroke="rgb(0,0,0)" version="1.1"><g><defs></defs><g stroke-linejoin="miter" stroke-opacity="1.0" fill-opacity="1.0" stroke="rgb(0,0,0)" stroke-width="0.7369573772655632" fill="rgb(128,0,128)" stroke-linecap="butt" stroke-miterlimit="10.0"><path d="M 162.00610360836492,68.63383995200215 c 0.0,-32.884652674811015 -26.658278186282047,-59.54293086109307 -59.54293086109305 -59.54293086109307c -32.884652674811015,-2.0136042319639878e-15 -59.54293086109307,26.658278186282043 -59.54293086109307 59.54293086109305c -4.0272084639279756e-15,32.884652674811015 26.658278186282036,59.54293086109307 59.54293086109304 59.54293086109307c 32.884652674811015,6.0408126958919634e-15 59.54293086109307,-26.658278186282033 59.54293086109307 -59.54293086109305Z"/></g><defs></defs><g stroke-linejoin="miter" stroke-opacity="1.0" fill-opacity="1.0" stroke="rgb(0,0,0)" stroke-width="0.7369573772655632" fill="rgb(255,165,0)" stroke-linecap="butt" stroke-miterlimit="10.0"><path d="M 87.10515084376053,151.2138036683622 c 0.0,-21.923101783207343 -17.772185457521363,-39.69528724072871 -39.6952872407287 -39.69528724072871c -21.923101783207343,-1.342402821309325e-15 -39.69528724072871,17.77218545752136 -39.69528724072871 39.695287240728696c -2.68480564261865e-15,21.923101783207343 17.77218545752136,39.69528724072871 39.695287240728696 39.69528724072871c 21.923101783207343,4.0272084639279756e-15 39.69528724072871,-17.772185457521356 39.69528724072871 -39.695287240728696Z"/></g><defs></defs><g stroke-linejoin="miter" stroke-opacity="1.0" fill-opacity="1.0" stroke="rgb(0,0,0)" stroke-width="0.0" fill="rgb(255,0,0)" stroke-linecap="butt" stroke-miterlimit="10.0"><path d="M 51.04622723939545,151.2138036683622 c 0.0,-2.0083081812028856 -1.628055455160751,-3.6363636363636367 -3.6363636363636362 -3.6363636363636367c -2.0083081812028856,-1.2297340929057781e-16 -3.6363636363636367,1.6280554551607507 -3.6363636363636367 3.636363636363636c -2.4594681858115563e-16,2.0083081812028856 1.6280554551607507,3.6363636363636367 3.6363636363636354 3.6363636363636367c 2.0083081812028856,3.689202278717335e-16 3.6363636363636367,-1.6280554551607502 3.636363636363638 -3.636363636363636Z"/></g></g></svg>