<?xml version="1.0" encoding="UTF-8"?>
<!DOCTYPE svg PUBLIC "-//W3C//DTD SVG 1.1//EN"
    "http://www.w3.org/Graphics/SVG/1.1/DTD/svg11.dtd">
<svg xmlns="http://www.w3.org/2000/svg" xmlns:xlink="http://www.w3.org/1999/xlink" version="1.1" width="300.0" height="271.2911579538083" font-size="1" viewBox="0 0 300 271"><g><g transform="matrix(19.48051948051948,0.0,0.0,19.48051948051948,150.0,135.64557897690415)"><g stroke="rgb(0,128,0)" stroke-opacity="1.0" fill="rgb(0,0,0)" fill-opacity="0.0" stroke-width="0.2" stroke-linecap="butt" stroke-linejoin="miter" font-size="1.0em" stroke-miterlimit="10.0"><path d="M 4.2320508075688785,5.330127018922192 l 2.499999999999999,-4.330127018922194 c 0.3572655899081635,-0.6188021535170062 0.3572655899081635,-1.3811978464829942 -6.661338147750939e-16 -2.0l -2.5,-4.330127018922193 c -0.35726558990816343,-0.6188021535170056 -1.0175196277525498,-0.9999999999999996 -1.7320508075688767 -0.9999999999999994l -5.0,-4.440892098500626e-16 c -0.7145311798163272,-4.375241611265235e-17 -1.374785217660714,0.3811978464829938 -1.7320508075688772 1.0000000000000002l -2.4999999999999996,4.330127018922194 c -0.3572655899081636,0.6188021535170056 -0.357265589908164,1.3811978464829933 -7.771561172376096e-16 1.9999999999999996l 2.4999999999999982,4.330127018922194 c 0.3572655899081636,0.6188021535170068 1.017519627752551,1.0000000000000016 1.732050807568879 1.0000000000000009l 5.000000000000002,-1.7763568394002505e-15 c 0.714531179816327,-2.0241020964158517e-16 1.3747852176607134,-0.3811978464829941 1.732050807568877 -1.0h -0.0 Z" /></g></g><g transform="matrix(19.48051948051948,0.0,0.0,19.48051948051948,150.0,135.64557897690415)"><g stroke="rgb(0,0,255)" stroke-opacity="1.0" fill="rgb(0,0,0)" fill-opacity="0.0" stroke-width="0.2" stroke-linecap="butt" stroke-linejoin="miter" font-size="1.0em" stroke-miterlimit="10.0"><path d="M 2.5000000000000004,4.330127018922192 l 2.499999999999999,-4.330127018922194 l -2.5,-4.330127018922193 l -5.0,-4.440892098500626e-16 l -2.4999999999999996,4.330127018922194 l 2.4999999999999982,4.330127018922194 l 5.000000000000002,-1.7763568394002505e-15 Z" /></g></g></g></svg>