<?xml version="1.0" encoding="UTF-8"?>
<!DOCTYPE svg PUBLIC "-//W3C//DTD SVG 1.1//EN"
    "http://www.w3.org/Graphics/SVG/1.1/DTD/svg11.dtd"><svg xmlns="http://www.w3.org/2000/svg" height="76.19047619047622" stroke-opacity="1" viewBox="0 0 400 76" font-size="1" width="400.0" xmlns:xlink="http://www.w3.org/1999/xlink" stroke="rgb(0,0,0)" version="1.1"><g><defs></defs><g stroke-linejoin="miter" stroke-opacity="1.0" fill-opacity="0.0" stroke="rgb(0,0,0)" stroke-width="0.6982972487551757" fill="rgb(0,0,0)" stroke-linecap="butt" stroke-miterlimit="10.0"><path d="M 381.81818181818187,55.41125541125544 v -17.31601731601732 c -19.126744582884626,-3.0758151178316683e-15 -34.63203463203464,-15.505290049150018 -34.63203463203464 -34.63203463203464h -51.94805194805195 c -19.126744582884626,-1.1711753265769319e-15 -34.63203463203464,15.505290049150009 -34.63203463203464 34.63203463203463v 34.63203463203464 h 103.89610389610392 c 9.563372291442313,1.5379075589158342e-15 17.31601731601732,-7.752645024575003 17.316017316017295 -17.31601731601731Z"/></g><defs></defs><g stroke-linejoin="miter" stroke-opacity="1.0" fill-opacity="0.0" stroke="rgb(0,0,0)" stroke-width="0.6982972487551757" fill="rgb(0,0,0)" stroke-linecap="butt" stroke-miterlimit="10.0"><path d="M 225.97402597402595,55.41125541125544 v -34.632034632034646 c -9.563372291442313,-1.5379075589158342e-15 -17.31601731601732,-7.752645024575009 -17.31601731601732 -17.31601731601732h -51.94805194805196 c -2.3423506531538637e-15,9.563372291442313 -7.752645024575009,17.31601731601732 -17.31601731601732 17.316017316017316v 34.63203463203464 c 9.563372291442313,2.709082885492766e-15 17.31601731601732,7.75264502457501 17.316017316017316 17.31601731601732h 51.94805194805197 c 5.418165770985532e-15,-9.563372291442313 7.752645024575015,-17.316017316017316 17.31601731601731 -17.3160173160173Z"/></g><defs></defs><g stroke-linejoin="miter" stroke-opacity="1.0" fill-opacity="0.0" stroke="rgb(0,0,0)" stroke-width="0.6982972487551757" fill="rgb(0,0,0)" stroke-linecap="butt" stroke-miterlimit="10.0"><path d="M 104.76190476190474,55.41125541125544 v -34.632034632034646 c 0.0,-9.563372291442313 -7.752645024575005,-17.31601731601732 -17.316017316017316 -17.31601731601732h -51.94805194805196 c -9.563372291442313,-5.855876632884659e-16 -17.31601731601732,7.7526450245750045 -17.31601731601732 17.316017316017316v 34.63203463203464 c -1.1711753265769319e-15,9.563372291442313 7.7526450245750045,17.31601731601732 17.316017316017316 17.316017316017327h 51.94805194805197 c 9.563372291442313,1.5379075589158342e-15 17.31601731601732,-7.752645024575003 17.31601731601731 -17.316017316017316Z"/></g></g></svg>