<?xml version="1.0" encoding="UTF-8"?>
<!DOCTYPE svg PUBLIC "-//W3C//DTD SVG 1.1//EN"
    "http://www.w3.org/Graphics/SVG/1.1/DTD/svg11.dtd"><svg xmlns="http://www.w3.org/2000/svg" height="191.60937134592436" stroke-opacity="1" viewBox="0 0 500 192" font-size="1" width="500.0" xmlns:xlink="http://www.w3.org/1999/xlink" stroke="rgb(0,0,0)" version="1.1"><g><defs></defs><g stroke-linejoin="miter" stroke-opacity="1.0" fill-opacity="0.0" stroke="rgb(0,0,0)" stroke-width="1.238093280317519" fill="rgb(0,0,0)" stroke-linecap="butt" stroke-miterlimit="10.0"><path d="M 92.8160519668354,95.80468567296218 l 2.8920113555485896e-15,47.23012965962301 "/></g><defs></defs><g stroke-linejoin="miter" stroke-opacity="1.0" fill-opacity="1.0" stroke="rgb(0,0,0)" stroke-width="0.0" fill="rgb(0,0,0)" stroke-linecap="butt" stroke-miterlimit="10.0"></g><defs></defs><g stroke-linejoin="miter" stroke-opacity="1.0" fill-opacity="1.0" stroke="rgb(0,0,0)" stroke-width="0.0" fill="rgb(0,0,0)" stroke-linecap="butt" stroke-miterlimit="10.0"></g><defs></defs><g stroke-linejoin="miter" stroke-opacity="1.0" fill-opacity="1.0" stroke="rgb(0,0,0)" stroke-width="0.0" fill="rgb(0,0,0)" stroke-linecap="butt" stroke-miterlimit="10.0"><path d="M 92.8160519668354,153.8681315353635 l 4.117578376862937,-12.672603183499865 l -4.117578376862938,2.164739059305849 l -4.117578376862938,-2.164739059305848 Z"/></g><defs></defs><g stroke-linejoin="miter" stroke-opacity="1.0" fill-opacity="1.0" stroke="rgb(0,0,0)" stroke-width="0.0" fill="rgb(0,0,0)" stroke-linecap="butt" stroke-miterlimit="10.0"><path d="M 92.8160519668354,143.36026741116947 l -1.9928192315704405e-17,-0.3254520785842773 l 0.6190466401587595,-3.790567431966741e-17 l -0.6190466401587595,0.3254520785842774 l -1.9928192315704405e-17,-0.3254520785842773 l -0.6190466401587595,3.790567431966741e-17 Z"/></g><defs></defs><g stroke-linejoin="miter" stroke-opacity="1.0" fill-opacity="0.0" stroke="rgb(169,169,169)" stroke-width="6.190466401587595" fill="rgb(0,0,0)" stroke-linecap="butt" stroke-miterlimit="10.0"><path d="M 477.2727272727272,124.83640860416281 l -1.2892674897102844e-14,-58.063445862401316 l -41.05705630836196,-41.05705630836195 l -58.063445862401316,9.337314240960074e-15 l -41.05705630836195,41.05705630836196 l 5.781953584817304e-15,58.063445862401316 l 41.05705630836196,41.05705630836196 l 58.063445862401316,-2.2265929286745346e-15 Z"/></g><defs></defs><g stroke-linejoin="miter" stroke-opacity="1.0" fill-opacity="1.0" stroke="rgb(0,0,0)" stroke-width="0.0" fill="rgb(255,0,0)" stroke-linecap="butt" stroke-miterlimit="10.0"><path d="M 409.98749920274713,95.80468567296218 c 0.0,-1.5483585563307023 -1.2551926132518025,-2.803551169582505 -2.803551169582504 -2.803551169582505c -1.5483585563307023,-9.480961749714055e-17 -2.803551169582505,1.2551926132518023 -2.803551169582505 2.803551169582504c -1.896192349942811e-16,1.5483585563307023 1.255192613251802,2.803551169582505 2.8035511695825037 2.803551169582505c 1.5483585563307023,2.844288524914217e-16 2.803551169582505,-1.255192613251802 2.8035511695825055 -2.803551169582504Z"/></g><defs></defs><g stroke-linejoin="miter" stroke-opacity="1.0" fill-opacity="0.0" stroke="rgb(169,169,169)" stroke-width="6.190466401587595" fill="rgb(0,0,0)" stroke-linecap="butt" stroke-miterlimit="10.0"><path d="M 162.904831206398,124.83640860416281 l -1.2892674897102844e-14,-58.063445862401316 l -41.05705630836196,-41.05705630836195 l -58.063445862401316,9.337314240960074e-15 l -41.05705630836195,41.05705630836196 l 5.781953584817304e-15,58.063445862401316 l 41.05705630836196,41.05705630836196 l 58.063445862401316,-2.2265929286745346e-15 Z"/></g><defs></defs><g stroke-linejoin="miter" stroke-opacity="1.0" fill-opacity="1.0" stroke="rgb(0,0,0)" stroke-width="0.0" fill="rgb(255,0,0)" stroke-linecap="butt" stroke-miterlimit="10.0"><path d="M 95.61960313641791,95.80468567296218 c 0.0,-1.5483585563307023 -1.2551926132518025,-2.803551169582505 -2.803551169582504 -2.803551169582505c -1.5483585563307023,-9.480961749714055e-17 -2.803551169582505,1.2551926132518023 -2.803551169582505 2.803551169582504c -1.896192349942811e-16,1.5483585563307023 1.255192613251802,2.803551169582505 2.8035511695825037 2.803551169582505c 1.5483585563307023,2.844288524914217e-16 2.803551169582505,-1.255192613251802 2.8035511695825055 -2.803551169582504Z"/></g><defs></defs><g stroke-linejoin="miter" stroke-opacity="1.0" fill-opacity="0.0" stroke="rgb(0,0,0)" stroke-width="1.238093280317519" fill="rgb(0,0,0)" stroke-linecap="butt" stroke-miterlimit="10.0"><path d="M 92.8160519668354,95.80468567296218 h 292.70126366077255 "/></g><defs></defs><g stroke-linejoin="miter" stroke-opacity="1.0" fill-opacity="1.0" stroke="rgb(0,0,0)" stroke-width="0.0" fill="rgb(0,0,0)" stroke-linecap="butt" stroke-miterlimit="10.0"></g><defs></defs><g stroke-linejoin="miter" stroke-opacity="1.0" fill-opacity="1.0" stroke="rgb(0,0,0)" stroke-width="0.0" fill="rgb(0,0,0)" stroke-linecap="butt" stroke-miterlimit="10.0"></g><defs></defs><g stroke-linejoin="miter" stroke-opacity="1.0" fill-opacity="1.0" stroke="rgb(0,0,0)" stroke-width="0.0" fill="rgb(0,0,0)" stroke-linecap="butt" stroke-miterlimit="10.0"><path d="M 407.1839480331646,95.80468567296218 l -25.737705261008802,-8.362687375139057 l 4.396524934036492,8.362687375139057 l -4.396524934036492,8.362687375139057 Z"/></g><defs></defs><g stroke-linejoin="miter" stroke-opacity="1.0" fill-opacity="1.0" stroke="rgb(0,0,0)" stroke-width="0.0" fill="rgb(0,0,0)" stroke-linecap="butt" stroke-miterlimit="10.0"><path d="M 385.84276770619226,95.80468567296218 h -0.3254520785842773 v -0.6190466401587595 l 0.3254520785842773,0.6190466401587595 h -0.3254520785842773 v 0.6190466401587595 Z"/></g><defs></defs><g stroke-linejoin="miter" stroke-opacity="1.0" fill-opacity="0.0" stroke="rgb(0,0,0)" stroke-width="1.238093280317519" fill="rgb(0,0,0)" stroke-linecap="butt" stroke-miterlimit="10.0"><path d="M 162.90483120639803,124.8364086041629 l 152.52370518164733,-4.977296088827186e-14 "/></g><defs></defs><g stroke-linejoin="miter" stroke-opacity="1.0" fill-opacity="1.0" stroke="rgb(0,0,0)" stroke-width="0.0" fill="rgb(0,0,0)" stroke-linecap="butt" stroke-miterlimit="10.0"></g><defs></defs><g stroke-linejoin="miter" stroke-opacity="1.0" fill-opacity="1.0" stroke="rgb(0,0,0)" stroke-width="0.0" fill="rgb(0,0,0)" stroke-linecap="butt" stroke-miterlimit="10.0"></g><defs></defs><g stroke-linejoin="miter" stroke-opacity="1.0" fill-opacity="1.0" stroke="rgb(0,0,0)" stroke-width="0.0" fill="rgb(0,0,0)" stroke-linecap="butt" stroke-miterlimit="10.0"><path d="M 337.09516879360194,124.83640860416284 l -25.737705261008806,-8.36268737513905 l 4.396524934036495,8.362687375139055 l -4.396524934036489,8.362687375139059 Z"/></g><defs></defs><g stroke-linejoin="miter" stroke-opacity="1.0" fill-opacity="1.0" stroke="rgb(0,0,0)" stroke-width="0.0" fill="rgb(0,0,0)" stroke-linecap="butt" stroke-miterlimit="10.0"><path d="M 315.7539884666296,124.83640860416284 l -0.3254520785842773,1.062045638026577e-16 l -2.0201308492960426e-16,-0.6190466401587595 l 0.3254520785842775,0.6190466401587594 l -0.3254520785842773,1.062045638026577e-16 l 2.0201308492960426e-16,0.6190466401587595 Z"/></g></g></svg>