<?xml version="1.0" encoding="UTF-8"?>
<!DOCTYPE svg PUBLIC "-//W3C//DTD SVG 1.1//EN"
    "http://www.w3.org/Graphics/SVG/1.1/DTD/svg11.dtd">
<svg xmlns="http://www.w3.org/2000/svg" xmlns:xlink="http://www.w3.org/1999/xlink" version="1.1" width="400.0" height="178.54130895779457" font-size="1" viewBox="0 0 400 179" stroke="rgb(0,0,0)" stroke-opacity="1"><g><g fill="rgb(0,0,0)" fill-opacity="0.0"><g stroke="rgb(0,0,0)" stroke-opacity="1.0" stroke-width="1.0689548060277785" stroke-linecap="butt" stroke-linejoin="miter" font-size="1.0em" stroke-miterlimit="10.0"><g fill="rgb(0,0,255)" fill-opacity="1.0"><g fill="rgb(0,0,255)" fill-opacity="1.0"><g fill="rgb(0,0,255)" fill-opacity="1.0"><g><g fill="rgb(0,0,255)" fill-opacity="1.0"><g fill="rgb(0,0,255)" fill-opacity="1.0"><path d="M 364.6026155171688,49.10118238914234 l 17.215566301012974,-17.21556630101297 c -31.692982425834614,-31.692982425834618 -83.0774595809185,-31.692982425834632 -114.77044200675311 -1.8020020547460663e-14c -31.692982425834618,31.692982425834614 -31.692982425834632,83.0774595809185 -2.7030030821190994e-14 114.77044200675311c 31.69298242583461,31.69298242583462 83.07745958091849,31.692982425834636 114.77044200675309 3.6040041094921325e-14l -17.215566301012966,-17.215566301012974 c -22.185087698084224,22.185087698084217 -58.154221706642936,22.18508769808421 -80.33930940472716 -2.5228028766444926e-14c -22.185087698084224,-22.185087698084224 -22.185087698084214,-58.15422170664295 1.8921021574833692e-14 -80.33930940472717c 22.185087698084224,-22.185087698084228 58.15422170664295,-22.185087698084217 80.3393094047272 1.4210854715202004e-14Z" /></g></g></g><g fill="rgb(0,0,255)" fill-opacity="1.0"><g><g fill="rgb(0,0,255)" fill-opacity="1.0"><g fill="rgb(0,0,255)" fill-opacity="1.0"><path d="M 196.76242196124196,65.05772234978109 l 5.938102119434486,-56.49726773069128 c -22.87402851921224,-2.4041572749570763 -45.693919553281,5.0104747879005584 -62.78626916472949 20.400495504601384l 38.01228629587615,42.21692087747031 c 5.127704883434549,-4.617006215010248 11.973672193655174,-6.841395833867538 18.83588074941885 -6.120148651380411Z" /></g></g></g><g fill="rgb(0,0,255)" fill-opacity="1.0"><path d="M 58.75929709319445,89.27083709150592 h 40.57747891137626 c 0.0,-44.820645578667474 -36.33431224408504,-81.15495782275252 -81.15495782275251 -81.15495782275252l -2.4846539833143083e-15,40.57747891137626 c 22.41032278933373,0.0 40.577478911376254,18.167156122042524 40.57747891137625 40.57747891137626Z" /></g></g></g></g></g></g></g></g></svg>