<?xml version="1.0" encoding="UTF-8"?>
<!DOCTYPE svg PUBLIC "-//W3C//DTD SVG 1.1//EN"
    "http://www.w3.org/Graphics/SVG/1.1/DTD/svg11.dtd">
<svg xmlns="http://www.w3.org/2000/svg" xmlns:xlink="http://www.w3.org/1999/xlink" version="1.1" width="204.25531914893568" height="300.0" font-size="1" viewBox="0 0 204 300" stroke="rgb(0,0,0)" stroke-opacity="1"><g><g fill="rgb(0,0,0)" fill-opacity="0.0"><g stroke="rgb(0,0,0)" stroke-opacity="1.0" stroke-width="0.9901643964084406" stroke-linecap="butt" stroke-linejoin="miter" font-size="1.0em" stroke-miterlimit="10.0"><g fill="rgb(0,0,0)" fill-opacity="1.0"><g fill="rgb(0,0,0)" fill-opacity="1.0"><g fill="rgb(0,0,0)" fill-opacity="1.0"><path d="M 204.25531914893565,6.3829787234042215 c 0.0,-3.525221807430585 -2.857756915973649,-6.382978723404235 -6.382978723404233 -6.382978723404235c -3.525221807430585,-2.1585758013771565e-16 -6.382978723404235,2.8577569159736487 -6.382978723404235 6.382978723404233c -4.317151602754313e-16,3.525221807430585 2.8577569159736482,6.382978723404235 6.382978723404232 6.382978723404235c 3.525221807430585,6.47572740413147e-16 6.382978723404235,-2.857756915973648 6.382978723404236 -6.382978723404233Z" /></g></g></g><g fill="rgb(0,0,0)" fill-opacity="1.0"><g fill="rgb(0,0,0)" fill-opacity="1.0"><g fill="rgb(0,0,0)" fill-opacity="1.0"><path d="M 197.87234042553143,43.40425531914886 c 0.0,-3.525221807430585 -2.857756915973649,-6.382978723404235 -6.382978723404233 -6.382978723404235c -3.525221807430585,-2.1585758013771565e-16 -6.382978723404235,2.8577569159736487 -6.382978723404235 6.382978723404233c -4.317151602754313e-16,3.525221807430585 2.8577569159736482,6.382978723404235 6.382978723404232 6.382978723404235c 3.525221807430585,6.47572740413147e-16 6.382978723404235,-2.857756915973648 6.382978723404236 -6.382978723404233Z" /></g></g></g><g fill="rgb(0,0,0)" fill-opacity="1.0"><g fill="rgb(0,0,0)" fill-opacity="1.0"><g fill="rgb(0,0,0)" fill-opacity="1.0"><path d="M 191.48936170212718,77.87234042553186 c 0.0,-3.525221807430585 -2.857756915973649,-6.382978723404235 -6.382978723404233 -6.382978723404235c -3.525221807430585,-2.1585758013771565e-16 -6.382978723404235,2.8577569159736487 -6.382978723404235 6.382978723404233c -4.317151602754313e-16,3.525221807430585 2.8577569159736482,6.382978723404235 6.382978723404232 6.382978723404235c 3.525221807430585,6.47572740413147e-16 6.382978723404235,-2.857756915973648 6.382978723404236 -6.382978723404233Z" /></g></g></g><g fill="rgb(0,0,0)" fill-opacity="1.0"><g fill="rgb(0,0,0)" fill-opacity="1.0"><g fill="rgb(0,0,0)" fill-opacity="1.0"><path d="M 185.10638297872293,109.78723404255311 c 0.0,-3.525221807430585 -2.857756915973649,-6.382978723404235 -6.382978723404233 -6.382978723404235c -3.525221807430585,-2.1585758013771565e-16 -6.382978723404235,2.8577569159736487 -6.382978723404235 6.382978723404233c -4.317151602754313e-16,3.525221807430585 2.8577569159736482,6.382978723404235 6.382978723404232 6.382978723404235c 3.525221807430585,6.47572740413147e-16 6.382978723404235,-2.857756915973648 6.382978723404236 -6.382978723404233Z" /></g></g></g><g fill="rgb(0,0,0)" fill-opacity="1.0"><g fill="rgb(0,0,0)" fill-opacity="1.0"><g fill="rgb(0,0,0)" fill-opacity="1.0"><path d="M 178.7234042553187,139.14893617021266 c 0.0,-3.525221807430585 -2.857756915973649,-6.382978723404235 -6.382978723404233 -6.382978723404235c -3.525221807430585,-2.1585758013771565e-16 -6.382978723404235,2.8577569159736487 -6.382978723404235 6.382978723404233c -4.317151602754313e-16,3.525221807430585 2.8577569159736482,6.382978723404235 6.382978723404232 6.382978723404235c 3.525221807430585,6.47572740413147e-16 6.382978723404235,-2.857756915973648 6.382978723404236 -6.382978723404233Z" /></g></g></g><g fill="rgb(0,0,0)" fill-opacity="1.0"><g fill="rgb(0,0,0)" fill-opacity="1.0"><g fill="rgb(0,0,0)" fill-opacity="1.0"><path d="M 172.34042553191446,165.95744680851053 c 0.0,-3.525221807430585 -2.857756915973649,-6.382978723404235 -6.382978723404233 -6.382978723404235c -3.525221807430585,-2.1585758013771565e-16 -6.382978723404235,2.8577569159736487 -6.382978723404235 6.382978723404233c -4.317151602754313e-16,3.525221807430585 2.8577569159736482,6.382978723404235 6.382978723404232 6.382978723404235c 3.525221807430585,6.47572740413147e-16 6.382978723404235,-2.857756915973648 6.382978723404236 -6.382978723404233Z" /></g></g></g><g fill="rgb(0,0,0)" fill-opacity="1.0"><g fill="rgb(0,0,0)" fill-opacity="1.0"><g fill="rgb(0,0,0)" fill-opacity="1.0"><path d="M 165.9574468085102,190.2127659574467 c 0.0,-3.525221807430585 -2.857756915973649,-6.382978723404235 -6.382978723404233 -6.382978723404235c -3.525221807430585,-2.1585758013771565e-16 -6.382978723404235,2.8577569159736487 -6.382978723404235 6.382978723404233c -4.317151602754313e-16,3.525221807430585 2.8577569159736482,6.382978723404235 6.382978723404232 6.382978723404235c 3.525221807430585,6.47572740413147e-16 6.382978723404235,-2.857756915973648 6.382978723404236 -6.382978723404233Z" /></g></g></g><g fill="rgb(0,0,0)" fill-opacity="1.0"><g fill="rgb(0,0,0)" fill-opacity="1.0"><g fill="rgb(0,0,0)" fill-opacity="1.0"><path d="M 159.574468085106,211.91489361702116 c 0.0,-3.525221807430585 -2.857756915973649,-6.382978723404235 -6.382978723404233 -6.382978723404235c -3.525221807430585,-2.1585758013771565e-16 -6.382978723404235,2.8577569159736487 -6.382978723404235 6.382978723404233c -4.317151602754313e-16,3.525221807430585 2.8577569159736482,6.382978723404235 6.382978723404232 6.382978723404235c 3.525221807430585,6.47572740413147e-16 6.382978723404235,-2.857756915973648 6.382978723404236 -6.382978723404233Z" /></g></g></g><g fill="rgb(0,0,0)" fill-opacity="1.0"><g fill="rgb(0,0,0)" fill-opacity="1.0"><g fill="rgb(0,0,0)" fill-opacity="1.0"><path d="M 153.19148936170174,231.06382978723394 c 0.0,-3.525221807430585 -2.857756915973649,-6.382978723404235 -6.382978723404233 -6.382978723404235c -3.525221807430585,-2.1585758013771565e-16 -6.382978723404235,2.8577569159736487 -6.382978723404235 6.382978723404233c -4.317151602754313e-16,3.525221807430585 2.8577569159736482,6.382978723404235 6.382978723404232 6.382978723404235c 3.525221807430585,6.47572740413147e-16 6.382978723404235,-2.857756915973648 6.382978723404236 -6.382978723404233Z" /></g></g></g><g fill="rgb(0,0,0)" fill-opacity="1.0"><g fill="rgb(0,0,0)" fill-opacity="1.0"><g fill="rgb(0,0,0)" fill-opacity="1.0"><path d="M 146.8085106382975,247.659574468085 c 0.0,-3.525221807430585 -2.857756915973649,-6.382978723404235 -6.382978723404233 -6.382978723404235c -3.525221807430585,-2.1585758013771565e-16 -6.382978723404235,2.8577569159736487 -6.382978723404235 6.382978723404233c -4.317151602754313e-16,3.525221807430585 2.8577569159736482,6.382978723404235 6.382978723404232 6.382978723404235c 3.525221807430585,6.47572740413147e-16 6.382978723404235,-2.857756915973648 6.382978723404236 -6.382978723404233Z" /></g></g></g><g fill="rgb(0,0,0)" fill-opacity="1.0"><g fill="rgb(0,0,0)" fill-opacity="1.0"><g fill="rgb(0,0,0)" fill-opacity="1.0"><path d="M 140.42553191489327,261.7021276595744 c 0.0,-3.525221807430585 -2.857756915973649,-6.382978723404235 -6.382978723404233 -6.382978723404235c -3.525221807430585,-2.1585758013771565e-16 -6.382978723404235,2.8577569159736487 -6.382978723404235 6.382978723404233c -4.317151602754313e-16,3.525221807430585 2.8577569159736482,6.382978723404235 6.382978723404232 6.382978723404235c 3.525221807430585,6.47572740413147e-16 6.382978723404235,-2.857756915973648 6.382978723404236 -6.382978723404233Z" /></g></g></g><g fill="rgb(0,0,0)" fill-opacity="1.0"><g fill="rgb(0,0,0)" fill-opacity="1.0"><g fill="rgb(0,0,0)" fill-opacity="1.0"><path d="M 134.04255319148902,273.19148936170205 c 0.0,-3.525221807430585 -2.857756915973649,-6.382978723404235 -6.382978723404233 -6.382978723404235c -3.525221807430585,-2.1585758013771565e-16 -6.382978723404235,2.8577569159736487 -6.382978723404235 6.382978723404233c -4.317151602754313e-16,3.525221807430585 2.8577569159736482,6.382978723404235 6.382978723404232 6.382978723404235c 3.525221807430585,6.47572740413147e-16 6.382978723404235,-2.857756915973648 6.382978723404236 -6.382978723404233Z" /></g></g></g><g fill="rgb(0,0,0)" fill-opacity="1.0"><g fill="rgb(0,0,0)" fill-opacity="1.0"><g fill="rgb(0,0,0)" fill-opacity="1.0"><path d="M 127.6595744680848,282.12765957446805 c 0.0,-3.525221807430585 -2.857756915973649,-6.382978723404235 -6.382978723404233 -6.382978723404235c -3.525221807430585,-2.1585758013771565e-16 -6.382978723404235,2.8577569159736487 -6.382978723404235 6.382978723404233c -4.317151602754313e-16,3.525221807430585 2.8577569159736482,6.382978723404235 6.382978723404232 6.382978723404235c 3.525221807430585,6.47572740413147e-16 6.382978723404235,-2.857756915973648 6.382978723404236 -6.382978723404233Z" /></g></g></g><g fill="rgb(0,0,0)" fill-opacity="1.0"><g fill="rgb(0,0,0)" fill-opacity="1.0"><g fill="rgb(0,0,0)" fill-opacity="1.0"><path d="M 121.27659574468056,288.51063829787233 c 0.0,-3.525221807430585 -2.857756915973649,-6.382978723404235 -6.382978723404233 -6.382978723404235c -3.525221807430585,-2.1585758013771565e-16 -6.382978723404235,2.8577569159736487 -6.382978723404235 6.382978723404233c -4.317151602754313e-16,3.525221807430585 2.8577569159736482,6.382978723404235 6.382978723404232 6.382978723404235c 3.525221807430585,6.47572740413147e-16 6.382978723404235,-2.857756915973648 6.382978723404236 -6.382978723404233Z" /></g></g></g><g fill="rgb(0,0,0)" fill-opacity="1.0"><g fill="rgb(0,0,0)" fill-opacity="1.0"><g fill="rgb(0,0,0)" fill-opacity="1.0"><path d="M 114.89361702127631,292.3404255319149 c 0.0,-3.525221807430585 -2.857756915973649,-6.382978723404235 -6.382978723404233 -6.382978723404235c -3.525221807430585,-2.1585758013771565e-16 -6.382978723404235,2.8577569159736487 -6.382978723404235 6.382978723404233c -4.317151602754313e-16,3.525221807430585 2.8577569159736482,6.382978723404235 6.382978723404232 6.382978723404235c 3.525221807430585,6.47572740413147e-16 6.382978723404235,-2.857756915973648 6.382978723404236 -6.382978723404233Z" /></g></g></g><g fill="rgb(0,0,0)" fill-opacity="1.0"><g fill="rgb(0,0,0)" fill-opacity="1.0"><g fill="rgb(0,0,0)" fill-opacity="1.0"><path d="M 108.51063829787208,293.6170212765958 c 0.0,-3.525221807430585 -2.857756915973649,-6.382978723404235 -6.382978723404233 -6.382978723404235c -3.525221807430585,-2.1585758013771565e-16 -6.382978723404235,2.8577569159736487 -6.382978723404235 6.382978723404233c -4.317151602754313e-16,3.525221807430585 2.8577569159736482,6.382978723404235 6.382978723404232 6.382978723404235c 3.525221807430585,6.47572740413147e-16 6.382978723404235,-2.857756915973648 6.382978723404236 -6.382978723404233Z" /></g></g></g><g fill="rgb(0,0,0)" fill-opacity="1.0"><g fill="rgb(0,0,0)" fill-opacity="1.0"><g fill="rgb(0,0,0)" fill-opacity="1.0"><path d="M 102.12765957446784,292.34042553191495 c 0.0,-3.525221807430585 -2.857756915973649,-6.382978723404235 -6.382978723404233 -6.382978723404235c -3.525221807430585,-2.1585758013771565e-16 -6.382978723404235,2.8577569159736487 -6.382978723404235 6.382978723404233c -4.317151602754313e-16,3.525221807430585 2.8577569159736482,6.382978723404235 6.382978723404232 6.382978723404235c 3.525221807430585,6.47572740413147e-16 6.382978723404235,-2.857756915973648 6.382978723404236 -6.382978723404233Z" /></g></g></g><g fill="rgb(0,0,0)" fill-opacity="1.0"><g fill="rgb(0,0,0)" fill-opacity="1.0"><g fill="rgb(0,0,0)" fill-opacity="1.0"><path d="M 95.74468085106359,288.51063829787245 c 0.0,-3.525221807430585 -2.857756915973649,-6.382978723404235 -6.382978723404233 -6.382978723404235c -3.525221807430585,-2.1585758013771565e-16 -6.382978723404235,2.8577569159736487 -6.382978723404235 6.382978723404233c -4.317151602754313e-16,3.525221807430585 2.8577569159736482,6.382978723404235 6.382978723404232 6.382978723404235c 3.525221807430585,6.47572740413147e-16 6.382978723404235,-2.857756915973648 6.382978723404236 -6.382978723404233Z" /></g></g></g><g fill="rgb(0,0,0)" fill-opacity="1.0"><g fill="rgb(0,0,0)" fill-opacity="1.0"><g fill="rgb(0,0,0)" fill-opacity="1.0"><path d="M 89.36170212765936,282.1276595744682 c 0.0,-3.525221807430585 -2.857756915973649,-6.382978723404235 -6.382978723404233 -6.382978723404235c -3.525221807430585,-2.1585758013771565e-16 -6.382978723404235,2.8577569159736487 -6.382978723404235 6.382978723404233c -4.317151602754313e-16,3.525221807430585 2.8577569159736482,6.382978723404235 6.382978723404232 6.382978723404235c 3.525221807430585,6.47572740413147e-16 6.382978723404235,-2.857756915973648 6.382978723404236 -6.382978723404233Z" /></g></g></g><g fill="rgb(0,0,0)" fill-opacity="1.0"><g fill="rgb(0,0,0)" fill-opacity="1.0"><g fill="rgb(0,0,0)" fill-opacity="1.0"><path d="M 82.97872340425512,273.19148936170234 c 0.0,-3.525221807430585 -2.857756915973649,-6.382978723404235 -6.382978723404233 -6.382978723404235c -3.525221807430585,-2.1585758013771565e-16 -6.382978723404235,2.8577569159736487 -6.382978723404235 6.382978723404233c -4.317151602754313e-16,3.525221807430585 2.8577569159736482,6.382978723404235 6.382978723404232 6.382978723404235c 3.525221807430585,6.47572740413147e-16 6.382978723404235,-2.857756915973648 6.382978723404236 -6.382978723404233Z" /></g></g></g><g fill="rgb(0,0,0)" fill-opacity="1.0"><g fill="rgb(0,0,0)" fill-opacity="1.0"><g fill="rgb(0,0,0)" fill-opacity="1.0"><path d="M 76.59574468085087,261.7021276595747 c 0.0,-3.525221807430585 -2.857756915973649,-6.382978723404235 -6.382978723404233 -6.382978723404235c -3.525221807430585,-2.1585758013771565e-16 -6.382978723404235,2.8577569159736487 -6.382978723404235 6.382978723404233c -4.317151602754313e-16,3.525221807430585 2.8577569159736482,6.382978723404235 6.382978723404232 6.382978723404235c 3.525221807430585,6.47572740413147e-16 6.382978723404235,-2.857756915973648 6.382978723404236 -6.382978723404233Z" /></g></g></g><g fill="rgb(0,0,0)" fill-opacity="1.0"><g fill="rgb(0,0,0)" fill-opacity="1.0"><g fill="rgb(0,0,0)" fill-opacity="1.0"><path d="M 70.21276595744663,247.65957446808542 c 0.0,-3.525221807430585 -2.857756915973649,-6.382978723404235 -6.382978723404233 -6.382978723404235c -3.525221807430585,-2.1585758013771565e-16 -6.382978723404235,2.8577569159736487 -6.382978723404235 6.382978723404233c -4.317151602754313e-16,3.525221807430585 2.8577569159736482,6.382978723404235 6.382978723404232 6.382978723404235c 3.525221807430585,6.47572740413147e-16 6.382978723404235,-2.857756915973648 6.382978723404236 -6.382978723404233Z" /></g></g></g><g fill="rgb(0,0,0)" fill-opacity="1.0"><g fill="rgb(0,0,0)" fill-opacity="1.0"><g fill="rgb(0,0,0)" fill-opacity="1.0"><path d="M 63.8297872340424,231.0638297872344 c 0.0,-3.525221807430585 -2.857756915973649,-6.382978723404235 -6.382978723404233 -6.382978723404235c -3.525221807430585,-2.1585758013771565e-16 -6.382978723404235,2.8577569159736487 -6.382978723404235 6.382978723404233c -4.317151602754313e-16,3.525221807430585 2.8577569159736482,6.382978723404235 6.382978723404232 6.382978723404235c 3.525221807430585,6.47572740413147e-16 6.382978723404235,-2.857756915973648 6.382978723404236 -6.382978723404233Z" /></g></g></g><g fill="rgb(0,0,0)" fill-opacity="1.0"><g fill="rgb(0,0,0)" fill-opacity="1.0"><g fill="rgb(0,0,0)" fill-opacity="1.0"><path d="M 57.44680851063816,211.9148936170217 c 0.0,-3.525221807430585 -2.857756915973649,-6.382978723404235 -6.382978723404233 -6.382978723404235c -3.525221807430585,-2.1585758013771565e-16 -6.382978723404235,2.8577569159736487 -6.382978723404235 6.382978723404233c -4.317151602754313e-16,3.525221807430585 2.8577569159736482,6.382978723404235 6.382978723404232 6.382978723404235c 3.525221807430585,6.47572740413147e-16 6.382978723404235,-2.857756915973648 6.382978723404236 -6.382978723404233Z" /></g></g></g><g fill="rgb(0,0,0)" fill-opacity="1.0"><g fill="rgb(0,0,0)" fill-opacity="1.0"><g fill="rgb(0,0,0)" fill-opacity="1.0"><path d="M 51.06382978723392,190.2127659574473 c 0.0,-3.525221807430585 -2.857756915973649,-6.382978723404235 -6.382978723404233 -6.382978723404235c -3.525221807430585,-2.1585758013771565e-16 -6.382978723404235,2.8577569159736487 -6.382978723404235 6.382978723404233c -4.317151602754313e-16,3.525221807430585 2.8577569159736482,6.382978723404235 6.382978723404232 6.382978723404235c 3.525221807430585,6.47572740413147e-16 6.382978723404235,-2.857756915973648 6.382978723404236 -6.382978723404233Z" /></g></g></g><g fill="rgb(0,0,0)" fill-opacity="1.0"><g fill="rgb(0,0,0)" fill-opacity="1.0"><g fill="rgb(0,0,0)" fill-opacity="1.0"><path d="M 44.68085106382968,165.9574468085112 c 0.0,-3.525221807430585 -2.857756915973649,-6.382978723404235 -6.382978723404233 -6.382978723404235c -3.525221807430585,-2.1585758013771565e-16 -6.382978723404235,2.8577569159736487 -6.382978723404235 6.382978723404233c -4.317151602754313e-16,3.525221807430585 2.8577569159736482,6.382978723404235 6.382978723404232 6.382978723404235c 3.525221807430585,6.47572740413147e-16 6.382978723404235,-2.857756915973648 6.382978723404236 -6.382978723404233Z" /></g></g></g><g fill="rgb(0,0,0)" fill-opacity="1.0"><g fill="rgb(0,0,0)" fill-opacity="1.0"><g fill="rgb(0,0,0)" fill-opacity="1.0"><path d="M 38.29787234042544,139.1489361702134 c 0.0,-3.525221807430585 -2.857756915973649,-6.382978723404235 -6.382978723404233 -6.382978723404235c -3.525221807430585,-2.1585758013771565e-16 -6.382978723404235,2.8577569159736487 -6.382978723404235 6.382978723404233c -4.317151602754313e-16,3.525221807430585 2.8577569159736482,6.382978723404235 6.382978723404232 6.382978723404235c 3.525221807430585,6.47572740413147e-16 6.382978723404235,-2.857756915973648 6.382978723404236 -6.382978723404233Z" /></g></g></g><g fill="rgb(0,0,0)" fill-opacity="1.0"><g fill="rgb(0,0,0)" fill-opacity="1.0"><g fill="rgb(0,0,0)" fill-opacity="1.0"><path d="M 31.914893617021193,109.78723404255393 c 0.0,-3.525221807430585 -2.857756915973649,-6.382978723404235 -6.382978723404233 -6.382978723404235c -3.525221807430585,-2.1585758013771565e-16 -6.382978723404235,2.8577569159736487 -6.382978723404235 6.382978723404233c -4.317151602754313e-16,3.525221807430585 2.8577569159736482,6.382978723404235 6.382978723404232 6.382978723404235c 3.525221807430585,6.47572740413147e-16 6.382978723404235,-2.857756915973648 6.382978723404236 -6.382978723404233Z" /></g></g></g><g fill="rgb(0,0,0)" fill-opacity="1.0"><g fill="rgb(0,0,0)" fill-opacity="1.0"><g fill="rgb(0,0,0)" fill-opacity="1.0"><path d="M 25.531914893616957,77.87234042553271 c 0.0,-3.525221807430585 -2.857756915973649,-6.382978723404235 -6.382978723404233 -6.382978723404235c -3.525221807430585,-2.1585758013771565e-16 -6.382978723404235,2.8577569159736487 -6.382978723404235 6.382978723404233c -4.317151602754313e-16,3.525221807430585 2.8577569159736482,6.382978723404235 6.382978723404232 6.382978723404235c 3.525221807430585,6.47572740413147e-16 6.382978723404235,-2.857756915973648 6.382978723404236 -6.382978723404233Z" /></g></g></g><g fill="rgb(0,0,0)" fill-opacity="1.0"><g fill="rgb(0,0,0)" fill-opacity="1.0"><g fill="rgb(0,0,0)" fill-opacity="1.0"><path d="M 19.14893617021272,43.404255319149826 c 0.0,-3.525221807430585 -2.857756915973649,-6.382978723404235 -6.382978723404233 -6.382978723404235c -3.525221807430585,-2.1585758013771565e-16 -6.382978723404235,2.8577569159736487 -6.382978723404235 6.382978723404233c -4.317151602754313e-16,3.525221807430585 2.8577569159736482,6.382978723404235 6.382978723404232 6.382978723404235c 3.525221807430585,6.47572740413147e-16 6.382978723404235,-2.857756915973648 6.382978723404236 -6.382978723404233Z" /></g></g></g><g fill="rgb(0,0,0)" fill-opacity="1.0"><g fill="rgb(0,0,0)" fill-opacity="1.0"><g fill="rgb(0,0,0)" fill-opacity="1.0"><path d="M 12.765957446808471,6.382978723405245 c 0.0,-3.525221807430585 -2.857756915973649,-6.382978723404235 -6.382978723404233 -6.382978723404235c -3.525221807430585,-2.1585758013771565e-16 -6.382978723404235,2.8577569159736487 -6.382978723404235 6.382978723404233c -4.317151602754313e-16,3.525221807430585 2.8577569159736482,6.382978723404235 6.382978723404232 6.382978723404235c 3.525221807430585,6.47572740413147e-16 6.382978723404235,-2.857756915973648 6.382978723404236 -6.382978723404233Z" /></g></g></g></g></g></g></svg>