<?xml version="1.0" encoding="UTF-8"?>
<!DOCTYPE svg PUBLIC "-//W3C//DTD SVG 1.1//EN"
    "http://www.w3.org/Graphics/SVG/1.1/DTD/svg11.dtd">
<svg xmlns="http://www.w3.org/2000/svg" xmlns:xlink="http://www.w3.org/1999/xlink" version="1.1" width="600.0" height="302.85875688987323" font-size="1" viewBox="0 0 600 303" stroke="rgb(0,0,0)" stroke-opacity="1"><g><g fill="rgb(0,0,0)" fill-opacity="0.0"><g stroke="rgb(0,0,0)" stroke-opacity="1.0" stroke-width="1.7051228888683605" stroke-linecap="butt" stroke-linejoin="miter" font-size="1.0em" stroke-miterlimit="10.0"><g><g><g><g stroke-width="3.1971054166281756"><g stroke="rgb(0,128,0)" stroke-opacity="1.0"><path d="M 511.9817800443453,129.7570514462028 c 10.606235857710121,25.069284754587564 34.20547084215346,55.8254698109027 80.48722731216127 86.67997412424124" /></g><g stroke="rgb(255,0,0)" stroke-opacity="1.0"><path d="M 504.6599970504862,99.66254214599796 c 0.33466387043136825,8.255042137307122 2.4133795608657396,18.492828458584018 7.321782993859167 30.094509300204834" /></g><g stroke="rgb(0,128,0)" stroke-opacity="1.0"><path d="M 506.49373385140154,85.26625987587948 c -1.4640943353929654,2.9281886707859424 -2.1082544888015438,7.624845968926011 -1.8337368009153654 14.396282270118487" /></g><g stroke="rgb(255,0,0)" stroke-opacity="1.0"><path d="M 506.20843689577913,85.59271401011557 c 6.779273038019215e-2,-7.684807703746527e-2 0.22264374631797684,-0.20114771562720807 0.2852969556224121 -0.3264541342360786" /></g><g stroke="rgb(0,128,0)" stroke-opacity="1.0"><path d="M 502.6579126738121,87.93569090398208 c 1.0996662998461504,-0.4143670115362421 2.4468736239330267,-1.09190726288214 3.550524221967022 -2.3429768938665214" /></g><g stroke="rgb(255,0,0)" stroke-opacity="1.0"><path d="M 494.06231178115127,87.58378657314935 c 2.9457623866121128,1.3739128917795689 5.382041925447614,1.56281060833337 8.595600892660828 0.35190433083272776" /></g><g stroke="rgb(0,128,0)" stroke-opacity="1.0"><path d="M 489.69619466917715,83.76303109322222 c 1.2338357087118965,2.0880296608970546 2.8653457932043813,3.120790991330947 4.3661171119741375 3.820755479927119" /></g><g stroke="rgb(255,0,0)" stroke-opacity="1.0"><path d="M 489.27962586563393,82.94401200781272 c 7.734890935360485e-2,0.32804714747133107 0.30246544790101604,0.6259210989381142 0.4165688035432176 0.8190190854095305" /></g><g stroke="rgb(0,128,0)" stroke-opacity="1.0"><path d="M 489.54489237921933,85.09467757558335 c -5.201273523887837e-2,-0.8562096416246061 -0.12423198149539025,-1.552519112523536 -0.2652665135854216 -2.1506655677706314" /></g><g stroke="rgb(255,0,0)" stroke-opacity="1.0"><path d="M 488.88654448360757,96.10544324136518 c 0.6285951592007363,-4.609697834138748 0.828592417895299,-8.2082789143452 0.6583478956117675 -11.010765665781841" /></g><g stroke="rgb(0,128,0)" stroke-opacity="1.0"><path d="M 441.84915448663645,221.4997735858574 c 31.929731500854007,-63.859463001708015 44.04397766876603,-103.4426399376551 47.0373899969711 -125.39433034449225" /></g></g><g stroke="rgb(0,0,255)" stroke-opacity="1.0" stroke-width="3.1971054166281756"><path d="M 453.61585838946286,227.38312553727062 c 131.55574898915938,-263.11149797831877 -65.77787449457969,-131.55574898915938 131.55574898915938 0.0" /></g></g></g><g><g stroke-width="3.1971054166281756"><g stroke="rgb(0,128,0)" stroke-opacity="1.0"><path d="M 364.7622235703774,85.96753101537462 c 0.0,15.32911917179821 0.6082191299019319,77.38134470418049 61.92469581709475 138.6978213913733" /></g><g stroke="rgb(255,0,0)" stroke-opacity="1.0"><path d="M 364.7418968655278,83.13929813428342 c 1.788756316072539e-2,0.7020868540585622 2.0326704849611067e-2,1.6834288388046041 2.0326704849611067e-2 2.8282328810911928" /></g><g stroke="rgb(0,128,0)" stroke-opacity="1.0"><path d="M 364.66018914900314,81.56310499408985 c 3.509055922831261e-2,0.4103645954199807 6.611191242317345e-2,0.9640578292107734 8.170771652464312e-2 1.5761931401935576" /></g><g stroke="rgb(255,0,0)" stroke-opacity="1.0"><path d="M 364.0519985963925,78.3408445789562 c 0.1986120881746295,0.6454892865675517 0.49647125301243666,1.9157652726099432 0.6081905526106672 3.222260415133674" /></g><g stroke="rgb(0,128,0)" stroke-opacity="1.0"><path d="M 361.61586606058245,73.77595634835652 c 0.7782819994477024,0.9536356598170914 1.821193672048922,2.5663369233759687 2.4361325358100574 4.56488823059968" /></g><g stroke="rgb(255,0,0)" stroke-opacity="1.0"><path d="M 357.18966169675525,70.25802410049732 c 1.5342253961814387,0.7533004195932371 3.0492264459247083,1.8307093052441525 4.4262043638271615 3.5179322478592" /></g><g stroke="rgb(0,128,0)" stroke-opacity="1.0"><path d="M 349.91728913050906,68.98396616497621 c 2.6563706456126566,-0.29220077101738523 4.874998058580779,9.695369318400074e-2 7.272372566246194 1.2740579355211068" /></g><g stroke="rgb(255,0,0)" stroke-opacity="1.0"><path d="M 344.50737812673475,70.81874430723295 c 1.8904834233446657,-1.1435066965469183 3.695186810264414,-1.646158480970656 5.409911003774321 -1.8347781422567455" /></g><g stroke="rgb(0,128,0)" stroke-opacity="1.0"><path d="M 341.90372938933297,72.87554041429576 c 0.8842995586107709,-0.8970890150369701 1.797912982551884,-1.5694264639648254 2.603648737401782 -2.0567961070628042" /></g><g stroke="rgb(255,0,0)" stroke-opacity="1.0"><path d="M 339.9429387947987,75.39357199790629 c 0.6567471005360201,-1.07633552587847 1.4089406003338527,-1.9582002878411218 1.9607905945342574 -2.518031583610547" /></g><g stroke="rgb(0,128,0)" stroke-opacity="1.0"><path d="M 338.2153466102729,79.15920115255244 c 0.597623909908983,-1.6434657522496974 1.3914287352020123,-3.2146946126988167 1.7275921845258109 -3.7656291546461453" /></g><g stroke="rgb(255,0,0)" stroke-opacity="1.0"><path d="M 331.02089158742825,99.97173175435304 c 4.036215742086064,-11.099593290736674 6.185401087323137,-18.037632279116448 7.194455022844654 -20.812530601800606" /></g><g stroke="rgb(0,128,0)" stroke-opacity="1.0"><path d="M 274.0620702740554,228.08439667676572 c 32.5250961454588,-65.0501922909176 48.82754727700816,-105.75166132240976 56.95882131337286 -128.11266492241268" /></g></g><g stroke="rgb(0,0,255)" stroke-opacity="1.0" stroke-width="3.1971054166281756"><path d="M 285.8287741768818,233.96774862817892 c 131.55574898915938,-263.11149797831877 0.0,-131.55574898915938 131.55574898915938 0.0" /></g></g></g><g><g><g stroke-width="3.1971054166281756"><g stroke="rgb(0,128,0)" stroke-opacity="1.0"><path d="M 243.50666848816087,119.71820244879379 c -3.7564422059063327,1.274913718368207 -8.501013484230306,2.111132473581956 -14.329190482484984 2.111132473581956" /></g><g stroke="rgb(255,0,0)" stroke-opacity="1.0"><path d="M 255.13710847034906,112.19787026866632 c -2.6841784256200127,3.067632486422875 -6.357946646148891,5.7308798963808005 -11.630439982188191 7.520332180127452" /></g><g stroke="rgb(0,128,0)" stroke-opacity="1.0"><path d="M 258.96767454384855,87.61006066523365 c 3.4874720283559038,9.299925408949084 2.272509976123352,17.612865546720847 -3.830566073499483 24.58780960343268" /></g><g stroke="rgb(255,0,0)" stroke-opacity="1.0"><path d="M 220.95524369385342,62.629247877254016 c 17.797228450008376,0.0 33.56312373749303,13.115993821307395 38.01243084999512 24.980812787979637" /></g><g stroke="rgb(0,128,0)" stroke-opacity="1.0"><path d="M 193.4370789740102,72.62776873252105 c 9.382487531803335,-7.358813750433995 18.687588219322443,-9.998520855267019 27.518164719843227 -9.998520855267019" /></g><g stroke="rgb(255,0,0)" stroke-opacity="1.0"><path d="M 170.96813963611902,103.1924277725802 c 6.767680004875894,-14.76584728336559 14.6245829686032,-24.412222671990158 22.468939337891168 -30.564659040059155" /></g><g stroke="rgb(0,128,0)" stroke-opacity="1.0"><path d="M 150.24402861218024,240.2295090126192 c 0.0,-68.44669429030839 8.959835442792022,-111.36957088117335 20.724111023938775 -137.037081240039" /></g></g><g stroke="rgb(0,0,255)" stroke-opacity="1.0" stroke-width="3.1971054166281756"><path d="M 163.3996035110962,240.2295090126192 c 0.0,-263.11149797831877 131.55574898915938,-131.55574898915938 65.77787449457969 -131.55574898915938" /></g></g></g><g><g stroke-width="3.1971054166281756"><g stroke="rgb(0,128,0)" stroke-opacity="1.0"><path d="M 107.3603699766031,38.693005210400855 c 6.432503982934959,-12.169602129876955 14.760815226591284,-20.476100728687896 25.887308602478793 -24.92669807904294" /></g><g stroke="rgb(255,0,0)" stroke-opacity="1.0"><path d="M 95.42391061094953,75.63181695246936 c 2.8371303744504006,-14.299137087230031 6.687768172920306,-27.008855431492076 11.936459365653556 -36.938811742068495" /></g><g stroke="rgb(0,128,0)" stroke-opacity="1.0"><path d="M 83.97921363564316,165.6871778325085 c 4.142251616420563,-31.481112284796282 6.26688245478068,-63.95917569658957 11.444696975306384 -90.05536088003915" /></g><g stroke="rgb(255,0,0)" stroke-opacity="1.0"><path d="M 62.05745780862836,244.98865707076718 c 12.61861350979178,-21.354576708878394 18.039105516309633,-49.793336876899446 21.921755827014795 -79.30147923825866" /></g><g stroke="rgb(0,128,0)" stroke-opacity="1.0"><path d="M 6.577787449457958,275.93687485959947 c 26.333097622202164,0.0 44.78184945015078,-12.844213173568285 55.4796703591704 -30.94821778883227" /></g></g><g stroke="rgb(0,0,255)" stroke-opacity="1.0" stroke-width="3.1971054166281756"><path d="M 6.577787449457958,289.0924497585154 c 131.55574898915938,0.0 65.77787449457969,-236.8003481804869 131.55574898915938 -263.11149797831877" /></g></g></g></g></g></svg>