<?xml version="1.0" encoding="UTF-8"?>
<!DOCTYPE svg PUBLIC "-//W3C//DTD SVG 1.1//EN"
    "http://www.w3.org/Graphics/SVG/1.1/DTD/svg11.dtd">
<svg xmlns="http://www.w3.org/2000/svg" xmlns:xlink="http://www.w3.org/1999/xlink" version="1.1" width="300.0" height="271.2911579538083" font-size="1" viewBox="0 0 300 271" stroke="rgb(0,0,0)" stroke-opacity="1"><g><g fill="rgb(0,0,0)" fill-opacity="0.0"><g stroke="rgb(0,0,0)" stroke-opacity="1.0" stroke-width="1.141138711190835" stroke-linecap="butt" stroke-linejoin="miter" font-size="1.0em" stroke-miterlimit="10.0"><g stroke-width="3.0"><g stroke="rgb(0,128,0)" stroke-opacity="1.0"><path d="M 232.44254819939368,239.47922220266122 l 48.701298701298725,-84.35312374523753 c 6.959719283925273,-12.05458740617544 6.959719283925287,-26.906451554863526 1.9464949133038462e-14 -38.961038961038966l -48.701298701298676,-84.35312374523755 c -6.959719283925259,-12.054587406175445 -19.82181093024447,-19.480519480519487 -33.741249498095 -19.4805194805195l -97.40259740259742,-4.325544251786325e-14 c -13.919438567850523,-7.0337922695555446e-15 -26.781530214169745,7.42593207434402 -33.741249498095016 19.480519480519458l -48.70129870129873,84.35312374523753 c -6.959719283925277,12.05458740617544 -6.959719283925293,26.906451554863523 -2.811603763661111e-14 38.961038961038966l 48.70129870129864,84.35312374523757 c 6.9597192839252635,12.054587406175456 19.82181093024449,19.480519480519504 33.74124949809503 19.4805194805195h 97.40259740259745 c 13.919438567850523,2.238416443174295e-15 26.78153021416974,-7.42593207434403 33.74124949809499 -19.480519480519447Z" /></g><g stroke="rgb(0,0,255)" stroke-opacity="1.0"><path d="M 198.70129870129864,219.99870272214173 l 48.701298701298725,-84.35312374523753 l -48.701298701298676,-84.35312374523755 l -97.40259740259742,-4.325544251786325e-14 l -48.70129870129873,84.35312374523753 l 48.70129870129864,84.35312374523757 Z" /></g></g></g></g></g></svg>