<?xml version="1.0" encoding="UTF-8"?>
<!DOCTYPE svg PUBLIC "-//W3C//DTD SVG 1.1//EN"
    "http://www.w3.org/Graphics/SVG/1.1/DTD/svg11.dtd">
<svg xmlns="http://www.w3.org/2000/svg" xmlns:xlink="http://www.w3.org/1999/xlink" version="1.1" width="300.0" height="150.0" font-size="1" viewBox="0 0 300 150"><g><g transform="matrix(136.36363636363603,0.0,0.0,136.36363636363603,150.0,75.00000000000001)"><g stroke="rgb(0,0,0)" stroke-opacity="1.0" fill-opacity="0.0" stroke-width="1.0e-2" stroke-linecap="butt" stroke-linejoin="miter" font-size="1.0em" stroke-miterlimit="10.0"><path d="M -0.9999999999999989,0.49999999999999933 c 0.5260763745333454,-0.5611805842666443 1.2354097078666784,-0.9158472509333105 2.000000000000001 -0.9999999999999997" /></g></g><g transform="matrix(136.36363636363603,0.0,0.0,136.36363636363603,150.0,75.00000000000001)"><g stroke="rgb(0,0,0)" stroke-opacity="1.0" fill-opacity="0.0" stroke-width="1.0e-2" stroke-linecap="butt" stroke-linejoin="miter" font-size="1.0em" stroke-miterlimit="10.0"><path d="M -0.9999999999999977,0.5000000000000006 c 0.6017048539333386,-0.4499236254666561 1.2790381872666723,-0.7885902921333223 2.0 -1.0" /></g></g><g transform="matrix(136.36363636363603,0.0,0.0,136.36363636363603,150.0,75.00000000000001)"><g stroke="rgb(0,0,0)" stroke-opacity="1.0" fill-opacity="0.0" stroke-width="1.0e-2" stroke-linecap="butt" stroke-linejoin="miter" font-size="1.0em" stroke-miterlimit="10.0"><path d="M -0.9999999999999984,0.5000000000000001 l 2.0,-1.0000000000000002 " /></g></g><g transform="matrix(136.36363636363603,0.0,0.0,136.36363636363603,150.0,75.00000000000001)"><g stroke="rgb(0,0,0)" stroke-opacity="1.0" fill-opacity="0.0" stroke-width="1.0e-2" stroke-linecap="butt" stroke-linejoin="miter" font-size="1.0em" stroke-miterlimit="10.0"><path d="M -1.0000000000000024,0.5000000000000011 c 0.720961812733329,-0.21140970786667754 1.3982951460666653,-0.5500763745333456 2.000000000000005 -1.0000000000000022" /></g></g><g transform="matrix(136.36363636363603,0.0,0.0,136.36363636363603,150.0,75.00000000000001)"><g stroke="rgb(0,0,0)" stroke-opacity="1.0" fill-opacity="0.0" stroke-width="1.0e-2" stroke-linecap="butt" stroke-linejoin="miter" font-size="1.0em" stroke-miterlimit="10.0"><path d="M -0.999999999999999,0.5000000000000004 c 0.7645902921333226,-8.415274906668901e-2 1.4739236254666552,-0.43881941573335514 2.000000000000001 -0.9999999999999996" /></g></g></g></svg>