<svg xmlns="http://www.w3.org/2000/svg" height="400.0000" stroke-opacity="1" viewBox="0 0 400 400" font-size="1" width="400.0000" xmlns:xlink="http://www.w3.org/1999/xlink" stroke="rgb(0,0,0)" version="1.1"><defs></defs><g stroke-linejoin="miter" stroke-opacity="1.0" fill-opacity="0.0" stroke="rgb(0,0,0)" stroke-width="1.5999999999999999" fill="rgb(0,0,0)" stroke-linecap="butt" stroke-miterlimit="10.0"><path d="M 256.1849,297.9712 l 56.1849,-172.9194 l -147.0940,-106.8700 l -147.0940,106.8700 l 56.1849,172.9194 Z"/></g><g stroke-linejoin="miter" stroke-opacity="1.0" fill-opacity="0.0" stroke="rgb(0,0,0)" stroke-width="1.5999999999999999" fill="rgb(0,0,0)" stroke-linecap="butt" stroke-miterlimit="10.0"><path d="M 200.0000,175.6410 l -90.9091,-157.4592 l -90.9091,157.4592 Z"/></g><g stroke-linejoin="miter" stroke-opacity="1.0" fill-opacity="0.0" stroke="rgb(0,0,0)" stroke-width="1.5999999999999999" fill="rgb(0,0,0)" stroke-linecap="butt" stroke-miterlimit="10.0"><path d="M 200.0000,200.0000 l -0.0000,-181.8182 h -181.8182 l -0.0000,181.8182 Z"/></g><g stroke-linejoin="miter" stroke-opacity="1.0" fill-opacity="0.0" stroke="rgb(0,0,0)" stroke-width="1.5999999999999999" fill="rgb(0,0,0)" stroke-linecap="butt" stroke-miterlimit="10.0"><path d="M 381.8182,200.0000 c 0.0000,-100.4154 -81.4028,-181.8182 -181.8182 -181.8182c -100.4154,-0.0000 -181.8182,81.4028 -181.8182 181.8182c -0.0000,100.4154 81.4028,181.8182 181.8182 181.8182c 100.4154,0.0000 181.8182,-81.4028 181.8182 -181.8182Z"/></g><g stroke-linejoin="miter" stroke-opacity="1.0" fill-opacity="1.0" stroke="rgb(0,0,0)" stroke-width="0.0" fill="rgb(255,0,0)" stroke-linecap="butt" stroke-miterlimit="10.0"><path d="M 207.2727,200.0000 c 0.0000,-4.0166 -3.2561,-7.2727 -7.2727 -7.2727c -4.0166,-0.0000 -7.2727,3.2561 -7.2727 7.2727c -0.0000,4.0166 3.2561,7.2727 7.2727 7.2727c 4.0166,0.0000 7.2727,-3.2561 7.2727 -7.2727Z"/></g></svg>