<svg xmlns="http://www.w3.org/2000/svg" height="300.0000" stroke-opacity="1" viewBox="0 0 300 300" font-size="1" width="300.0000" xmlns:xlink="http://www.w3.org/1999/xlink" stroke="rgb(0,0,0)" version="1.1"><defs></defs><g stroke-linejoin="miter" stroke-opacity="1.0" fill-opacity="1.0" stroke="rgb(0,0,0)" stroke-width="0.0" fill="rgb(0,128,0)" stroke-linecap="butt" stroke-miterlimit="10.0"><path d="M 36.3636,286.3636 h 113.6364 c 6.0276,-0.0000 11.8084,-2.3945 16.0706 -6.6567l 113.6364,-113.6364 c 4.2622,-4.2622 6.6567,-10.0430 6.6567 -16.0706v -113.6364 c 0.0000,-12.5519 -10.1753,-22.7273 -22.7273 -22.7273c -6.0276,0.0000 -11.8084,2.3945 -16.0706 6.6567l -227.2727,227.2727 c -8.8756,8.8756 -8.8756,23.2657 -0.0000 32.1412c 4.2622,4.2622 10.0430,6.6567 16.0706 6.6567ZM 36.3636,240.9091 c -12.5519,0.0000 -22.7273,10.1753 -22.7273 22.7273c -0.0000,12.5519 10.1753,22.7273 22.7273 22.7273c 6.0276,-0.0000 11.8084,-2.3945 16.0706 -6.6567l 227.2727,-227.2727 c 8.8756,-8.8756 8.8756,-23.2657 0.0000 -32.1412c -8.8756,-8.8756 -23.2657,-8.8756 -32.1412 -0.0000c -4.2622,4.2622 -6.6567,10.0430 -6.6567 16.0706v 113.6364 c -0.0000,12.5519 10.1753,22.7273 22.7273 22.7273c 12.5519,0.0000 22.7273,-10.1753 22.7273 -22.7273c 0.0000,-12.5519 -10.1753,-22.7273 -22.7273 -22.7273c -6.0276,0.0000 -11.8084,2.3945 -16.0706 6.6567l -113.6364,113.6364 c -8.8756,8.8756 -8.8756,23.2657 0.0000 32.1412c 8.8756,8.8756 23.2657,8.8756 32.1412 -0.0000c 8.8756,-8.8756 8.8756,-23.2657 -0.0000 -32.1412c -4.2622,-4.2622 -10.0430,-6.6567 -16.0706 -6.6567Z"/></g><g stroke-linejoin="miter" stroke-opacity="1.0" fill-opacity="0.0" stroke="rgb(255,255,255)" stroke-width="3.0" fill="rgb(0,0,0)" stroke-linecap="butt" stroke-miterlimit="10.0"><path d="M 36.3636,263.6364 h 113.6364 l 113.6364,-113.6364 v -113.6364 Z"/></g></svg>