<?xml version="1.0" encoding="UTF-8"?>
<!DOCTYPE svg PUBLIC "-//W3C//DTD SVG 1.1//EN"
    "http://www.w3.org/Graphics/SVG/1.1/DTD/svg11.dtd">
<svg xmlns="http://www.w3.org/2000/svg" xmlns:xlink="http://www.w3.org/1999/xlink" version="1.1" width="600.0" height="197.38302878166363" font-size="1" viewBox="0 0 600 197"><g><g transform="matrix(12.98696646675048,0.0,0.0,12.98696646675048,300.0,98.69151439083181)"><g stroke="rgb(0,0,0)" stroke-opacity="1.0" fill="rgb(0,0,0)" fill-opacity="1.0" stroke-width="1.0e-2" stroke-linecap="butt" stroke-linejoin="miter" font-size="1.0em" font-weight="bold" font-family="Helvetica" stroke-miterlimit="10.0"><text transform="matrix(1.0,0.0,0.0,1.0,14.00005014902262,5.408430753773164)" dominant-baseline="middle" text-anchor="middle" stroke="none">LineCapSquare</text></g></g><g transform="matrix(12.98696646675048,0.0,0.0,12.98696646675048,300.0,98.69151439083181)"><g stroke="rgb(0,0,0)" stroke-opacity="1.0" fill="rgb(0,0,0)" fill-opacity="0.0" stroke-width="1.0e-2" stroke-linecap="butt" stroke-linejoin="miter" font-size="1.0em" stroke-miterlimit="10.0"></g></g><g transform="matrix(12.98696646675048,0.0,0.0,12.98696646675048,300.0,98.69151439083181)"><g stroke="rgb(0,0,0)" stroke-opacity="1.0" fill="rgb(0,128,0)" fill-opacity="1.0" stroke-width="0.0" stroke-linecap="butt" stroke-linejoin="miter" font-size="1.0em" stroke-miterlimit="10.0"><path d="M 9.000025074511312,-9.16193952494524e-2 h -2.0 v 4.0 h 2.0 h 10.0 c 1.104569499661587,-6.763537510981779e-17 2.0,-0.895430500338413 1.9999999999999998 -1.9999999999999998c 0.0,-0.4678730100377969 -0.16403243875498852,-0.9209387968686479 -0.4635574408052485 -1.28036879932896l -5.0,-6.0 l -1.2803687993289596,-1.536442559194752 l -3.072885118389502,2.5607375986579193 l 1.2803687993289596,1.536442559194752 l 5.0,6.0 c 0.7071281620285479,0.8485537944342576 1.9682575640894535,0.9632019218943404 2.8168113585237107 0.2560737598657927c 0.8485537944342576,-0.7071281620285479 0.9632019218943405,-1.9682575640894533 0.25607375986579295 -2.8168113585237107c -0.37998765062862305,-0.4559851807543479 -0.9428828741606048,-0.7196312006710404 -1.5364425591947515 -0.719631200671041h -10.000000000000002 Z" /></g></g><g transform="matrix(12.98696646675048,0.0,0.0,12.98696646675048,300.0,98.69151439083181)"><g stroke="rgb(255,255,255)" stroke-opacity="1.0" fill-opacity="0.0" stroke-width="0.2" stroke-linecap="butt" stroke-linejoin="miter" font-size="1.0em" stroke-miterlimit="10.0"><path d="M 9.000025074511312,1.9083806047505476 h 10.0 l -5.0,-6.0 " /></g></g><g transform="matrix(12.98696646675048,0.0,0.0,12.98696646675048,300.0,98.69151439083181)"><g stroke="rgb(0,0,0)" stroke-opacity="1.0" fill="rgb(0,0,0)" fill-opacity="1.0" stroke-width="1.0e-2" stroke-linecap="butt" stroke-linejoin="miter" font-size="1.0em" font-weight="bold" font-family="Helvetica" stroke-miterlimit="10.0"><text transform="matrix(1.0,0.0,0.0,1.0,-0.9999999999999947,5.000050149022616)" dominant-baseline="middle" text-anchor="middle" stroke="none">LineCapRound</text></g></g><g transform="matrix(12.98696646675048,0.0,0.0,12.98696646675048,300.0,98.69151439083181)"><g stroke="rgb(0,0,0)" stroke-opacity="1.0" fill="rgb(0,0,0)" fill-opacity="0.0" stroke-width="1.0e-2" stroke-linecap="butt" stroke-linejoin="miter" font-size="1.0em" stroke-miterlimit="10.0"></g></g><g transform="matrix(12.98696646675048,0.0,0.0,12.98696646675048,300.0,98.69151439083181)"><g stroke="rgb(0,0,0)" stroke-opacity="1.0" fill="rgb(0,128,0)" fill-opacity="1.0" stroke-width="0.0" stroke-linecap="butt" stroke-linejoin="miter" font-size="1.0em" stroke-miterlimit="10.0"><path d="M -6.000025074511304,-0.4999999999999991 c -1.104569499661587,-6.763537510981779e-17 -2.0,0.8954305003384128 -2.0 1.9999999999999993c -1.3527075021963558e-16,1.104569499661587 0.8954305003384126,2.0 1.9999999999999991 2.0h 10.0 c 1.104569499661587,-6.763537510981779e-17 2.0,-0.895430500338413 1.9999999999999998 -1.9999999999999998c 0.0,-0.4678730100377969 -0.16403243875498852,-0.9209387968686479 -0.4635574408052485 -1.28036879932896l -5.0,-6.0 c -0.7071281620285479,-0.8485537944342575 -1.9682575640894537,-0.9632019218943401 -2.8168113585237107 -0.2560737598657923c -0.8485537944342575,0.7071281620285479 -0.9632019218943402,1.9682575640894537 -0.2560737598657925 2.8168113585237107l 5.0,6.0 c 0.7071281620285479,0.8485537944342576 1.9682575640894535,0.9632019218943404 2.8168113585237107 0.2560737598657927c 0.8485537944342576,-0.7071281620285479 0.9632019218943405,-1.9682575640894533 0.25607375986579295 -2.8168113585237107c -0.37998765062862305,-0.4559851807543479 -0.9428828741606048,-0.7196312006710404 -1.5364425591947515 -0.719631200671041l -10.000000000000004,8.881784197001252e-16 Z" /></g></g><g transform="matrix(12.98696646675048,0.0,0.0,12.98696646675048,300.0,98.69151439083181)"><g stroke="rgb(255,255,255)" stroke-opacity="1.0" fill-opacity="0.0" stroke-width="0.2" stroke-linecap="butt" stroke-linejoin="miter" font-size="1.0em" stroke-miterlimit="10.0"><path d="M -6.000025074511304,1.5000000000000009 h 10.0 l -5.0,-6.0 " /></g></g><g transform="matrix(12.98696646675048,0.0,0.0,12.98696646675048,300.0,98.69151439083181)"><g stroke="rgb(0,0,0)" stroke-opacity="1.0" fill="rgb(0,0,0)" fill-opacity="1.0" stroke-width="1.0e-2" stroke-linecap="butt" stroke-linejoin="miter" font-size="1.0em" font-weight="bold" font-family="Helvetica" stroke-miterlimit="10.0"><text transform="matrix(1.0,0.0,0.0,1.0,-15.000050149022613,4.640209474175788)" dominant-baseline="middle" text-anchor="middle" stroke="none">LineCapButt</text></g></g><g transform="matrix(12.98696646675048,0.0,0.0,12.98696646675048,300.0,98.69151439083181)"><g stroke="rgb(0,0,0)" stroke-opacity="1.0" fill="rgb(0,0,0)" fill-opacity="0.0" stroke-width="1.0e-2" stroke-linecap="butt" stroke-linejoin="miter" font-size="1.0em" stroke-miterlimit="10.0"></g></g><g transform="matrix(12.98696646675048,0.0,0.0,12.98696646675048,300.0,98.69151439083181)"><g stroke="rgb(0,0,0)" stroke-opacity="1.0" fill="rgb(0,128,0)" fill-opacity="1.0" stroke-width="0.0" stroke-linecap="butt" stroke-linejoin="miter" font-size="1.0em" stroke-miterlimit="10.0"><path d="M -21.000075223533923,-0.8598406748468284 v 4.0 h 10.0 c 1.104569499661587,-6.763537510981779e-17 2.0,-0.895430500338413 1.9999999999999998 -1.9999999999999998c 0.0,-0.4678730100377969 -0.16403243875498852,-0.9209387968686479 -0.4635574408052485 -1.28036879932896l -5.0,-6.0 l -3.072885118389502,2.5607375986579193 l 5.0,6.0 c 0.7071281620285479,0.8485537944342576 1.9682575640894535,0.9632019218943404 2.8168113585237107 0.2560737598657927c 0.8485537944342576,-0.7071281620285479 0.9632019218943405,-1.9682575640894533 0.25607375986579295 -2.8168113585237107c -0.37998765062862305,-0.4559851807543479 -0.9428828741606048,-0.7196312006710404 -1.5364425591947515 -0.719631200671041l -10.000000000000002,-8.881784197001252e-16 Z" /></g></g><g transform="matrix(12.98696646675048,0.0,0.0,12.98696646675048,300.0,98.69151439083181)"><g stroke="rgb(255,255,255)" stroke-opacity="1.0" fill-opacity="0.0" stroke-width="0.2" stroke-linecap="butt" stroke-linejoin="miter" font-size="1.0em" stroke-miterlimit="10.0"><path d="M -21.000075223533923,1.1401593251531716 h 10.0 l -5.0,-6.0 " /></g></g></g></svg>