<?xml version="1.0" encoding="UTF-8"?>
<!DOCTYPE svg PUBLIC "-//W3C//DTD SVG 1.1//EN"
    "http://www.w3.org/Graphics/SVG/1.1/DTD/svg11.dtd">
<svg xmlns="http://www.w3.org/2000/svg" xmlns:xlink="http://www.w3.org/1999/xlink" version="1.1" width="400.0" height="76.19047619047622" font-size="1" viewBox="0 0 400 76" stroke="rgb(0,0,0)" stroke-opacity="1"><g><g fill="rgb(0,0,0)" fill-opacity="0.0"><g stroke="rgb(0,0,0)" stroke-opacity="1.0" stroke-width="0.6982972487551757" stroke-linecap="butt" stroke-linejoin="miter" font-size="1.0em" stroke-miterlimit="10.0"><g><g><path d="M 381.81818181818187,55.41125541125544 v -17.31601731601732 c -19.126744582884623,-7.689856447620133e-15 -34.63203463203463,-15.505290049150023 -34.63203463203463 -34.63203463203465h -51.94805194805195 c -19.126744582884626,-1.1711753265769319e-15 -34.63203463203464,15.505290049150009 -34.63203463203464 34.63203463203463v 34.63203463203464 h 103.89610389610392 c 9.563372291442313,1.7567629898653979e-15 17.31601731601732,-7.752645024575003 17.31601731601728 -17.316017316017295Z" /></g><g><path d="M 225.97402597402595,55.41125541125544 v -34.632034632034646 c -9.563372291442311,-3.844928223810067e-15 -17.316017316017316,-7.752645024575012 -17.316017316017316 -17.316017316017327h -51.94805194805196 c -3.844928223810067e-15,9.56337229144231 -7.752645024575012,17.316017316017316 -17.316017316017327 17.316017316017312v 34.63203463203464 c 9.563372291442311,3.844928223810067e-15 17.316017316017316,7.752645024575012 17.316017316017312 17.316017316017327h 51.94805194805197 c 0.0,-9.563372291442311 7.752645024575012,-17.316017316017316 17.316017316017323 -17.31601731601731Z" /></g><path d="M 104.76190476190474,55.41125541125544 v -34.632034632034646 c 0.0,-9.563372291442313 -7.752645024575005,-17.31601731601732 -17.316017316017316 -17.31601731601732h -51.94805194805196 c -9.563372291442313,-5.855876632884659e-16 -17.31601731601732,7.7526450245750045 -17.31601731601732 17.316017316017316v 34.63203463203464 c -1.1711753265769319e-15,9.563372291442313 7.7526450245750045,17.31601731601732 17.316017316017316 17.316017316017327h 51.94805194805197 c 9.563372291442313,1.7567629898653979e-15 17.31601731601732,-7.752645024575003 17.31601731601731 -17.316017316017316Z" /></g></g></g></g></svg>