<?xml version="1.0" encoding="UTF-8"?>
<!DOCTYPE svg PUBLIC "-//W3C//DTD SVG 1.1//EN"
    "http://www.w3.org/Graphics/SVG/1.1/DTD/svg11.dtd">
<svg xmlns="http://www.w3.org/2000/svg" xmlns:xlink="http://www.w3.org/1999/xlink" version="1.1" width="300.0" height="271.2911579538083" font-size="1" viewBox="0 0 300 271"><g><g transform="matrix(19.48051948051948,0.0,0.0,19.48051948051948,150.0,135.64557897690415)"><g stroke="rgb(0,128,0)" stroke-opacity="1.0" fill="rgb(0,0,0)" fill-opacity="0.0" stroke-width="0.2" stroke-linecap="butt" stroke-linejoin="miter" font-size="1.0em" stroke-miterlimit="10.0"><path d="M 4.232050807568877,5.330127018922195 l 2.500000000000001,-4.330127018922193 c 0.35726558990816415,-0.6188021535170062 0.35726558990816465,-1.3811978464829942 1.1102230246251565e-15 -2.0000000000000004l -2.4999999999999982,-4.330127018922194 c -0.35726558990816315,-0.6188021535170058 -1.0175196277525493,-0.9999999999999999 -1.7320508075688763 -1.0000000000000004l -5.0,-2.220446049250313e-15 c -0.714531179816327,-3.61068003170518e-16 -1.3747852176607136,0.381197846482993 -1.7320508075688776 0.9999999999999987l -2.5000000000000013,4.330127018922193 c -0.35726558990816415,0.6188021535170058 -0.357265589908165,1.381197846482994 -1.4432899320127035e-15 2.0l 2.4999999999999964,4.3301270189221945 c 0.35726558990816343,0.6188021535170066 1.0175196277525498,1.0000000000000009 1.7320508075688772 1.000000000000001h 5.000000000000002 c 0.714531179816327,2.735631709452133e-16 1.3747852176607136,-0.3811978464829932 1.7320508075688776 -0.9999999999999989l 8.881784197001252e-16,6.661338147750939e-16 Z" /></g></g><g transform="matrix(19.48051948051948,0.0,0.0,19.48051948051948,150.0,135.64557897690415)"><g stroke="rgb(0,0,255)" stroke-opacity="1.0" fill="rgb(0,0,0)" fill-opacity="0.0" stroke-width="0.2" stroke-linecap="butt" stroke-linejoin="miter" font-size="1.0em" stroke-miterlimit="10.0"><path d="M 2.4999999999999996,4.3301270189221945 l 2.500000000000001,-4.330127018922193 l -2.4999999999999982,-4.330127018922194 l -5.0,-2.220446049250313e-15 l -2.5000000000000013,4.330127018922193 l 2.4999999999999964,4.3301270189221945 h 5.000000000000002 Z" /></g></g></g></svg>