<svg xmlns="http://www.w3.org/2000/svg" height="142.8571" stroke-opacity="1" viewBox="0 0 500 143" font-size="1" width="500.0000" xmlns:xlink="http://www.w3.org/1999/xlink" stroke="rgb(0,0,0)" version="1.1"><defs></defs><g stroke-linejoin="miter" stroke-opacity="1.0" fill-opacity="0.0" stroke="rgb(169,169,169)" stroke-width="5.345224838248488" fill="rgb(0,0,0)" stroke-linecap="butt" stroke-miterlimit="10.0"><path d="M 461.0390,136.3636 l -0.0000,-129.8701 h -129.8701 l -0.0000,129.8701 Z"/></g><g stroke-linejoin="miter" stroke-opacity="1.0" fill-opacity="1.0" stroke="rgb(169,169,169)" stroke-width="0.0" fill="rgb(255,0,0)" stroke-linecap="butt" stroke-miterlimit="10.0"><path d="M 398.7013,71.4286 c 0.0000,-1.4345 -1.1629,-2.5974 -2.5974 -2.5974c -1.4345,-0.0000 -2.5974,1.1629 -2.5974 2.5974c -0.0000,1.4345 1.1629,2.5974 2.5974 2.5974c 1.4345,0.0000 2.5974,-1.1629 2.5974 -2.5974Z"/></g><g stroke-linejoin="miter" stroke-opacity="1.0" fill-opacity="0.0" stroke="rgb(169,169,169)" stroke-width="5.345224838248488" fill="rgb(0,0,0)" stroke-linecap="butt" stroke-miterlimit="10.0"><path d="M 136.3636,136.3636 l -0.0000,-129.8701 h -129.8701 l -0.0000,129.8701 Z"/></g><g stroke-linejoin="miter" stroke-opacity="1.0" fill-opacity="1.0" stroke="rgb(169,169,169)" stroke-width="0.0" fill="rgb(255,0,0)" stroke-linecap="butt" stroke-miterlimit="10.0"><path d="M 74.0260,71.4286 c 0.0000,-1.4345 -1.1629,-2.5974 -2.5974 -2.5974c -1.4345,-0.0000 -2.5974,1.1629 -2.5974 2.5974c -0.0000,1.4345 1.1629,2.5974 2.5974 2.5974c 1.4345,0.0000 2.5974,-1.1629 2.5974 -2.5974Z"/></g><g stroke-linejoin="miter" stroke-opacity="1.0" fill-opacity="0.0" stroke="rgb(0,0,0)" stroke-width="1.0690449676496976" fill="rgb(0,0,0)" stroke-linecap="butt" stroke-miterlimit="10.0"><path d="M 89.9820,73.8309 c 61.4068,7.9510 122.8137,15.9021 138.7131 10.9542c 15.8994,-4.9479 -13.7086,-22.7947 2.1908 -27.7426c 15.8994,-4.9479 77.3063,3.0032 138.7131 10.9542"/></g><g stroke-linejoin="miter" stroke-opacity="1.0" fill-opacity="1.0" stroke="rgb(0,0,0)" stroke-width="0.0" fill="rgb(0,0,0)" stroke-linecap="butt" stroke-miterlimit="10.0"><path d="M 89.9820,73.8309 l -7.4663,-10.2070 l -19.3265,-2.5024 l 8.2394,10.3071 l -10.5928,7.8686 l 19.3265,2.5024 l 9.8198,-7.9687 Z"/></g><g stroke-linejoin="miter" stroke-opacity="1.0" fill-opacity="1.0" stroke="rgb(0,0,0)" stroke-width="0.0" fill="rgb(0,0,0)" stroke-linecap="butt" stroke-miterlimit="10.0"><path d="M 89.9820,73.8309 l 0.0686,-0.5301 l -0.5042,-0.0653 l 0.4355,0.5954 l -0.5728,0.4648 l 0.5042,0.0653 l 0.0686,-0.5301 Z"/></g><g stroke-linejoin="miter" stroke-opacity="1.0" fill-opacity="1.0" stroke="rgb(0,0,0)" stroke-width="0.0" fill="rgb(0,0,0)" stroke-linecap="butt" stroke-miterlimit="10.0"><path d="M 396.1039,71.4286 l -30.2984,-14.3723 l 4.0722,10.9765 l -6.7336,9.5773 Z"/></g><g stroke-linejoin="miter" stroke-opacity="1.0" fill-opacity="1.0" stroke="rgb(0,0,0)" stroke-width="0.0" fill="rgb(0,0,0)" stroke-linecap="butt" stroke-miterlimit="10.0"><path d="M 369.8777,68.0328 l -0.2787,-0.0361 l 0.0686,-0.5301 l 0.2101,0.5662 l -0.2787,-0.0361 l -0.0686,0.5301 Z"/></g></svg>