<svg xmlns="http://www.w3.org/2000/svg" height="300.0000" stroke-opacity="1" viewBox="0 0 204 300" font-size="1" width="204.2553" xmlns:xlink="http://www.w3.org/1999/xlink" stroke="rgb(0,0,0)" version="1.1"><defs></defs><g stroke-linejoin="miter" stroke-opacity="1.0" fill-opacity="1.0" stroke="rgb(0,0,0)" stroke-width="0.9901643964084406" fill="rgb(0,0,0)" stroke-linecap="butt" stroke-miterlimit="10.0"><path d="M 204.2553,6.3830 c 0.0000,-3.5252 -2.8578,-6.3830 -6.3830 -6.3830c -3.5252,-0.0000 -6.3830,2.8578 -6.3830 6.3830c -0.0000,3.5252 2.8578,6.3830 6.3830 6.3830c 3.5252,0.0000 6.3830,-2.8578 6.3830 -6.3830Z"/></g><g stroke-linejoin="miter" stroke-opacity="1.0" fill-opacity="1.0" stroke="rgb(0,0,0)" stroke-width="0.9901643964084406" fill="rgb(0,0,0)" stroke-linecap="butt" stroke-miterlimit="10.0"><path d="M 197.8723,43.4043 c 0.0000,-3.5252 -2.8578,-6.3830 -6.3830 -6.3830c -3.5252,-0.0000 -6.3830,2.8578 -6.3830 6.3830c -0.0000,3.5252 2.8578,6.3830 6.3830 6.3830c 3.5252,0.0000 6.3830,-2.8578 6.3830 -6.3830Z"/></g><g stroke-linejoin="miter" stroke-opacity="1.0" fill-opacity="1.0" stroke="rgb(0,0,0)" stroke-width="0.9901643964084406" fill="rgb(0,0,0)" stroke-linecap="butt" stroke-miterlimit="10.0"><path d="M 191.4894,77.8723 c 0.0000,-3.5252 -2.8578,-6.3830 -6.3830 -6.3830c -3.5252,-0.0000 -6.3830,2.8578 -6.3830 6.3830c -0.0000,3.5252 2.8578,6.3830 6.3830 6.3830c 3.5252,0.0000 6.3830,-2.8578 6.3830 -6.3830Z"/></g><g stroke-linejoin="miter" stroke-opacity="1.0" fill-opacity="1.0" stroke="rgb(0,0,0)" stroke-width="0.9901643964084406" fill="rgb(0,0,0)" stroke-linecap="butt" stroke-miterlimit="10.0"><path d="M 185.1064,109.7872 c 0.0000,-3.5252 -2.8578,-6.3830 -6.3830 -6.3830c -3.5252,-0.0000 -6.3830,2.8578 -6.3830 6.3830c -0.0000,3.5252 2.8578,6.3830 6.3830 6.3830c 3.5252,0.0000 6.3830,-2.8578 6.3830 -6.3830Z"/></g><g stroke-linejoin="miter" stroke-opacity="1.0" fill-opacity="1.0" stroke="rgb(0,0,0)" stroke-width="0.9901643964084406" fill="rgb(0,0,0)" stroke-linecap="butt" stroke-miterlimit="10.0"><path d="M 178.7234,139.1489 c 0.0000,-3.5252 -2.8578,-6.3830 -6.3830 -6.3830c -3.5252,-0.0000 -6.3830,2.8578 -6.3830 6.3830c -0.0000,3.5252 2.8578,6.3830 6.3830 6.3830c 3.5252,0.0000 6.3830,-2.8578 6.3830 -6.3830Z"/></g><g stroke-linejoin="miter" stroke-opacity="1.0" fill-opacity="1.0" stroke="rgb(0,0,0)" stroke-width="0.9901643964084406" fill="rgb(0,0,0)" stroke-linecap="butt" stroke-miterlimit="10.0"><path d="M 172.3404,165.9574 c 0.0000,-3.5252 -2.8578,-6.3830 -6.3830 -6.3830c -3.5252,-0.0000 -6.3830,2.8578 -6.3830 6.3830c -0.0000,3.5252 2.8578,6.3830 6.3830 6.3830c 3.5252,0.0000 6.3830,-2.8578 6.3830 -6.3830Z"/></g><g stroke-linejoin="miter" stroke-opacity="1.0" fill-opacity="1.0" stroke="rgb(0,0,0)" stroke-width="0.9901643964084406" fill="rgb(0,0,0)" stroke-linecap="butt" stroke-miterlimit="10.0"><path d="M 165.9574,190.2128 c 0.0000,-3.5252 -2.8578,-6.3830 -6.3830 -6.3830c -3.5252,-0.0000 -6.3830,2.8578 -6.3830 6.3830c -0.0000,3.5252 2.8578,6.3830 6.3830 6.3830c 3.5252,0.0000 6.3830,-2.8578 6.3830 -6.3830Z"/></g><g stroke-linejoin="miter" stroke-opacity="1.0" fill-opacity="1.0" stroke="rgb(0,0,0)" stroke-width="0.9901643964084406" fill="rgb(0,0,0)" stroke-linecap="butt" stroke-miterlimit="10.0"><path d="M 159.5745,211.9149 c 0.0000,-3.5252 -2.8578,-6.3830 -6.3830 -6.3830c -3.5252,-0.0000 -6.3830,2.8578 -6.3830 6.3830c -0.0000,3.5252 2.8578,6.3830 6.3830 6.3830c 3.5252,0.0000 6.3830,-2.8578 6.3830 -6.3830Z"/></g><g stroke-linejoin="miter" stroke-opacity="1.0" fill-opacity="1.0" stroke="rgb(0,0,0)" stroke-width="0.9901643964084406" fill="rgb(0,0,0)" stroke-linecap="butt" stroke-miterlimit="10.0"><path d="M 153.1915,231.0638 c 0.0000,-3.5252 -2.8578,-6.3830 -6.3830 -6.3830c -3.5252,-0.0000 -6.3830,2.8578 -6.3830 6.3830c -0.0000,3.5252 2.8578,6.3830 6.3830 6.3830c 3.5252,0.0000 6.3830,-2.8578 6.3830 -6.3830Z"/></g><g stroke-linejoin="miter" stroke-opacity="1.0" fill-opacity="1.0" stroke="rgb(0,0,0)" stroke-width="0.9901643964084406" fill="rgb(0,0,0)" stroke-linecap="butt" stroke-miterlimit="10.0"><path d="M 146.8085,247.6596 c 0.0000,-3.5252 -2.8578,-6.3830 -6.3830 -6.3830c -3.5252,-0.0000 -6.3830,2.8578 -6.3830 6.3830c -0.0000,3.5252 2.8578,6.3830 6.3830 6.3830c 3.5252,0.0000 6.3830,-2.8578 6.3830 -6.3830Z"/></g><g stroke-linejoin="miter" stroke-opacity="1.0" fill-opacity="1.0" stroke="rgb(0,0,0)" stroke-width="0.9901643964084406" fill="rgb(0,0,0)" stroke-linecap="butt" stroke-miterlimit="10.0"><path d="M 140.4255,261.7021 c 0.0000,-3.5252 -2.8578,-6.3830 -6.3830 -6.3830c -3.5252,-0.0000 -6.3830,2.8578 -6.3830 6.3830c -0.0000,3.5252 2.8578,6.3830 6.3830 6.3830c 3.5252,0.0000 6.3830,-2.8578 6.3830 -6.3830Z"/></g><g stroke-linejoin="miter" stroke-opacity="1.0" fill-opacity="1.0" stroke="rgb(0,0,0)" stroke-width="0.9901643964084406" fill="rgb(0,0,0)" stroke-linecap="butt" stroke-miterlimit="10.0"><path d="M 134.0426,273.1915 c 0.0000,-3.5252 -2.8578,-6.3830 -6.3830 -6.3830c -3.5252,-0.0000 -6.3830,2.8578 -6.3830 6.3830c -0.0000,3.5252 2.8578,6.3830 6.3830 6.3830c 3.5252,0.0000 6.3830,-2.8578 6.3830 -6.3830Z"/></g><g stroke-linejoin="miter" stroke-opacity="1.0" fill-opacity="1.0" stroke="rgb(0,0,0)" stroke-width="0.9901643964084406" fill="rgb(0,0,0)" stroke-linecap="butt" stroke-miterlimit="10.0"><path d="M 127.6596,282.1277 c 0.0000,-3.5252 -2.8578,-6.3830 -6.3830 -6.3830c -3.5252,-0.0000 -6.3830,2.8578 -6.3830 6.3830c -0.0000,3.5252 2.8578,6.3830 6.3830 6.3830c 3.5252,0.0000 6.3830,-2.8578 6.3830 -6.3830Z"/></g><g stroke-linejoin="miter" stroke-opacity="1.0" fill-opacity="1.0" stroke="rgb(0,0,0)" stroke-width="0.9901643964084406" fill="rgb(0,0,0)" stroke-linecap="butt" stroke-miterlimit="10.0"><path d="M 121.2766,288.5106 c 0.0000,-3.5252 -2.8578,-6.3830 -6.3830 -6.3830c -3.5252,-0.0000 -6.3830,2.8578 -6.3830 6.3830c -0.0000,3.5252 2.8578,6.3830 6.3830 6.3830c 3.5252,0.0000 6.3830,-2.8578 6.3830 -6.3830Z"/></g><g stroke-linejoin="miter" stroke-opacity="1.0" fill-opacity="1.0" stroke="rgb(0,0,0)" stroke-width="0.9901643964084406" fill="rgb(0,0,0)" stroke-linecap="butt" stroke-miterlimit="10.0"><path d="M 114.8936,292.3404 c 0.0000,-3.5252 -2.8578,-6.3830 -6.3830 -6.3830c -3.5252,-0.0000 -6.3830,2.8578 -6.3830 6.3830c -0.0000,3.5252 2.8578,6.3830 6.3830 6.3830c 3.5252,0.0000 6.3830,-2.8578 6.3830 -6.3830Z"/></g><g stroke-linejoin="miter" stroke-opacity="1.0" fill-opacity="1.0" stroke="rgb(0,0,0)" stroke-width="0.9901643964084406" fill="rgb(0,0,0)" stroke-linecap="butt" stroke-miterlimit="10.0"><path d="M 108.5106,293.6170 c 0.0000,-3.5252 -2.8578,-6.3830 -6.3830 -6.3830c -3.5252,-0.0000 -6.3830,2.8578 -6.3830 6.3830c -0.0000,3.5252 2.8578,6.3830 6.3830 6.3830c 3.5252,0.0000 6.3830,-2.8578 6.3830 -6.3830Z"/></g><g stroke-linejoin="miter" stroke-opacity="1.0" fill-opacity="1.0" stroke="rgb(0,0,0)" stroke-width="0.9901643964084406" fill="rgb(0,0,0)" stroke-linecap="butt" stroke-miterlimit="10.0"><path d="M 102.1277,292.3404 c 0.0000,-3.5252 -2.8578,-6.3830 -6.3830 -6.3830c -3.5252,-0.0000 -6.3830,2.8578 -6.3830 6.3830c -0.0000,3.5252 2.8578,6.3830 6.3830 6.3830c 3.5252,0.0000 6.3830,-2.8578 6.3830 -6.3830Z"/></g><g stroke-linejoin="miter" stroke-opacity="1.0" fill-opacity="1.0" stroke="rgb(0,0,0)" stroke-width="0.9901643964084406" fill="rgb(0,0,0)" stroke-linecap="butt" stroke-miterlimit="10.0"><path d="M 95.7447,288.5106 c 0.0000,-3.5252 -2.8578,-6.3830 -6.3830 -6.3830c -3.5252,-0.0000 -6.3830,2.8578 -6.3830 6.3830c -0.0000,3.5252 2.8578,6.3830 6.3830 6.3830c 3.5252,0.0000 6.3830,-2.8578 6.3830 -6.3830Z"/></g><g stroke-linejoin="miter" stroke-opacity="1.0" fill-opacity="1.0" stroke="rgb(0,0,0)" stroke-width="0.9901643964084406" fill="rgb(0,0,0)" stroke-linecap="butt" stroke-miterlimit="10.0"><path d="M 89.3617,282.1277 c 0.0000,-3.5252 -2.8578,-6.3830 -6.3830 -6.3830c -3.5252,-0.0000 -6.3830,2.8578 -6.3830 6.3830c -0.0000,3.5252 2.8578,6.3830 6.3830 6.3830c 3.5252,0.0000 6.3830,-2.8578 6.3830 -6.3830Z"/></g><g stroke-linejoin="miter" stroke-opacity="1.0" fill-opacity="1.0" stroke="rgb(0,0,0)" stroke-width="0.9901643964084406" fill="rgb(0,0,0)" stroke-linecap="butt" stroke-miterlimit="10.0"><path d="M 82.9787,273.1915 c 0.0000,-3.5252 -2.8578,-6.3830 -6.3830 -6.3830c -3.5252,-0.0000 -6.3830,2.8578 -6.3830 6.3830c -0.0000,3.5252 2.8578,6.3830 6.3830 6.3830c 3.5252,0.0000 6.3830,-2.8578 6.3830 -6.3830Z"/></g><g stroke-linejoin="miter" stroke-opacity="1.0" fill-opacity="1.0" stroke="rgb(0,0,0)" stroke-width="0.9901643964084406" fill="rgb(0,0,0)" stroke-linecap="butt" stroke-miterlimit="10.0"><path d="M 76.5957,261.7021 c 0.0000,-3.5252 -2.8578,-6.3830 -6.3830 -6.3830c -3.5252,-0.0000 -6.3830,2.8578 -6.3830 6.3830c -0.0000,3.5252 2.8578,6.3830 6.3830 6.3830c 3.5252,0.0000 6.3830,-2.8578 6.3830 -6.3830Z"/></g><g stroke-linejoin="miter" stroke-opacity="1.0" fill-opacity="1.0" stroke="rgb(0,0,0)" stroke-width="0.9901643964084406" fill="rgb(0,0,0)" stroke-linecap="butt" stroke-miterlimit="10.0"><path d="M 70.2128,247.6596 c 0.0000,-3.5252 -2.8578,-6.3830 -6.3830 -6.3830c -3.5252,-0.0000 -6.3830,2.8578 -6.3830 6.3830c -0.0000,3.5252 2.8578,6.3830 6.3830 6.3830c 3.5252,0.0000 6.3830,-2.8578 6.3830 -6.3830Z"/></g><g stroke-linejoin="miter" stroke-opacity="1.0" fill-opacity="1.0" stroke="rgb(0,0,0)" stroke-width="0.9901643964084406" fill="rgb(0,0,0)" stroke-linecap="butt" stroke-miterlimit="10.0"><path d="M 63.8298,231.0638 c 0.0000,-3.5252 -2.8578,-6.3830 -6.3830 -6.3830c -3.5252,-0.0000 -6.3830,2.8578 -6.3830 6.3830c -0.0000,3.5252 2.8578,6.3830 6.3830 6.3830c 3.5252,0.0000 6.3830,-2.8578 6.3830 -6.3830Z"/></g><g stroke-linejoin="miter" stroke-opacity="1.0" fill-opacity="1.0" stroke="rgb(0,0,0)" stroke-width="0.9901643964084406" fill="rgb(0,0,0)" stroke-linecap="butt" stroke-miterlimit="10.0"><path d="M 57.4468,211.9149 c 0.0000,-3.5252 -2.8578,-6.3830 -6.3830 -6.3830c -3.5252,-0.0000 -6.3830,2.8578 -6.3830 6.3830c -0.0000,3.5252 2.8578,6.3830 6.3830 6.3830c 3.5252,0.0000 6.3830,-2.8578 6.3830 -6.3830Z"/></g><g stroke-linejoin="miter" stroke-opacity="1.0" fill-opacity="1.0" stroke="rgb(0,0,0)" stroke-width="0.9901643964084406" fill="rgb(0,0,0)" stroke-linecap="butt" stroke-miterlimit="10.0"><path d="M 51.0638,190.2128 c 0.0000,-3.5252 -2.8578,-6.3830 -6.3830 -6.3830c -3.5252,-0.0000 -6.3830,2.8578 -6.3830 6.3830c -0.0000,3.5252 2.8578,6.3830 6.3830 6.3830c 3.5252,0.0000 6.3830,-2.8578 6.3830 -6.3830Z"/></g><g stroke-linejoin="miter" stroke-opacity="1.0" fill-opacity="1.0" stroke="rgb(0,0,0)" stroke-width="0.9901643964084406" fill="rgb(0,0,0)" stroke-linecap="butt" stroke-miterlimit="10.0"><path d="M 44.6809,165.9574 c 0.0000,-3.5252 -2.8578,-6.3830 -6.3830 -6.3830c -3.5252,-0.0000 -6.3830,2.8578 -6.3830 6.3830c -0.0000,3.5252 2.8578,6.3830 6.3830 6.3830c 3.5252,0.0000 6.3830,-2.8578 6.3830 -6.3830Z"/></g><g stroke-linejoin="miter" stroke-opacity="1.0" fill-opacity="1.0" stroke="rgb(0,0,0)" stroke-width="0.9901643964084406" fill="rgb(0,0,0)" stroke-linecap="butt" stroke-miterlimit="10.0"><path d="M 38.2979,139.1489 c 0.0000,-3.5252 -2.8578,-6.3830 -6.3830 -6.3830c -3.5252,-0.0000 -6.3830,2.8578 -6.3830 6.3830c -0.0000,3.5252 2.8578,6.3830 6.3830 6.3830c 3.5252,0.0000 6.3830,-2.8578 6.3830 -6.3830Z"/></g><g stroke-linejoin="miter" stroke-opacity="1.0" fill-opacity="1.0" stroke="rgb(0,0,0)" stroke-width="0.9901643964084406" fill="rgb(0,0,0)" stroke-linecap="butt" stroke-miterlimit="10.0"><path d="M 31.9149,109.7872 c 0.0000,-3.5252 -2.8578,-6.3830 -6.3830 -6.3830c -3.5252,-0.0000 -6.3830,2.8578 -6.3830 6.3830c -0.0000,3.5252 2.8578,6.3830 6.3830 6.3830c 3.5252,0.0000 6.3830,-2.8578 6.3830 -6.3830Z"/></g><g stroke-linejoin="miter" stroke-opacity="1.0" fill-opacity="1.0" stroke="rgb(0,0,0)" stroke-width="0.9901643964084406" fill="rgb(0,0,0)" stroke-linecap="butt" stroke-miterlimit="10.0"><path d="M 25.5319,77.8723 c 0.0000,-3.5252 -2.8578,-6.3830 -6.3830 -6.3830c -3.5252,-0.0000 -6.3830,2.8578 -6.3830 6.3830c -0.0000,3.5252 2.8578,6.3830 6.3830 6.3830c 3.5252,0.0000 6.3830,-2.8578 6.3830 -6.3830Z"/></g><g stroke-linejoin="miter" stroke-opacity="1.0" fill-opacity="1.0" stroke="rgb(0,0,0)" stroke-width="0.9901643964084406" fill="rgb(0,0,0)" stroke-linecap="butt" stroke-miterlimit="10.0"><path d="M 19.1489,43.4043 c 0.0000,-3.5252 -2.8578,-6.3830 -6.3830 -6.3830c -3.5252,-0.0000 -6.3830,2.8578 -6.3830 6.3830c -0.0000,3.5252 2.8578,6.3830 6.3830 6.3830c 3.5252,0.0000 6.3830,-2.8578 6.3830 -6.3830Z"/></g><g stroke-linejoin="miter" stroke-opacity="1.0" fill-opacity="1.0" stroke="rgb(0,0,0)" stroke-width="0.9901643964084406" fill="rgb(0,0,0)" stroke-linecap="butt" stroke-miterlimit="10.0"><path d="M 12.7660,6.3830 c 0.0000,-3.5252 -2.8578,-6.3830 -6.3830 -6.3830c -3.5252,-0.0000 -6.3830,2.8578 -6.3830 6.3830c -0.0000,3.5252 2.8578,6.3830 6.3830 6.3830c 3.5252,0.0000 6.3830,-2.8578 6.3830 -6.3830Z"/></g></svg>