<?xml version="1.0" encoding="UTF-8"?>
<!DOCTYPE svg PUBLIC "-//W3C//DTD SVG 1.1//EN"
    "http://www.w3.org/Graphics/SVG/1.1/DTD/svg11.dtd">
<svg xmlns="http://www.w3.org/2000/svg" xmlns:xlink="http://www.w3.org/1999/xlink" version="1.1" width="100.0" height="100.0" font-size="1" viewBox="0 0 100 100"><g><g transform="matrix(90.9090909090909,0.0,0.0,90.9090909090909,49.99999999999999,50.0)"><g stroke="rgb(0,0,0)" stroke-opacity="1.0" fill="rgb(0,0,0)" fill-opacity="0.0" stroke-width="1.0e-2" font-size="1.0em"><path d="M 0.5000000000000001,0.5 l -1.1102230246251565e-16,-1.0 h -1.0 l -1.1102230246251565e-16,1.0 h 1.0 Z" /></g></g><g transform="matrix(90.9090909090909,0.0,0.0,90.9090909090909,49.99999999999999,50.0)"><g stroke="rgb(0,0,0)" stroke-opacity="1.0" fill="rgb(255,0,0)" fill-opacity="1.0" stroke-width="0.0" font-size="1.0em"><path d="M 2.2000000000000002e-2,0.0 c 0.0,-1.2150264496277458e-2 -9.849735503722543e-3,-2.2000000000000002e-2 -2.2e-2 -2.2000000000000002e-2c -1.2150264496277458e-2,-7.439891262079958e-19 -2.2000000000000002e-2,9.849735503722541e-3 -2.2000000000000002e-2 2.1999999999999995e-2c -1.4879782524159916e-18,1.2150264496277458e-2 9.84973550372254e-3,2.2000000000000002e-2 2.1999999999999992e-2 2.2000000000000002e-2c 1.2150264496277458e-2,2.2319673786239874e-18 2.2000000000000002e-2,-9.84973550372254e-3 2.2000000000000006e-2 -2.1999999999999995e-2Z" /></g></g></g></svg>